<?xml version="1.0" encoding="UTF-8"?>
<svg id="Layer_2" data-name="Layer 2" xmlns="http://www.w3.org/2000/svg" xmlns:xlink="http://www.w3.org/1999/xlink" viewBox="0 0 225.69 99.45">
  <defs>
    <style>
      .cls-1 {
        fill: url(#linear-gradient-2);
      }

      .cls-2 {
        fill: url(#linear-gradient-6);
      }

      .cls-3 {
        fill: url(#linear-gradient-5);
      }

      .cls-4 {
        fill: url(#linear-gradient-3);
      }

      .cls-5 {
        fill: url(#linear-gradient);
      }

      .cls-6 {
        fill: url(#linear-gradient-4);
      }
    </style>
    <linearGradient id="linear-gradient" x1="6.64" y1="30.15" x2="28.08" y2="83.58" gradientUnits="userSpaceOnUse">
      <stop offset=".17" stop-color="#e23f36"/>
      <stop offset=".76" stop-color="#f89552"/>
    </linearGradient>
    <linearGradient id="linear-gradient-2" x1="31.35" y1="97.21" x2="74.55" y2="54.67" gradientUnits="userSpaceOnUse">
      <stop offset=".17" stop-color="#42315e"/>
      <stop offset=".76" stop-color="#81b5da"/>
    </linearGradient>
    <linearGradient id="linear-gradient-3" x1="38.35" y1="22.81" x2="71" y2="28.75" gradientUnits="userSpaceOnUse">
      <stop offset="0" stop-color="#f3ee6c"/>
      <stop offset=".57" stop-color="#648f4a"/>
    </linearGradient>
    <linearGradient id="linear-gradient-4" x1="70.79" y1="50.48" x2="87.05" y2="50.48" xlink:href="#linear-gradient"/>
    <linearGradient id="linear-gradient-5" x1="19.76" y1="77" x2="38.52" y2="77" xlink:href="#linear-gradient-3"/>
    <linearGradient id="linear-gradient-6" x1="20.36" y1="23.11" x2="39.15" y2="23.11" xlink:href="#linear-gradient-2"/>
  </defs>
  <g id="Layer_1-2" data-name="Layer 1">
    <g>
      <path class="cls-5" d="M1.75,22.54c.58-.01,1.03,.3,1.47,.6,11.37,7.81,22.75,15.6,34.1,23.44,2.86,1.97,2.79,5.08-.04,7.01-11.15,7.6-22.31,15.19-33.48,22.78-.99,.67-2.08,1.74-3.27,.59-1.21-1.18-.1-2.25,.56-3.25,4.35-6.53,8.72-13.05,13.07-19.58,2.07-3.11,2.08-5.01,.02-8.12-4.38-6.63-8.77-13.25-13.15-19.88-.3-.45-.62-.9-.82-1.39-.47-1.16,.3-2.22,1.53-2.19Z"/>
      <path class="cls-1" d="M38.84,96.57c.78-7.35,1.56-14.7,2.33-22.05,.64-6.04,1.28-12.07,1.91-18.11,.11-1.03,.26-2.05,.79-2.96,.94-1.61,2.9-2.17,4.78-1.23,7.41,3.73,14.8,7.49,22.19,11.26,4.94,2.52,9.87,5.06,14.81,7.59,.26,.13,.52,.27,.78,.42,.77,.46,1.09,1.14,.82,2-.28,.87-1,1.22-1.85,1.15-4.54-.38-9.09-.8-13.63-1.19-4.05-.35-8.11-.69-12.17-1.04-2.62-.22-4.4,.98-5.59,3.25-3.79,7.2-7.6,14.39-11.41,21.59-.21,.39-.4,.79-.64,1.16-.49,.75-1.1,1.31-2.08,.93-.91-.35-1.21-1.08-1.06-2.02,.04-.24,.05-.49,.08-.73-.02,0-.03,0-.05,0Z"/>
      <path class="cls-4" d="M40.7,5.81c0-1.23,0-2.45,0-3.68,0-.91,0-1.85,1.15-2.09,1.14-.24,1.71,.49,2.12,1.4,1.23,2.78,2.48,5.55,3.69,8.34,2.1,4.81,4.19,9.62,6.27,14.43,1.08,2.51,2.88,3.81,5.72,3.76,8.05-.15,16.11,.06,24.16-.32,.54-.03,1.08-.03,1.62,.02,.88,.08,1.68,.36,1.87,1.35,.2,1.04-.37,1.66-1.28,2.04-2.44,1.03-4.88,2.07-7.33,3.08-10.34,4.29-20.68,8.58-31.03,12.84-3.49,1.44-5.61-.01-5.78-3.75-.31-6.75-.32-13.51-.65-20.26-.27-5.73,0-11.46-.53-17.18Z"/>
      <g>
        <path d="M187.09,19.76c-.26,8.16-1.25,16.24-1.65,24.36-.06,1.18-.54,1.65-1.73,1.59-1.47-.07-2.95-.04-4.42-.01-.87,.01-1.22-.28-1.14-1.22,.63-7.37,1.23-14.74,1.82-22.11,.34-4.3,.67-8.6,.97-12.89,.14-1.94,.24-2.08,2.17-2.09,1.38,0,2.75,.05,4.13-.02,1.11-.05,1.68,.42,2.06,1.44,2.72,7.2,5.83,14.25,8.32,21.54,.09,.27,.23,.52,.46,1.04,.32-.85,.54-1.48,.78-2.09,2.7-6.84,5.41-13.68,8.08-20.53,.37-.95,.94-1.41,1.97-1.39,1.62,.03,3.24,.02,4.86,0,.98,0,1.38,.44,1.45,1.42,.68,8.94,1.39,17.87,2.1,26.81,.23,2.88,.46,5.76,.76,8.63,.12,1.13-.31,1.5-1.39,1.47-1.42-.05-2.85-.06-4.27,0-1.06,.05-1.52-.37-1.59-1.4-.23-3.32-.51-6.64-.74-9.96-.32-4.76-.84-9.51-1.01-14.31-2.12,5.92-4.79,11.59-7.09,17.42-.51,1.28-1.17,1.82-2.6,1.77-5.34-.19-3.97,.82-5.98-3.94-2.18-5.14-4.46-10.24-6.35-15.52Z"/>
        <path d="M136,42.83c-.37-.15-.55,.04-.74,.18-6.25,4.3-12.8,4.48-19.32,.91-6.46-3.54-9.3-9.38-9.65-16.61-.47-9.72,5.96-18.32,15.59-20.14,6.16-1.16,11.9,0,17.16,3.45,1.03,.68,1.29,1.32,.48,2.36-.78,1-1.45,2.1-2.13,3.18-.44,.7-.84,.76-1.54,.27-2.23-1.59-4.72-2.54-7.45-2.94-8.71-1.28-15.27,4.97-14.72,13.75,.36,5.79,3.98,11.31,10.61,12.28,3.93,.57,7.37-.61,10.45-2.99,.76-.59,1.17-3.76,.67-4.56-.25-.41-.65-.4-1.04-.4-1.13-.01-2.26-.03-3.39,0-.85,.02-1.3-.31-1.3-1.19,0-1.32,0-2.65,0-3.97,0-.8,.43-1.13,1.21-1.13,3.34,0,6.68,0,10.02,0,.88,0,1.21,.43,1.21,1.28-.01,5.93-.01,11.87,0,17.8,0,.93-.38,1.35-1.32,1.32-1.03-.03-2.06,0-3.09,0-1.71-.02-1.91-.25-1.78-2.01,.02-.28,.05-.56,.07-.82Z"/>
        <path d="M161.6,32.46c-3,0-5.99,.03-8.99-.01-.98-.01-1.24,.28-1.15,1.29,.66,6.99,7.69,11.1,14.37,8.34,1.09-.45,2.17-.95,3.08-1.7,.7-.57,1.13-.49,1.63,.29,1.28,1.99,1.28,2.11-.73,3.39-7.04,4.49-16.21,2.7-20.41-3.97-3.84-6.11-2.4-15.24,3.08-19.49,5.04-3.92,12.58-3.58,16.51,.79,2.51,2.79,3.17,6.21,3.14,9.84-.01,1.07-.64,1.26-1.55,1.26-3-.03-5.99-.01-8.99,0Zm-1.74-3.35c2.25,0,4.51,0,6.76,0,.05,0,.1,0,.15,0,1.09,.14,1.32-.37,1.2-1.38-.34-2.98-2.38-5.44-5.26-6.22-4.55-1.23-9.56,1.67-10.84,6.22-.3,1.08,.01,1.4,1.08,1.38,2.3-.04,4.6-.01,6.91-.01Z"/>
      </g>
      <path class="cls-6" d="M71.87,61.66c-.68-.1-.87-.48-.71-.97,.14-.41,.39-.79,.62-1.16,1.5-2.3,3-4.6,4.51-6.9,1.27-1.93,1.28-2.41-.05-4.37-1.62-2.4-3.27-4.77-4.9-7.17-.32-.47-.89-.97-.3-1.55,.56-.55,1.1-.04,1.57,.28,4.36,2.93,8.73,5.85,13.07,8.81,1.79,1.22,1.83,2.34,.1,3.55-4.3,3.02-8.64,5.98-12.97,8.95-.32,.22-.68,.37-.94,.52Z"/>
      <path class="cls-3" d="M20.1,80.73c0-3.96-.01-7.93,.01-11.89,0-.61-.1-1.45,.74-1.54,.74-.07,.79,.77,.99,1.28,1.06,2.74,2.16,5.47,3.09,8.26,.54,1.62,1.57,2.22,3.18,2.26,2.94,.07,5.88,.2,8.82,.32,.62,.02,1.45-.12,1.57,.71,.12,.83-.73,.93-1.3,1.14-4.86,1.73-9.71,3.45-14.58,5.14-2.11,.73-2.84,.2-2.86-2-.01-1.23,0-2.45,0-3.68,.11,0,.22,0,.33,0Z"/>
      <path class="cls-2" d="M20.37,29.14c.32-4.5,.19-9.02,.27-13.53,.04-2.04,.97-2.71,2.83-1.97,4.84,1.92,9.66,3.88,14.49,5.83,.52,.21,1.31,.33,1.18,1.09-.15,.88-1,.62-1.59,.63-2.9,.04-5.8,.07-8.7,.03-1.6-.02-2.56,.66-3.14,2.13-1.13,2.82-2.33,5.62-3.52,8.41-.22,.51-.39,1.26-1.17,1.07-.73-.18-.63-.9-.64-1.48-.02-.74,0-1.47,0-2.21Z"/>
      <g>
        <path d="M188.2,63.31c0,.78,.05,1.57-.02,2.35-.05,.56,.35,1.57-.55,1.53-.79-.03-.45-1.03-.48-1.61-.11-1.85,.17-3.72-.21-5.57-.38-1.86-2.02-2.6-3.66-1.59-1.39,.85-2.12,2.15-2.14,3.79-.02,1.37,0,2.74-.03,4.11,0,.42,.06,.99-.57,1-.62,.01-.61-.57-.62-.98-.04-1.86-.03-3.72-.05-5.58-.01-1.08-.21-2.08-1.37-2.52-1.16-.43-2.14,.04-2.97,.78-.95,.85-1.5,1.93-1.51,3.23-.01,1.32,0,2.64-.04,3.97-.01,.46,.07,1.11-.64,1.1-.6-.01-.57-.6-.56-1.02,.07-2.69,.17-5.38,.27-8.07,.01-.34,.06-.71,.49-.81,.44-.1,.62,.2,.71,.56,.21,.84,.6,.36,.92,.12,.72-.54,1.49-.95,2.39-1.05,.85-.1,1.84-.09,2.35,.58,.98,1.28,1.67,1.14,2.79,.12,1.08-.98,2.54-.99,3.88-.31,1.25,.63,1.58,1.8,1.61,3.08,.02,.93,0,1.86,0,2.79,0,0,0,0,0,0Z"/>
        <path d="M118.79,64.21c0,.83,.02,1.66,0,2.5,0,.29-.13,.59-.48,.65-.34,.06-.59-.11-.64-.44-.13-.91-.53-.51-.98-.26-3.33,1.87-6.81,1.31-9-1.43-2.21-2.75-2.19-7.13,.05-9.66,2.28-2.59,6.53-3.27,9.41-1.5,.35,.21,.94,.41,.64,.96-.3,.55-.78,.14-1.16-.02-4.06-1.7-7.49-.61-8.92,2.84-1.6,3.86,.54,8.03,4.52,8.72,1.87,.32,3.48-.37,4.87-1.56,.79-.68,.58-1.63,.45-2.48-.12-.83-.89-.57-1.43-.65-.34-.05-.77-.04-.74-.51,.03-.43,.45-.43,.79-.49,2.27-.35,2.66-.01,2.67,2.31,0,.34,0,.69,0,1.03-.02,0-.03,0-.05,0Z"/>
        <path d="M195.89,62.43c-.88,0-1.76,.02-2.65,0-1.27-.03-1.38,.6-1.01,1.6,.82,2.19,3.27,3.17,5.61,2.22,.23-.09,.43-.23,.65-.34,.3-.15,.65-.39,.9,.02,.28,.47-.12,.7-.43,.93-2.84,2.14-7.2,.52-8.12-3-.91-3.51,1.63-6.97,5.03-6.84,2.25,.08,4.06,1.97,4.08,4.21,0,.81-.34,1.18-1.13,1.17-.98,0-1.96,0-2.94,0v.02Zm-.6-1.01c.73,0,1.46,.02,2.2,0,1.17-.05,1.44-.52,.92-1.59-.98-2.03-4.05-2.15-5.54-.2-.34,.45-.86,.97-.55,1.55,.25,.47,.89,.21,1.36,.24,.53,.03,1.07,0,1.61,0Z"/>
        <path d="M147.9,62.42c-.88,0-1.77,.03-2.65,0-1.26-.06-1.39,.53-1.02,1.56,.82,2.28,3.44,3.26,5.85,2.18,.42-.19,.95-.93,1.34-.14,.32,.64-.44,.89-.87,1.13-2.1,1.18-4.81,.72-6.47-1.06-1.67-1.79-1.86-4.64-.44-6.81,1.22-1.86,3.47-2.67,5.52-2.01,.88,.28,1.57,.79,2.04,1.58,.57,.95,1.06,2.04,.58,3.06-.45,.96-1.58,.41-2.42,.51-.48,.06-.98,.01-1.47,.01Zm-.32-1.01c.73,0,1.47-.03,2.2,0,.96,.05,1.08-.43,.81-1.19-.41-1.17-1.19-1.85-2.47-1.95-1.56-.12-2.78,.4-3.57,1.78-.52,.92-.24,1.37,.83,1.35,.73-.02,1.47,0,2.2,0Z"/>
        <path d="M126.15,67.75c-2.94-.03-5.27-2.44-5.24-5.42,.02-3,2.49-5.38,5.51-5.31,2.88,.07,5.15,2.42,5.14,5.34,0,3.04-2.4,5.42-5.41,5.39Zm4.16-5.39c-.02-2.47-1.71-4.12-4.19-4.08-2.25,.04-4.02,1.9-3.99,4.19,.03,2.37,1.92,4.29,4.16,4.24,2.3-.05,4.03-1.92,4.01-4.35Z"/>
        <path d="M162.67,58.72c.85-.72,1.69-1.31,2.71-1.57,2.37-.6,4.26,.56,4.44,2.92,.16,2.09,.06,4.21,.06,6.32,0,.39-.02,.87-.53,.9-.63,.04-.65-.51-.66-.94-.03-1.91,0-3.82-.06-5.73-.07-2.24-1.49-3.16-3.58-2.33-1.55,.61-2.47,1.77-2.55,3.45-.07,1.47-.03,2.94-.08,4.41-.02,.46,.02,1.12-.69,1.07-.59-.04-.51-.64-.51-1.06,0-2.5,0-5,.03-7.5,0-.46-.11-1.12,.53-1.22,.85-.13,.58,.72,.9,1.27Z"/>
        <path d="M202.48,62.25c0-1.32,0-2.65,0-3.97,0-.34,0-.73,.42-.85,.41-.12,.68,.09,.76,.48,.2,.9,.61,.49,1.01,.18,.75-.59,1.6-.95,2.56-1.04,2.09-.2,3.44,.75,3.77,2.82,.34,2.19,.12,4.4,.12,6.61,0,.39-.08,.85-.62,.82-.52-.03-.57-.48-.58-.87-.02-1.77-.03-3.53-.03-5.3,0-1.21-.05-2.41-1.42-2.95-1.16-.46-2.93,.12-3.84,1.24-.81,1-1.08,2.18-1.1,3.44-.02,1.18,0,2.35-.02,3.53,0,.33,.01,.76-.44,.81-.58,.06-.57-.44-.58-.81-.02-1.37,0-2.75,0-4.12Z"/>
        <path d="M137.27,65.42c.73-1.86,1.41-3.58,2.09-5.3,.29-.73,.57-1.46,.88-2.18,.16-.39,.45-.72,.9-.48,.4,.21,.2,.61,.08,.91-1.1,2.77-2.2,5.54-3.31,8.31-.15,.37-.33,.73-.82,.72-.49-.01-.67-.39-.81-.74-1.09-2.77-2.17-5.55-3.24-8.34-.12-.3-.31-.72,.14-.88,.57-.21,.78,.28,.94,.68,.78,1.95,1.53,3.91,2.32,5.86,.18,.44,.22,.95,.83,1.44Z"/>
        <path d="M217.38,67.69c-1.6-.14-2.7-1.34-2.79-3.13-.07-1.41-.03-2.83-.03-4.25,0-.29-.1-.63,.01-.87,.53-1.15-1.86-1.13-.98-1.84,.8-.64,.97-1.18,.98-2.01,0-.37-.08-.9,.45-.94,.68-.05,.62,.56,.57,.95-.16,1.34,.39,1.91,1.73,1.77,.33-.03,.75,.06,.79,.49,.06,.55-.43,.66-.8,.63-1.66-.15-1.81,.84-1.72,2.12,.09,1.26,.06,2.54,.15,3.8,.08,1.13,.65,1.92,1.81,2.22,.35,.09,.88,.12,.75,.68-.12,.5-.6,.39-.93,.39Z"/>
        <path d="M155.87,58.69c.72-.61,1.3-1.33,2.26-1.37,.43-.02,.96-.11,1.07,.49,.09,.52-.37,.64-.75,.73-2.08,.5-2.52,2.17-2.7,3.92-.14,1.31-.04,2.64-.08,3.97-.02,.47,.01,1.13-.68,1.07-.68-.06-.53-.73-.53-1.19-.02-2.5-.02-5,0-7.5,0-.5-.19-1.22,.52-1.37,.89-.18,.62,.78,.9,1.25Z"/>
      </g>
      <g>
        <path d="M100.53,84.55c.04,2.61,1.71,3.68,3.64,3.68,1.38,0,2.21-.24,2.94-.55l.33,1.38c-.68,.31-1.84,.66-3.53,.66-3.27,0-5.22-2.15-5.22-5.35s1.89-5.72,4.98-5.72c3.46,0,4.38,3.05,4.38,5,0,.4-.04,.7-.07,.9h-7.45Zm5.66-1.38c.02-1.23-.5-3.14-2.67-3.14-1.95,0-2.81,1.8-2.96,3.14h5.63Z"/>
        <path d="M127.6,83.01c-.11-2.06-.24-4.54-.22-6.38h-.07c-.5,1.73-1.12,3.57-1.86,5.61l-2.61,7.17h-1.45l-2.39-7.04c-.7-2.08-1.29-3.99-1.71-5.74h-.04c-.04,1.84-.15,4.32-.29,6.53l-.39,6.34h-1.82l1.03-14.78h2.43l2.52,7.15c.61,1.82,1.12,3.44,1.49,4.98h.07c.37-1.49,.9-3.11,1.56-4.98l2.63-7.15h2.43l.92,14.78h-1.86l-.37-6.49Z"/>
        <path d="M138.72,89.5l-.15-1.34h-.07c-.59,.83-1.73,1.58-3.25,1.58-2.15,0-3.24-1.51-3.24-3.05,0-2.56,2.28-3.97,6.38-3.95v-.22c0-.88-.24-2.46-2.41-2.46-.99,0-2.02,.31-2.76,.79l-.44-1.27c.88-.57,2.15-.94,3.49-.94,3.24,0,4.03,2.21,4.03,4.34v3.97c0,.92,.04,1.82,.18,2.54h-1.75Zm-.29-5.41c-2.1-.04-4.49,.33-4.49,2.39,0,1.25,.83,1.84,1.82,1.84,1.38,0,2.26-.88,2.57-1.78,.07-.2,.11-.42,.11-.61v-1.84Z"/>
        <path d="M143.41,82.2c0-1.25-.02-2.32-.09-3.31h1.69l.07,2.08h.09c.48-1.42,1.64-2.32,2.94-2.32,.22,0,.37,.02,.55,.07v1.82c-.2-.04-.39-.07-.66-.07-1.36,0-2.32,1.03-2.59,2.48-.04,.26-.09,.57-.09,.9v5.66h-1.91v-7.3Z"/>
        <path d="M152.57,83.76h.04c.26-.37,.64-.83,.94-1.21l3.11-3.66h2.32l-4.1,4.36,4.67,6.25h-2.35l-3.66-5.09-.99,1.1v3.99h-1.91v-15.57h1.91v9.82Z"/>
        <path d="M162.02,84.55c.04,2.61,1.71,3.68,3.64,3.68,1.38,0,2.21-.24,2.94-.55l.33,1.38c-.68,.31-1.84,.66-3.53,.66-3.27,0-5.22-2.15-5.22-5.35s1.89-5.72,4.98-5.72c3.46,0,4.38,3.05,4.38,5,0,.4-.04,.7-.07,.9h-7.45Zm5.66-1.38c.02-1.23-.5-3.14-2.67-3.14-1.95,0-2.81,1.8-2.96,3.14h5.63Z"/>
        <path d="M174.26,75.85v3.05h2.76v1.47h-2.76v5.72c0,1.31,.37,2.06,1.45,2.06,.5,0,.88-.07,1.12-.13l.09,1.45c-.37,.15-.96,.26-1.71,.26-.9,0-1.62-.29-2.08-.81-.55-.57-.75-1.51-.75-2.76v-5.79h-1.64v-1.47h1.64v-2.54l1.89-.5Z"/>
        <path d="M179.19,82.36c0-1.36-.04-2.46-.09-3.46h1.73l.09,1.82h.04c.79-1.29,2.04-2.06,3.77-2.06,2.56,0,4.49,2.17,4.49,5.39,0,3.81-2.32,5.7-4.82,5.7-1.4,0-2.63-.61-3.27-1.67h-.04v5.77h-1.91v-11.49Zm1.91,2.83c0,.29,.04,.55,.09,.79,.35,1.34,1.51,2.26,2.89,2.26,2.04,0,3.22-1.67,3.22-4.1,0-2.13-1.12-3.95-3.16-3.95-1.32,0-2.54,.94-2.92,2.39-.07,.24-.13,.53-.13,.79v1.82Z"/>
        <path d="M191.67,73.94h1.93v15.57h-1.93v-15.57Z"/>
        <path d="M202.72,89.5l-.15-1.34h-.07c-.59,.83-1.73,1.58-3.25,1.58-2.15,0-3.24-1.51-3.24-3.05,0-2.56,2.28-3.97,6.38-3.95v-.22c0-.88-.24-2.46-2.41-2.46-.99,0-2.02,.31-2.76,.79l-.44-1.27c.88-.57,2.15-.94,3.49-.94,3.24,0,4.03,2.21,4.03,4.34v3.97c0,.92,.04,1.82,.18,2.54h-1.75Zm-.29-5.41c-2.1-.04-4.49,.33-4.49,2.39,0,1.25,.83,1.84,1.82,1.84,1.38,0,2.26-.88,2.57-1.78,.07-.2,.11-.42,.11-.61v-1.84Z"/>
        <path d="M214.97,89.11c-.5,.26-1.62,.61-3.05,.61-3.2,0-5.28-2.17-5.28-5.41s2.24-5.63,5.7-5.63c1.14,0,2.15,.29,2.67,.55l-.44,1.49c-.46-.26-1.18-.5-2.24-.5-2.43,0-3.75,1.8-3.75,4.01,0,2.45,1.58,3.97,3.68,3.97,1.1,0,1.82-.29,2.37-.53l.33,1.45Z"/>
        <path d="M218.17,84.55c.04,2.61,1.71,3.68,3.64,3.68,1.38,0,2.21-.24,2.94-.55l.33,1.38c-.68,.31-1.84,.66-3.53,.66-3.27,0-5.22-2.15-5.22-5.35s1.89-5.72,4.98-5.72c3.46,0,4.38,3.05,4.38,5,0,.4-.04,.7-.07,.9h-7.45Zm5.66-1.38c.02-1.23-.5-3.14-2.67-3.14-1.95,0-2.81,1.8-2.96,3.14h5.63Z"/>
      </g>
    </g>
  </g>
</svg>