<?xml version="1.0" encoding="UTF-8"?>
<svg id="Layer_2" data-name="Layer 2" xmlns="http://www.w3.org/2000/svg" xmlns:xlink="http://www.w3.org/1999/xlink" viewBox="0 0 117.96 99.04">
  <defs>
    <style>
      .cls-1 {
        fill: url(#linear-gradient-2);
      }

      .cls-2 {
        fill: #fff;
      }

      .cls-3 {
        fill: #111224;
      }

      .cls-4 {
        fill: #0051b1;
      }

      .cls-5 {
        fill: url(#linear-gradient);
      }
    </style>
    <linearGradient id="linear-gradient" x1="15.54" y1="49.52" x2="102.42" y2="49.52" gradientUnits="userSpaceOnUse">
      <stop offset="0" stop-color="#fff"/>
      <stop offset="1" stop-color="#cecccd"/>
    </linearGradient>
    <linearGradient id="linear-gradient-2" x1="82.03" y1="26.46" x2="6" y2="102.5" xlink:href="#linear-gradient"/>
  </defs>
  <g id="Layer_1-2" data-name="Layer 1">
    <g>
      <circle class="cls-4" cx="58.98" cy="49.52" r="49.52" transform="translate(-17.22 38.4) rotate(-31.72)"/>
      <circle class="cls-5" cx="58.98" cy="49.52" r="43.44"/>
      <path class="cls-1" d="M58.98,89.92c-22.28,0-40.4-18.12-40.4-40.4S36.7,9.12,58.98,9.12s40.4,18.12,40.4,40.4-18.12,40.4-40.4,40.4Z"/>
      <path class="cls-4" d="M1.24,38.7H116.71c.87,0,1.47,.87,1.16,1.69l-3.46,9.03c-.11,.3-.11,.62,.01,.92l3.39,8.29c.33,.82-.27,1.71-1.15,1.71H1.24c-.89,0-1.49-.9-1.15-1.72l3.6-8.62c.13-.31,.13-.65,0-.96L.1,40.42c-.34-.82,.26-1.72,1.15-1.72Z"/>
      <path class="cls-2" d="M1.24,59.12l3.57-8.66c.25-.6,.25-1.29,0-1.89l-3.6-8.62,115.49-.04-3.43,9.07c-.22,.59-.22,1.23,.02,1.81l3.39,8.29-.03,.04H1.24Z"/>
      <g>
        <path class="cls-3" d="M46.7,34.39h-3.03v-14.7h3.03v14.7Z"/>
        <path class="cls-3" d="M57.13,30.53c0-.26-.04-.49-.11-.69-.07-.21-.22-.4-.43-.57s-.5-.35-.88-.51-.86-.35-1.45-.53c-.67-.22-1.31-.46-1.9-.73-.6-.27-1.12-.59-1.56-.95s-.8-.79-1.06-1.27c-.26-.48-.39-1.04-.39-1.68s.13-1.17,.4-1.68c.27-.51,.64-.94,1.12-1.3,.48-.36,1.05-.63,1.72-.83,.66-.2,1.39-.3,2.19-.3s1.55,.11,2.22,.34c.67,.23,1.24,.54,1.71,.94,.47,.4,.83,.88,1.09,1.44,.26,.56,.38,1.16,.38,1.82h-3.03c0-.31-.05-.6-.15-.86-.1-.26-.25-.49-.45-.68-.2-.19-.45-.33-.76-.44-.3-.1-.66-.16-1.07-.16s-.74,.04-1.03,.13c-.29,.09-.54,.21-.73,.36-.19,.15-.34,.34-.43,.55-.1,.21-.15,.43-.15,.67,0,.48,.25,.89,.74,1.22,.49,.33,1.22,.63,2.18,.91,.8,.25,1.51,.52,2.12,.83,.61,.3,1.12,.65,1.52,1.03s.72,.81,.92,1.29c.21,.48,.31,1.02,.31,1.63,0,.65-.13,1.22-.38,1.73-.25,.5-.61,.93-1.08,1.28-.46,.35-1.02,.61-1.68,.8-.66,.19-1.39,.28-2.2,.28-.48,0-.97-.04-1.45-.13-.48-.08-.95-.21-1.39-.39s-.85-.39-1.23-.66c-.38-.26-.71-.57-.98-.93-.28-.36-.5-.76-.66-1.22-.16-.45-.24-.96-.24-1.51h3.04c0,.44,.07,.82,.21,1.13,.14,.31,.34,.56,.59,.75,.25,.19,.56,.33,.91,.42,.36,.09,.75,.13,1.19,.13,.39,0,.73-.04,1.02-.13s.53-.2,.72-.35,.33-.32,.42-.53c.09-.21,.14-.43,.14-.66Z"/>
        <path class="cls-3" d="M74.29,27.37c0,1.12-.15,2.13-.45,3.02-.3,.89-.73,1.65-1.28,2.27-.55,.62-1.21,1.1-1.97,1.43-.77,.33-1.61,.5-2.53,.5s-1.77-.17-2.53-.5c-.77-.33-1.43-.81-1.98-1.43-.56-.62-.99-1.37-1.3-2.27-.31-.89-.46-1.9-.46-3.02v-.65c0-1.12,.15-2.12,.46-3.02,.31-.89,.74-1.66,1.29-2.28,.55-.63,1.21-1.11,1.98-1.44,.77-.33,1.61-.5,2.53-.5s1.77,.17,2.53,.5c.77,.33,1.43,.81,1.98,1.44,.55,.63,.98,1.39,1.29,2.28,.31,.9,.46,1.9,.46,3.02v.65Zm-3.07-.67c0-1.54-.28-2.71-.83-3.51-.55-.8-1.34-1.2-2.36-1.2s-1.81,.4-2.36,1.2c-.55,.8-.83,1.97-.83,3.51v.67c0,.77,.07,1.45,.22,2.03,.14,.59,.35,1.08,.63,1.48,.27,.4,.61,.7,1,.91,.4,.21,.85,.31,1.36,.31,1.02,0,1.81-.4,2.35-1.21,.55-.81,.82-1.98,.82-3.52v-.67Z"/>
      </g>
      <g>
        <path class="cls-3" d="M45.94,69.06c-.02,.26-.08,.51-.18,.73s-.24,.41-.41,.57-.39,.28-.64,.37-.54,.13-.86,.13-.63-.06-.9-.17-.49-.28-.67-.5-.33-.48-.42-.79-.15-.65-.15-1.03v-.34c0-.38,.05-.73,.15-1.04s.25-.57,.43-.79,.41-.38,.68-.5,.56-.17,.89-.17,.61,.05,.86,.14,.46,.22,.63,.38,.31,.36,.41,.58,.16,.47,.19,.73h-1.07c-.01-.15-.04-.29-.08-.41s-.1-.22-.18-.3-.18-.14-.3-.18-.27-.06-.45-.06c-.36,0-.63,.13-.81,.39s-.27,.67-.27,1.22v.35c0,.27,.02,.5,.06,.71s.1,.37,.19,.51,.19,.24,.33,.3,.3,.1,.49,.1c.17,0,.31-.02,.44-.06s.22-.1,.31-.17,.15-.17,.19-.29,.07-.25,.09-.41h1.07Z"/>
        <path class="cls-3" d="M49.77,68.54h-2.05v1.39h2.41v.86h-3.48v-5.18h3.47v.87h-2.4v1.24h2.05v.84Z"/>
        <path class="cls-3" d="M52.67,68.89h-.85v1.9h-1.07v-5.18h1.93c.3,0,.57,.03,.8,.1s.44,.17,.6,.3,.29,.29,.38,.49,.13,.42,.13,.68c0,.19-.02,.36-.06,.51s-.1,.28-.19,.4-.18,.22-.29,.31-.24,.16-.38,.23l1.12,2.12v.05h-1.15l-.97-1.9Zm-.85-.87h.86c.14,0,.26-.02,.37-.06s.19-.09,.26-.16,.12-.15,.16-.24,.05-.2,.05-.32c0-.24-.07-.44-.21-.58s-.35-.21-.64-.21h-.86v1.56Z"/>
        <path class="cls-3" d="M59.13,66.47h-1.59v4.32h-1.07v-4.32h-1.57v-.87h4.22v.87Z"/>
        <path class="cls-3" d="M60.87,70.79h-1.07v-5.18h1.07v5.18Z"/>
        <path class="cls-3" d="M64.98,68.67h-2.05v2.12h-1.07v-5.18h3.38v.87h-2.31v1.34h2.05v.86Z"/>
        <path class="cls-3" d="M66.99,70.79h-1.07v-5.18h1.07v5.18Z"/>
        <path class="cls-3" d="M71.1,68.54h-2.05v1.39h2.41v.86h-3.48v-5.18h3.47v.87h-2.4v1.24h2.05v.84Z"/>
        <path class="cls-3" d="M72.09,70.79v-5.18h1.6c.35,0,.67,.06,.96,.18s.54,.29,.75,.51,.37,.48,.49,.78,.17,.64,.17,1.01v.24c0,.37-.06,.71-.17,1.01s-.28,.56-.49,.78-.46,.39-.75,.5-.61,.18-.97,.18h-1.58Zm1.07-4.32v3.46h.52c.42,0,.74-.14,.97-.42s.33-.68,.33-1.19v-.24c0-.53-.11-.93-.33-1.2s-.54-.41-.96-.41h-.53Z"/>
        <path class="cls-3" d="M46.05,77.81c-.02,.26-.08,.51-.18,.73s-.24,.41-.41,.57-.39,.28-.64,.37-.54,.13-.86,.13-.63-.06-.9-.17-.49-.28-.67-.5-.33-.48-.42-.79-.15-.65-.15-1.03v-.34c0-.38,.05-.73,.15-1.04s.25-.57,.43-.79,.41-.38,.68-.5,.56-.17,.89-.17,.61,.05,.86,.14,.46,.22,.63,.38,.31,.36,.41,.58,.16,.47,.19,.73h-1.07c-.01-.15-.04-.29-.08-.41s-.1-.22-.18-.3-.18-.14-.3-.18-.27-.06-.45-.06c-.36,0-.63,.13-.81,.39s-.27,.67-.27,1.22v.35c0,.27,.02,.5,.06,.71s.1,.37,.19,.51,.19,.24,.33,.3,.3,.1,.49,.1c.17,0,.31-.02,.44-.06s.22-.1,.31-.17,.15-.17,.19-.29,.07-.25,.09-.41h1.07Z"/>
        <path class="cls-3" d="M51.02,77.07c0,.4-.05,.75-.16,1.07s-.26,.58-.45,.8-.43,.39-.7,.5-.57,.18-.89,.18-.62-.06-.89-.18-.5-.29-.7-.5-.35-.48-.46-.8-.16-.67-.16-1.07v-.23c0-.39,.05-.75,.16-1.06s.26-.58,.45-.8,.43-.39,.7-.51,.57-.18,.89-.18,.62,.06,.89,.18,.5,.29,.7,.51,.35,.49,.45,.8,.16,.67,.16,1.06v.23Zm-1.08-.24c0-.54-.1-.96-.29-1.24s-.47-.42-.83-.42-.64,.14-.83,.42-.29,.7-.29,1.24v.24c0,.27,.03,.51,.08,.72s.12,.38,.22,.52,.21,.25,.35,.32,.3,.11,.48,.11c.36,0,.64-.14,.83-.43s.29-.7,.29-1.24v-.24Z"/>
        <path class="cls-3" d="M53.19,74.36l1.33,3.76,1.32-3.76h1.4v5.18h-1.07v-1.42l.11-2.45-1.4,3.86h-.73l-1.4-3.86,.11,2.44v1.42h-1.07v-5.18h1.4Z"/>
        <path class="cls-3" d="M59.25,77.71v1.83h-1.07v-5.18h2.02c.31,0,.58,.04,.82,.13s.45,.2,.61,.36,.29,.33,.38,.54,.13,.44,.13,.69-.04,.48-.13,.68-.22,.37-.38,.52-.37,.25-.61,.33-.51,.12-.82,.12h-.95Zm0-.87h.95c.15,0,.28-.02,.39-.06s.2-.09,.27-.16,.12-.15,.15-.24,.05-.2,.05-.31-.02-.22-.05-.32-.08-.19-.15-.27-.16-.14-.27-.19-.24-.07-.39-.07h-.95v1.63Z"/>
        <path class="cls-3" d="M65.18,78.47h-1.87l-.36,1.07h-1.14l1.93-5.18h.99l1.94,5.18h-1.14l-.36-1.07Zm-1.58-.87h1.3l-.65-1.94-.64,1.94Z"/>
        <path class="cls-3" d="M71.37,79.54h-1.07l-2.08-3.41v3.41h-1.07v-5.18h1.07l2.08,3.42v-3.42h1.06v5.18Z"/>
        <path class="cls-3" d="M73.99,76.69l1.08-2.34h1.17l-1.7,3.3v1.88h-1.09v-1.88l-1.7-3.3h1.17l1.07,2.34Z"/>
      </g>
      <g>
        <path class="cls-4" d="M19.7,53.73c.62,0,1.15-.07,1.61-.2,.45-.13,.84-.32,1.15-.58,.31-.25,.55-.56,.72-.93s.28-.8,.32-1.28c-.29,.29-.63,.51-1.01,.68-.38,.17-.78,.25-1.22,.25-.58,0-1.09-.11-1.54-.32-.45-.21-.82-.5-1.12-.87-.3-.37-.53-.8-.69-1.3s-.23-1.05-.23-1.64,.1-1.15,.29-1.68c.19-.52,.47-.98,.82-1.38,.36-.39,.79-.7,1.3-.93,.51-.23,1.08-.35,1.7-.35s1.2,.12,1.71,.36c.51,.24,.95,.58,1.31,1.02,.36,.44,.64,.96,.83,1.58,.2,.61,.29,1.29,.29,2.04v.85c0,1-.13,1.92-.39,2.74-.26,.82-.65,1.53-1.17,2.11-.52,.59-1.17,1.04-1.95,1.36s-1.69,.48-2.74,.48h-.19v-2.03h.17Zm2.18-3.91c.39,0,.73-.1,1.01-.3,.28-.2,.5-.45,.64-.73v-1c0-.44-.04-.82-.13-1.14-.09-.33-.21-.6-.37-.81-.16-.22-.34-.38-.55-.48-.21-.11-.44-.16-.69-.16-.27,0-.51,.07-.72,.2-.21,.13-.38,.31-.53,.53-.14,.22-.25,.47-.32,.75-.07,.28-.11,.57-.11,.88s.04,.61,.11,.88c.07,.27,.18,.52,.32,.73,.14,.21,.32,.38,.54,.5,.22,.12,.48,.18,.77,.18Z"/>
        <path class="cls-4" d="M35.95,50.58c0,.92-.1,1.71-.3,2.37-.2,.66-.48,1.2-.84,1.63-.36,.43-.8,.74-1.3,.94-.51,.2-1.07,.3-1.69,.3s-1.18-.1-1.69-.3c-.51-.2-.94-.51-1.31-.94-.36-.43-.65-.97-.85-1.63-.2-.66-.3-1.45-.3-2.37v-2.13c0-.92,.1-1.71,.3-2.37,.2-.66,.48-1.2,.85-1.62,.36-.42,.8-.73,1.3-.93,.51-.2,1.07-.3,1.68-.3s1.18,.1,1.69,.3c.51,.2,.94,.51,1.31,.93,.37,.42,.65,.97,.85,1.62,.2,.66,.3,1.45,.3,2.37v2.13Zm-2.43-2.47c0-.54-.04-1-.11-1.37-.08-.37-.19-.67-.34-.9s-.33-.39-.54-.49c-.21-.1-.45-.15-.72-.15s-.51,.05-.72,.15c-.21,.1-.39,.26-.53,.49s-.26,.53-.33,.9c-.08,.37-.11,.83-.11,1.37v2.79c0,.55,.04,1.01,.12,1.39,.08,.38,.19,.68,.34,.91,.15,.23,.33,.4,.54,.5,.21,.1,.45,.15,.72,.15s.51-.05,.72-.15,.39-.27,.53-.5c.14-.23,.25-.54,.33-.91,.08-.38,.11-.84,.11-1.39v-2.79Z"/>
        <path class="cls-4" d="M45.84,50.58c0,.92-.1,1.71-.3,2.37-.2,.66-.48,1.2-.84,1.63-.36,.43-.8,.74-1.3,.94-.51,.2-1.07,.3-1.69,.3s-1.18-.1-1.69-.3-.94-.51-1.31-.94c-.37-.43-.65-.97-.85-1.63-.2-.66-.3-1.45-.3-2.37v-2.13c0-.92,.1-1.71,.3-2.37,.2-.66,.48-1.2,.85-1.62,.37-.42,.8-.73,1.3-.93,.5-.2,1.07-.3,1.68-.3s1.18,.1,1.69,.3c.51,.2,.94,.51,1.31,.93,.36,.42,.65,.97,.85,1.62,.2,.66,.3,1.45,.3,2.37v2.13Zm-2.43-2.47c0-.54-.04-1-.11-1.37-.08-.37-.19-.67-.34-.9-.15-.23-.33-.39-.54-.49s-.45-.15-.72-.15-.51,.05-.72,.15-.39,.26-.53,.49c-.15,.23-.26,.53-.33,.9-.08,.37-.11,.83-.11,1.37v2.79c0,.55,.04,1.01,.12,1.39,.08,.38,.19,.68,.34,.91,.15,.23,.33,.4,.54,.5s.45,.15,.72,.15,.51-.05,.72-.15c.21-.1,.39-.27,.53-.5,.14-.23,.25-.54,.33-.91,.08-.38,.11-.84,.11-1.39v-2.79Z"/>
        <path class="cls-4" d="M53.38,55.64h-2.43v-9.37l-2.9,.9v-1.98l5.07-1.82h.26v12.27Z"/>
        <path class="cls-4" d="M56.37,46.34c0-.19,.03-.36,.1-.52,.06-.16,.16-.3,.28-.41s.27-.21,.43-.27c.17-.07,.36-.1,.56-.1s.4,.03,.57,.1,.32,.16,.44,.27,.21,.25,.28,.41c.06,.16,.1,.33,.1,.52s-.03,.36-.1,.51c-.06,.16-.16,.29-.28,.41-.12,.11-.27,.2-.44,.27-.17,.06-.36,.1-.57,.1s-.4-.03-.56-.1c-.17-.06-.31-.15-.43-.27-.12-.12-.21-.25-.28-.41-.06-.16-.1-.33-.1-.51Zm0,6.89c0-.19,.03-.36,.1-.52,.06-.16,.16-.3,.28-.41,.12-.11,.27-.21,.43-.27,.17-.07,.36-.1,.56-.1s.4,.03,.57,.1c.17,.07,.32,.16,.44,.27,.12,.12,.21,.25,.28,.41,.06,.16,.1,.33,.1,.52s-.03,.36-.1,.51c-.06,.16-.16,.29-.28,.41s-.27,.2-.44,.27c-.17,.06-.36,.1-.57,.1s-.4-.03-.56-.1c-.17-.06-.31-.15-.43-.27s-.21-.25-.28-.41c-.06-.16-.1-.33-.1-.51Z"/>
        <path class="cls-4" d="M70.62,55.64h-8.4v-1.67l3.96-4.22c.3-.33,.55-.62,.75-.89,.2-.27,.37-.52,.5-.74s.22-.43,.27-.63c.05-.19,.08-.38,.08-.56,0-.54-.14-.97-.41-1.28-.28-.31-.67-.47-1.18-.47-.29,0-.54,.05-.76,.16s-.41,.25-.56,.43c-.15,.18-.26,.4-.34,.65-.08,.25-.12,.53-.12,.82h-2.44c0-.55,.1-1.07,.29-1.56,.2-.49,.48-.91,.85-1.28,.37-.36,.82-.65,1.34-.87,.52-.21,1.11-.32,1.77-.32s1.22,.08,1.71,.24c.5,.16,.91,.39,1.25,.69s.59,.66,.77,1.09,.26,.92,.26,1.46c0,.41-.06,.81-.19,1.19-.13,.38-.31,.76-.55,1.14-.24,.38-.52,.77-.85,1.16-.33,.39-.71,.8-1.11,1.22l-2.16,2.28h5.27v1.96Z"/>
        <path class="cls-4" d="M80.36,50.58c0,.92-.1,1.71-.3,2.37-.2,.66-.48,1.2-.84,1.63-.36,.43-.8,.74-1.3,.94-.51,.2-1.07,.3-1.69,.3s-1.18-.1-1.69-.3c-.51-.2-.94-.51-1.31-.94-.36-.43-.65-.97-.85-1.63-.2-.66-.3-1.45-.3-2.37v-2.13c0-.92,.1-1.71,.3-2.37,.2-.66,.48-1.2,.85-1.62,.36-.42,.8-.73,1.3-.93,.51-.2,1.07-.3,1.68-.3s1.18,.1,1.69,.3c.51,.2,.94,.51,1.31,.93,.37,.42,.65,.97,.85,1.62,.2,.66,.3,1.45,.3,2.37v2.13Zm-2.43-2.47c0-.54-.04-1-.11-1.37-.08-.37-.19-.67-.34-.9s-.33-.39-.54-.49c-.21-.1-.45-.15-.72-.15s-.51,.05-.72,.15c-.21,.1-.39,.26-.53,.49s-.26,.53-.33,.9c-.08,.37-.11,.83-.11,1.37v2.79c0,.55,.04,1.01,.12,1.39,.08,.38,.19,.68,.34,.91,.15,.23,.33,.4,.54,.5,.21,.1,.45,.15,.72,.15s.51-.05,.72-.15,.39-.27,.53-.5c.14-.23,.25-.54,.33-.91,.08-.38,.11-.84,.11-1.39v-2.79Z"/>
        <path class="cls-4" d="M87.91,55.64h-2.43v-9.37l-2.9,.9v-1.98l5.07-1.82h.26v12.27Z"/>
        <path class="cls-4" d="M92.25,49.62l.71-6.23h6.87v2.03h-4.87l-.3,2.63c.08-.05,.19-.09,.31-.15s.26-.1,.42-.15c.16-.05,.33-.09,.52-.12,.19-.03,.38-.05,.58-.05,.59,0,1.11,.09,1.58,.28s.85,.46,1.17,.81c.32,.35,.56,.79,.73,1.3,.17,.51,.25,1.09,.25,1.73,0,.54-.08,1.06-.25,1.56-.17,.49-.42,.93-.77,1.3-.34,.38-.77,.68-1.29,.9s-1.13,.34-1.83,.34c-.53,0-1.04-.08-1.53-.24-.49-.16-.93-.39-1.31-.7-.38-.31-.69-.68-.93-1.12-.24-.44-.36-.95-.38-1.51h2.41c.05,.51,.23,.91,.53,1.19,.31,.28,.71,.42,1.2,.42,.31,0,.57-.06,.79-.18,.22-.12,.39-.28,.53-.48,.14-.2,.24-.44,.3-.72,.06-.28,.1-.58,.1-.9s-.04-.61-.12-.88c-.08-.27-.2-.49-.36-.68s-.37-.33-.61-.44-.54-.16-.87-.16c-.22,0-.42,.02-.59,.06-.16,.04-.31,.09-.44,.15-.13,.06-.24,.13-.34,.21s-.19,.16-.27,.25l-1.93-.48Z"/>
      </g>
    </g>
  </g>
</svg>