<svg id="Layer_1" data-name="Layer 1" xmlns="http://www.w3.org/2000/svg" viewBox="0 0 1106 340"><defs><style>.cls-1{fill:grey; width:200px;}</style></defs><path class="cls-1" d="M1079.35,53.75c-3.75-5-7.5-8.75-26.25-10-5,0-20-1.25-46.25-1.25-68.75,0-116.25,21.25-140,62.5C873.1,63.75,833.1,42.5,745.6,42.5c-102.5,0-167.5,41.25-193.75,125-10,31.25-10,56.25-2.5,76.25H524.66c-18.73,1.25-43.7,2.5-59.93,2.5-37.45,0-61.17-6.24-69.91-18.73-7.49-11.23-7.49-32.46,2.5-63.67,16.23-51.19,54.93-73.66,117.35-73.66a607.81,607.81,0,0,1,63.67,3.75h0c3.75,0,6.24-5,6.24-8.74l-1.24-3.75L580.84,64c-1.25-11.24-10-17.48-25-20-13.73-1.25-25-1.25-40-1.25h-1.24c-81.17,0-138.61,27.47-169.83,79.92C356.09,69,318.63,42.75,232.46,42.75c-48.7,0-83.66,1.25-103.64,3.75-16.24,2.5-26.23,8.74-30,20L91.35,89C90.11,92.7,92.6,95.2,97.6,95.2h0c3.74,0,18.73-2.5,43.7-3.75C175,89,198.75,87.71,215,87.71c47.45,0,68.68,12.48,61.19,36.21-1.25,5-5,8.74-11.24,10-45,7.49-81.17,12.49-107.39,16.23-74.93,10-118.63,32.47-129.87,69.94-16.24,51.19,23.72,76.17,119.88,76.17,47.45,0,88.66-2.5,121.13-8.74,18.73-3.75,28.72-7.49,32.47-20l17.48-57.44c-1.25,57.44,37.46,86.16,119.88,86.16,35,0,68.68-1.25,84.91-3.75s25-6.24,28.73-18.73l3.74-17.48c17.48,27.47,56.2,41.21,114.89,41.21,62.44,0,98.65-1.25,108.64-5,8.74-2.49,13.74-7.49,16.23-13.73A4.59,4.59,0,0,1,796.9,275l7.49-23.73c1.25-3.74-1.24-6.24-6.24-6.24l-40,2.5c-26.22,1.25-47.45,2.5-62.44,2.5-28.72,0-47.45-2.5-58.69-6.25-16.23-6.24-23.73-17.48-22.48-36.21l126.13-16.24c56.19-7.49,94.9-25,113.63-52.44L810.64,285a5.48,5.48,0,0,0,1.25,6.24c1.25,1.25,3.74,2.5,8.74,2.5h52.3c8.75,0,12.5-5,13.75-8.75l46.25-161.25c6.25-21.25,25-31.25,60-31.25,31.25,0,53.75,0,68.75,1.25h1.42c2.5,0,7.5-1.25,11.25-7.5l7.5-22.5c0-3.75,0-7.5-2.5-10ZM237.48,246c-16.23,2.5-40,3.74-69.93,3.74-53.69,0-76.16-11.23-69.92-32.46,5-15,18.73-25,41.21-27.47L260,173.6,237.48,246ZM795.62,116.16q-7.5,24.35-71.17,33.71L623.31,163.61l2.49-8.74c8.74-27.47,20-44.95,35-54.94s40-15,74.92-15c46.2,1.25,66.18,11.24,59.94,31.22Z"/></svg>