<svg id="Layer_1" data-name="Layer 1" xmlns="http://www.w3.org/2000/svg" viewBox="0 0 1106 340"><defs><style>.cls-1{fill:grey;}</style></defs><path class="cls-1" d="M808,280.25V236.2l-1-.27c-1.43,3.26-2.73,6.57-4.32,9.75-11.26,22.55-29.78,34.57-54.72,34.9-44.6.59-89.22.37-133.82.09-26.36-.18-49.57-18.2-57.26-43.47-.38-1.26-1-2.45-1.78-4.51-7.6,24.42-22.7,40.08-46.87,46.14a63.32,63.32,0,0,1-15.08,1.84q-132.43.16-264.87.08h-5.2V130c30.33,1.93,60.26,3.79,90.18,5.74,24.89,1.62,49.76,3.4,74.64,5,37.33,2.4,74.71,4.13,112,7.24,24.16,2,41.68,14.95,51.85,37.26a7,7,0,0,0,2.52,3.35V123.25l62.09,3.15c0,6,0,11.43,0,16.87,0,18.69-.12,37.38-.14,56.08,0,16.18,6.23,22.48,22.63,22.5,24.34,0,48.69-.14,73-.19,5.29,0,10.59.34,15.87.19,12-.33,19.16-7.58,19.22-19.73.1-20.11,0-40.21,0-60.32v-8.6l61.66,3.14v82.54h203c1.16,0,2.32,0,3.47,0,7.15-.35,11.1-4.09,11.14-10.53,0-5.93-3.89-10.1-10.47-10.56-15-1-30-1.84-44.94-2.82-34.55-2.27-69.24-3.36-103.59-7.31-25.65-2.95-44.75-17.43-54.57-42.32A37.4,37.4,0,0,1,811,140a19.37,19.37,0,0,1,0-3.52l42.14,2.05Q903,141,952.79,143.5c25.81,1.31,51.71,1.83,77.42,4.32,27.29,2.65,49.93,27.34,52.36,54.73,2,22.5-1.41,43.32-18.46,60-11.75,11.51-25.92,18-42.21,18.08-70.49.29-141,.11-211.48.09A15.13,15.13,0,0,1,808,280.25ZM286.76,218.88H485.48c1.39,0,2.78,0,4.16-.1,6.46-.56,10.52-4.67,10.46-10.54s-4.34-10.13-10.6-10.52c-45.85-2.85-91.7-5.53-137.53-8.54-22.69-1.49-42-10.15-55.87-28.84-3.46-4.67-6-10.06-9.34-15.89Z"/><path class="cls-1" d="M128.33,120.44c13.08-20,25.51-39.11,38.19-58.08a7.78,7.78,0,0,1,5.61-2.87c37.43-.12,74.86,0,112.29,0a7.18,7.18,0,0,1,1.79.68v41.27c5.21-7.67,9.51-15.5,15.22-22.11,11.63-13.49,27.11-20.09,44.71-20.16,65.39-.28,130.78-.09,196.16-.07a14,14,0,0,1,1.87.33v61Z"/><path class="cls-1" d="M747.18,120.41V59.91h61v55c3.89-14.05,8.88-27.25,19.74-37.65,12.09-11.58,26.43-18,43-18,69.09-.28,138.19-.12,207.29-.1,1.34,0,2.67.19,4.35.33v61Z"/><path class="cls-1" d="M196.78,128.4c-13.39,20.94-26.13,40.91-38.9,60.86-18.15,28.36-36.38,56.66-54.42,85.07-2.79,4.4-5.69,6.71-11.46,6.59-22.61-.43-45.24-.17-69.08-.17,3.75-6,7-11.33,10.44-16.57,29-44.11,58.17-88.13,87-132.34,3.81-5.85,7.7-7.83,15-7.14C155.36,126.59,175.45,127.21,196.78,128.4Z"/><path class="cls-1" d="M554.65,59.82H616v60.69H554.65Z"/></svg>