<svg id="Layer_1" data-name="Layer 1" xmlns="http://www.w3.org/2000/svg" viewBox="0 0 1106 709"><defs><style>.cls-1{fill:grey;}</style></defs><path class="cls-1" d="M886.81,354.75c-2,186.45-147.92,333.22-333.7,333.37-186.54.14-334.11-149.59-333.92-334,.19-184.18,150.12-333.67,334.39-333.23S885.21,169.1,886.81,354.75Zm-334,300.74c167.08.18,303.78-136.38,301-306.35C851.13,186.59,717.7,50.79,547.23,53.56,385.07,56.19,247.9,189.92,251.93,362.29,255.69,523.33,387.28,655.38,552.77,655.49Z"/><path class="cls-1" d="M446.26,336.14c5.93-4.45,11.38-8.44,16.73-12.55Q488.7,303.85,514.33,284c4.12-3.17,8.33-6.24,12.32-9.56,1.86-1.55,3.15-1.81,5.13-.14,6.39,5.38,13,10.57,20,16.25l-79.34,60.09C475,352.59,477,354,479,355.56c3.19,2.64,6.35,5.31,9.37,8.14,1.9,1.78,3.43,1.89,5.53.22q20.22-16,40.58-31.89c11-8.64,22-17.3,33.13-25.84.85-.66,2.8-1.13,3.43-.65,6.92,5.36,13.68,10.93,21,16.82-2.77,2.38-4.9,4.36-7.18,6.15q-33.84,26.55-67.73,53c-3.5,2.74-3.53,2.84-.06,5.81,3.74,3.21,7.61,6.31,11.08,9.8,2.61,2.63,4.52,2.26,7.13.09C546,388.2,557,379.29,568,370.37c13.25-10.76,26.48-21.55,39.86-32.15,2.52-2,3.25-4.14,3.23-7.17-.11-15.21,0-30.43-.13-45.64,0-3.59.95-5,4.73-4.81q11.61.4,23.22,0c3.73-.13,4.78,1.15,4.76,4.78-.1,35.37-.06,70.73-.06,106.1,0,6.2,0,6.18,6.06,6.18,17.09,0,34.17.1,51.25-.07,3.58,0,4.65,1.15,4.54,4.59-.2,6.67-.13,13.35,0,20,.06,2.94-1.1,4-4,4q-42-.1-84.08,0c-3.27,0-4.07-1.31-4-4.3.1-14.81.07-29.63,0-44.44,0-1.81-.22-3.61-.42-6.49-2.22,1.4-3.78,2.21-5.15,3.26q-37.6,28.88-75.12,57.87c-2.49,1.92-4.16,1.84-6.57,0q-30.18-23.43-60.51-46.66c-5.28-4.07-10.62-8.08-15.85-12.21-2.48-2-4-2.21-5,1.44-4.84,18.91-16.39,32.63-33.09,42.28a67.53,67.53,0,0,1-32.8,9.1c-19.08.37-38.17.05-57.25.2-3.55,0-4.54-1.13-4.53-4.6q.15-68.27,0-136.53c0-3.16.74-4.5,4.22-4.47,18.42.16,36.83-.08,55.25.12,32,.35,57.91,21,67.47,49.84C444.62,332.26,445.37,333.9,446.26,336.14Zm-98.37,18.42c0,13.74.08,27.47-.06,41.2,0,3.11.91,4.29,4.07,4.22,7.46-.16,14.93.1,22.39-.13,14.74-.46,25.74-7.31,33.54-19.79,5.83-9.32,7.67-19.41,7.1-30.2-1-18.57-15.44-36.65-33.3-39.62-9.63-1.6-19.65-.8-29.49-1.24-3.32-.15-4.35,1.08-4.32,4.37C348,327.1,347.89,340.83,347.89,354.56Z"/><path class="cls-1" d="M719.74,353.16q0-33.63,0-67.26c0-5.24,0-5.25,5.39-5.26,7.6,0,15.22.21,22.81-.05,3.67-.13,4.45,1.22,4.44,4.62-.11,35.36-.07,70.73-.07,106.1,0,6.33,0,6.34,6.35,6.34,16,0,32,.16,48-.09,4.2-.06,5.25,1.28,5.07,5.23-.29,6.53-.15,13.08,0,19.62.05,2.76-1,3.76-3.73,3.76q-42.24-.1-84.48,0c-3.88,0-3.84-2.21-3.83-4.93Q719.76,387.2,719.74,353.16Z"/></svg>