<svg id="Layer_1" data-name="Layer 1" xmlns="http://www.w3.org/2000/svg" viewBox="0 0 1106 738"><defs><style>.cls-1{fill:grey;}</style></defs><g id="g3017"><g id="g3061"><g id="g3021"><path id="path3023" class="cls-1" d="M911.13,368.83c0-185.8-150.61-336.41-336.41-336.41-5.07,0-10.11.13-15.12.36L490.78,221.91h59.94c35.62,0,54.82,27.42,42.63,60.92l-84.8,233-71.25,0,90.95-249.63H474.79L383.58,516.61H312.26l107.27-294.7h-.09L483.91,44.73C342.15,84.39,238.17,214.51,238.17,368.92c0,159,110.25,292.24,258.47,327.48l62.47-171.67h0l110.2-302.82H800.49c35.66,0,54.84,27.43,42.65,60.92L768.63,487.52c-5.68,15.59-23.89,28.35-40.48,28.35H633.47l-68.74,189c3.31.09,6.65.15,10,.15,185.8,0,336.41-150.62,336.41-336.41"/></g><g id="g3025"><path id="path3027" class="cls-1" d="M778.25,266.22H724.73L649.62,472.29h53.63l75.1-206.07"/></g></g></g></svg>