<svg id="Layer_1" data-name="Layer 1" xmlns="http://www.w3.org/2000/svg" viewBox="0 0 1106 340"><defs><style>.cls-1{fill:grey;}</style></defs><path class="cls-1" d="M201.73,66.27c6.15,2,12.63,2,18.91,3.22,31.12,6.12,57.47,20.13,77,45.71,5,6.6,5,6.61-2,10.67q-35.39,20.44-70.77,40.9c-1.35.77-2.56,2.14-4.75,1.72,1.73-2.79,3.34-5.43,5-8.06,12-19.26,24-38.55,36.13-57.73,1.76-2.79,1.39-4-1.41-5.56C209.43,68.07,143.15,101.25,136.34,159c-5.36,45.51,23.32,85.35,68.33,93.31,31.05,5.5,57.21-4.75,78.14-28.3,1.37-1.53,2.61-3.18,3.92-4.77.08-.1.24-.12.65-.31,1.55,3.18,2.06,6.66,2.95,10,.54,2-1.08,3-2.12,4.18-12.95,14.74-29.24,24.45-47.43,31.22a155.66,155.66,0,0,1-34.84,8.35c-.9.11-2-.22-2.56.88h-38c-4.68-1-9.5-.67-14.18-1.4-24.49-3.83-46-13.92-64.32-30.74a101,101,0,0,1-25.33-36.65c-2.83-6.9-3.22-14.15-4-21.37a2.43,2.43,0,0,0-.42-1.53V158.78c.88-2.85.69-5.82,1-8.75,1.45-14.88,8.62-27.29,17.44-38.78,18.79-24.47,44.72-37,74.24-43.1,6.44-1.32,13.21-.79,19.75-1.88h9.92a8.71,8.71,0,0,0,5.79,0h2.48a14.62,14.62,0,0,0,7.43,0Z"/><path class="cls-1" d="M1048.91,268.65q-20.64.14-41.28.26c-5.37,0-10.74-.09-16.11,0-2.5.06-3.58-.82-3.37-3.33.11-1.23,0-2.48,0-3.72q0-55.51,0-111c0-2.88.09-5.78-.9-8.57a15.13,15.13,0,0,0-16.67-9.92A14.87,14.87,0,0,0,958,146.58c-.19,8.8-.08,17.61-.08,26.42,0,30.27-.07,60.54.08,90.82,0,3.82-.78,5.25-4.93,5.19-17.07-.23-34.15-.19-51.22,0-3.77,0-4.88-1-4.86-4.86.13-42.24,0-84.49.17-126.73,0-4.06-.87-5.47-5.19-5.32-10,.35-20.1.13-30.15.09-1.29,0-2.67.42-4-.42.74-1.46,2.22-1.63,3.39-2.18q25.77-12.11,51.59-24.11c19.06-8.85,37.16-1.16,43.86,18.75,1,3,2.24,2.3,4.14,1.4,14.2-6.66,28.58-13,42.57-20,20.88-10.53,41.59,2.57,44.85,20.06.06.33.47.6.72.9Z"/><path class="cls-1" d="M477.16,131.17c3.19-1.53,6.38-3.09,9.59-4.59Q509.37,116,532,105.46c19-8.84,37.29-1.1,43.89,18.79,1.05,3.16,2.37,2.16,4.16,1.32,15-7,29.83-14.17,44.9-20.91,18.34-8.2,38.49,2.12,42.5,21.56A39,39,0,0,1,668,134c0,43.36,0,86.71.09,130.07,0,3.67-.85,5-4.75,4.92q-25.62-.31-51.23,0c-3.92,0-4.75-1.27-4.73-4.92q.18-56.77.06-113.56a31.5,31.5,0,0,0-.33-5.75,15.16,15.16,0,0,0-30.08,2.09c-.13,2.61,0,5.23,0,7.85,0,36.47-.06,72.95.08,109.42,0,3.74-1,4.91-4.77,4.86q-25.62-.28-51.24,0c-3.89.05-4.79-1.24-4.78-4.92q.16-63.18.07-126.35c0-5.52,0-5.53-5.65-5.53H477.38Z"/><path class="cls-1" d="M875.08,265.18C863.69,223,852.63,180.66,841,138.51c-8-29.09-37-43.63-65.45-33.39q-34.37,12.34-68.64,25c-1,.36-2.6.14-2.89,2.08h4.6c22,0,44.08.06,66.11-.06,3,0,4.27.89,5,3.87,3.37,13.33,7,26.59,10.57,39.88.35,1.3,1.1,2.56.44,4-1.8-.11-2.84-1.55-4.13-2.47-25.77-18.27-61.42-18.27-86.3.18-12.13,9-20.37,20.63-21.68,36-1.85,21.73,8.58,37.3,26.31,48.36,30.9,19.3,73.68,12.16,98-16,1.41-1.62,2.79-3.26,4.71-5.52,2.36,8.83,4.59,16.87,6.62,25,.64,2.55,1.78,3.51,4.51,3.49q26.64-.17,53.3,0C875.12,269,875.89,268.21,875.08,265.18ZM768.66,248.7A30.52,30.52,0,0,1,739,217.37c.45-16.54,14.6-30,31.05-29.5a30.42,30.42,0,0,1-1.42,60.83Z"/><path class="cls-1" d="M494.15,265.71c-11.31-41.95-22.41-84-33.82-125.89-7.9-29-36.95-44-65.25-33.85-23.18,8.31-46.29,16.82-69.41,25.29-.89.32-2.34.1-2.55,1.9h4.56c21.76,0,43.52.1,65.29-.09,3.65,0,5.31.9,6.22,4.58,3.11,12.54,6.61,25,9.9,37.49.53,2,1.47,4,1.25,6.57-1.67-1.21-3-2.17-4.32-3.12-26.1-18.65-62.36-18.41-87.3.58-28.42,21.63-28.24,59.08.4,80.46,25.22,18.84,62.28,18.78,89-.07a90.62,90.62,0,0,0,18.68-18.18c2.33,8.76,4.51,16.54,6.43,24.39.73,3,2,4.22,5.26,4.19q26.24-.25,52.48,0C494.61,270,495,268.87,494.15,265.71Zm-105.51-16A30.43,30.43,0,1,1,419,219.37,30.57,30.57,0,0,1,388.64,249.67Z"/></svg>