<svg id="Layer_1" data-name="Layer 1" xmlns="http://www.w3.org/2000/svg" viewBox="0 0 1106 340"><defs><style>.cls-1{fill:grey;}.cls-2{fill:grey;}.cls-3{fill:grey;}.cls-4{fill:grey;}.cls-5{fill:grey;}.cls-6{fill:grey;}.cls-7{fill:grey;}.cls-8{fill:grey;}</style></defs><path class="cls-1" d="M1071.78,206.82a43.31,43.31,0,0,1-1.6,11,34.4,34.4,0,0,1-15.92,20.72,50.84,50.84,0,0,1-16.86,6.31,90.34,90.34,0,0,1-38.83-.68,48.25,48.25,0,0,1-14.74-6.16,34.5,34.5,0,0,1-16-24.3,80,80,0,0,1-1.11-13.48c0-20.71-.08-41.42,0-62.13a64.06,64.06,0,0,1,2.52-18.75,35.08,35.08,0,0,1,17-21,53.26,53.26,0,0,1,17.5-5.85,98,98,0,0,1,31.79,0,54.35,54.35,0,0,1,16.34,5.21c10.42,5.37,16.67,13.87,19,25.3a49.11,49.11,0,0,1,.94,9.21c.21,3.42.06,6.84.08,10.26-.34.89-1.12.78-1.82.78-3.73,0-7.46,0-11.18,0q-11.34,0-22.67,0c-2.08,0-2.33-.21-2.28-2.27.09-3.24-.19-6.47-.36-9.7-.39-7-4.78-11.64-11.77-12.46a19.31,19.31,0,0,0-5,0c-7.18,1-11.31,5.3-12,12.54-.24,2.49-.34,5-.34,7.49q0,31.63,0,63.28a40.34,40.34,0,0,0,.42,6,11.57,11.57,0,0,0,8.26,10,18,18,0,0,0,14.43-.9,11.25,11.25,0,0,0,6.11-8.36,26,26,0,0,0,.51-4.82c0-6,0-12,0-18,0-.14,0-.29,0-.44-.09-2.18-.68-2.78-2.84-2.87-.78,0-1.57,0-2.35,0-2.75,0-5.5,0-8.24,0-1.56,0-1.79-.28-1.86-1.81,0-.14,0-.29,0-.44,0-6.13,0-12.26,0-18.4,0-2.23.35-2.59,2.55-2.59q24.21,0,48.42,0c.8,0,1.62-.05,2.16.73v43c-.3.52-.07,1.09-.15,1.63A7.27,7.27,0,0,1,1071.78,206.82Z"/><path class="cls-1" d="M95.21,90.76a81.6,81.6,0,0,1,17.07,3,45.22,45.22,0,0,1,10,4.34c8.59,5.15,13.49,12.77,15.06,22.59a48.22,48.22,0,0,1,.58,7.77c0,2.9,0,5.79,0,8.69,0,1.28-.05,1.29-1.35,1.33H103c-.35,0-.69,0-1,0-1-.05-1.09-.11-1.1-1.13q0-4,0-7.95a16,16,0,0,0-.44-4.08,11.78,11.78,0,0,0-9.26-9.06,18.43,18.43,0,0,0-8.61,0c-5.08,1.21-8,4.54-9,9.56-1.1,5.52.09,10.4,4.38,14.34a57.64,57.64,0,0,0,10,7.15c5.71,3.36,11.64,6.31,17.46,9.48a152,152,0,0,1,16.83,10.25,66.31,66.31,0,0,1,9.34,8.06,33.56,33.56,0,0,1,9.52,20.55A77.81,77.81,0,0,1,140,218.51c-2.17,10.58-8.11,18.45-17.52,23.71a56.85,56.85,0,0,1-18.33,6.1c-2.47.42-5,.7-7.44.93a8.2,8.2,0,0,1-2,.1,15.65,15.65,0,0,0-3.28.15H84.61a14.93,14.93,0,0,0-3.2-.15H79.68c-10,0-19.43-2.14-28-7.4a35.88,35.88,0,0,1-16.79-22.81,33.33,33.33,0,0,1-.63-6.77,15.72,15.72,0,0,0-.29-3.21V195a2,2,0,0,1,1.81-.74q18.55,0,37.1,0c1.6,0,1.84.27,1.85,1.94,0,3.92,0,7.85,0,11.78a19.14,19.14,0,0,0,.18,2.93c1,6.31,4.39,9.82,10.7,10.82a21.12,21.12,0,0,0,8.19-.24,11.18,11.18,0,0,0,8.67-8.48c2-7.33,0-13.28-5.65-18.22-5.3-4.63-11.38-8-17.46-11.42-8-4.48-16.16-8.68-23.72-13.92A63.62,63.62,0,0,1,42.39,157.7c-5.56-6.79-8-14.63-7.87-23.35.06-4.82.15-9.61,1.33-14.31a34.94,34.94,0,0,1,18.6-23.43,50.65,50.65,0,0,1,16.83-5.4,92.62,92.62,0,0,1,9.28-.56h2.21a8.53,8.53,0,0,0,2.42-.15h5.3a10.79,10.79,0,0,0,2.72.15A7.43,7.43,0,0,1,95.21,90.76Z"/><path class="cls-2" d="M34.51,212.42l-.54-1.2v-2.06A6.64,6.64,0,0,1,34.51,212.42Z"/><path class="cls-3" d="M81.33,249.24a8.65,8.65,0,0,1,3.28.26H81.37l-.25-.1Z"/><path class="cls-4" d="M91.38,249.5a7.83,7.83,0,0,1,3.3-.24c.1.08.12.14.07.19a.24.24,0,0,1-.13.05Z"/><path class="cls-5" d="M1071.78,206.82v-2l.07-.26.17.2v2.07Z"/><path class="cls-6" d="M94.62,249.5l.06-.24h2a2.11,2.11,0,0,0,0,.25Z"/><path class="cls-7" d="M81.33,249.24a2.34,2.34,0,0,1,0,.26H79.6a2.28,2.28,0,0,0,0-.26Z"/><path class="cls-8" d="M1072,204.74l-.24.06a2.77,2.77,0,0,1,.24-1.53Z"/><path class="cls-1" d="M442.83,108.07a10,10,0,0,0-1.05,3.63q-7.36,39.55-14.72,79.12-4.76,25.6-9.5,51.21c-.06.29-.14.58-.18.87a.81.81,0,0,1-.89.77l-1,0h-34.3c-1.56,0-1.55,0-1.85-1.6q-6.88-37-13.76-74.07-5.49-29.51-11-59a1.47,1.47,0,0,0-.47-1.11c0,.62-.06,1.12-.07,1.61q-.23,34.38-.46,68.75-.22,31.65-.49,63.3c0,2.26.21,2.14-2.17,2.14H318.11c-2.3,0-2.11.06-2.07-2.07q.57-26.49,1.15-53,.69-31,1.37-62,.33-14.79.64-29.58c0-1.8,0-1.81,1.78-1.81h57.11a5.8,5.8,0,0,0,.59,0c.79-.06,1.13.29,1.25,1.08.34,2.33.75,4.65,1.12,7q2.61,16.13,5.21,32.25,2.87,17.79,5.72,35.59l5.76,35.59.54,3.31c.56,0,.43-.43.47-.67q2.22-13.58,4.4-27.16,2.58-15.9,5.13-31.81t5.17-31.95q1.77-11,3.54-21.94c.19-1.17.25-1.21,1.38-1.26.29,0,.59,0,.88,0h56.23c2.42,0,2.15-.07,2.2,2.14q.81,35.61,1.63,71.23.36,15.9.69,31.79.45,20.46.9,40.91c.05,2.51.3,2.34-2.24,2.34H445.84c-2.28,0-2,.05-2.06-2.11q-.48-66-.95-131.9Z"/><path class="cls-1" d="M837.48,119.7c0,.81,0,1.28,0,1.74l1.14,66.82q.45,25.91.89,51.81c0,2.28.09,2.08-2,2.08h-33c-1.26,0-1.28-.06-1.32-1.37,0-.39,0-.78,0-1.17V97.84c0-2.83-.3-2.55,2.49-2.56h50.48c2.36,0,2-.21,2.65,2q16.71,57.06,33.38,114.11a6.33,6.33,0,0,0,.7,2,1.8,1.8,0,0,0,.21-1.31q-.39-24.21-.8-48.42-.22-13.62-.44-27.23-.32-19.44-.65-38.86c0-2.42-.18-2.27,2.18-2.27h32.38c2.21,0,2,0,2,2V240.2c0,2.05.1,2-1.9,2H876.73c-.24,0-.49,0-.74,0a1,1,0,0,1-1.27-.9c-.07-.33-.2-.66-.3-1q-18.06-59.34-36.13-118.67A5.33,5.33,0,0,0,837.48,119.7Z"/><path class="cls-1" d="M657.83,153.88V97.5c0-2.34-.24-2.22,2.24-2.22h33.27c2,0,2,0,2,2q0,54.32,0,108.64a22.38,22.38,0,0,0,.27,4.25c1.27,6.74,6,10.88,13,11.31a18.84,18.84,0,0,0,5.84-.52,13.06,13.06,0,0,0,9.93-11.8c.12-1.56.1-3.13.1-4.7V97.29c0-2,0-2,2-2h33.41c2.37,0,2.12-.06,2.12,2.2V200.23c0,3.53.07,7.06-.26,10.59a48.49,48.49,0,0,1-2.12,10.8,33.77,33.77,0,0,1-16.34,19.65,51.92,51.92,0,0,1-16.67,5.58,100.7,100.7,0,0,1-33.54,0,54.33,54.33,0,0,1-13.49-4c-11.85-5.36-18.67-14.57-20.89-27.3a72.5,72.5,0,0,1-.86-12.32q0-24.65,0-49.31Z"/><path class="cls-1" d="M226.48,107.58a21.4,21.4,0,0,0-1.07,5q-3.33,22-6.61,43.94-3.62,23.94-7.24,47.87-2.85,18.92-5.69,37.83c-.21,1.41-.22,1.43-1.66,1.44H166.82c-1.15-.05-1.2-.08-1-1.18.32-1.88.67-3.76,1-5.65q6.31-34.06,12.62-68.14,6-32.19,11.95-64.38c.43-2.31.83-4.63,1.28-7s.18-2.1,2.45-2.11h55.64c2.26,0,4.52,0,6.77,0,1.44,0,1.46,0,1.72,1.4q2.33,12.51,4.63,25,4.23,22.86,8.44,45.72,4.5,24.39,9,48.77,2.38,12.95,4.78,25.9c0,.24.09.48.13.72.1.55-.11.85-.68.85l-1.18,0H248.43c-1.87,0-1.87,0-2.15-1.91l-7.35-49.93-7.47-51-4.71-32C226.68,108.44,226.57,108,226.48,107.58Z"/><path class="cls-1" d="M536.9,194.76h17.36c.4,0,.79,0,1.18,0,1,0,1.07.1,1.12,1.1,0,.39,0,.79,0,1.18,0,3.88,0,7.75,0,11.63a15.45,15.45,0,0,0,.38,3.65,11.65,11.65,0,0,0,7.67,8.81,19.83,19.83,0,0,0,13.71.06,10.6,10.6,0,0,0,6.73-6.75,20.69,20.69,0,0,0,.85-11.16,13.58,13.58,0,0,0-2.58-5.4,28.53,28.53,0,0,0-4.81-4.95A76.93,76.93,0,0,0,567,185.26c-5.72-3.23-11.49-6.38-17.22-9.6a124.31,124.31,0,0,1-13.74-8.82,65.59,65.59,0,0,1-7.75-6.77,34.2,34.2,0,0,1-9.69-19.41,50.73,50.73,0,0,1,1.81-22.84c3.18-9.9,9.94-16.6,19.28-20.85A60.57,60.57,0,0,1,557,92.27,104,104,0,0,1,581.8,92a61.7,61.7,0,0,1,17,4,40.26,40.26,0,0,1,4.9,2.38c9.05,5.2,14.1,13.08,15.58,23.34a58.58,58.58,0,0,1,.48,8.37c0,2.45,0,4.91,0,7.36,0,1.18-.09,1.23-1.27,1.27-.29,0-.59,0-.88,0H585.33c-.19,0-.39,0-.59,0-1.62,0-1.63,0-1.64-1.64,0-2.4,0-4.81,0-7.21a19.27,19.27,0,0,0-.18-2.94,12.06,12.06,0,0,0-11.77-10.57,22,22,0,0,0-5.43.27,11.71,11.71,0,0,0-9.76,10.4,21.63,21.63,0,0,0,0,5.57,11.18,11.18,0,0,0,2.35,5.48,25.74,25.74,0,0,0,5.2,5A113.79,113.79,0,0,0,578,151.81c7.17,3.86,14.43,7.56,21.3,11.95a81.57,81.57,0,0,1,11.5,8.68,43.15,43.15,0,0,1,7.92,9.63A33,33,0,0,1,623,196a74.16,74.16,0,0,1-.93,21.55c-2.34,12-9.43,20.34-20.44,25.45a62.11,62.11,0,0,1-18.39,5,101.15,101.15,0,0,1-19.68.55c-8.32-.57-16.45-2-24.1-5.55s-13.87-8.81-17.79-16.47a41.17,41.17,0,0,1-4.25-16c-.35-4.8-.17-9.61-.18-14.42,0-1.34,0-1.39,1.43-1.39Z"/></svg>