<svg id="Layer_1" data-name="Layer 1" xmlns="http://www.w3.org/2000/svg" viewBox="0 0 500 500"><defs><style>.cls-1{fill:grey;}</style></defs><g id="g3228"><path id="path116" class="cls-1" d="M366.05,258.55v43.76h42.5L438.23,271H397.4V229.89l-31.35,28.66"/><path id="path118" class="cls-1" d="M364.9,194.78H476.74V305.22l-34.27-34.3V226.5H397.36L364.9,194.78"/><path id="path120" class="cls-1" d="M75.26,224.4,61.42,261H90.49Zm55.17,71.75h-25.3l-7.74-18.67H55.21l-7.06,18.67H23.26l38-94.29H88.55l41.88,94.29"/><path id="path122" class="cls-1" d="M221.3,201.86h20.45v94.29h-23.5V237.26l-25.45,29.6h-3.59l-25.43-29.6v58.89H140.25V201.86h20.47l30.3,35,30.28-35"/><path id="path124" class="cls-1" d="M280.19,278.87h15.37c23.63,0,30.7-16,30.7-29.87,0-16.16-8.73-29.86-31-29.86H280.19Zm18.11-77c34.46,0,52.15,21.43,52.15,47.28,0,27.08-17.16,47-54.78,47h-39V201.86h41.64"/></g></svg>