<svg id="Layer_1" data-name="Layer 1" xmlns="http://www.w3.org/2000/svg" viewBox="0 0 500 500"><defs><style>.cls-1{fill:grey;}</style></defs><path class="cls-1" d="M281.08,263h0a44.13,44.13,0,0,1-88.23,2.16q0-1.08,0-2.16v-38.2S214,230.06,214,252.4V263c0,13.68,10.24,24.53,23,24.53s23-10.85,23-24.53V241.23c.92-18.53,16.78-24.54,20.8-26.74h.32V263ZM167.71,218.25a41.1,41.1,0,0,1,16.46,3.12V245a25.51,25.51,0,0,0-16.46-5.91,24.72,24.72,0,0,0-25.17,24.27c0,.09,0,.18,0,.27V308H121.36V226.62A30.25,30.25,0,0,1,135.65,231a45,45,0,0,1,32.06-12.71M66.43,287.81A24.85,24.85,0,1,1,91.9,263a25.25,25.25,0,0,1-25.47,24.85m0-69.59a44.76,44.76,0,0,0-3.08,89.47c1,0,2.06,0,3.08,0a45.76,45.76,0,0,0,27.95-9.31c4.66,7.75,18.06,9.31,18.06,9.31V263a45.43,45.43,0,0,0-46-44.71m367.49,69.56A24.85,24.85,0,1,1,459.38,263a25.25,25.25,0,0,1-25.46,24.85m0-69.59a44.76,44.76,0,1,0-3.08,89.47c1,0,2.05,0,3.08,0a45.82,45.82,0,0,0,27.92-9.31c4.66,7.75,18,9.31,18,9.31V263a45.43,45.43,0,0,0-45.95-44.71m-97.55,69.56a24.76,24.76,0,1,1,.62,0h-.62m0-69.59A47.88,47.88,0,0,0,311,225.69v-7.15C310,200,294.79,194,290.77,191.83h-.32V308s13.66-1.56,18.95-9a48.1,48.1,0,0,0,27,8.7,45.41,45.41,0,0,0,46-44.73c.32-24.54-20.51-44.74-46-44.74"/></svg>