<svg id="Layer_1" data-name="Layer 1" xmlns="http://www.w3.org/2000/svg" viewBox="0 0 500 500"><defs><style>.cls-1{fill:grey;}</style></defs><g id="g2093"><path id="path8" class="cls-1" d="M181.46,212.55c9.2,0,15.75,6.87,17.58,15.93H163.86c1.83-9.19,8.18-15.93,17.6-15.93m.33-25c-29.09,0-49.72,21.55-49.72,52v3.24c0,30.94,21.45,51.2,54.62,51.2,7.36,0,25.22,0,42.16-13.14V258.12c-13.87,10.49-23,12-35,12-17.42,0-28.53-6.86-30.7-22.53h67.34c.08-1.62.08-3.23.08-4.79.7-35.34-21.67-55.21-48.76-55.21"/><path id="path10" class="cls-1" d="M267.87,204.46c9.67-11.65,19.05-16.5,31.39-16.5,15.08,0,35.13,9,35.13,39.09V291.4H304.06V231.84c0-14.5-6.48-20.39-15-20.39-7.5,0-13.27,4.15-21.15,16.9v63h-30.4V190.87h30.4v13.59"/><path id="path12" class="cls-1" d="M59.34,269.06H84.56c6.36,0,12.29-2.26,12.29-10.48,0-7.9-5.93-10.49-12.29-10.49H59.34v21m.09-40.13h23.2c4.88,0,12.13-.19,12.13-7.83,0-6.93-6.85-8.09-12.13-8.09H59.43v15.92m69.09,32.56a29.41,29.41,0,0,1-11.38,23.43c-8.46,6.48-17.33,6.93-25.5,6.93H30.3V188.09H89.47c6.06.13,10.74.13,16.2,1.94,9.46,3.17,19.59,9.38,19.59,24.21,0,10.16-5.1,18.12-13.28,22.39a34.13,34.13,0,0,1,7.72,5.12,25.61,25.61,0,0,1,8.82,19.74"/><path id="path14" class="cls-1" d="M411.11,264A20.4,20.4,0,0,1,395,271.39c-8,0-13.92-3.69-18.26-10.09-3.35-5.05-5.1-11.66-5.1-18.78,0-9.06,3-16.89,7.69-22.33,4.27-5.31,9-7.25,15.67-7.25a20,20,0,0,1,12.42,3.76c6.61,5.37,10.81,15.14,10.81,25.57,0,8.35-2.65,16.5-7.12,21.74m9.33,25-.13-.39c18.06-6.34,30.55-23.95,30.55-47.83,0-39.68-31.07-53.73-55.09-53.73-29,0-55.52,18.25-55.52,53.47,0,32.23,23.33,53.4,55.33,53.53,4.72,5.63,30.49,27.57,69.39,15.15l4.73-33.4c-18.78,15.79-45.06,14.43-49.26,13.2"/></g></svg>