<svg id="Layer_1" data-name="Layer 1" xmlns="http://www.w3.org/2000/svg" viewBox="0 0 500 500"><defs><style>.cls-1{fill:grey;}</style></defs><g id="TM_Avenir_LT_Std_14.96_pt_" data-name="TM (Avenir LT Std 14.96 pt)"><path class="cls-1" d="M476.53,249.17h-.83V242h-2.63v-.75h6.16V242H476.6v7.22Z"/><path class="cls-1" d="M484.35,247.74l2.71-6.47h1.2v8h-.83v-6.92h0l-2.85,6.92h-.46l-2.85-6.92h0v6.92h-.83v-8h1.2Z"/></g><g id="CN_Name_Horizontal" data-name="CN Name Horizontal"><path class="cls-1" d="M102,256.32v-.08A14,14,0,0,1,116.22,242a14.53,14.53,0,0,1,10.83,4.29L124,249.85c-2.18-2-4.59-3.46-7.75-3.46-5.27,0-9.1,4.36-9.1,9.78v.07c0,5.42,3.83,9.78,9.1,9.78,3.39,0,5.57-1.35,7.9-3.53l3.08,3.16A14.19,14.19,0,0,1,116,270.54,13.92,13.92,0,0,1,102,256.32Z"/><path class="cls-1" d="M129.46,264.07V264c0-4.51,3.53-6.69,8.57-6.69a17.33,17.33,0,0,1,5.65.9v-.53c0-2.93-1.81-4.51-5.19-4.51a15,15,0,0,0-6,1.28l-1.28-3.76a17.13,17.13,0,0,1,7.83-1.73c3.08,0,5.41.82,6.92,2.33a8.79,8.79,0,0,1,2.25,6.47v12.33H143.6v-2.63a8.38,8.38,0,0,1-6.77,3C132.92,270.46,129.46,268.2,129.46,264.07Zm14.29-1.51v-1.43a13.78,13.78,0,0,0-4.74-.82c-3.08,0-4.89,1.27-4.89,3.46v.07c0,2,1.81,3.16,4.06,3.16C141.34,267,143.75,265.19,143.75,262.56Z"/><path class="cls-1" d="M152.93,249.17h4.74v3.16c1.35-1.88,3.16-3.61,6.32-3.61a6.58,6.58,0,0,1,6.24,3.69,8.4,8.4,0,0,1,7-3.69c4.52,0,7.3,2.86,7.3,8V270h-4.74V258.2c0-3.31-1.5-5.12-4.21-5.12s-4.44,1.81-4.44,5.19V270h-4.74V258.12c0-3.23-1.58-5-4.21-5s-4.44,2-4.44,5.19V270H153V249.17Z"/><path class="cls-1" d="M194.22,266.77V270h-4.73V241.2h4.73v11.43a8.24,8.24,0,0,1,7.07-3.91c4.89,0,9.71,3.84,9.71,10.83v.08c0,6.92-4.74,10.83-9.71,10.83A8.37,8.37,0,0,1,194.22,266.77Zm11.89-7.14v-.08c0-4.06-2.71-6.69-5.94-6.69s-6.1,2.71-6.1,6.69v.08c0,4,2.86,6.69,6.1,6.69S206.11,263.77,206.11,259.63Z"/><path class="cls-1" d="M215,241.5h5.12V246H215Zm.16,7.67H220V270h-4.81Z"/><path class="cls-1" d="M224.91,262.49V249.25h4.74v11.81c0,3.23,1.66,5,4.44,5s4.66-1.88,4.66-5.12V249.25h4.82v20.83h-4.82v-3.23a7.61,7.61,0,0,1-6.54,3.69C227.62,270.46,224.91,267.3,224.91,262.49Z"/><path class="cls-1" d="M248.61,249.17h4.74v3.16c1.35-1.88,3.16-3.61,6.32-3.61a6.58,6.58,0,0,1,6.24,3.69,8.41,8.41,0,0,1,7-3.69c4.52,0,7.3,2.86,7.3,8V270h-4.74V258.2c0-3.31-1.5-5.12-4.21-5.12s-4.44,1.81-4.44,5.19V270h-4.74V258.12c0-3.23-1.58-5-4.21-5s-4.44,2-4.44,5.19V270h-4.74V249.17Z"/><path class="cls-1" d="M296.45,242.4H301l14.82,19.11V242.4h4.81V270h-4.06l-15.27-19.63V270h-4.74V242.4Z"/><path class="cls-1" d="M324.88,259.7v-.07c0-5.94,4.21-10.83,10.16-10.83,6.62,0,10,5.19,10,11.2,0,.46-.07.91-.07,1.36H329.62a5.83,5.83,0,0,0,6,5.26,7.68,7.68,0,0,0,5.64-2.48l2.78,2.48a10.53,10.53,0,0,1-8.5,3.92A10.4,10.4,0,0,1,324.88,259.7Zm15.42-1.58c-.3-3.08-2.1-5.49-5.26-5.49-2.94,0-5,2.26-5.42,5.49Z"/><path class="cls-1" d="M349.86,264.29v-11h-2.64v-4.14h2.64v-5.71h4.81v5.71h5.57v4.14h-5.57v10.23c0,1.88,1,2.63,2.56,2.63a6.47,6.47,0,0,0,2.93-.67v3.91a8.28,8.28,0,0,1-4.29,1C352.34,270.38,349.86,268.88,349.86,264.29Z"/><path class="cls-1" d="M362.34,249.17h4.89l4.21,14.29L376,249.1h4.14l4.59,14.36,4.29-14.29h4.81l-6.85,21h-4.28l-4.67-14.22-4.66,14.22h-4.29Z"/><path class="cls-1" d="M394.84,259.7v-.07A10.92,10.92,0,0,1,406,248.72,10.8,10.8,0,0,1,417,259.55v.08a10.88,10.88,0,0,1-11.21,10.83A10.71,10.71,0,0,1,394.84,259.7Zm17.45,0v-.07a6.41,6.41,0,0,0-6.4-6.7c-3.83,0-6.24,3-6.24,6.62v.08a6.44,6.44,0,0,0,6.32,6.69C409.88,266.32,412.29,263.31,412.29,259.7Z"/><path class="cls-1" d="M420.94,249.17h4.81v4.67c1.28-3.09,3.69-5.27,7.37-5.12v5h-.3c-4.21,0-7.07,2.71-7.07,8.28v7.89h-4.81V249.17Z"/><path class="cls-1" d="M436.21,241.2H441v17.22l8.65-9.25h5.79l-8.27,8.5L455.69,270h-5.64l-6.17-9L441,264.07V270h-4.74Z"/><path class="cls-1" d="M456.44,267.3l2.11-3.23a11.4,11.4,0,0,0,6.84,2.55c2,0,3.24-.9,3.24-2.25v-.08c0-1.65-2.18-2.18-4.67-2.93-3.08-.9-6.54-2.11-6.54-6.09v-.08c0-3.91,3.31-6.32,7.45-6.32a14.79,14.79,0,0,1,7.67,2.33l-1.88,3.39a12.25,12.25,0,0,0-5.87-2c-1.88,0-2.93.91-2.93,2v.08c0,1.5,2.26,2.18,4.66,2.93,3,1,6.47,2.33,6.47,6.1v.07c0,4.36-3.38,6.54-7.75,6.54A13.79,13.79,0,0,1,456.44,267.3Z"/></g><g id="CN_Icon_Horizontal" data-name="CN Icon Horizontal"><path class="cls-1" d="M59.13,233a20.64,20.64,0,0,0-7.9,28.13,20.74,20.74,0,0,0,25.27,9.33A35.5,35.5,0,0,0,83,250a34.49,34.49,0,0,0-4.66-17.53,20.69,20.69,0,0,0-19.18.53Z"/><path class="cls-1" d="M31.07,256.32a34.48,34.48,0,0,0,7.15,8.95,28.93,28.93,0,0,1-3.39-5,34.45,34.45,0,0,1,11.59-45.89A34.3,34.3,0,0,0,34,217,35.77,35.77,0,0,0,31.07,256.32Z"/><path class="cls-1" d="M27.16,258.5a40.06,40.06,0,0,1-1.13-37,35.58,35.58,0,0,0,21.29,64.09,35.18,35.18,0,0,0,21.06-6.92,40,40,0,0,1-6,.45A40.42,40.42,0,0,1,27.16,258.5Z"/><path class="cls-1" d="M54.92,225.55a25,25,0,0,0-9.63,34.08c.3.52.6,1,.9,1.5a25.39,25.39,0,0,1-1.2-17A24.82,24.82,0,0,1,57,229a25.15,25.15,0,0,1,12.26-3.23,23.91,23.91,0,0,1,4.66.45A30.9,30.9,0,0,0,70,222.47c-.9-.08-1.88-.15-2.86-.15A25.62,25.62,0,0,0,54.92,225.55Z"/><path class="cls-1" d="M38.74,258.12a27.9,27.9,0,0,0,2.86,4.22c-.07-.15-.22-.3-.3-.46a29.61,29.61,0,0,1,11.36-40.24,30.49,30.49,0,0,1,10.53-3.53,37.38,37.38,0,0,0-8.27-2.94,36.76,36.76,0,0,0-4.67,2.11A30.13,30.13,0,0,0,38.74,258.12Z"/></g></svg>