<svg id="Layer_1" data-name="Layer 1" xmlns="http://www.w3.org/2000/svg" viewBox="0 0 500 500"><defs><style>.cls-1{fill:grey;}</style></defs><path class="cls-1" d="M35.73,265.68c0-30.05,20.09-51.08,48.83-51.08,19.34,0,35.11,9.77,41.5,24.79a8.57,8.57,0,0,1,.94,4.32,5.65,5.65,0,0,1-5.64,5.63H121a6.25,6.25,0,0,1-6-4.5c-4.88-12.21-16.15-19.16-30.24-19.16-21.4,0-36.61,16.34-36.61,40,0,23.47,14.83,39.81,36.43,39.81,14.08,0,24.79-6.76,30.42-21A6.2,6.2,0,0,1,120.8,280a5.93,5.93,0,0,1,6,6v.19a9.85,9.85,0,0,1-.75,3.94c-5.82,16.15-21.41,26.48-41.5,26.48C55.64,316.57,35.73,295.73,35.73,265.68Z"/><path class="cls-1" d="M198.92,308.31c0,4.13-2.25,6.76-6.2,6.76s-6-2.63-6-6.76V190.38c0-4.32,2.26-6.95,6.2-6.95s6,2.44,6,6.95v26.85h21.22c3.76,0,6,2.07,6,5.45s-2.25,5.44-6,5.44H198.92Z"/><path class="cls-1" d="M294.13,223.8a5.68,5.68,0,0,1-5.63,5.82h-.57a9,9,0,0,1-4.5-1.31,19.94,19.94,0,0,0-10-2.07c-13.14,0-21.59,11.46-21.59,25.92v56.15c0,4.32-2.07,6.76-6,6.76s-6.2-2.44-6.2-6.76V223.05c0-4.32,2.26-7,6.2-7s6,2.45,6,7v2.44A28.21,28.21,0,0,1,275,214.6a31.27,31.27,0,0,1,16,3.76A6.08,6.08,0,0,1,294.13,223.8Z"/><path class="cls-1" d="M306.71,223.05c0-4.32,2.26-7,6.2-7s6,2.45,6,7v85.26c0,4.13-2.25,6.76-6.2,6.76s-6-2.63-6-6.76Z"/><path class="cls-1" d="M148.78,223.05c0-4.32,2.25-7,6.2-7s6,2.45,6,7v85.26c0,4.13-2.26,6.76-6.2,6.76s-6-2.63-6-6.76Z"/><circle class="cls-1" cx="154.98" cy="193.19" r="9.77"/><path class="cls-1" d="M383.33,273.19l-33.61,39.44a6.25,6.25,0,0,1-4.89,2.44,5.69,5.69,0,0,1-5.82-5.63h0a6,6,0,0,1,1.69-4.32l35.12-39.82L342,226.43a6,6,0,0,1-2.07-4.5,5.63,5.63,0,0,1,6-5.64h.19a5.86,5.86,0,0,1,4.69,2.44l32.68,38.5,32.67-38.5a5.89,5.89,0,0,1,4.7-2.44,5.59,5.59,0,0,1,6,5.45v.19a6,6,0,0,1-2.07,4.5L391,265.3l35.12,39.82a6.27,6.27,0,0,1,1.69,4.32,5.57,5.57,0,0,1-5.82,5.63h0a6.25,6.25,0,0,1-4.89-2.44Z"/><path class="cls-1" d="M451.5,304.74h-3.57v9.39h-1.5v-9.39h-3.57v-1.13h8.64Zm12.77-1.13v10.52H463v-6.76l.19-2.07h0l-.19.76-3.38,7.88h-1.12l-3.38-7.88-.38-.76h0l.19,2.07v6.76h-1.32V303.61h1.69l3.2,7.52.56,1.31h0l.38-1.31,3.19-7.52Z"/><circle class="cls-1" cx="383.33" cy="193.19" r="9.77"/></svg>