<svg id="Layer_1" data-name="Layer 1" xmlns="http://www.w3.org/2000/svg" viewBox="0 0 500 500"><defs><style>.cls-1{fill:grey;}</style></defs><path class="cls-1" d="M16.65,243.52c3.19-11.32,9.75-19.68,21.52-23,8.43-2.38,16.61-1.69,24.08,3.47,2.38,1.65,2.26,3.09.76,5.35s-2.68,2.3-4.94.89c-8.48-5.32-18.27-4.8-25.5,1.06a23.73,23.73,0,0,0-6.94,26.6,21.68,21.68,0,0,0,20.72,14.38,20.57,20.57,0,0,0,11.9-4c2.09-1.55,3.27-1.34,4.59.84,1.22,2,2.22,3.41-.47,5.32-15.6,11.09-37.69,4-44.32-14.46-.49-1.36-.94-2.74-1.4-4.1Z"/><path class="cls-1" d="M365.51,220c-7.81,1.11-14.69,3.89-19.15,10.6-5.55,8.35-6.14,17.36-1.31,26.06,4.74,8.54,12.66,12.34,22.52,12.13a13,13,0,0,0,7.43-2.68,9,9,0,0,0,4.09-8.75c-.46-3.85-2.84-6.35-6.49-7.56-3.34-1.1-6.85-1.78-10.09-3.11-4.83-2-7.95-5.42-8.18-10.94a12.29,12.29,0,0,1,7.25-12.35c6.55-3.31,13.09-3.34,19.46.61a30.51,30.51,0,0,1,12,38.35c-6,13.69-21.46,21.16-36.27,17.49s-24.83-17.64-23.5-32.48a31.26,31.26,0,0,1,26.26-27.74A12,12,0,0,1,365.51,220Z"/><path class="cls-1" d="M236.44,231.27c-4.68,15-9.93,28.77-14.81,42.67-.76,2.17-1.32,4.35-4.49,4.31s-3.73-2.13-4.47-4.35c-4.52-13.64-9.26-27.2-13.62-41-.27,4.31-.57,8.61-.8,12.93-.54,9.74-1.14,19.49-1.54,29.25-.15,3.75-2.62,3.29-5.08,3.38-2.83.11-2.75-1.6-2.62-3.56,1.08-16.6,2.1-33.2,3.25-49.79.14-2-.13-4.43,3.21-4.71,5.65-.47,6.91-.08,8.22,3.64,4.76,13.54,9.65,27,13.63,41,1.46-.61,1.26-1.88,1.54-2.79,4-13.05,8.92-25.78,13.51-38.63,1.11-3.11,3.73-3.89,8.6-3.09,3.09.51,2.49,2.79,2.61,4.73,1,16.48,2,33,3,49.45.15,2.44-.06,3.93-3.11,3.84-2.72-.08-4.6-.23-4.75-3.77C238.14,260.52,237.27,246.32,236.44,231.27Z"/><path class="cls-1" d="M173.06,231.67c-2.79,8-5.22,15-7.7,22s-5.08,14.09-7.54,21.15c-.7,2-1.59,3.38-4,3.38s-3.56-1.39-4.28-3.57c-4.36-13.31-9.09-26.49-13-40-.26-.89-.54-1.77-.89-2.9-.85,14.41-1.77,28.46-2.44,42.53-.15,3.14-1.24,4.2-4.37,4.16s-3.56-1.73-3.38-4.2q1.83-25.42,3.59-50.85c.14-2.2,1.25-2.84,3.23-3,6.17-.58,6.66-.32,8.66,5.53,4.21,12.34,8.86,24.54,12.32,37.12.17.63.11,1.48,1.1,1.85,2.5-7.27,5-14.55,7.5-21.79,2.24-6.38,4.58-12.72,6.89-19.08,1.34-3.67,2.74-4.14,8.22-3.64,3.33.29,2.95,2.54,3.09,4.67q1.62,25.08,3.28,50.16c.14,2.11-.56,3.29-2.81,3.16s-5,.88-5.2-2.77c-.32-5.66-.58-11.32-.87-17C174,250,173.56,241.36,173.06,231.67Z"/><path class="cls-1" d="M62.5,249.58a29.83,29.83,0,1,1,59.66,0A30,30,0,0,1,92.43,279.7C75.83,279.86,62.52,266.47,62.5,249.58Zm7.71-.4c0,12.63,9.78,23,21.85,23.05s22.26-10.3,22.37-22.68c.11-12.85-9.35-22.61-22-22.66S70.25,236.31,70.21,249.18Z"/><path class="cls-1" d="M449,278.43c-4,0-8-.08-12.05,0-2.53.06-3.46-1.06-3.46-3.47q.06-25.68,0-51.36c0-2.56,1.23-3.35,3.61-3.34,7.91.06,15.83.09,23.74,0,2.87,0,3.8,1.16,3.77,3.92s-1.06,3.64-3.69,3.59c-5.24-.1-10.48.08-15.71-.06-2.71-.07-3.75,1-3.61,3.62a56.27,56.27,0,0,1,0,7.23c-.22,3.08.89,4.39,4.15,4.26,4.74-.2,9.5,0,14.24-.08,2.82-.06,4.28.76,4.3,3.87,0,3.3-1.74,3.7-4.41,3.64-5-.11-10,0-15,0-2.33-.05-3.32.86-3.28,3.18.08,4.7.12,9.41,0,14.11-.08,2.75,1.2,3.54,3.76,3.49,5.12-.1,10.23.05,15.35-.05,2.75-.06,3.91.9,3.91,3.78s-1.17,3.83-3.93,3.74C456.8,278.33,452.9,278.43,449,278.43Z"/><path class="cls-1" d="M269.42,219.47c6.76-.05,12,3.46,13.92,9.53.46,1.42,2,3.62-.36,4.32-2.05.61-4.71,1.38-6.29-1.72-2.46-4.81-7.67-6.14-12.34-3.47-4.83,2.76-5.26,8.21-.89,11.63a27.59,27.59,0,0,0,6.82,3.42,44.94,44.94,0,0,1,8.18,4c6.94,4.6,9.53,12.73,6.62,20.73a18.32,18.32,0,0,1-18.39,11.64c-8.71-.89-14.89-6.48-16.2-14.72-.22-1.37-.85-3.27,1.47-3.25,2.16,0,5.19-1.59,6.09,2,1,4.09,3.25,6.94,7.45,8.09a9.59,9.59,0,0,0,11.41-4.82c2.5-4.65,1.8-9.22-1.91-12.5-2-1.8-4.57-2.74-7-3.87s-5.15-2.23-7.55-3.63c-6.47-3.77-9-9.26-7.5-15.79,1.41-6.14,7.12-10.92,13.9-11.59C267.7,219.4,268.56,219.47,269.42,219.47Z"/><path class="cls-1" d="M288.42,252.85c-.09-23.19,18.42-37.66,37.85-32.61a22,22,0,0,1,7.86,3.72,4.36,4.36,0,0,1-.75,7.34c-1.12.59-1.81-.19-2.62-.68-11.26-6.74-23.39-4.68-30.36,5.16a23.58,23.58,0,0,0,4.42,31.94c7.15,5.81,16.87,6.18,25.15.72,2.08-1.37,3.33-1.92,4.92.62,1.49,2.39,1.74,4-1,5.6-9.56,5.71-19.47,6.89-29.52,1.7C293.71,270.83,288.81,261.61,288.42,252.85Z"/><path class="cls-1" d="M397.67,249.29c0-8.31.07-16.63,0-24.94,0-2.93,1.09-4.1,4.08-4.09,5.37,0,10.72.16,15.94,1.47,7.28,1.82,11.13,6.36,11.65,13.47.61,8.45-2.74,14.51-9.64,17.35a25.42,25.42,0,0,1-10.33,1.92c-2.73-.06-3.64,1.07-3.58,3.66.11,5.19,0,10.37.05,15.55,0,2.8-.13,4.82-4,4.86-4,0-4.23-2.05-4.2-5C397.72,265.45,397.66,257.37,397.67,249.29Zm24.16-12a8.9,8.9,0,0,0-1.23-5.2c-2-2.93-10-5.45-13.29-4.23-1.32.48-1.48,1.5-1.49,2.6q0,6.87,0,13.75c0,1.09.12,2.14,1.37,2.69C413.45,249.66,421.83,244.16,421.83,237.28Z"/><path class="cls-1" d="M475.92,219.53a7.31,7.31,0,1,1,.14,14.61,7.75,7.75,0,0,1-7.47-7.09A7.54,7.54,0,0,1,475.92,219.53Z"/></svg>