<svg id="Layer_1" data-name="Layer 1" xmlns="http://www.w3.org/2000/svg" viewBox="0 0 500 500"><defs><style>.cls-1{fill:grey;}</style></defs><g id="g3"><path id="path5" class="cls-1" d="M134.51,243.5h26.63c1.85,0,2.21,1.91.78,4.23l-5.36,8.82c-1.43,2.33-4.11,4.23-6,4.23H124c-1.84,0-2.2-1.9-.77-4.23l5.36-8.82c1.43-2.32,4.11-4.23,6-4.23"/><path id="path7" class="cls-1" d="M261.85,202.15c9.77-.89,21.39,6.79,15.67,16.86-5.49,9.12-25.33,11.44-31.29,10.91-1.9-.18-5-1.37-4.94-4.41A33.43,33.43,0,0,1,246.65,210c4.29-5.78,10.61-7.51,15.2-7.81"/></g><path id="path9" class="cls-1" d="M322.86,221.64c3-1.38,3.34,2,3.22,3v7.75c0,1.49,1.25.78,1.91.54,9.17-3.88,18.47-9.66,30.27-9.36,10.48.24,13.64,8.52,13.58,18.06v40.57c0,3.58.3,4.41,2,5.78a18,18,0,0,0,4.41.54c1.13,0,1.13.83.83,1.67l-2.5,6.37a2.7,2.7,0,0,1-2.5,1.38H350.21c-8.28-.3-10.78-6.5-10.66-9.66V249.64c0-7.92-12.93-8.52-12.93,2.15v32.53c.11,1.55-.36,3.57,3.81,3.87,2.74,0,4.71-.3,3.34,3l-2,5.13a2.9,2.9,0,0,1-2.68,1.49H289.67a1.53,1.53,0,0,1-1.37-1.67l2.8-7.21c.12-.3.42-.84.78-.84,1.31-.06,2.2-.71,2.44-4.41v-42.3c0-3.46-3.16-3-5.54-3-1.07,0-1.67-.3-1.37-1.67l2.2-4.71c.3-1.13.84-1.55,1.67-1.67,13-2,20.5-2.86,31.58-8.69"/><path id="path11" class="cls-1" d="M419,203.82c2.27-.36,3.58,1,3.58,3.51v40.52c.3,2.21,1.91.72,2.38.06l14-17.75c1.49-1.85,5.07-2.21,7.27-2.21h30.51c.54,0,.84.66.3,1.37l-3.87,5.25c-.36.47-.66,1.07-2.51,1.07h-1.48a3.5,3.5,0,0,0-2.21.83l-15.67,17.58c-3.28,3.93-2.5,5.6.42,8.4l21.51,22.05c4.76,3.34,9.11,3.57,14.06,3.87,1.31.06,1,1.13.54,1.67l-5.55,6.38c-.53.83-3,1.37-4.35,1.37H456.63a23.26,23.26,0,0,1-11.56-3.34c-7.74-6.38-12.63-14.42-20.2-21.57-1.31-1.25-2.38-.66-2.38.42v9.23c0,4.17,1.73,5.25,7.81,5.54,2.32.12,1.66,1.37,1.13,2.74l-2,5.25a2.47,2.47,0,0,1-2.44,1.67h-44.1c-1.37,0-2.26-.42-2-1.25l2.44-6.5c.54-1.25.9-1.55,2.74-1.67,3-.18,4.17-1.19,4.23-5.72V223c0-2-.47-2.8-1.9-2.63l-5.6.78c-1.67.24-2-1-1.32-2.21l3.46-5.78c.66-1.13,1.85-1.25,3.16-1.49a168.48,168.48,0,0,0,29.61-7.74,3.42,3.42,0,0,0,1.31-.12"/><g id="g13"><path id="path15" class="cls-1" d="M276.74,227.71c1.37-.53,3,.54,2.74,3.58v52.49c.72,3.7,1.91,4.59,5.19,5,0,0,2.26.06,1.67,1.67l-2.15,5.54c-.83,1.67-1.37,2-3.34,2H239.8c-1.07-.06-1.49-.78-1.13-2l2-5.24c.36-.72.54-1.43,1.91-1.67,4.17-1.14,4.41-1.67,4.41-7.21v-31.4c0-5.25-.84-5-6.91-4.41a1.2,1.2,0,0,1-.84-1.67l3-5.78c.84-1.67,1.91-1.67,1.91-1.67,11.68-.89,23.3-3.81,32.53-9.18"/><path id="path17" class="cls-1" d="M69.5,297.85c8.94.11,19.72.59,29.73-7.21,7.16-4.71,15.74-23.78,18.83-31.64,1.55-4.12,2-9.54,0-13.65-5.42-12.27-13.28-26-18.47-31.52-7.45-6.85-14.42-7.45-26-7.45H24c-2.09,0-4.41.54-5.25,2L15.16,215c-.54,2.74,2.74,3,2.74,3H23c1.37,0,1.67,1.07,1.67,2.21v61.37c0,2.74-3.1,4.41-5.6,4.94-1.13.3-2.74.6-3.57,2l-3.58,6.91a1.81,1.81,0,0,0,1.67,2.51c19.48,0,36.41,0,56-.06M56.93,286.46v-66c0-1.67.3-2.5,1.91-2.74h4.82c1.73,0,4.23-.36,5.78,2.39l16.63,29c1.37,3,1,4.29,0,6.38L69.2,284c-2,2.8-3,2.27-5.54,2.44H56.93Z"/></g><path id="path19" class="cls-1" d="M211,207c2.14,0,2.92,1.25,2.5,2.08l-4.41,8s-.53,1.66-4.41,1.66h-.41c-2.51,0-4.47,0-4.71,5v58.28c0,2.5,1.07,4.58,4.11,4.7h6c9.83-.12,9.59-10.25,11.8-19.07a4.42,4.42,0,0,1,2.5-3l8.7-3c1.13,0,2.2,0,2.5,1.9V292.9c.3,2.74-2.2,5.24-5.54,5H154.83c-2.74,0-3.34-.84-2.74-2.51l2.74-6.07a3.61,3.61,0,0,1,3.34-1.67c5.54-.3,9-.36,8.93-8.82V224.32c0-3.58-.83-5.78-4.47-5.78H158.4c-2.74,0-4.23-1-3.57-2.51l3.87-7.21a2.9,2.9,0,0,1,3-1.84H211"/></svg>