<svg id="Layer_1" data-name="Layer 1" xmlns="http://www.w3.org/2000/svg" viewBox="0 0 500 500"><defs><style>.cls-1{fill:grey;}</style></defs><path id="path1626" class="cls-1" d="M191.6,258.66l24.07-75H187.48l-14.21,44.46-.18-1.66v-1.66l-.24-1.59-.19-1.63L172.3,220l-.35-1.58-.42-1.56-.45-1.58-.52-1.58-.51-1.48-.71-1.56-.6-1.47-.79-1.4-.8-1.5-1-1.53-.87-1.4-1.84-2.64-1.85-2.19-2.11-2.16-2.34-2.11-2.35-1.92-2.64-1.74L149.57,189l-2.8-1.45-3-1.27-2.95-1.16-2.93-1-3.13-.85-3.33-.63-3.29-.61-3.43-.34-3.4-.16-3.59-.13-3.56.13-3.58.24-3.64.42-3.67.53-3.66.71-3.9.87-3.67,1-3.74,1.24-3.75,1.29-3.66,1.58-3.64,1.67L73.6,193,70,195l-3.58,2.11-3.69,2.42-3.48,2.43-3.33,2.64-3.21,2.63-3.06,2.64-3,2.64-2.8,2.84-2.64,3-2.45,3.06-2.37,3-2.27,3.08-2,3.19-2,3.14L28.44,237l-1.59,3.32-1.47,3.24L24.14,247,23,250.17l-1,3.32-.69,3.3-.61,3.35-.42,3.32-.21,3.22V273l.37,3,.5,3,.61,3.06.87,2.95,1.16,2.8,1.21,2.9,1.48,2.63L28,296l1.74,2.43,1.9,2.26,2,2.17,2.19,2,2.26,1.85,2.35,1.76,2.53,1.8,2.64,1.47,2.63,1.16L51,314l3,1,3,.87,3.05.71,3.14.61,3.14.53,3.32.26,3.32.19h6.7l3.51-.27,3.48-.34,3.48-.61,3.51-.6,3.63-.9,3.56-1,3.48-1.13,3.59-1.21,3.67-1.56,3.45-1.48,3.51-1.76,3.48-1.82,3.5-2V298l-3,1.58-2.9,1.39-3,1.38-3,1.21-3,1-2.95,1-3,.87-3,.71-3,.45-3,.53-2.88.42-3,.16-2.87.18H81.36l-2.64-.26-2.8-.37-2.63-.42-2.64-.53-2.5-.69-2.64-.89-2.45-.85-2.35-1.08-2.27-1.13-2.19-1.29-2.08-1.32-2.11-1.48-1.9-1.66-1.84-1.74-1.66-1.82L45,291.44l-1.47-2.11L42,287.06l-1.24-2.4-1.11-2.48-1-2.64L38,276.91l-.63-2.64-.45-2.64L36.64,269l-.16-2.82v-2.82l.16-2.8.34-2.87.74-2.83.6-2.9.79-2.87.87-2.87,1.14-2.64,1.13-2.87,1.4-2.83,1.48-2.76,1.55-2.8,1.85-2.64,1.84-2.63,2-2.64,2.16-2.64,2.29-2.63,2.43-2.64,2.5-2.43,2.64-2.34,2.77-2.27,2.9-2.19,3-2.08,3.06-2,3.14-1.82,3-1.85,3.24-1.55,3.14-1.4,3.19-1.32,3.24-1,3.24-1.05,3.22-.87,3.24-.8,3.14-.52,3.22-.5,3.08-.4,3.14-.16h6.12l3,.19,3,.37,2.9.5,2.77.63,2.8.79,2.63.87,2.64,1,2.64,1.13,2.45,1.32,2.27,1.4,2.16,1.55,2.19,1.77,1.92,1.82,1.93,1.9,1.74,2.11,1.55,2.27,1.3,2,1.13,2,1,2,.87,2.17.69,2.08.61,2.19.45,2.27.42,2.26.26,2.35v7.25l-.18,2.64-.27,2.63-.34,2.64-.45,2.64-.47,2.5-.82,2.64-.87,2.64-.95,2.63-1.05,2.64L162,262.41l-1.29,2.45-1.42,2.45-1.56,2.35L156.08,272l-1.74,2.24-1.93,2.27-2.08,2.19-2.16,2.19L145.88,283l-2.46,2.08,1.16.27,1.14.18,1.13.16,1.21.18,1.32.19,1.29.18H157l1.92-.16,1.85-.37,1.32-.23,1.37-.29,1.32-.35,1.29-.42,1.24-.45,1.29-.52,1.24-.5,1.21-.64,1.22-.6,1.16-.61,1.1-.69,1.16-.79,1.14-.71,1-.79,1.05-.84,1.06-.9.94-.87,1-.95,1-.95.87-1,.87-1,.87-1.06.76-1.05.72-1.14.79-1.13.6-1.13L189,265l.63-1.21.53-1.24.45-1.32.52-1.32Z"/><path id="path1630" class="cls-1" d="M230,183.67,197.34,286.22H225.5l12.74-40.32.18-.26v-.16l.61-1.93.53-1.21.68-1.21.69-1.16.82-1.14.76-1.05,1-.95,1.06-.87,1-.87,1.06-.77,1.21-.71,1.21-.52,1.24-.53,1.29-.45,1.4-.34,1.4-.24h2.08l.63.16.61.16.61.26.52.34.5.37.56.34.39.45.45.53.37.42.32.61.29.53.13.71.16.6v2.46l-.27,1.13L247,286.22h28.37l16.72-52.08.26-.79.26-.79.16-.87v-.87l.24-1,.21-1V225l-.26-1.66-.35-1.45-.52-1.5-.69-1.4-.79-1.29-.95-1.32-1.05-1.11-1.06-1.08-1.21-1-1.29-.79-1.4-.79-1.48-.5-1.5-.45-1.56-.34-1.42-.29h-.79l-.69-.18h-3.32l-2.11.18-2,.26-2.09.37-2,.43-2,.6-1.9.61-1.9.79-1.84.87-1.77.87-1.74,1L251.92,217l-1.66,1.21-1.47,1.21-1.48,1.4-1.42,1.4,12.26-38.5ZM108.49,209.46h-3.75l-1.84.16L101,210l-1.85.19-1.82.36-1.66.35-1.66.34-1.66.53-1.56.52-1.5.53-1.47.61-1.48.58-1.4.82-1.4.68-1.29.79-1.32.87-1.32.87L78.4,219l-1.13,1-1.21,1L75,221.93l-1.13.95-1,1.06-1,1.1-1,1.24-1,1.29-1,1.4-1.06,1.58-1,1.67,26.78,2.87,1.11-1.56,1.14-1.42L96.89,231,98,230l.87-.53.87-.61,1.16-.6,1.29-.53,1.4-.42L105,227l1.37-.26,1.5-.18h3.9l.9.26.84.16,1,.37,1,.34,1,.42,1,.42.87.45v3.48l-.16.9-.26.79-.37.76-.34.8-2.64,1-2.63.81-2.64.69-2.64.58-1.45.37-1.92.52-2.35.53-2.64.53-1.39.34-1.4.24-1.56.29-1.68.34-1.72.27-1.74.34-1.95.34-1.9.34-3.4.72-3.14.76-2.95.9-2.64.95-2.45,1.05L68,248.69l-2.08,1.14-1.85,1.29-1.55,1.4-1.48,1.42-1.42,1.45L58.34,257l-.53.87-.61.9-.42.84-.53,1-.44,1-.69,1.18-.37,1.11L54.43,265l-.29,1.08L54,267.2l-.19,1v3.93l.19.95.26.87.26.87.27.9.34.84.45.82.39.76.53.72.55.79.61.71.61.66.68.71.79.61.8.63.79.5,1,.55.94.4,1.09.45,1.1.34,1.32.26,1.29.29,1.51.14,1.66.18h8.43l2.43-.26,2.37-.43,2.27-.44,2.27-.61,2.16-.71,2-.77,1.21-.42,1.14-.55,1.21-.61,1.32-.68,1.92-1.06,1.9-1.13,1.93-1.29,1.92-1.59-.26.85-.16.81v3.06l.26,1.4.19.61.24.6.26.61.34.61v.18h27.11l-.24-.63-.18-.66-.16-.82v-3.4l.26-.87,2.43-7.75,2.13-6.88,2-6.2,1.74-5.43,1.51-4.7,1.29-4.19,1.34-3.72,1-3.13.26-.9.16-.76.19-.87v-5.15l-.27-1.84-.34-1.74-.61-1.64-.68-1.61-.9-1.55-1-1.4-1.13-1.29-1.22-1.32L140,214.79l-1.4-1.06-1.48-.84-1.58-.71-1.66-.61-1.72-.42-1.84-.34-1.77-.29-2-.27-2.13-.21-2.35-.26-2.34-.16H108.49Zm332.51,0h-3.77l-1.82.16-1.81.21-1.85.24-1.82.37-1.74.34-1.58.42-1.66.45-1.56.53-1.48.52-1.58.61-1.4.58-1.39.71-1.4.79-1.29.79-1.32.8-1.4,1-1.18.87-1.16,1-1.22.95-1.1,1.08-1.09.95-1.05,1-1,1.21-1.05,1.24-1,1.29-1,1.4-1,1.58-1.08,1.66L425.76,235l1.22-1.56,1.13-1.42,1.11-1.11,1.24-1,.76-.52.9-.61,1.21-.61,1.29-.52,1.32-.43,1.4-.34,1.5-.26,1.48-.19h3l1.66.37,1.93.53,1,.34.95.35.95.42.87.45v3.56l-.16.89-.29.79-.34.77-.34.79-2.77.95-2.64.82-2.63.68-2.64.58-1.58.34-1.9.56-2.27.52-2.64.53-1.39.34-1.48.24-1.58.29-1.56.34-1.76.27-1.82.34-1.82.34-1.93.35-3.4.71-3.22.76-2.9.9-2.63.95-2.64,1.05-2.27,1.14-2,1.13-1.82,1.29-1.66,1.4L393.09,254l-1.29,1.45L390.48,257l-.6.87-.5.89-.56.85-.42,1-.45,1-.44,1-.4,1.11-.4,1.16-.15,1.08-.27,1.08v5l.19,1,.15.87.3.87.34.9.34.84.45.82.42.76.45.71.5.79.71.72.61.66.71.71.69.6.79.64.87.5.87.55,1.05.4,1,.45,1.13.34,1.22.26,1.42.29,1.48.13,1.66.19H412l2.34-.27,2.38-.42,2.34-.45,2.19-.6,2.19-.71,2.08-.77,1.22-.42,1.13-.55,1.24-.61,1.29-.69,1.82-1.05,2-1.13,1.9-1.3,1.92-1.58-.26.85-.18.81v3.06l.26,1.4.18.6.27.61.26.61.34.6v.19h27.21l-.26-.63-.26-.77V282l-.16-.84v-2.56l.21-.79,2.64-7.75,2.19-6.89,1.92-6.19,1.74-5.43,1.48-4.78,1.32-4.19,1.05-3.51,1-3.13.45-1.66.34-1.77v-4.25l-.24-1.84-.45-1.74-.52-1.64-.61-1.63-.87-1.56-1-1.39-1.13-1.3-1.24-1.32-1.29-1.05-1.4-1-1.47-.85-1.67-.71-1.63-.61-1.66-.42-1.85-.34-1.82-.29-2-.26L457,210l-2.3-.21-2.34-.16H441.14ZM312.54,210l-16.82,52.18-.29.87-.16.87-.16.79v.87l-.26,1-.16,1.06-.18.94v2.72l.24,1.58.36,1.56.53,1.47.61,1.4.79,1.4L298,280l.95,1.11,1.13,1.05,1.21,1,1.32.87,1.4.68,1.48.53,1.5.42,1.56.34h1.63l.71.19h3.93l2.08-.19,2-.23,2-.45,2-.45,1.93-.53,1.9-.71,1.92-.66,1.82-.89,1.77-.85,1.74-1.05,1.74-1.06L337.3,278l1.58-1.18,1.59-1.35,1.37-1.37-3.22,10.2h27.9L390.67,210H362.35l-13,40.4-.16.52-.55,1.74-.53,1.29-.58,1.24-.71,1.14L346,257.5l-.87,1.06-1,.95-.92,1-1.05.77-1.14.79-1.24.71-1.21.5-1.32.55-1.29.4-1.32.37-1.4.18-1.45.16h-.63l-.61-.16-.63-.18-.6-.27-.51-.23-.52-.37-.45-.34-.45-.4-.42-.55-.34-.45-.27-.61-.26-.53-.24-.68v-2l.19-1.13.26-1.13L340.7,210ZM113,249.72l-1.32,4.49-.42,1.21-.53,1.13-.52,1.14-.53,1-.63,1.06-.58,1-.71.95-.69.79-.71.8-.69.79-.87.66-.87.79-.87.71-1,.61-1.11.6-1.16.63-.87.43-.87.34-1,.37-1,.26-.94.24-1,.18-2,.35-1.9.18H88.16l-.87-.16-.77-.15-.71-.3-.63-.44-.5-.53-.61-.61-.34-.52-.37-.61-.26-.61-.16-.71v-1.45l.18-.82.27-.84.26-.69.42-.71.45-.63L85,260l.6-.63.58-.61.64-.5.68-.52.79-.45,1-.5,1.13-.45,1.19-.53,2.87-.9,3.59-1,.87-.27,1-.26,1.67-.34,1.66-.43,1.63-.47,1.66-.34,1.66-.42,1.56-.53,1.69-.45Zm332.52,0-1.32,4.49-.61,1.66-.68,1.63-.9,1.58-.92,1.48L440,262l-1.11,1.32-1.32,1.21-1.32,1.13-1.47.95-1.48,1-1.58.76L430,269l-1.69.53-1.85.45-1.82.32-1.92.18h-2.08l-.87-.18-.77-.27-.71-.24-.61-.44-.6-.53-.53-.61-.34-.52-.37-.61-.24-.61-.19-.71v-1.45l.16-.82.27-.84.26-.71.34-.69.45-.63.53-.69.53-.63.6-.61.69-.5.71-.52.76-.45.95-.5,1.06-.45,1.32-.53,2.87-1,3.67-1,.87-.27,1-.26,1.67-.34,1.66-.42,1.66-.48,1.66-.34,1.58-.42,1.64-.53,1.66-.45Z"/><path id="path1638" class="cls-1" d="M304.18,311.32v-3.19h7.91v10.25H309.3v-1.13l-1.13.53-1.22.45-.6.15H303l-1.3-.21L301,318l-.61-.26-.52-.24-.53-.26-.53-.34-.5-.37-.45-.35-.45-.44-.31-.53-.37-.42-.34-.53-.27-.61-.52-1.13-.37-1.32-.16-1.21v-2.8l.26-1.37.37-1.26.53-1.22.31-.52.37-.5.35-.51.44-.44.43-.45.52-.45.53-.34.61-.27.87-.42,1.05-.37,1.22-.16h3.56l.71.19.68.18.61.24.55.37.53.34.42.35.42.47.37.4.35.55.26.53.26.5.16.6.19.72-3.14.6-.27-.71-.34-.61-.45-.5-.52-.47-.64-.08-.71-.26-.79-.16h-2.08l-.61.16-.53.15-.52.27L301,303l-.44.34-.35.37-.42.53-.29.53-.24.53-.18.58-.19.71v4.08l.19.69.18.63.24.53.37.53.34.5.35.37.44.34.43.26.52.27.53.16.61.18h3.4l.68-.16.53-.26.53-.27.45-.34.5-.37V311.4Zm-31-2.43v-1.32l.16-.63v-.69l.53-1.37.63-1.31.34-.64.35-.6.45-.51.5-.5.55-.47.5-.42.61-.35.52-.34,1-.26.95-.29,1-.16h2.21l.93.16,1,.29.87.31.77.37.79.5.71.53.69.74.52.66.53.71.45.77.42.87.26,1,.19.95.16.92v2l-.16,1-.19,1-.26.87-.42.87-.45.79-.45.76-.6.71-.61.61-.79.53-.69.52-.87.43-.63.29-1,.26-.92.16h-2l-1-.16-.95-.26-.85-.27-.89-.42-.8-.42-.68-.63-.61-.61-.6-.71-.53-.69-.45-.79-.34-.87-.27-.87-.26-.95v-1Zm3.85,0v1.21l.27,1.14.18.6.26.53.24.53.37.42.37.42.42.45.42.34.53.29.53.24.5.19h2.66l.58-.19.53-.24.53-.29.45-.34.34-.45.42-.42.26-.53.27-.5.24-.55.18-.5.26-1.24v-2.45l-.26-1.11-.18-.61-.24-.52-.27-.43-.26-.52-.34-.45-.42-.37-.32-.42-.53-.27-.53-.26-.58-.16h-2.66l-.6.16-.51.26-.44.27-.53.34-.32.45-.37.45-.37.44-.23.51-.27.52-.18.53-.27,1.21Zm-57.74,9.47V299.27h3.24L231.28,312V299.27h3.48v19h-3.4l-8.54-12.34v12.34Zm-20.38,0V299.27h3.74v7.51h8.46v-7.51h3.64v19h-3.64V310h-8.46v8.25Zm-37.29-.08v-19h13.71v3.24h-9.94v4.19h9.26v3.22h-9.26v5.27h10.31v3.22Zm158.21,0v-8l-6.73-11h4.38l4.27,7.52,4.27-7.52h4.35l-6.72,11.11v7.91Zm-59.83,0v-18.8h3.77v15.58h8.36v3.22Zm-21.62-9.39v-1.95l.18-.69.45-1.37.61-1.31.42-.64.69-.6.42-.51.52-.5.43-.47.63-.42.53-.35.58-.34.89-.26.95-.29,1.06-.16h2.16l1,.16.93.29.89.31.79.37.77.5.71.53.69.74.52.66.53.71.45.77.34.87.35,1,.18.95.18.92v2l-.18,1-.18,1-.35.87-.34.87-.45.79-.53.76-.52.71-.69.61-.71.53-.77.52-.79.43-.89.26-.93.26-1,.16h-2l-1-.16-.87-.26-.87-.26-.87-.43-.82-.42-.69-.63-.6-.61-.61-.71-.53-.68-.45-.8-.31-.87-.37-.87-.19-.94-.15-1Zm3.82,0v1.21l.29,1.11.16.63.26.53.27.53.37.42.34.42.39.45.48.34.42.29.61.24.52.19H249l.6-.19.53-.24.53-.29.44-.34.35-.45.34-.42.37-.53.24-.5.26-.55.18-.53L253,310v-2.45l-.24-1.11-.18-.61-.26-.52-.24-.43-.26-.52-.45-.45-.35-.37-.47-.34-.5-.27-.53-.26-.5-.34h-2.61l-.61.15-.52.27-.53.26-.42.34-.35.45-.44.45-.27.45-.26.5-.26.53-.16.52-.29,1.35Zm-50.83,2.64,3.82,1.13-.16.79-.34.71-.27.61-.36.61-.43.6-.42.43-.45.44-.52.45-.53.35-.61.34-.47.16-.61.18-.71.16h-4.09l-.87-.26-.87-.27-.76-.34-.77-.45-.74-.53-.58-.6-.6-.72-.53-.76-.45-.9-.55-.79-.27-1-.18-1.06-.18-.95v-3.06l.18-.94.34-.95.35-.9.44-.87.53-.79.61-.66.68-.63.72-.53.76-.42.79-.45.87-.26,1-.19,1-.18H188l.8.13h.89l1,.5.79.24.6.37.72.42.5.45.71.68.53.79.42.95.42,1.06-4,1-.18-.69-.5-.74-.42-.6-.53-.45-.61-.32-.6-.29-.64-.18H186l-.53.18-.42.18-.45.16-.42.27-.35.29-.36.42-.45.53-.29.6-.27.58-.23.74-.19.58-.16.69v2.82l.16.6.19.69.23.63.27.5.34.61.45.45.37.34.34.34.42.29.45.16.42.16.45.18h1.82l.71-.18.69-.24.6-.45.53-.6.42-.69.35-.79Zm-42.61,6.75V302.46h-5.44v-3.19H158v3.24h-5.51v15.82Z"/></svg>