<svg id="Layer_1" data-name="Layer 1" xmlns="http://www.w3.org/2000/svg" viewBox="0 0 500 500"><defs><style>.cls-1{fill:grey;}</style></defs><path class="cls-1" d="M116.69,208.1,74.22,240.76a37.27,37.27,0,0,0-36-28.34H7.83v75.13H38.21a36.34,36.34,0,0,0,35.93-28.31l42.52,32.66,42.47-32.66v28.31H207V272.3H175.33V212.42H158v28.31l-40.36,32.69L109,265.78l19.6-15.25,20.68-16.31-12-9.78L97,256l-8.65-7.61,40.36-30.47-12-9.8ZM24.14,227.7H37.2a18.67,18.67,0,0,1,7.85,1.73,21.17,21.17,0,0,1,6.6,4.81,22.72,22.72,0,0,1,4.55,7.24,24.88,24.88,0,0,1,0,17.7,23.38,23.38,0,0,1-4.29,7.3,20,20,0,0,1-6.58,5,18.64,18.64,0,0,1-8.27,1.9H24.14Zm237.33,44.63v15.25H213.56V212.45H231V272.3Z"/><path class="cls-1" d="M463.17,288.94c14.73,0,26.7-7.39,29-23.5l-.92-.92H487.1l-.92.92c-2.28,11.53-9.66,18-22.55,18-16.11,0-27.65-12-27.65-33.15s12-33.16,27.65-33.16c12.89,0,20.18,6.46,22.55,17l.92.92h4.15l.92-.92c-2.3-14.73-13.81-22.55-29-22.55-18,0-34.08,12.89-34.08,38.2,0,26.27,16.12,39.16,34.08,39.16Zm-47-2.31V213.86l-.93-.92H407.9l-.92.92-27.62,64.93h-.95l-28.54-64.93-.9-.92h-7.38l-.92.92v72.77l.92.92h4.16l.92-.92V224.82h.92l26.7,61.69.92.93h5.54l.92-.93,26.69-61.69h1.39v61.69l.92.93h4.15l1.39-.93Zm-89.81,0V283.4l-.92-.92H285.86l-.92-.93V253.94l.92-.93h37.31l.92-.92V248.4l-.92-.92H285.86l-.92-.93V219.4l.92-.93h39.62l.92-.92v-3.69l-.92-.92H279.35l-.92.92v72.77l.92.92h46.13l.92-.92Z"/></svg>