<svg id="Layer_1" data-name="Layer 1" xmlns="http://www.w3.org/2000/svg" viewBox="0 0 500 500"><defs><style>.cls-1{fill:grey;fill-rule:evenodd;}</style></defs><g id="g2796"><path id="path2484" class="cls-1" d="M238.68,308l-23.33-.53,25.1-36.42-19-51.31,24.05-.35c3.18,9.19,6.83,20.54,10.19,29.91a4.87,4.87,0,0,1,1.24.35l18.85-29.91h23.52"/><path id="path2486" class="cls-1" d="M488.07,281.13c-5.48-.17-11,.1-16.44.1l-18.49-27.85-1.41-.18-5.66,28.29H428.41l16.42-80.44-9.37-.36.53-3.89,28.47-2.65-10.43,49,2.56.21,14.76-13.82c9.9-9.9,7.25-8.84,21-9.37l-1.24,5.23c-8.84,3.71-21.74,10.86-26.87,19,12.91,18.56,12.91,18.56,23.69,32.71.18,2.47,1,2.47.1,4.06"/><path id="path2488" class="cls-1" d="M7.61,280.07H43.5c0,.53-35.89.53-35.89,0"/><path id="path2490" class="cls-1" d="M91.94,280.07h21.75c0,.53-21.75.53-21.75,0"/><path id="path2492" class="cls-1" d="M185.65,280.07h22.27c0,.53-22.27.53-22.27,0"/><path id="path2494" class="cls-1" d="M91.94,280.07l11.67-59.93h15.91c.89,0,3.36-.27,4.25-.27L122,229.25c3.89-8.49,14.87-8.76,23-9.64-1.06,7.07-2.12,14.14-3.18,21.39-25.81-12.91-25.64,23.87-28.11,39.07"/><path id="path2496" class="cls-1" d="M190.6,222.44c1.06,1.06,2.29,2.12,3.53,3.18l1.06-5.87h21.93l-9.2,60.32H185.11a26.37,26.37,0,0,1,.71-3.89c-2.83,1.42-5.48,2.83-8.13,4.25C124.79,292.18,140.76,203.24,190.6,222.44ZM178,237.7a13.4,13.4,0,1,1-13.87,13.39A13.67,13.67,0,0,1,178,237.7"/><path id="path2498" class="cls-1" d="M7.61,280.07,20.69,192l20.66.86c32.05,1.33,56.5,19.4,45.35,52.56-6.35,18.87-21.49,29.84-43.2,34.66Zm26.17-20.33,6.89-46.14c41.14,2.13,28.76,49.76-6.89,46.14"/><path id="path2500" class="cls-1" d="M388.79,228.62c22.13-20.63,46.45.43,27.16,15.94-8.81,7.08-15.5,6-26.1,6.34-3.84,23.59,8.77,24.53,26.52,14.32,1.41,2.12,1.41,2.12,1.59,3.36C377.54,299.81,354.87,260.54,388.79,228.62Zm2.47,18a36.79,36.79,0,0,1,2.33-7.18c2.2-5.16,4.15-8.63,8.71-12.1,10.71-8.17,11.31,5.77,4.15,14.07-4.58,5.3-8.83,4.46-15.19,5.21"/><path id="path2502" class="cls-1" d="M321.78,204.93c-6,3.72-7.07,6.19-10.08,12.38h-4.24l3.89-18.56,75.49-.36-2.65,19.1a52.24,52.24,0,0,0-5.3-.18c-.71-6.36-.89-8.66-5.84-12.38H356.26c-.9,2.4-9.18,47.27-12.1,61.28-1,4.56-2.67,9.07,4.18,9.3l4.38.14-.35,5.31H312.23l.71-5,4.57-.28c6.8-.41,7.28-5.14,8.39-10.54,4.17-20.16,8.35-40.19,12.68-60.22h-16.8"/></g></svg>