<svg id="Layer_1" data-name="Layer 1" xmlns="http://www.w3.org/2000/svg" viewBox="0 0 500 500"><defs><style>.cls-1{fill:grey;}</style></defs><path class="cls-1" d="M21.91,204v73.58l18.4-18.47V222.41H108V204Z"/><path class="cls-1" d="M58.7,240.73H95.8v18.39H58.7Z"/><path class="cls-1" d="M21.91,277.52,40.31,296H108V277.52Z"/><path class="cls-1" d="M144.83,222.41h39.91v5.7H151.06V247h30.11v5.7H151.06V272h34.06v5.7H144.83Z"/><path class="cls-1" d="M209,256.84l-15.43-20.07h7l12.09,15.81,12.08-15.81h6.77L216,256.61l16.12,20.91H225l-12.62-16.65-12.62,16.65H193Z"/><path class="cls-1" d="M244.11,266.72V242.09h-5.7v-5.32h5.7V224.53h6.08v12.32h13v5.32h-13V266c0,4.94,2.81,6.77,6.84,6.77a12.35,12.35,0,0,0,5.93-1.45v5.25a16,16,0,0,1-7.37,1.75c-6.54-.08-11.48-3.27-11.48-11.56"/><path class="cls-1" d="M273.83,236.77h6.08v10.65c3-6.77,8.9-11.71,16.65-11.33v6.54h-.46c-8.89,0-16.19,6.38-16.19,18.7v16.26h-6.08Z"/><path class="cls-1" d="M333.88,254.71c-.68-7.45-4.94-13.76-13-13.76-7.07,0-12.4,5.78-13.23,13.76ZM322,273.18a16.87,16.87,0,0,0,12.84-5.7l3.8,3.42c-4.1,4.57-9.12,7.68-16.8,7.68-11.25,0-20.29-8.59-20.29-21.28,0-11.78,8.28-21.29,19.53-21.29,12.09,0,19,9.58,19,21.59,0,.61,0,1.14-.08,2.13H307.73c.84,8.51,7.07,13.45,14.3,13.45Z"/><path class="cls-1" d="M350.76,236.77h6.08v6.84c2.66-4,6.31-7.75,13.15-7.75A13.87,13.87,0,0,1,383.07,244c2.89-4.48,7.22-8.13,14.29-8.13,9.35,0,15.12,6.31,15.12,16.34v25.24H406.4V253.65c0-7.83-3.95-12.32-10.56-12.32-6.16,0-11.33,4.57-11.33,12.62v23.49h-6v-24c0-7.68-4-12.09-10.49-12.09s-11.33,5.33-11.33,12.85v23.19h-6.08l.15-40.6Z"/><path class="cls-1" d="M455.28,254.71c-.68-7.45-4.94-13.76-13-13.76-7.07,0-12.39,5.78-13.22,13.76Zm-11.93,18.47a16.85,16.85,0,0,0,12.84-5.7L460,270.9c-4.11,4.57-9.13,7.68-16.8,7.68-11.18,0-20.3-8.59-20.3-21.28,0-11.78,8.28-21.29,19.54-21.29,12.08,0,19,9.58,19,21.59,0,.61,0,1.14-.08,2.13h-32.3c.76,8.51,7.14,13.45,14.29,13.45Z"/><path class="cls-1" d="M465.77,232.44h-2.35v-1.22h5.93v1.22H467v6.16H465.7v-6.16Z"/><path class="cls-1" d="M470.79,231.22h1.37l2.28,3.5,2.28-3.5h1.37v7.38h-1.3v-5.32l-2.35,3.49h-.08L472,233.35v5.25h-1.3l.08-7.38Z"/></svg>