<svg id="Layer_1" data-name="Layer 1" xmlns="http://www.w3.org/2000/svg" viewBox="0 0 500 500"><defs><style>.cls-1{fill:grey;}</style></defs><path class="cls-1" d="M304.61,270.67H294.5V229.46h32.55a14.77,14.77,0,0,1,9.77,3.51s3.87,3.24,3.87,11.14v26.56h-10.1V243.34s.13-2.78-.82-3.75a3.31,3.31,0,0,0-2.44-1.07H304.59v32.12Zm43.11,0V229.46h40.69v9.19H357.78v7H379v8.87H357.78v7h30.78v9.18H347.72Zm-70.89,0V229.46h10.09v41.23H276.83Zm128.65-34.78-2.59,34.69V238.46h-9.53v-9h37.86v9.17H413v32.12ZM246.15,235.89m-2.62,34.69V238.46H234v-9h37.87v9.17H253.64v32.12H243.53Zm-30.41-25a13.87,13.87,0,0,0,4.54-.35,2.12,2.12,0,0,0,1.05-1.8v-2.72a2.1,2.1,0,0,0-1.05-1.79,14.49,14.49,0,0,0-5.29-.35H192.73v7Zm5.44,25.12v-14.1a2.1,2.1,0,0,0-1.05-1.79,11.36,11.36,0,0,0-4-.35H192.73v16.24H182.65V229.46h31.48c5.44,0,9.19.82,11.78,3.32s2.87,5.89,2.87,9.53v2.94a9.79,9.79,0,0,1-3.43,7.3l.39.19a3.82,3.82,0,0,1,1.17.9,7.38,7.38,0,0,1,1.42,5.31v11.82ZM66,229.46v41.21H76.11V254.43h30.6v-8.88H76.15v-7h35.53v-9.08Z"/><path class="cls-1" d="M427.81,263.36v1.91h1.78a.87.87,0,0,0,1-.86,1,1,0,0,0-1-1.05Zm-.7-.62h2.46c.86,0,1.67.15,1.76,1.39a1.43,1.43,0,0,1-.73,1.4c.55.36.58.45.66,1.39s0,.85.26,1.33h-.84l-.1-.71c-.13-.64.19-1.65-.95-1.65h-1.82v2.36h-.7v-5.51Zm1.86-1.52a4.41,4.41,0,1,0,4.43,4.41,4.41,4.41,0,0,0-4.43-4.41m0,9.4a5,5,0,1,1,5-5,5,5,0,0,1-5,5h0"/><path class="cls-1" d="M168.81,271.07c3.28-1.11,5.83-4.88,6.43-9.61v-1.37H158.43v11Zm6.43-31.16v-1.24c-.67-4.95-3.39-8.84-6.88-9.76h-9.93v11Zm-59.13,20.18v1.35c.62,4.75,3.17,8.56,6.42,9.63h10.31v-11ZM123,228.91c-3.46.92-6.23,4.81-6.87,9.78v1.22h16.75v-11Zm52.26,15.54H158.45v11h16.79Zm-37.8,26.64h16.38v-11H137.44Zm16.38-42.18H137.44v11h16.38Zm-37.69,26.57h16.75v-11H116.13v11Z"/></svg>