<svg id="Layer_1" data-name="Layer 1" xmlns="http://www.w3.org/2000/svg" viewBox="0 0 500 500"><defs><style>.cls-1{fill:grey;}</style></defs><path class="cls-1" d="M53.85,219.55a7.46,7.46,0,0,0-3.82,7q.13,11.85.23,23.72c8.63,1.44,17.31.31,26,.56.76-9,2.67-18-.53-26.94l-.47-2.09c.07-3,1.4-4.58,4.57-4.24.56.06,1.13,0,1.69,0,4,.14,8.84-1.52,11.61.57,3.14,2.35-.86,7.18.2,10.93-1,7.33-.59,14.68-.23,22,1.09,8.73-.79,17.48.19,26.23.34,3-.39,6,.74,9,.67,1.74-.12,2.94-1.81,3.59-5,.05-10.06.12-15.09,0-3.68-2.86,0-6.13-.52-9.17-1.13-6.8-.38-13.65-.37-20.46,0-3.81-.81-5.52-5-5.25-5.7.36-11.44.22-17.16,0-2.9-.1-4.13.71-4.06,3.78.17,7.23.24,14.48,0,21.71-.09,3.21,2,5.32,3,8-.77,2-2.49,1.44-3.94,1.45-5.16,0-10.33,0-15.49,0-2.07,0-4.07-.06-3.14-3.09,1.84-2.62,2.11-5.62,2.11-8.68q0-24.3,0-48.61c0-3.06,0-6.1-1.89-8.75-.88-1.79-.49-3.16,1.63-3.19,6.88-.09,13.77-.23,20.65.1C53.66,217.8,54,218.69,53.85,219.55Z"/><path class="cls-1" d="M311.43,243.52c-1.59,2.76.92,4.18,2.16,5.75q11.54,14.64,23.38,29c3.88,4.71,8,9.28,14.46,11a62.2,62.2,0,0,1-17.75.62c-3.3-1.25-6.73-.19-10.08-.52-2-.19-4.22.29-5.12-2.29,1.47-2.71-.09-4.83-1.58-6.73-5.88-7.51-12-14.82-17.78-22.42-1.75-2.31-3.06-1.21-4.71-.51-1,10.08-2.22,20.16,1,30.1a2.48,2.48,0,0,1-.18,2.16c-6,.56-12,.1-18,.24-1.54,0-3-.07-3.78-1.77.41-1.66,1.89-2.39,3-3.44,1.51-.55,1-1.87,1-2.92q0-27.28,0-54.57a4.58,4.58,0,0,0-.49-2.21c-.52-1.52-.19-3.32-1.51-4.59-.85-3.18,1.45-2.89,3.29-2.86,5.09.08,10.18-.32,15.26.21,1.52,1.57.27,3.18.12,4.81a134.14,134.14,0,0,0,.06,28.82c6-2,9.54-7.45,14.92-10.28C311.74,240.22,312.34,241.14,311.43,243.52Z"/><path class="cls-1" d="M357.27,240.82c3.31-12.9,16.87-24,31.08-25,9.81-.68,19.47,0,27.87,6.08,4.58,5.1,9.76,9.63,12.63,16.18,3.78,8.62,3.41,17.43,2.39,26.39a28.65,28.65,0,0,1-8.66,15.87c-4.16,3-8.33,6-13.1,8.06-1.57.68-3,1.81-4.83,1.57-1.23-.16-3,.7-3.45-1.07-.32-1.15.77-2.07,1.64-2.84,1.54-1.39,3.66-2.18,4.44-4.34a10.49,10.49,0,0,1,.78-1.44c3.07-3.78,3.76-8.34,4.29-13,1.34-10,2-20,0-30a5.83,5.83,0,0,0-1.14-2.56,23.58,23.58,0,0,1-3.51-5.21c-6.41-10.86-18-11.65-25.94-1.8-1.32,1.65-2.24,3.57-3.61,5.19-2.71,3.5-2.65,7.84-3.55,11.88-.6,11.45-.61,22.82,4,33.64a15.89,15.89,0,0,0,5.79,6.95c1.24.85,3,1.69,2,3.53s-2.68,1-4.08.56a35.87,35.87,0,0,1-24.13-21.83,11.74,11.74,0,0,0-1.72-3.56l-.3-2A64,64,0,0,1,357.27,240.82Z"/><path class="cls-1" d="M219.45,279.15l.09,2.88c.37,3.53,2.31,4.7,5.82,4.63,4.54-.09,9.12-.61,13.65.35,11.53-2.84,15.84-12.12,19.57-22.23a57.88,57.88,0,0,1-1.22,19.93c-.16,4.15-2.07,5.49-6.4,5.4-15.3-.32-30.61-.11-45.91-.14-2.65,0-6,.58-4.13-4.09a12.73,12.73,0,0,0,1.1-6.06c0-17.53,0-35.06-.07-52.6a36.06,36.06,0,0,0-1-6.1c-1.48-3.29.71-3.51,3-3.51,5.31,0,10.63-.09,15.94,0,2.53,1.6.53,3.06-.14,4.57a8,8,0,0,0-.94,4.4q0,24.92,0,49.84A3.51,3.51,0,0,0,219.45,279.15Z"/><path class="cls-1" d="M467,278.74l1.08,6.82c1.09,2.58-.34,3.52-2.58,3.76a42.34,42.34,0,0,1-6.27.08c-3-.12-6.53,1.09-8.95-.72-3-2.22,1-5.56-.16-8.4V227.42c0-2.47.38-5-2.09-6.77l.06.1c-.85-2.85.92-3.17,3.06-3.15,5.46.05,10.93-.12,16.38.08.29.25.78.59.72.81-4.07,14.33-1.28,29-2,43.45-.28,5.5-.07,11,0,16.53,0,.76-.35-.14-.07.52C466.53,279.81,466.77,278.92,467,278.74Z"/><path class="cls-1" d="M129.5,223.8l-1.1,2.37c-.76,1.4-2.11,2.14-3.3,3.1-5,4.1-4.55,9,1.17,11.91.61,1.86,1.32,3.71,1,5.74-3,4.18-5.59.92-8.27-.49-1.44-.75-2.58-3.06-4.36-1.93s-2,3.7-1.47,5.75a26,26,0,0,0,4,9.39c3.88,5.27,10.32,5.5,16,.64,3,3.63,7.55,3.89,11.51,5.44,2.29,2.9-.59,3-2.06,3.42A35.22,35.22,0,0,1,120.25,268a8.18,8.18,0,0,1-1.68-.52c-4.24-2.14-7.45-5.55-10.71-8.88-4.71-11.41,1.81-32.27,11.41-39.19,3.45-.79,5.66-3.65,8.67-5.18,1.31-.66,2.57-2.07,4-.54,1.25,1.35.26,2.8-.26,4.2C131,219.86,128.08,221.05,129.5,223.8Z"/><path class="cls-1" d="M118.17,266.29l1.13.17c8.51,5.68,17.57,3.9,26.6,1.84,1.26-.29,2.52-.71,3.8-.93,6.14.1,9.47-4.31,13.15-8.16,2.43-.38,4.56-1.86,7.07-2,2.81,5.17-.29,9.84-1.2,14.69-.7,1.64-1.2,3.43-3,4.33a4.07,4.07,0,0,1-3.32-.12c-6.23-3.3-11.58-1.94-16.33,2.9-5.4,3.88-11.6,5.06-18,5.38a7.56,7.56,0,0,1-1.71.1c-2.78-.41-3.74-3.16-5.78-4.52-1.17-2.11-3.86-3-4.43-5.61C115.05,271.26,114.24,268.18,118.17,266.29Z"/><path class="cls-1" d="M167.45,271.93c.21-5,3.42-9.68,1.36-14.87-2.76-3.57-2.11-7.94-2.82-12-2.26-6.05-6.76-10-12.2-13.16,2.31-1.9,4.34-2,6.92-.24,1.41,1,2.33,2.43,3.51,3.64,2.81,2.9,5.57,6.08,9.38,1.09.61-.79,1.73-.42,2.55.22,2.34,4.6,4.71,9.09,8.56,12.78,4.12,3.94,1.2,8.59.23,12.85-.35,1.59-1.37,3.12-1.83,4.78-3.88,1.94-8.33,2.64-11.74,5.7C170.67,273.35,168.1,275.31,167.45,271.93Z"/><path class="cls-1" d="M133.26,260.28c-2.81,6.64-10.34,8.35-15.36,2.56-4.21-4.86-8-10.59-5.69-18.07,1.26-4.18,2.55-3.75,5.36-1.4s5.09,6.19,9.7,3.55Q130.26,253.6,133.26,260.28Z"/><path class="cls-1" d="M407.83,281.26c1.18,1.54,1,2.63-.84,3.63s-3.37,2.3-6.4,4.41c7.59.2,12-3.45,16.64-6.2,1.75-1,2.86-3.16,5.35-2.75-11.05,12.2-25.16,13.5-39.91,10.17-13.95-3.16-22.84-12.26-26.21-26.37,1.72.12,1.78,1.43,2.29,2.72,4.5,11.28,12.84,18.42,24.31,22.08.93.3,1.82.54,2.59-.32C372,281,372,257,373.56,244.57a4.61,4.61,0,0,1,2.17,2.81c1,4.55.43,9.16.53,13.74a36,36,0,0,0,4.48,17.05c4.76,8.53,13.93,10.77,22.07,5.52C404.38,282.68,405.65,281,407.83,281.26Z"/><path class="cls-1" d="M173.15,281l-6.69,4.24c-1.05,1.78-2.8,2.47-4.65,3-1.59.27-3.18,1-4.8.12-1.31-3,1.32-4.41,2.55-6.4,2.11-1.9,3.16-4.76,5.63-6.35l2.27-3.67a5.23,5.23,0,0,0,5.94-2.09c2.42-3,5.5-3.55,9-2.21a1.22,1.22,0,0,1,1,1.14C181.4,274,176.86,277.15,173.15,281Z"/><path class="cls-1" d="M175.65,236.56a4.9,4.9,0,0,0-1.58.52c-1.43,1.14-.21,4.92-2.48,4.22s-5.17-1.43-7.2-3.69c-2.76-3.06-4.94-7.81-10.6-5.71a6.44,6.44,0,0,1-2.11-.44c-1.16-.72-3.54.33-3.54-1.71,0-2.27,2-2.76,4-2.59,8.12-1.13,15.89-.53,22.71,4.66a.59.59,0,0,1,.75.24C178,233.53,178.15,235,175.65,236.56Z"/><path class="cls-1" d="M92.88,289.35c-1.3-12.68.1-25.39-.28-38.08a118.69,118.69,0,0,1,0-21.41c0-1.51.12-3,.15-4.52.14-7.17.14-7.2-7.47-7.15-3.77,0-8-1.07-10.08,3.64l-6.43-4h35c-10,3-10,3-10,14q0,22.94,0,45.86c0,3.4-.35,7,2.55,9.63C97,291,94.9,290.12,92.88,289.35Z"/><path class="cls-1" d="M175.65,236.56a3.52,3.52,0,0,0-.07-4.5c7.16,2.29,13,12.86,12.44,22.26-.29,5.26-2.15,9.94-4.65,14.45l-1-1.14c-.46-4.08,2.66-7.2,2.81-11.33.13-3.21-.31-5.13-2.72-7.24C178.78,245.8,176.07,241.74,175.65,236.56Z"/><path class="cls-1" d="M311.43,243.52a2.08,2.08,0,0,0-2.26-2.34c5.48-6.13,13.38-9.55,18.24-16.37,2,1.22,3.5.05,5.13-1.05s3.41-2.69,5.61-.93C329.33,229.83,321.08,237.57,311.43,243.52Z"/><path class="cls-1" d="M129.5,223.8c-3.51-3.91,2.86-6.05,1.61-10.11-2.49,1.71-4.84,3.23-7.1,4.9-1.49,1.1-2.73,3-4.74.82a31.25,31.25,0,0,1,18.43-10.48c1,1,3.11.32,3.38,2.34C136.92,215.17,132.39,218.73,129.5,223.8Z"/><path class="cls-1" d="M200.92,285.88c-.15,2.75,1.28,3.55,3.87,3.54,15.83-.08,31.67-.26,47.5.1,4.14.1,3.55-3.07,5.07-4.81.93,4.42-.66,5.84-5.32,5.77-18.54-.27-37.09-.11-55.63-.12-1.46,0-3,.34-5-1.15C194.82,287.62,198.72,288.8,200.92,285.88Z"/><path class="cls-1" d="M467,278.74c-.6,1.58.38,3.44-1.3,5.46,0-20.62,0-40.68-.06-60.74,0-2.24,2.07-3.15,2.34-5.06.7-1,1.69-1,2.2-.09s-.38,1.67-1,2.35c-2.05,3.25-1.9,6.91-1.93,10.53Q467.17,255,467,278.74Z"/><path class="cls-1" d="M126.27,241.18c-2.13,1.14-4.72,1.21-5.34-1.1-.91-3.36-1.57-7.07,1.06-10.34,1.71-2.12,4.31-2.33,6.41-3.57A56.45,56.45,0,0,0,126.27,241.18Z"/><path class="cls-1" d="M338.15,222.83c-3,0-5.08,1.89-7.07,3.86-3.1,3.06-3.44.68-3.67-1.88a1,1,0,0,1,.26-1.06c.91-2.13-.79-5.61,3.2-6.14,2.88,0,5.75-.08,8.62,0,1.9.07,3,.81,1.92,2.89Z"/><path class="cls-1" d="M150.36,267.62c-8.84,3.58-17.77,6-27.13,1.9-1.55-.67-3.29-1.19-3.93-3.06,8,2.42,16,3.46,24.3,1.15,1.25-.35,1.47-.83,1.17-1.89l5.63.55c.35.31.46.62.33.91S150.48,267.62,150.36,267.62Z"/><path class="cls-1" d="M431.24,264.48c-.56-8.59,1.2-17.34-3.2-25.62-2.25-4.22-4.47-8.24-7.85-11.64-1.55-1.56-3.79-2.69-4-5.31A37,37,0,0,1,431.24,264.48Z"/><path class="cls-1" d="M448.07,220.65c3.29.66,2.6,3.31,2.6,5.46q0,27.06,0,54.12c-.3.52-.59.51-.87,0q-.09-24.81-.2-49.62C449.55,227.22,450,223.75,448.07,220.65Z"/><path class="cls-1" d="M118.17,266.29c-1.88,2.4-1.92,5.27-2,8.11a30.51,30.51,0,0,1-8.27-15.81C112.44,259.64,114.61,263.89,118.17,266.29Z"/><path class="cls-1" d="M277,225.07c1.54,1.36,1,3.19,1,4.84q0,24.93,0,49.86c0,1.76.84,4-1.59,5q.17-26.7.35-53.4C276.83,229.27,277,227.17,277,225.07Z"/><path class="cls-1" d="M469.23,220.66c.07-1,1.24-2.61-1.21-2.26-5.17-.08-10.34-.14-15.51-.26-2.05,0-3.88.14-4.38,2.61l-8.56-2.17c12.66-1.71,25.27-1.42,37.95-.53C475,219.94,471.69,218.87,469.23,220.66Z"/><path class="cls-1" d="M219.45,279.15c-1.24-.92-1.23-2.27-1.23-3.61q0-25.44,0-50.88a4,4,0,0,1,1-3.14c.88.83.66,1.78.29,2.74Q219.52,251.71,219.45,279.15Z"/><path class="cls-1" d="M220.61,218.29l-15.34-.17c-2.17,0-4.33-.06-4.37,3-2.64-1.69-5.71-1.8-8.68-3.16h39.44c-2.66,1.87-4.66,1.23-6.55,1.22C223.65,218.68,221.89,219.71,220.61,218.29Z"/><path class="cls-1" d="M53.85,219.55c-7.22-2.86-14.67-1.13-22-1-.94,0-1.13,1.35-1.24,2.3-2.42-1.75-5.47-1.25-8.1-3H59.89l.14.71Z"/><path class="cls-1" d="M30.38,286.89c.4,1.07.73,2.39,2.11,2.38,6.83,0,13.7,1.06,20.46-.75,2.43-.93,4.73.06,7.08,1.17H22.53C24.94,287.7,28,288.59,30.38,286.89Z"/><path class="cls-1" d="M92.88,289.35c1.68.21,3.14,0,3.46-2.05l7.6,1.54-.06.92H65.61c.87-1.72,2-1.44,3-1.49,1.14,0,2.28,0,3.41,0,1.35.9,3.19-.26,4.44,1.06Z"/><path class="cls-1" d="M294.28,218.29c-4.77,0-9.53-.12-14.3-.15-1.88,0-4-.34-4.46,2.35l-8.85-1.64c11.93-2.13,23.84-1.65,36.32-1.55-1.37,2.66-2.82,2-4.07,2C297.5,218.42,295.55,219.87,294.28,218.29Z"/><path class="cls-1" d="M166,245.06a26.35,26.35,0,0,1,2.82,12c-.23,4.73-3.79,2-5.87,2.62a.85.85,0,0,1-1.28-.14C165,255.3,163.78,249.66,166,245.06Z"/><path class="cls-1" d="M470.53,289.31l6.85.71h-39c3.41-2.55,6.52-1.42,8.85-2.73,4,2.68,8.44,1.17,12.68,1.59C463.43,289.24,467,288.08,470.53,289.31Z"/><path class="cls-1" d="M318.48,287.14c5,2.31,10.33.63,15.48,1.22.35,0,2.21-1.05,1.19.9-.2.39-1,.47-1.47.69H313.57C314.7,287.33,317.24,288.42,318.48,287.14Z"/><path class="cls-1" d="M273.45,288.21c7.23,2.39,14.65.8,22,1,1.67-1.52,3.87.5,5.57-.82.7.11,1.76,0,2,.37.83,1.2-.06,1.66-1.17,1.66-11.72,0-23.45,0-35.22-.71C269.22,290.42,271.22,288.74,273.45,288.21Z"/><path class="cls-1" d="M294.28,218.29c1.65-.12,3.37-.54,4.64,1-3.63,1.65-4.51,4.74-4.52,8.37,0,7.92-.09,15.84-.15,23.76-2.16-1.82-1.22-4.32-1.13-6.44C293.48,236.11,291.76,227.1,294.28,218.29Z"/><path class="cls-1" d="M301,288.42c-1.67,1.52-3.68.76-5.57.82-.92-1.4-2.39-2.51-2.37-4.42.06-8.73.11-17.45.24-26.18,0-.39.72-.77,1.1-1.16,0,7.56,0,15.11-.06,22.66C294.32,284.74,296.21,287.73,301,288.42Z"/><path class="cls-1" d="M341.41,220.52c-3.12-5-7.89-1.33-11.78-2.24-2,2-4.53-.18-6.63.9-1.21,0-3.07,1-3.32-.88-.22-1.65,1.63-1.06,2.61-1.07,8.6,0,17.2,0,25.8,0l.13,1.62Z"/><path class="cls-1" d="M470.53,289.31c-5.94.05-11.88.08-17.81.14-2.14,0-4.29.12-5.5-2.16,2.07-1.92,2.34-4.49,2.55-7.08l.87,0c.07,8.08.08,8.31,8.91,7.92,2.87-.13,7.06,2.51,8.57-2.59C469.29,286.58,471.34,287,470.53,289.31Z"/><path class="cls-1" d="M161.66,259.55l1.28.13c-3,4.49-5.44,9.95-12.58,7.94,0-.45,0-.9,0-1.34A59.38,59.38,0,0,0,161.66,259.55Z"/><path class="cls-1" d="M75.69,223.92c.6.39,1.73.78,1.74,1.18.06,8.79,1.69,17.63-.81,26.34a1,1,0,0,1-.19-1.55Z"/><path class="cls-1" d="M76.43,249.89c.06.52.13,1,.19,1.55q-12.91,0-25.83,0c-.16,0-.44-.1-.47-.2a5,5,0,0,1-.06-.95C59,250.1,67.72,250.86,76.43,249.89Z"/><path class="cls-1" d="M174.83,231.82a44.21,44.21,0,0,0-22.71-4.66C160.44,225.05,168.4,224.76,174.83,231.82Z"/><path class="cls-1" d="M357.27,240.82l-1.11,21.34C354.24,254.92,354.24,247.79,357.27,240.82Z"/><path class="cls-1" d="M239,287c-4.92,0-9.83,0-14.75.13-3.55.06-5.43-1.29-4.72-5.11,1.3,2.94,3.54,3.93,6.74,4.13C230.52,286.43,234.88,285.19,239,287Z"/><path class="cls-1" d="M323,219.18c2-1.77,4.41-.71,6.63-.91-1.2,1.63-.23,4-2,5.48C327.56,220.75,325.36,219.88,323,219.18Z"/><path class="cls-1" d="M141.08,211.27c-1.14-.76-2.79-.78-3.38-2.34,2.38-.32,4.65-1.43,7.43-.87C144.25,209.86,142.64,210.54,141.08,211.27Z"/><path class="cls-1" d="M76.44,289.28c-1.57,0-3.27.6-4.44-1.06,3-1.58,3.65-4.62,4.57-7.48C76.53,283.59,76.49,286.43,76.44,289.28Z"/><path class="cls-1" d="M220.61,218.29c1.57,0,3.23-.59,4.5.89-2.69.78-4.17,2.88-5.55,5.08-.09-.91-.19-1.83-.28-2.74C219.72,220.44,220.16,219.37,220.61,218.29Z"/><path class="cls-1" d="M92.62,229.86q0,10.71,0,21.41A47.34,47.34,0,0,1,92.62,229.86Z"/><path class="cls-1" d="M412.7,268.69a101.32,101.32,0,0,0-1.36-35.41c4.25,2.71,3.36,7.28,3.56,11.14.4,8.1.47,16.26-1,24.32C413.47,269.26,413.07,269.28,412.7,268.69Z"/><path class="cls-1" d="M377.28,232.07q-1.47,7.37-2.95,14.72c-.25-.74-.51-1.48-.77-2.22C373.81,240.11,373.69,235.54,377.28,232.07Z"/><path class="cls-1" d="M412.7,268.69l1.19.05c-1.79,4.25-.46,10-5.94,12.46Q410.32,274.94,412.7,268.69Z"/><path class="cls-1" d="M160.55,282.51c-.38,2.37-3.58,3.05-3.43,5.74a4,4,0,0,1-3.74,2.21c-8.13-.09-16.48,1.53-24-3.06a3.89,3.89,0,0,1-2.12-3.28c.8-1.78,2.43-1.67,3.94-1.58,5.45.33,9.93-2.33,14.54-4.61,6.39-1.55,6.44-1.5,6,6.28C154.94,285,157.16,280.25,160.55,282.51Z"/><path class="cls-1" d="M160.55,282.51a13,13,0,0,0-6.48,3.18c-1.09,1-2,1.76-3.42.85a2.67,2.67,0,0,1-.89-3.93c3.32-5.65-1-4.58-4-4.68,5.62-8,12.56-5.11,19.48-2.33A13.24,13.24,0,0,1,160.55,282.51Z"/></svg>