<svg id="Layer_1" data-name="Layer 1" xmlns="http://www.w3.org/2000/svg" viewBox="0 0 500 500"><defs><style>.cls-1{fill:grey;}</style></defs><path class="cls-1" d="M167.05,194.74H28.51V171.51H167.05Zm9.89-32.3H18.57v41.25H176.83Z"/><path class="cls-1" d="M28.51,271.73H18.62V230.58h9.89v16.25H46.2V230.58H56v41.15H46.14V254.66H28.51v17.07m42.6-18H82.89c-.22-3-1.59-5.14-5.49-5.14a5.78,5.78,0,0,0-6.34,5,.49.49,0,0,1,0,.12Zm7.42,18.66c-10,0-16.87-5.71-16.87-15.13s6.67-15.48,15.57-15.48c9.67,0,14.48,5.86,14.48,14.61v3.33H71.05c1.16,4.52,5.09,5.72,9,5.72a16.61,16.61,0,0,0,9-2.49h.35v7a19.79,19.79,0,0,1-10.84,2.48m39-17.89-5.11,17.4h-8.66l-9.88-29v-.35h9.45l5.49,17.4,5.11-17.4h7.72l5.16,17.4,5.49-17.4h9.09v.35l-9.88,29h-8.82l-5.16-17.4m39.82,17.89c-7.88,0-11-2.83-11-9.46V230.58H156v31.83c0,2,.85,2.76,2.75,2.76a7.7,7.7,0,0,0,2.19-.4h0v7.09a13,13,0,0,1-3.62.52M173,253.69h11.78c-.22-3-1.59-5.14-5.49-5.14a5.8,5.8,0,0,0-6.34,5.07v.07Zm7.55,18.66c-10.05,0-16.89-5.71-16.89-15.13s6.7-15.48,15.57-15.48c9.7,0,14.51,5.86,14.51,14.61v3.33H173.09c1.16,4.52,5.11,5.72,9,5.72a16.75,16.75,0,0,0,9-2.49h.36v7a19.89,19.89,0,0,1-10.85,2.48m52.63-29.82h7.14v7h-7.14v11.92c0,2.49,1.1,3.76,4,3.76a10.54,10.54,0,0,0,2.91-.4h.22v6.86a18.88,18.88,0,0,1-5.85.69c-7.77,0-11-3.23-11-10.66V249.27H211.3V261.2c0,2.48,1.1,3.75,4,3.75a10.17,10.17,0,0,0,2.91-.4h.22v6.86a18.4,18.4,0,0,1-5.9.94c-7.81,0-11-3.23-11-10.66V249.27h-4.81v-6.74h5v-8.15h9.59v8.15h12.22v-8.15h9.62v8.15m39.52,8.38c3.86.22,7.19-2.44,7.43-5.93s-2.69-6.5-6.55-6.72a6.46,6.46,0,0,0-.88,0H266.4v12.65Zm17.47-6.27c0,9-6.65,13.85-16.67,13.85H266.4v13.37h-9.92V230.58h17c10,0,16.67,5,16.67,13.94m21.29,17.89v-2.48a12.35,12.35,0,0,0-5.31-1c-3.13,0-5,1.07-5,3.43s1.89,3.48,4.72,3.48A5.64,5.64,0,0,0,311.42,262.41Zm.3,6.32a11.51,11.51,0,0,1-8.71,3.62c-6.34,0-11.51-3.48-11.51-9.69,0-5.71,5.17-9.54,12.61-9.54a27.73,27.73,0,0,1,7.2,1v-.52c0-3.18-1.95-4.55-7.12-4.55a20,20,0,0,0-9.12,2.24h-.35V244.2a25.77,25.77,0,0,1,11-2.49c9.78,0,15.08,4.23,15.08,11.58v18.39h-9.31v-2.85m14.17-11.73c-.42-8.09,6.49-15,15.43-15.34.52,0,1,0,1.55,0a16.61,16.61,0,0,1,9,2.24v7.45h-.38a12.92,12.92,0,0,0-7.42-2.28c-4.84,0-8.76,3.55-8.76,7.93S339,265,343.85,265a12.7,12.7,0,0,0,7.42-2.31h.38v7.46a16.49,16.49,0,0,1-9,2.23c-8.91.42-16.51-5.77-17-13.83a14,14,0,0,1,0-1.45m41.64,1.32v13.32h-9.45V230.58h9.59V254l9.7-11.48h11v.35l-11.64,13.3,11.64,15.33v.35h-11l-9.62-13.32m42.08,3.87v-2.48a12.41,12.41,0,0,0-5.33-1c-3.1,0-5,1.07-5,3.43s1.9,3.48,4.73,3.48A5.63,5.63,0,0,0,409.58,262.41Zm.28,6.32a11.3,11.3,0,0,1-8.57,3.62c-6.35,0-11.51-3.48-11.51-9.69,0-5.71,5.16-9.54,12.61-9.54a27.65,27.65,0,0,1,7.19,1v-.52c0-3.18-2-4.55-7.14-4.55a19.87,19.87,0,0,0-9.09,2.24H393V244.2a25.84,25.84,0,0,1,11.13-2.49c9.75,0,15.08,4.23,15.08,11.58v18.39h-9.32v-2.85m25.47-21.68a8.61,8.61,0,0,1,7.85-5,8.52,8.52,0,0,1,3.13.53V251H446a11.85,11.85,0,0,0-4.23-.65,5.91,5.91,0,0,0-6.12,4.6v16.87H426v-29.3h9.32v4.75m36.47,14.61v-9.42a7.35,7.35,0,0,0-6.12-3c-4.21,0-7.06,2.75-7.06,7.75s2.74,7.7,7.06,7.7a7.25,7.25,0,0,0,6.12-3.15Zm.28,6.94a12.11,12.11,0,0,1-9.62,3.52c-8.24,0-13.73-6.83-13.73-15.28s5.3-15.33,13.73-15.33a12.23,12.23,0,0,1,9.34,3.28V230.58h9.61v41.15H472.1v-3M18.57,285.15H46.66v5H24.88V302.7H44.6v5H24.88v13.64H46.66v5H18.57V285.15m51.3,11.61c7.2,0,11.21,4.27,11.21,11.31v18.24H75v-18.1c.46-3.12-2-6-5.43-6.42a7.79,7.79,0,0,0-1.28,0,8.41,8.41,0,0,0-8.07,5.4v19.28h-6V297.35h6v4.2a11.3,11.3,0,0,1,9.61-4.79m27.47.59h8.24V302H97.34v15.6c0,3.28,1.9,4.4,5.33,4.4a8.3,8.3,0,0,0,2.75-.4h.21v4.68a10.31,10.31,0,0,1-3.79.59c-7.49,0-10.49-3.08-10.49-8.74V302H85.86v-4.68h5.49v-7.6h6v7.7m18.35,11.63h15.93c-.19-4.27-2.52-7.45-7.5-7.45-4.64-.2-7.63,2.88-8.51,7.36ZM125.19,327c-9.39,0-15.79-5.67-15.79-14.74s6-15.41,14.64-15.41,13.37,5.72,13.37,14.22v2.48h-22c.21,4.89,4.76,8.69,10.15,8.5l.4,0a14.81,14.81,0,0,0,9-2.49h.22v4.82a17.08,17.08,0,0,1-10,2.49M150.6,301.8a9.18,9.18,0,0,1,11.07-4.5v5.4h-.22a10,10,0,0,0-3.85-.52,7.21,7.21,0,0,0-7.06,5.26v18.89h-6v-29h6v4.48m30.63,20.23c6,0,9.39-4.38,9.39-10.24s-3.51-10.14-9.47-10.14a9.18,9.18,0,0,0-7.94,4.62v11.13A9.1,9.1,0,0,0,181.17,322.06Zm1.15-25.3c9.53,0,14.64,7,14.64,15.06S191.72,327,182.32,327a12.07,12.07,0,0,1-8.95-3.83v14.36h-6V297.35h6v3.28a11.93,11.93,0,0,1,8.95-3.87m27.83,5a8.4,8.4,0,0,1,7.91-5,8.11,8.11,0,0,1,3.13.47v5.39h-.41a9.91,9.91,0,0,0-3.71-.44,7.17,7.17,0,0,0-7.06,5.26v18.89h-6v-29h6v4.48m19.77-16.21a3.45,3.45,0,1,1-3.84,3.43,3.68,3.68,0,0,1,3.84-3.43m-3,40.69h6v-29h-6Zm27.46-16.93c4.59,1.32,9.7,3,9.7,8.58,0,5.91-5.49,8.94-12.3,8.94a20,20,0,0,1-11-2.63v-5.2h.3a16.71,16.71,0,0,0,10.47,3.24c3.43,0,6.48-1.2,6.48-3.71s-2.56-3.15-7.58-4.67c-4.51-1.32-9.53-2.83-9.53-8.3s5.1-8.87,11.59-8.87a18.66,18.66,0,0,1,9.8,2.48v5.27H262a15.48,15.48,0,0,0-9.45-3c-3.79,0-5.9,1.52-5.9,3.55s2.33,3,7.5,4.48m21.17-.4h16c-.22-4.28-2.55-7.46-7.5-7.46s-7.33,2.86-8.07,7.34ZM285.13,327c-9.39,0-15.79-5.67-15.79-14.74s6-15.41,14.61-15.41,13.4,5.72,13.4,14.22v2.48h-22c.21,4.89,4.75,8.69,10.15,8.5l.4,0a14.72,14.72,0,0,0,9-2.49h.22v4.82a17.2,17.2,0,0,1-10,2.49"/></svg>