<svg id="Layer_1" data-name="Layer 1" xmlns="http://www.w3.org/2000/svg" viewBox="0 0 500 500"><defs><style>.cls-1{fill:grey;}</style></defs><path class="cls-1" d="M127.85,338.13a2.61,2.61,0,0,1-.16-1V326.71c0-.75.15-.86.88-.9H249.28c.17,0,.38,0,.46.18s-.09.33-.21.44c-.4.35-.8.69-1.22,1a49.13,49.13,0,0,1-17.92,9.3A39.82,39.82,0,0,1,223,338a2.38,2.38,0,0,0-.95.16Z"/><path class="cls-1" d="M223.84,161.87a9.74,9.74,0,0,0,2.08.29,41.53,41.53,0,0,1,10.71,3.11,51,51,0,0,1,11.68,7.13l1.21,1c.13.11.3.23.21.43s-.24.16-.38.17H129.11c-1.41,0-1.42,0-1.42-1.43,0-3.57,0-7.15,0-10.73Z"/><path class="cls-1" d="M30.62,338.13c0-1.47,0-2.93,0-4.4,0-2.32,0-4.63,0-7,0-.87.09-.95,1-1h83.29c1.73,0,1.58,0,1.58,1.59q0,5.37,0,10.74Z"/><path class="cls-1" d="M29.74,185.29l1.32,0h83.11c1.61,0,1.56-.09,1.56,1.52V196c0,.23,0,.47,0,.7,0,.6-.14.68-.76.73-.17,0-.35,0-.53,0H29.74Z"/><path class="cls-1" d="M115.69,161.87l0,11.35v.09c0,.56-.13.66-.68.71-.27,0-.53,0-.8,0h-83a2.94,2.94,0,0,1-1.47-.19v-12Z"/><path class="cls-1" d="M343.44,161.87c.66,1.41,1.1,2.9,1.65,4.36.81,2.17,1.59,4.35,2.38,6.52,0,.14.1.28.14.42.23.75.18.82-.57.86H275.5c-1.81,0-1.65.06-1.65-1.69q0-5.24,0-10.47Z"/><path class="cls-1" d="M469.73,161.87c0,3.67,0,7.34,0,11,0,.18,0,.36,0,.53a.56.56,0,0,1-.6.61l-.7,0H397.71c-1.38,0-1.4,0-.93-1.31q1.77-4.84,3.52-9.68c.14-.39.26-.78.39-1.17Z"/><path class="cls-1" d="M408.61,338.13a2.18,2.18,0,0,1-.17-.94v-10.3c0-.12,0-.24,0-.35,0-.46.23-.72.7-.72h61.11v12.33Z"/><path class="cls-1" d="M274.57,338.13c0-3.84,0-7.69,0-11.53,0-.65.12-.75.78-.79h58.81c1.76,0,1.58,0,1.58,1.59q0,4.75,0,9.51c0,.41,0,.82,0,1.23Z"/><path class="cls-1" d="M470.26,314.54l-1.23,0H410c-1.48,0-1.53.18-1.53-1.55,0-3,0-6,0-9.06,0-.26,0-.53,0-.79.05-.63.17-.74.81-.79h61Z"/><path class="cls-1" d="M372.15,338.13a14.56,14.56,0,0,1-.91-2.29c-1.09-3-2.16-6-3.24-9a3.19,3.19,0,0,1-.11-.33c-.13-.5,0-.61.49-.66.21,0,.41,0,.62,0h7c.21,0,.42,0,.62,0,.46.05.54.17.41.64-.05.17-.13.33-.19.49l-3.78,10.43c-.09.24-.16.5-.24.75Z"/><path class="cls-1" d="M335.72,238.46c0,1.14,0,2.27,0,3.41v1.76a.58.58,0,0,1-.64.66H299.86c-1.36,0-1.36,0-1.36-1.36,0-3.17,0-6.34,0-9.51,0-.24,0-.47,0-.7a.55.55,0,0,1,.6-.61h68.78a.9.9,0,0,1,1,.74c.45,1.31.94,2.6,1.41,3.89l1.65,4.55a.75.75,0,0,0,.3.48c.35-.15.37-.53.48-.83.95-2.62,1.9-5.25,2.85-7.86.35-1,.37-1,1.39-1h68.16a.54.54,0,0,1,.61.59c0,.21,0,.41,0,.62v10.12c0,.73-.13.81-.82.85h-35c-1.47,0-1.47,0-1.47-1.44v-4.3a1,1,0,0,0-.42.62c-.54,1.4-1.06,2.8-1.59,4.2-.34.9-.35.92-1.34.92h-65.7c-1.55,0-1.39.1-1.9-1.36s-1.05-3-1.57-4.48Z"/><path class="cls-1" d="M196,302.38H262.5c.32,0,.65,0,1,0,.62,0,.73.14.6.76-.21,1.09-.45,2.18-.72,3.26a37.29,37.29,0,0,1-1.62,5,13.72,13.72,0,0,1-1.34,2.47,1.31,1.31,0,0,1-1.24.67c-.29,0-.59,0-.88,0H128.38a.58.58,0,0,1-.68-.62c0-.21,0-.41,0-.62v-9.95c0-.89.13-1,1-1H196Z"/><path class="cls-1" d="M196,197.45H129.37c-1.63,0-1.69.18-1.69-1.69q0-4.39,0-8.8v-.53c0-1.08.08-1.15,1.14-1.17H258.25c1.76,0,1.76,0,2.64,1.49a15.42,15.42,0,0,1,1.14,2.48,44.68,44.68,0,0,1,2,7.37c.14.72.05.82-.68.85-.33,0-.65,0-1,0Z"/><path class="cls-1" d="M205,232.11h50.89c.3,0,.59,0,.89,0,.89,0,1,.17.56,1-.3.57-.63,1.13-1,1.67A28.7,28.7,0,0,1,253,239a64.53,64.53,0,0,1-4.7,4.51,3.18,3.18,0,0,1-2.21.85q-46.18,0-92.37,0c-1.42,0-1.42,0-1.42-1.39v-9.42c0-.15,0-.3,0-.44,0-.84.1-.92.91-.94.29,0,.58,0,.88,0Z"/><path class="cls-1" d="M205,267.73H153.88c-1.5,0-1.55.16-1.55-1.54q0-4.57,0-9.15c0-.24,0-.47,0-.7,0-.66.14-.76.79-.79.26,0,.53,0,.79,0q46,0,92,0a3.32,3.32,0,0,1,2.39.85,48.58,48.58,0,0,1,7.7,8.19,15.5,15.5,0,0,1,1.44,2.41c.27.57.16.72-.48.76-.32,0-.65,0-1,0Z"/><path class="cls-1" d="M73.5,302.38h41.38c1.64,0,1.54,0,1.54,1.54v9.16c0,.23,0,.47,0,.7,0,.67-.12.75-.78.79H32.16c-1.65,0-1.58.11-1.58-1.58v-9.24c0-.27,0-.53,0-.79a.53.53,0,0,1,.55-.56c.35,0,.7,0,1.06,0Z"/><path class="cls-1" d="M314.89,197.45H275.36c-1.51,0-1.51,0-1.51-1.48v-9.24c0-.24,0-.47,0-.71,0-.62.13-.71.73-.75.26,0,.52,0,.79,0h75.1c1.56,0,1.41-.12,1.91,1.35l3.27,9.67c.38,1.12.34,1.17-.88,1.17Z"/><path class="cls-1" d="M428.81,197.45H389.55c-.33,0-.65,0-1,0-.52-.05-.62-.19-.48-.7.22-.76.49-1.5.74-2.25l2.75-8.09c.38-1.14.38-1.14,1.6-1.14h72.45c1.06,0,2.11,0,3.17,0,.82,0,.92.09.92.91q0,5.19,0,10.39c0,.76-.12.85-.87.88-.29,0-.58,0-.88,0Z"/><path class="cls-1" d="M412.56,220.88H381c-1.54,0-1.53,0-1-1.42q1.77-4.78,3.51-9.59c.45-1.25.34-1.19,1.66-1.19h59.33c1.32,0,1.33,0,1.33,1.31v9.95c0,.83-.11.91-.91.94H412.56Z"/><path class="cls-1" d="M331.47,220.88H300c-1.46,0-1.46,0-1.46-1.43v-9.33c0-.15,0-.29,0-.44,0-.92.07-1,1-1h59.06c1.56,0,1.39-.17,2,1.41,1.17,3.16,2.31,6.34,3.46,9.51l.09.24c.34,1,.3,1-.76,1Z"/><path class="cls-1" d="M305.13,302.38h29.15c1.44,0,1.44,0,1.44,1.45q0,4.68,0,9.34c0,.2,0,.41,0,.61,0,.67-.12.75-.78.79H276c-1.49,0-1.49,0-1.49-1.49v-9.33c0-.26,0-.53,0-.79a.52.52,0,0,1,.54-.56c.33,0,.65,0,1,0Z"/><path class="cls-1" d="M372.22,255.53h28.35c.3,0,.59,0,.88,0,.62.05.72.18.53.79-.35,1.06-.73,2.11-1.11,3.16-.86,2.43-1.73,4.86-2.59,7.3-.34.92-.34.93-1.32.93H347.84c-1,0-1,0-1.33-.92q-1.89-5-3.76-10.06c-.43-1.16-.4-1.21.86-1.21Z"/><path class="cls-1" d="M245.41,208.68H264c1.23,0,1.33.11,1.24,1.29a43.33,43.33,0,0,1-2,9.89c-.33,1-.34,1-1.43,1h-35.2c-.88,0-1-.09-1-1,0-1.73,0-3.46,0-5.19v-4.66c0-1.39,0-1.39,1.43-1.39Z"/><path class="cls-1" d="M245.36,291.15H227c-1.36,0-1.36,0-1.36-1.37v-9.5c0-.24,0-.47,0-.71a.55.55,0,0,1,.6-.6l.71,0h35.14c.72,0,.85.09,1.07.8a42.89,42.89,0,0,1,1.6,6.31c.2,1.21.33,2.44.49,3.66a4.15,4.15,0,0,1,0,.61c0,.67-.11.77-.76.8-.27,0-.53,0-.8,0Z"/><path class="cls-1" d="M372.27,291.15H356.08c-.91,0-.94,0-1.27-.9-.53-1.43-1-2.87-1.56-4.3l-2.15-6-.06-.16c-.24-.72-.16-.84.57-.87h40.74c1.55,0,1.54,0,1,1.42-1.21,3.27-2.4,6.55-3.6,9.82-.35.95-.35,1-1.4,1Z"/><path class="cls-1" d="M171,220.88H153.66c-1.32,0-1.32,0-1.32-1.31V210c0-.21,0-.41,0-.62.05-.54.15-.63.71-.67.24,0,.47,0,.71,0h34.49c1.41,0,1.41,0,1.41,1.4,0,3.14,0,6.27,0,9.41,0,.24,0,.47,0,.7,0,.55-.15.64-.71.68-.26,0-.53,0-.79,0Z"/><path class="cls-1" d="M427.07,267.73H409.81c-1.36,0-1.37,0-1.37-1.37v-9.5c0-.18,0-.36,0-.53,0-.66.13-.76.78-.79.21,0,.41,0,.62,0h34.52c1.41,0,1.41,0,1.41,1.41v9.42c0,.23,0,.47,0,.7a.59.59,0,0,1-.65.66H427.07Z"/><path class="cls-1" d="M171,291.15H153.63c-1.28,0-1.29,0-1.29-1.26V280.3c0-.15,0-.3,0-.44,0-.75.15-.87.88-.9h35c1.49,0,1.49,0,1.49,1.5v9.24c0,.24,0,.47,0,.7,0,.62-.14.71-.74.75-.26,0-.53,0-.79,0Z"/><path class="cls-1" d="M427,291.15H409.76c-1.31,0-1.32,0-1.32-1.32v-9.59c0-1.23.06-1.28,1.3-1.28h32.57c.86,0,1.71,0,2.56,0s.9.11.9.84q0,5.25,0,10.48c0,.78-.11.86-1,.86H427Z"/><path class="cls-1" d="M73.14,208.68H90.39c1.38,0,1.38,0,1.38,1.35v10c0,.7-.13.78-.86.82h-35c-1.33,0-1.33,0-1.33-1.31V210c0-.21,0-.41,0-.62.05-.54.14-.63.71-.67.27,0,.53,0,.8,0Z"/><path class="cls-1" d="M317.11,255.53h17.43c1.15,0,1.18,0,1.18,1.19,0,3.29,0,6.57,0,9.86,0,.17,0,.35,0,.53a.54.54,0,0,1-.59.6H299.81c-1.31,0-1.31,0-1.31-1.31,0-3.2,0-6.4,0-9.6,0-.23,0-.47,0-.7a.53.53,0,0,1,.55-.56l.88,0Z"/><path class="cls-1" d="M73.17,291.15H55.91c-1.37,0-1.37,0-1.37-1.35v-9.95c0-.77.11-.86.86-.89H90.26c1.51,0,1.51,0,1.51,1.49v9.86c0,.73-.11.81-.82.84-.26,0-.52,0-.79,0Z"/><path class="cls-1" d="M317.1,279h17.44c1.15,0,1.18,0,1.18,1.19,0,3.29,0,6.57,0,9.86,0,.12,0,.23,0,.35,0,.66-.12.75-.78.79h-35c-1.4,0-1.4,0-1.4-1.41v-9.41c0-.27,0-.53,0-.79a.53.53,0,0,1,.55-.57l.88,0Z"/><path class="cls-1" d="M73.16,267.73H55.91c-1.37,0-1.37,0-1.37-1.36v-9.51c0-.23,0-.47,0-.7a.55.55,0,0,1,.59-.61l.71,0h34.6c1.31,0,1.32,0,1.32,1.32v9.59c0,.21,0,.41,0,.62a.58.58,0,0,1-.64.66h-18Z"/><path class="cls-1" d="M73.16,244.3H55.9c-1.36,0-1.36,0-1.36-1.36v-9.51c0-.23,0-.46,0-.7a.55.55,0,0,1,.6-.61h35.3c1.32,0,1.32,0,1.32,1.32V243c0,.2,0,.41,0,.62a.57.57,0,0,1-.64.65h-18Z"/><path class="cls-1" d="M372.42,302.38h11.8c1.2,0,1.23.05.84,1.19l-3.57,10.22c-.26.74-.31.78-1.07.78H364.49a1,1,0,0,1-1.09-.79c-1.28-3.5-2.59-7-3.88-10.48a3.38,3.38,0,0,1-.13-.42.35.35,0,0,1,.35-.48,8.63,8.63,0,0,1,.88,0Z"/></svg>