<svg id="Layer_1" data-name="Layer 1" xmlns="http://www.w3.org/2000/svg" viewBox="0 0 500 500"><defs><style>.cls-1{fill:grey;}</style></defs><rect class="cls-1" x="34.22" y="168.67" width="31.25" height="31.25"/><path class="cls-1" d="M64.68,331.45V218.82H35V331.45Zm196.55,1.12V305a69.18,69.18,0,0,1-10.67-.65,12.32,12.32,0,0,1-7-3.22,12.58,12.58,0,0,1-3.11-6.78,70.91,70.91,0,0,1-.66-10.9V244.27h21.45V218.82H239.78V175H210.1V283.81a97.13,97.13,0,0,0,2.33,23.25A32.63,32.63,0,0,0,220.32,322a31.82,31.82,0,0,0,14.45,8.09,85.83,85.83,0,0,0,22.57,2.53Zm169.87-1.12V166.35H401.39v165.1ZM181.51,229.93c-8.22-8.89-19.78-13.34-34.46-13.34a43.23,43.23,0,0,0-19.45,4.33,42.26,42.26,0,0,0-14.78,12l-1.56,2.1V218.82H82V331.45h29.45V273.52c.33-10.58,2.89-18.35,7.8-23.36a25.45,25.45,0,0,1,18.77-8c8.57,0,15.18,2.53,19.45,7.77S164,262.28,164,271.52h0v.33h0v59.6h29.9V267.5C194,251.51,189.74,238.83,181.51,229.93Zm204.55,45a61.8,61.8,0,0,0-4.22-22.77A60.86,60.86,0,0,0,370,233.62a54.25,54.25,0,0,0-18.35-12.45A60.46,60.46,0,0,0,328,216.72a58.39,58.39,0,0,0-22.77,4.58,59.35,59.35,0,0,0-18.54,12.45,57.53,57.53,0,0,0-12.62,18.54,56.56,56.56,0,0,0-4.56,22.77,60.11,60.11,0,0,0,4.35,22.9A57.09,57.09,0,0,0,286,316.53,55.68,55.68,0,0,0,304.77,329a61.31,61.31,0,0,0,24.14,4.66,63.68,63.68,0,0,0,50-22.11L357.58,295.4a38.92,38.92,0,0,1-28.47,12.65,33.46,33.46,0,0,1-20.44-5.79A28.54,28.54,0,0,1,298,286.6l-.33-1H386V275Zm-88.14-10.35c0-8.22,9.43-22.57,29.78-22.77s29.88,14.45,29.88,22.67Zm167,52.6a10.9,10.9,0,0,0-5.77-5.79,11.17,11.17,0,0,0-4.23-.89,10.41,10.41,0,0,0-4.22.89,11.05,11.05,0,0,0-5.8,5.79A10.53,10.53,0,0,0,447.24,329a10.48,10.48,0,0,0,3.44,2.33,11.16,11.16,0,0,0,4.22.89,10.76,10.76,0,0,0,4.23-.89,10.48,10.48,0,0,0,3.44-2.33,10.63,10.63,0,0,0,2.33-3.44,10.23,10.23,0,0,0,0-8.37ZM463.13,325a8.55,8.55,0,0,1-1.9,2.88,8.21,8.21,0,0,1-2.89,1.9,9,9,0,0,1-3.56.66,9.51,9.51,0,0,1-3.54-.66,8.21,8.21,0,0,1-2.89-1.9,8.55,8.55,0,0,1-1.9-2.88,9,9,0,0,1-.65-3.55,9.4,9.4,0,0,1,.65-3.56,8.54,8.54,0,0,1,4.73-4.78,9,9,0,0,1,3.55-.66,9.22,9.22,0,0,1,3.56.66,8.5,8.5,0,0,1,4.79,4.78,10,10,0,0,1,0,7.11Zm-6.23-2.53a3.34,3.34,0,0,0,2.1-1,3.3,3.3,0,0,0,.91-2.53,3.42,3.42,0,0,0-1.14-2.66,5,5,0,0,0-3.34-1h-4.88v12.65h2.33v-5.06h1.67l3.11,5.06h2.53Zm-1.21-1.9H452.9V317h2.79a2.74,2.74,0,0,1,1,.22,1.24,1.24,0,0,1,.69.56c.2.2.2.56.2,1a2.67,2.67,0,0,1-.2,1,4.69,4.69,0,0,1-.69.56,3.1,3.1,0,0,1-1,.17Z"/></svg>