<svg id="Layer_1" data-name="Layer 1" xmlns="http://www.w3.org/2000/svg" viewBox="0 0 500 500"><defs><style>.cls-1{fill:grey;}</style></defs><g id="layer1"><g id="g23944"><g id="g13605"><path id="path13607" class="cls-1" d="M211.93,222.18A30.64,30.64,0,0,0,187.86,234h0V223.4H167.58v73.85h20.28v-42a15.94,15.94,0,0,1,16.26-15.61l.53,0c8.4,0,17.06,5.84,17.06,15.59v42h20.15V251.49c0-17-12.15-29.23-30-29.23"/></g><g id="g13609"><path id="path13611" class="cls-1" d="M386,223.43,367.65,273.7l-18.33-50.27H326.17l30.38,73.68h22.21l30.51-73.68Z"/></g><g id="g13613"><path id="path13615" class="cls-1" d="M107.07,245.67a18.92,18.92,0,0,1,15.6-7.36,17,17,0,0,1,15.71,10.33L103,263.34a23.88,23.88,0,0,1,4.11-17.67m39,28.88c-8.53,6.3-13.29,7.82-21.26,7.82a22.56,22.56,0,0,1-16.34-6l51.82-21.5a40,40,0,0,0-8.74-20.62c-6.81-8-16.88-12.09-29.24-12.09-22.26,0-39.06,16.47-39.06,38.16,0,22.29,16.85,38.16,41.32,38.16,13.72,0,27.75-6.49,34.31-14.09Z"/></g><g id="g13617"><path id="path13619" class="cls-1" d="M81.27,278.65H35.19v-77.2H14.65v95.8H81.27Z"/></g><g id="g13621"><path id="path13623" class="cls-1" d="M445.54,239.56c-11.32,0-19.56,8.58-19.56,20.78a20.1,20.1,0,0,0,19.33,20.82h.5c11.32,0,19.53-8.82,19.53-20.78A20.09,20.09,0,0,0,446,239.62h-.41m0,58.94C423.35,298.55,406,282,406,260.39s17.48-38.16,39.86-38.16,39.49,16.42,39.49,38.11-17.49,38.16-39.86,38.16"/></g><g id="g13625"><path id="path13627" class="cls-1" d="M289.47,239.56c-11.32,0-19.55,8.58-19.55,20.78a20.08,20.08,0,0,0,19.33,20.82h.44c11.32,0,19.53-8.82,19.53-20.78a20.09,20.09,0,0,0-19.39-20.77h-.41m0,58.94c-22.19,0-39.54-16.53-39.54-38.16s17.49-38.16,39.86-38.16,39.54,16.42,39.54,38.11S311.8,298.5,289.42,298.5"/></g></g></g></svg>