<svg id="Layer_1" data-name="Layer 1" xmlns="http://www.w3.org/2000/svg" viewBox="0 0 500 500"><defs><style>.cls-1{fill:grey;}</style></defs><path class="cls-1" d="M108.27,209.9a7.12,7.12,0,1,1-7.11-7.12A7.11,7.11,0,0,1,108.27,209.9Z"/><path class="cls-1" d="M35.93,288.07A7.12,7.12,0,1,1,28.81,281,7.12,7.12,0,0,1,35.93,288.07Z"/><path class="cls-1" d="M395.48,226.35a7.12,7.12,0,1,1-7.12-7.12A7.11,7.11,0,0,1,395.48,226.35Z"/><path class="cls-1" d="M24.74,278.26,31,254.86l3.68-13.33,2.4-8.66s3.73-12,12-13a11.26,11.26,0,0,1,9.84,4.1,23.18,23.18,0,0,1,4.4,7.33l4.46,10.37,3,6.75,3.57,8.08,2.85,6.74s1.75,3,3.49-.42L83,254l2.77-10.14,3.23-12L91.47,223,93,217.24s2.64,2.6,5.23,3.17c0,0,4.2.86,6.84-.54l-2.69,9.57-3.18,11.92-3.82,13.91-3.14,11.2a25.12,25.12,0,0,1-4.09,7.86A13.24,13.24,0,0,1,80,279.64s-4.91.86-9.6-4.11a20.61,20.61,0,0,1-3.31-5l-6.2-14.06-3.4-8-5.29-12s-1.52-3.4-3.48.11l-4.29,15.66-3.4,12.6L38.9,273.1,36.72,281s-.79-1.51-4.47-3.15A10.52,10.52,0,0,0,24.74,278.26Z"/><path class="cls-1" d="M150.05,230.62l2-10.06s-15-1.09-27.09,4.48a49.63,49.63,0,0,0-9.11,5.09s-6.54,4.8-10,10.6A32.09,32.09,0,0,0,101.22,254a21.59,21.59,0,0,0,2.25,12.78,22.59,22.59,0,0,0,12.63,10.16,57.07,57.07,0,0,0,20.78,2.71l3.83-10.08s-11.35.8-17.69-1.63c0,0-7.92-2.34-9.89-8.11,0,0-2.24-5.6,1.15-12.63a29.67,29.67,0,0,1,16-13.87S137.13,230.07,150.05,230.62Z"/><path class="cls-1" d="M186.36,244.19a14.34,14.34,0,0,0-7.28-9.15,17.3,17.3,0,0,0-7.84-1.89,27.13,27.13,0,0,0-18.71,7.12,30.55,30.55,0,0,0-9.48,15.21s-2.24,7.48-.32,13.48c0,0,1.75,7.91,11.32,10.57a27.31,27.31,0,0,0,20.46-5s7.54-5.37,10.6-14a31.7,31.7,0,0,0,1.83-6.77S187.85,247.56,186.36,244.19Zm-13.58,18.47c-5.83,8.53-12.82,8-12.82,8-8.39-.17-7.16-9.86-7.16-9.86.35-6.21,4.51-11.53,4.51-11.53,6.08-7.93,11.85-6.81,11.85-6.81,4.44.34,5.47,2.39,5.47,2.39C179.51,252.73,172.78,262.66,172.78,262.66Z"/><path class="cls-1" d="M184.18,279l12-45h10.84l-.67,2.57a30.73,30.73,0,0,1,12.13-3.51s6.71-.65,9.86,4.88c0,0,8.64-4.54,14.74-4.9,0,0,7.18-.67,10.4,4.31,0,0,2.18,2.89,1.45,8.33l-4.61,17.18L246.25,279H235l2.54-7.81,3.12-11.2,2.54-9.78.72-3s1-4-2.48-4.21c0,0-2.94-1-12.24,3.87L220.65,279H209.83l8.6-32.27s.94-3.48-2.41-3.72c0,0-2.24-.46-7.23,1.83l-5.51,2.63L195,279Z"/><path class="cls-1" d="M298.15,245.93a16,16,0,0,0-9.6-9.89c-5.89-3.14-23.89-2.14-23.89-2.14l-17.17,63.32h11.08l4.83-18.49c15.69-1,22.83-6.57,22.83-6.57a31.65,31.65,0,0,0,7.55-7.2,31.12,31.12,0,0,0,3.77-7.74A20.54,20.54,0,0,0,298.15,245.93Zm-12.09,12.36s-1.8,4.84-9,8.53a29.43,29.43,0,0,1-11.23,2.48l7-26s8.87-.9,13.2,3.73C286.06,247,289.62,250.53,286.06,258.29Z"/><path class="cls-1" d="M306.92,234.1h10.69l-7.78,29s-1.26,3.53-.5,6.15c0,0,.71,1.88,7.12.21a60.8,60.8,0,0,0,9-3.88l8.27-31.45h10.93l-12,45H321.94l.72-2.78s-6.83,3.28-12.49,3.7c0,0-5.92.56-9.37-2.87a11.08,11.08,0,0,1-2.76-8.4,70.71,70.71,0,0,1,1.55-7l3.61-13.1,2.58-10.2Z"/><path class="cls-1" d="M366.15,278.9s-9.4,1-14.42-1.37c0,0-5.13-2.44-5.84-6.86a12.71,12.71,0,0,1,.39-7.76l5.4-19.63-6.74-.14,2.37-9h7.18l2.46-9.46h10.39L364.75,234l14.36.06-2.34,9.13-14.46-.06-5.57,20.31s-1.44,4.85,2.42,5.64c0,0,1.75,1,10.84.56Z"/><path class="cls-1" d="M370,279.09l12-43.91a10.65,10.65,0,0,0,5.17,2.18s1.43.48,5.35-.8l-11.41,42.53Z"/><path class="cls-1" d="M386.44,279.09l12-45h10.75l-.69,3s7.91-3.88,13-3.94c0,0,7.22-.6,10,4.26,0,0,3,4,.79,10.93l-3,10.6L424.28,279l-11.16.06,4.09-13.76L419.93,255l2.11-8.77s.47-2.78-1.57-3c0,0-1.6-.74-4.71.16,0,0-6.45,1.71-10.14,4.11l-5.18,19.08-3.23,12.44Z"/><path class="cls-1" d="M462.9,234.16c-6.17.68-7.94,1-14.14,3.91l-.09,0a28.92,28.92,0,0,0-9.68,7.42c-2.83,2.2-5,8.62-5,8.62-1.6,3.54-1.23,9-1.23,9a18.41,18.41,0,0,0,1.91,5.89,16,16,0,0,0,6.38,6c3.54,2.79,14.38,3.36,14.38,3.36-.12.37-1.34,2.3-1.34,2.3a17.74,17.74,0,0,1-8.66,5.44c-4.42,1.74-16.14,1.61-16.14,1.61l-1.26,9.5c6.31-.08,11.43-.54,11.43-.54a44.72,44.72,0,0,0,11.52-2.8,29.62,29.62,0,0,0,10.49-7.32c3.31-3,5.68-10.94,5.68-10.94l4.23-15.89,6.91-25.91A100,100,0,0,0,462.9,234.16Zm-4.6,34.69h-1.93a24.76,24.76,0,0,1-8.6-2.2c-5.07-2.3-4-8.54-4-8.54a17.26,17.26,0,0,1,6.17-10.05c5.42-4.84,15.25-4.9,15.25-4.9Z"/></svg>