<svg id="Layer_1" data-name="Layer 1" xmlns="http://www.w3.org/2000/svg" viewBox="0 0 500 500"><defs><style>.cls-1{fill:grey;}</style></defs><path class="cls-1" d="M241.77,163.74c-3.35,8-9.15,13.94-16.19,18.78a31.92,31.92,0,0,1-8.09,4.47c-3.54,1.12-4.86,3.34-4.71,7h12.63c-2.47,8.3-4.86,16.3-7.22,24.32q-6.36,21.56-12.67,43.12a26,26,0,0,0-.85,9.72c.14,1.46-.07,2-1.68,2-12-.07-24.06,0-36.1,0-.18-1,.65-1,1.09-1.25,7.29-4.23,13.89-9.42,20.44-14.68,1.53-1.23,1.38-2,.11-3.26-3.12-3.18-3.06-3.24-6.89-.8-4.62,2.94-9.23,5.9-13.86,8.81a14.46,14.46,0,0,1-10.19,1.94c-5.05-.81-8.07-4.7-8.73-10.87-.68-6.39.11-12.7,1.2-19,.23-1.34.9-1.81,2.24-2,9.19-1.33,18.22-3.3,26.74-7.19a55.21,55.21,0,0,0,17.42-12.3,26.69,26.69,0,0,0,7.29-16.36c.62-6.52-3.25-11.5-9.71-12.78A26.62,26.62,0,0,0,180,184.82c-26,9-40.75,27.7-46.53,54.13a44.78,44.78,0,0,0,0,20.72,28.17,28.17,0,0,0,7.49,13.24H101.32l11.17-9.17c3.21-2.63,6.39-5.31,9.67-7.87,1.24-1,1.51-1.68.35-2.94-3.15-3.44-1.89-3.33-5.65-.69-2.6,1.83-5.14,3.75-7.73,5.6-1.26.89-2.76,1.66-4.17.69s-1.5-2.8-1-4.37c1.74-6,3.56-12,5.38-18,4-13.24,8.25-26.42,12-39.74,2.85-10.14-1.93-15-12.26-13-7.27,1.39-13.15,5.49-18.74,10-10,8.05-17.93,18-25.75,28.1-1.5,1.92-3,3.85-4.68,5.68,2.14-5.68,4.6-11.22,6.34-17q2.8-9.36,5.37-18.8a11.61,11.61,0,0,0,.23-3.95,4.2,4.2,0,0,0-4.4-4.05,13,13,0,0,0-7.67,2.5C53,190.21,46.51,195,40.17,200c-.61.48-1.25.92-2.29,1.69V163.74Z"/><path class="cls-1" d="M462.65,272.56c-4.59,0-9.19-.11-13.78,0a3.69,3.69,0,0,1-3.61-2c-5.68-8.74-11.44-17.43-17.2-26.12-.47-.72-.76-1.6-1.78-2.1q-6,8.91-11.89,17.8c-2.35,3.53-4.73,7-7,10.62a3.24,3.24,0,0,1-3.17,1.78c-4.39-.12-8.78,0-13.25,0a4.87,4.87,0,0,1,1.41-2.7q12.47-17.79,25-35.54a2.61,2.61,0,0,0,0-3.64c-7.65-10.72-15.2-21.5-22.78-32.27-.55-.78-1.07-1.57-1.91-2.82,5.39,0,10.37,0,15.35,0,1.15,0,1.4,1,1.85,1.65,5,7.63,10,15.23,14.81,22.93,1.13,1.79,1.58,1.75,2.75.07,5.29-7.62,10.72-15.14,16-22.75a3.8,3.8,0,0,1,3.65-2c4.2.15,8.42.05,13.16.05-1.45,2-2.59,3.66-3.77,5.26-7.11,9.69-14.2,19.39-21.36,29-1,1.28-1.24,2.17-.19,3.64,8.71,12.24,17.32,24.55,26,36.83.4.57.69,1.25,1.41,1.52,0,0,.11-.06.15-.12a1.67,1.67,0,0,0,.12-.23Z"/><path class="cls-1" d="M37.35,210.45c.76.59,1-.27,1.35-.56,3.52-2.81,7-5.68,10.52-8.48,1.14-.9,2.53-1.66,3.89-.74s1.16,2.31.88,3.65c-1.17,5.62-3.22,11-4.91,16.45C45.76,231.54,42.37,242.3,39,253.06a4.84,4.84,0,0,1-1,2c0-.88-.11-1.75-.12-2.63q0-19.1,0-38.19c0-.89.51-1.94-.46-2.7Z"/><path class="cls-1" d="M158.41,336.26c-.29-1.1-1.3-1.38-2.14-1.83a5.76,5.76,0,0,1-2.71-3.14c-.37-1-.9-2.18.43-2.76a2.5,2.5,0,0,1,3.26.88,7.31,7.31,0,0,0,13.32-5.31c-.45-2-1.41-.58-2-.2-5.85,3.37-11.87,1.55-14.88-4.51a16.21,16.21,0,0,1-.87-12.11c1.66-5.82,5.6-8.55,11.64-8.19a7.5,7.5,0,0,1,4.37,1.68c1,.82,1.91,1.85,2.59-.34.28-.89,1.28-.81,2.08-.72a1.46,1.46,0,0,1,1.37,1.65c0,8.65.42,17.31-.25,25.95a8.91,8.91,0,0,1-5.11,7.55c-.62.33-1.28.63-1.49,1.4Zm-2.14-24.05a16.33,16.33,0,0,0,1.42,6.11,6.45,6.45,0,0,0,5.77,3.58,6,6,0,0,0,6-3.19,13.18,13.18,0,0,0,.27-12.24c-2.33-4.81-7.84-5.36-11.3-1.27C156.71,307.21,156.54,309.7,156.27,312.21Z"/><path class="cls-1" d="M258.76,163.74c0,6.63,0,13.27.11,19.9,0,1.53-.49,2-2,1.93-4.42-.08-8.85-.13-13.27,0-2,.06-1.85-.72-1.34-2.15,2.35-6.55,4.62-13.12,6.91-19.69Z"/><path class="cls-1" d="M462.65,320.87c-2.56,2.06-4.69,4.65-8.35,5.17-5.49.78-10.47-1.05-12.3-5.09-.43-1-1.7-2.35.07-3.11,1.29-.56,2.73-.83,3.69,1.18,1.64,3.42,6.8,4.68,10.1,2.76a3.69,3.69,0,0,0,2-3.47,2.92,2.92,0,0,0-2.38-2.82c-2.85-.91-5.77-1.66-8.6-2.63-3.67-1.27-5.41-3.63-5.25-6.77a7.07,7.07,0,0,1,5.68-6.52,14.83,14.83,0,0,1,10.1.63,5.63,5.63,0,0,1,3,2.87c.46,1.05,1.14,2.26-.2,3.05a2.41,2.41,0,0,1-3.45-.83,6.8,6.8,0,0,0-8.63-2.3,3.08,3.08,0,0,0-2.24,2.68,2.92,2.92,0,0,0,2.23,3c2.44.79,4.89,1.55,7.37,2.13,2.87.68,5,2.44,7.16,4.27Z"/><path class="cls-1" d="M383.54,233.61a54.37,54.37,0,0,1-1.37,14.71c-2.93,12.09-10.38,20.17-22.14,23.86-12.77,4-25,2.73-35.76-5.89-6.58-5.25-10.11-12.39-11.53-20.56-1.83-10.59-1.87-21.15,2.3-31.26,5.27-12.76,15.34-19.16,28.8-20.47,7.89-.76,15.55.29,22.5,4.41,11.12,6.6,16.13,16.85,17.18,29.37C383.68,229.71,383.54,231.66,383.54,233.61Zm-58.48.33a43.86,43.86,0,0,0,1.19,11.81c2.45,10.12,10.38,17.32,19.56,17.77,10.88.54,19.28-5.06,22.54-15.46a46.72,46.72,0,0,0,.22-27.65c-2.93-9.9-11.09-15.87-21-15.84s-17.79,6.08-20.84,16A41.73,41.73,0,0,0,325.06,233.94Z"/><path class="cls-1" d="M222.87,273.11c8.5-5.59,15.64-12.62,23.48-18.76,1.58-1.25,1.31-1.81,0-3.13-2-2-3.37-2.28-5.6-.27a59.48,59.48,0,0,1-12.17,8c-1.59.84-3.32,1.63-5,.35s-1.69-3.1-1.22-4.87q3.8-14.16,7.72-28.3c2.76-9.93,5.64-19.83,8.35-29.78.48-1.74,1.15-2.39,3-2.33,5.13.15,10.26.1,15.39,0,1.51,0,2,.46,2,2q-.06,37.66,0,75.33c0,1.33-.34,1.85-1.77,1.85C245.68,273.09,234.28,273.11,222.87,273.11Z"/><path class="cls-1" d="M67.37,273.11c-5.31,0-10.61,0-15.92,0-.77,0-2.15.59-1.64-1.32,4.29-16.06,9-31.91,18.73-45.77A109.22,109.22,0,0,1,97,198.51c1.93-1.31,4.23-2.88,6.59-1.37s1.67,4.15,1.17,6.33c-1.44,6.37-3.81,12.47-5.77,18.68q-6.39,20.29-12.9,40.56a17.89,17.89,0,0,0-1,8.33c.31,2-.52,2.12-2.1,2.1C77.81,273.06,72.59,273.11,67.37,273.11Z"/><path class="cls-1" d="M291.18,240.59c0,9.82-.05,19.64,0,29.46,0,1.93-.39,2.68-2.46,2.54a68.31,68.31,0,0,0-8.22,0c-1.77.09-2.23-.53-2.22-2.24.07-11,0-21.94,0-32.91,0-8.94-.06-17.88,0-26.81,0-1.89-.55-2.45-2.39-2.34-2.47.15-4.95,0-7.43.06-1.3,0-1.94-.25-1.88-1.73.1-2.74.1-5.49,0-8.23-.06-1.46.53-1.8,1.85-1.75,2.39.08,4.79-.1,7.17.06,2,.13,2.72-.42,2.7-2.59,0-4.85-.37-9.72.4-14.56a17.13,17.13,0,0,1,15.11-14.77c5.42-.76,10.75-.23,16.1.56,1.16.18,1.72.52,1.44,1.88-.54,2.68-.9,5.4-1.32,8.1-.2,1.27-.68,1.69-2.13,1.43a31.12,31.12,0,0,0-9-.24c-4.19.47-6.53,2.68-7.36,6.78-.79,3.95-.35,7.94-.51,11.91-.05,1.48.82,1.47,1.87,1.47,3.54,0,7.08.09,10.62,0,1.88-.07,2.75.33,2.57,2.43a49.65,49.65,0,0,0,0,6.9c.1,1.79-.39,2.51-2.32,2.42-3.36-.15-6.73.07-10.09-.09-2-.09-2.7.43-2.68,2.59C291.25,220.77,291.18,230.68,291.18,240.59Z"/><path class="cls-1" d="M182.43,190.71c4.66,0,6.86,2.15,6.85,6.76a16.25,16.25,0,0,1-2.67,9c-6.19,9.56-15.44,14.45-26.08,17.25-2.3.6-4.63,1.07-7,1.55-1,.21-1.65.12-1.27-1.33A51.29,51.29,0,0,1,176,192,14.07,14.07,0,0,1,182.43,190.71Z"/><path class="cls-1" d="M343.43,319c1.59-5.86,3.14-11.37,4.55-16.9.47-1.88,1.42-2.64,3.36-2.52,1.58.11,2.11,1.06,2.44,2.34,1.06,4.11,2.11,8.22,3.18,12.33a13,13,0,0,0,1.83,4.31c1.14-3.75,2.3-7.49,3.43-11.24.58-1.95,1.14-3.91,1.7-5.86a2.41,2.41,0,0,1,3.32-1.75c1.84.5.77,1.89.48,2.83-2.1,6.85-4.29,13.67-6.41,20.51-.49,1.59-1.13,2.63-3.07,2.61s-2.49-1.23-2.89-2.79c-1.4-5.36-2.86-10.71-4.33-16.2-1.18.81-1.14,2-1.4,2.93-1.23,4.52-2.43,9.05-3.55,13.6-.4,1.6-1.12,2.44-2.89,2.44s-2.51-.82-3-2.38c-2.06-6.86-4.22-13.69-6.26-20.56-.29-1-1.46-2.5.58-3,1.74-.42,3,.1,3.54,2.16,1.24,4.88,2.67,9.72,4,14.57A4.26,4.26,0,0,0,343.43,319Z"/><path class="cls-1" d="M306.87,313.48h-7.68c-1.79,0-2.36.84-1.91,2.54.83,3.1,2.39,5.57,5.74,6.29a7.07,7.07,0,0,0,8.17-3.43c.41-.67.76-1.49,1.75-1.36s2.12-.17,2.71.72-.17,1.86-.66,2.66c-2.45,4.08-7.58,6.07-12.72,5-5.42-1.14-8.82-4.51-9.41-9.77-.4-3.59-.46-7.23,1.18-10.66,2.31-4.83,6.71-7,12.79-6.31a11,11,0,0,1,9.22,9c1,5.21,1,5.31-4.41,5.31-1.59,0-3.18,0-4.77,0Zm-2.4-3.29h5.29c1.59,0,2.22-.73,1.87-2.35a7.61,7.61,0,0,0-6.75-5.45c-2.93-.1-6.62,2.6-7.2,5.28-.31,1.46.06,2.48,1.76,2.5S302.79,310.19,304.47,310.19Z"/><path class="cls-1" d="M194.51,313.48c-2.38,0-4.77,0-7.16,0-2.1,0-2.61,1-2.19,2.87a7.8,7.8,0,0,0,5.72,6c3.67.72,5.9-.19,7.94-3.3.54-.82.93-1.61,2.19-1.58,2.77.07,3.19.68,1.9,3.13-3.67,7-15.14,7.53-20.12,1-4-5.3-3.2-15,1.65-19.57a12.18,12.18,0,0,1,13.15-1.87,11.9,11.9,0,0,1,6.52,11c-.07,1.7-.79,2.39-2.43,2.36-2.39,0-4.78,0-7.17,0Zm-2.36-3.29v0c1.76,0,3.53,0,5.29,0s2.37-.64,1.91-2.43a7.23,7.23,0,0,0-7-5.42,7.66,7.66,0,0,0-7.08,5.76c-.29,1.4.23,2,1.58,2.05C188.62,310.21,190.38,310.19,192.15,310.19Z"/><path class="cls-1" d="M104.65,313.48c-2.38,0-4.77,0-7.16,0-1.95,0-2.45,1-2.11,2.73.56,2.9,3,5.65,5.58,6.16,3.76.74,6.17-.11,8.12-3.42,1.15-2,2.64-1.52,4.11-1.13s.6,1.42.28,2.16c-1.94,4.56-7.73,7.14-13.22,6A11.14,11.14,0,0,1,91,316.84c-1.26-5.69-.57-10.94,3.94-15.11,3.29-3,9-3.61,13.22-1.48a12.12,12.12,0,0,1,6.19,11c-.09,1.57-.75,2.25-2.29,2.23-2.47,0-5,0-7.43,0Zm-2.16-3.29v0c1.77,0,3.54,0,5.3,0,1.6,0,2.24-.55,1.86-2.26a7.26,7.26,0,0,0-7.14-5.58,7.6,7.6,0,0,0-7,5.84c-.25,1.46.41,2,1.7,2C99,310.21,100.73,310.19,102.49,310.19Z"/><path class="cls-1" d="M422.74,309.45c2.35-2.48,4.82-4.87,7-7.48,2-2.35,4.32-2.76,7.63-2-2.09,2-4,3.75-5.8,5.57-4.11,4.14-4,2.92-.77,7.9q3.35,5.08,6.76,10.13c.95,1.39.77,2-1,2.09a4.11,4.11,0,0,1-4.33-2.24c-1.6-2.85-3.44-5.56-5.3-8.25-.63-.92-.94-2.8-2.48-2.21a3.94,3.94,0,0,0-2.64,3.66c0,2,0,4.06,0,6.09,0,1.47,0,2.9-2.09,2.92s-2.17-1.33-2.17-2.85q0-15.22,0-30.47c0-1.57.21-2.81,2.26-2.75s2,1.33,2,2.73c0,4.95,0,9.9,0,14.84,0,.6.12,1.2.18,1.8Z"/><path class="cls-1" d="M395.22,312.49c0,10.57-8.15,16.42-17.46,12.55-5.25-2.19-7.67-8.74-6.59-16.12,1.51-10.37,14-12.19,19.77-7.36C393.75,303.92,395.23,307.46,395.22,312.49Zm-19.69-.58c0,2.29-.1,4.26.79,6.06,1.29,2.58,3.13,4.41,6.28,4.51s5.59-1,6.93-3.84a13.46,13.46,0,0,0,.12-12,7.21,7.21,0,0,0-12.28-1.38A9.57,9.57,0,0,0,375.53,311.91Z"/><path class="cls-1" d="M209.91,312.37c0-3.36,0-6.72,0-10.08,0-1-.17-2.26,1.28-2.55,1.29-.26,2.24.05,2.47,1.61.19,1.31.9.72,1.46.24a9.33,9.33,0,0,1,4.92-2.43c6.84-1,10.71,2.14,11,9.08.2,4.95,0,9.9.07,14.86,0,1.53-.39,2.58-2.23,2.52s-2-1.06-2-2.46c0-3.8,0-7.6,0-11.41a26.07,26.07,0,0,0-.3-3.95c-.56-3.46-1.88-4.79-4.79-5-3.5-.24-6.1,1.38-7.07,4.35a19.27,19.27,0,0,0-.52,6.05c0,3.36,0,6.72,0,10.08,0,1.48-.5,2.33-2.15,2.33s-2.11-.93-2.1-2.38C209.93,319.62,209.91,316,209.91,312.37Z"/><path class="cls-1" d="M54.08,302.61a10.85,10.85,0,0,1,12.07-2.88,6.32,6.32,0,0,1,4.59,6.18c.16,5.82.07,11.65.09,17.48,0,1.53-.66,2.26-2.24,2.23s-2-.87-2-2.21c0-4.77,0-9.54,0-14.3,0-4.23-1.64-6.15-5.12-6.3-4-.16-6.73,2-7,5.95-.25,3.78-.1,7.59-.12,11.38,0,1.15,0,2.3,0,3.45,0,1.44-.73,2-2.15,2s-2.07-.73-2.07-2.13c0-2.73,0-5.47,0-8.21,0-4.23,0-8.47,0-12.71,0-1.18-.27-2.6,1.53-2.88S53.8,300.7,54.08,302.61Z"/><path class="cls-1" d="M270.31,302.64c2.69-3.15,5.85-3.86,9.37-3.51,4.32.42,7.14,3.33,7.21,7.69.09,5.39,0,10.78,0,16.18,0,1.47-.24,2.62-2.12,2.63s-2.15-1.12-2.15-2.61q0-7,0-14.06c0-4.12-1.72-6-5.27-6.15-4-.11-6.74,2.16-6.88,6.09-.18,4.68-.1,9.37-.09,14.05,0,1.63-.35,2.81-2.35,2.67-1.16-.09-1.85-.6-1.86-1.78q0-11.14,0-22.28a1.68,1.68,0,0,1,1.73-1.9C269.71,299.5,269.81,300.87,270.31,302.64Z"/><path class="cls-1" d="M238.6,312.26c0-1.68,0-3.37,0-5-.05-1.94.6-4-2.38-4.78a1.34,1.34,0,0,1,.23-2.58c2.41-.56,2.22-2.18,2.14-3.85s.23-3.23,2-4.18c1.52-.8,2.29-.88,2.23,1.13,0,1.32,0,2.65,0,4-.07,1.68.44,2.74,2.36,2.69,1.09,0,2.24.07,2.25,1.59s-1.16,1.62-2.24,1.59c-1.94-.07-2.39,1-2.38,2.68.05,4.16,0,8.32,0,12.47,0,2.22.63,3.83,3.19,4,1.6.1,1.69,1.39,1.68,2.53,0,1.31-1.14,1.11-2,1.17-4.87.37-6.67-1.09-7-6-.19-2.46,0-4.95,0-7.42Z"/><path class="cls-1" d="M328.79,325.68c-4.22,0-5.71-1.45-5.77-5.62-.07-4.68,0-9.36,0-14,0-1.55.05-2.91-2-3.39-1.42-.32-1.54-2.42-.21-2.72,2.51-.57,2.37-2.29,2.22-4.05a4,4,0,0,1,2.58-4.41c1.16-.52,1.68-.19,1.7,1,0,1.59.05,3.18,0,4.77s.51,2.36,2.12,2.37c1,0,2,.21,2,1.55,0,1.52-1.09,1.63-2.18,1.66-1.5,0-2,.89-2,2.24,0,4.68,0,9.36,0,14,0,1.39.55,2.49,2,2.7s3,.56,2.6,2.5S329.82,325.45,328.79,325.68Z"/><path class="cls-1" d="M78.76,312.6c0-2.21,0-4.42,0-6.63,0-1.58,0-2.89-2.1-3.35a1.43,1.43,0,0,1-.12-2.74c2.38-.52,2.22-2.1,2.22-3.8a7.74,7.74,0,0,1,.17-2.37,3.36,3.36,0,0,1,3.2-2.39c1.48,0,.73,1.66.85,2.59a19.84,19.84,0,0,1,0,3.18c-.06,1.58.47,2.55,2.23,2.55,1.06,0,2,.31,1.94,1.63s-1,1.53-2,1.54c-1.62,0-2.14.9-2.13,2.38,0,4.51,0,9,0,13.53,0,1.85.7,3.1,2.73,3.19,1.43.06,2.1.74,2,2.19s-1.23,1.5-2.32,1.57c-4.43.29-6.48-1.5-6.62-5.9-.08-2.39,0-4.78,0-7.17Z"/><path class="cls-1" d="M135.57,307.74c0,5,0,10.06,0,15.1,0,1.54-.15,2.83-2.22,2.79-1.91-.05-2.06-1.26-2.06-2.69q0-15.36,0-30.72c0-1.45.19-2.63,2.09-2.66,2.09,0,2.19,1.3,2.19,2.82C135.56,297.5,135.57,302.62,135.57,307.74Z"/><path class="cls-1" d="M120.14,307.48c0-5,0-10.05,0-15.08,0-1.52.1-2.86,2.18-2.84s2.07,1.47,2.07,2.92q0,15.09,0,30.17c0,1.43.12,2.93-2,3s-2.22-1.5-2.22-3.05Z"/><path class="cls-1" d="M404.7,303.05c2-3,4.11-4.65,7.37-3.8,1.26.33,2.42.83,2,2.53-.36,1.34-1,2.06-2.64,1.83-3.57-.49-5.2.73-6,4.32-1.15,4.89-.33,9.87-.58,14.8,0,.94.21,2-.82,2.63a2.16,2.16,0,0,1-3.38-1.8c-.07-7.25,0-14.5,0-21.74,0-1.18.31-2.06,1.74-2.16C404.46,299.51,404.1,301.36,404.7,303.05Z"/><path class="cls-1" d="M43.15,312.71c0,3.44,0,6.88,0,10.31,0,1.48-.26,2.62-2.14,2.61S38.9,324.47,38.9,323q0-10.46,0-20.89c0-1.58.5-2.52,2.28-2.47s2,1.13,2,2.49Z"/><path class="cls-1" d="M146.74,312.75c0,3.35,0,6.71,0,10.06,0,1.53-.11,2.84-2.19,2.82-1.91,0-2.07-1.22-2.07-2.66q0-10.34,0-20.65c0-1.43.13-2.65,2.05-2.69s2.22,1.25,2.21,2.8C146.72,305.87,146.74,309.31,146.74,312.75Z"/><path class="cls-1" d="M144.65,294.31c-1.63.12-2.17-.77-2.17-2.26s.22-2.43,2-2.49,2.34.78,2.31,2.41C146.71,293.41,146.32,294.4,144.65,294.31Z"/><path class="cls-1" d="M43.13,292.06c.07,1.44-.49,2.28-2.11,2.28-1.84,0-2.12-1.12-2.11-2.61s.74-2.19,2.27-2.16C42.89,289.6,43.19,290.65,43.13,292.06Z"/><path class="cls-1" d="M199.35,307.79c.46,1.79-.13,2.47-1.91,2.43s-3.53,0-5.29,0v0c-1.77,0-3.53,0-5.3,0-1.35,0-1.87-.65-1.58-2.05"/></svg>