<svg id="Layer_1" data-name="Layer 1" xmlns="http://www.w3.org/2000/svg" viewBox="0 0 500 500"><defs><style>.cls-1{fill:grey;}</style></defs><g id="Layer_2" data-name="Layer 2"><path class="cls-1" d="M168.35,212c21.67,0,38.84,18,35.07,41.74-3.62,22.9-25.28,41-48,40.72-22.24-.29-38.55-18.26-35-41.23C124.15,229.43,146,212,168.35,212M157.19,281.1c15,0,29.86-13,32.25-27.9,2.68-16.38-8.19-27.83-23-27.83s-29.49,12.61-32,28c-2.39,14.92,7.39,27.68,22.75,27.68"/><path class="cls-1" d="M212.63,241.82h12.53l-.72,4.35c5.87-6.09,13.77-5.73,16.23-5.51,15.29,1.23,20.36,15,18.62,26.6-2.1,14-12.17,26.16-27.46,26.66-7.68.22-11.38-2.82-14.06-5.87l-4.85,30.58H200.38ZM231,282c6.23-.07,13.33-4,15.58-14.71,1.88-9-2.46-15-10.43-15-7,0-14.28,6.16-15.44,14.85-1.3,10.87,4.49,14.93,10.29,14.86"/><polygon class="cls-1" points="270.02 253.63 264.66 253.63 266.54 241.82 271.83 241.82 274.51 225.23 286.97 225.23 284.29 241.82 292.55 241.82 290.74 253.63 282.48 253.63 276.32 292.62 263.79 292.62 270.02 253.63"/><path class="cls-1" d="M290.45,267c2.47-15.15,16.16-26.45,30.36-26.45s25,11.3,22.76,26.66c-2.39,16.38-17.32,27-30.87,26.74-14.93-.43-24.57-12.68-22.25-26.95m40.73-.15c1.3-8.91-3.63-14.35-11.53-14.49-6.08-.07-15,4.78-16.73,15-1.53,9,3.84,14.71,11.44,14.71,8.63,0,15.58-7.1,16.82-15.22"/><path class="cls-1" d="M403.28,254.79a3.25,3.25,0,0,0-2.83-2.32,8.21,8.21,0,0,0-8.33,3.55c-2.1,3-3,8.05-3.48,11.24l-4,25.36h-12.6l4.56-28.19c1-6.81,1.3-12-3.7-12-8,0-9.71,9.35-10.57,14.86l-4,25.36H345.81l8.05-50.8h12.53l-.58,3.7c.66-1.38,4.79-5.15,10.51-4.93a13.41,13.41,0,0,1,10.87,5.87,21.07,21.07,0,0,1,14.64-5.87c8.62,0,11.66,4.85,12.9,7.39s2.1,7.1.94,15L411,292.62H398.49l4.5-28.19c1.37-7.54.29-9.64.29-9.64"/><path class="cls-1" d="M468,292.62H455.52l.73-4.2c-5,4.78-10.66,5.57-15.66,5.5-10.94-.22-22.17-10.36-19.27-27,2.68-15.58,14.35-26.3,28.26-26.3,9.71,0,13.19,5.58,13.19,5.58l.72-4.28H476Zm-18.26-40.29c-8.85,0-14.71,8-15.87,15-1.24,8,2.53,14.71,10.29,14.71,7.46,0,14.49-6.23,15.79-14.93,1.52-9.78-3.55-14.78-10.21-14.78"/><path class="cls-1" d="M63.57,239.65S26,235.52,24.08,217.76c-1.74-16,59.13-34.63,115-36.23C226.9,179.07,275.89,205,275.89,205s-51.74-13.62-123.48-7.61c-64.49,5.36-93.62,20-97.17,29.2-2.54,6.89,8.33,13.05,8.33,13.05"/></g></svg>