<svg id="Layer_1" data-name="Layer 1" xmlns="http://www.w3.org/2000/svg" viewBox="0 0 500 500"><defs><style>.cls-1{fill:grey;fill-rule:evenodd;}</style></defs><path class="cls-1" d="M19.41,253H33.88l5.79-11.83H68.35c10.26,0,17.1-7.9,20.52-15l1.84-3.95c4.47-9.47,4.47-16.31-9.21-16.31H42ZM51,217.77H72.29c4.21,0,5,1.85,3.42,5l-.79,1.84c-1.32,2.63-3.68,5-7.1,5H45.19Zm37.1,18.68c-6.84,14-.53,17.1,12.63,17.1h23.15c12.89,0,22.36-3.15,28.94-16.83l6.57-14.21c6.84-13.68.53-17.1-12.36-17.1H123.59c-12.89,0-22.1,3.42-28.94,17.1l-6.57,13.94ZM107.55,227c2.63-5.79,5.79-9.47,13.41-9.47h17.1c7.64,0,7.11,3.68,4.48,9.47l-2.63,5c-3.16,6.84-5.79,9.47-12.63,9.47H108.86c-6.84,0-7.1-2.63-3.94-9.47Zm48.4,14c-5,10.26-.79,12.63,12.37,12.63h17.36c19.2,0,24.47-2.11,30.78-14.74,6.58-13.68,1.84-15-20.52-15-15.52,0-17.36,0-15.26-4.21,1.32-2.63,3.95-3.69,7.11-3.69h16c6.58,0,6.32,1.58,4.74,5H223l.79-1.58c3.94-8.15,5-13.94-11.58-13.94H192c-18.15,0-22.09,6.58-26.3,15.26-5.53,11.57-4.21,14.2,17.36,14.2,18.68,0,20.26.27,18.42,4.21-1.85,3.68-5,3.95-8.16,3.95H175.69c-4.21,0-6.05-.27-3.69-5.26H157.53L156,240.93ZM216.46,253h14.47l22.62-47.08H239.08Zm19.46,0H250.4l7.89-16h33.14l5.27-10.79H263.55l4.21-8.94h34.72L308,205.94H258.55L235.92,253Zm53.94,0h47.08l5.8-12.09H310.38l16.57-35H312.74Zm51.82,0H394l5.53-11.31H361.41l3.68-7.36h35.26l4.73-10H369.83l3.68-7.36h37.1l5.26-11.05H364.31L341.68,253Z"/><path class="cls-1" d="M334.58,294.59l31.57-21H11.52V262h372l48.4-32.36-10.25-23.67h18.67l6.85,16.57,22.62-16.57h18.68l-32.89,23.67L467.43,253H448l-7.36-17.09-37.36,26h64.19v11.58h-81l-30.25,21Z"/></svg>