<svg id="Layer_1" data-name="Layer 1" xmlns="http://www.w3.org/2000/svg" viewBox="0 0 500 500"><defs><style>.cls-1{fill:grey;}</style></defs><g id="surface1"><path class="cls-1" d="M315,110.93a26.83,26.83,0,0,1,3.74,1.23c-1.46,4.39-4.15,8.19-6.32,12.18-1.81,3-3.28,6.08-5.33,8.84.76-3.05,1.94-5.92,2.93-8.9,1.64-4.45,3-9.08,5-13.35"/><path class="cls-1" d="M325.92,117.25c1,.76,2,1.58,2.93,2.46-2.41,3.45-5.86,5.91-8.9,8.67-2.82,2.4-5.39,5-8.44,7.14,1.47-2.63,3.57-4.86,5.33-7.26,3-3.69,5.68-7.67,9.08-11"/><path class="cls-1" d="M262.27,124.69c1-.18,2.46-.82,3,.46,1.69,2.7,2.92,5.63,4.68,8.2a7,7,0,0,0,5.5,2.93c6.74-.06,13.29-2.05,20-2.81,3-.53,4.8,3.86,2.52,5.8-4.86,4.1-11.59,5.56-16.11,10.19-1.22,1,.06,2.51.71,3.51,3.34,3.86,7.26,7.2,10.54,11.12,1,1.29,2.4,2.87,1.64,4.57a3.54,3.54,0,0,1-4.74,1.41c-5.27-2.34-10-5.56-15.05-8.32a4.39,4.39,0,0,0-3.4-.52c-1,.52-1.35,1.75-1.87,2.63-5.92-5-12.18-10.25-15.46-17.45,1.64-.7,3.92-1.29,4.33-3.4.64-3.45-1.41-6.55-2.75-9.54-.7-2.11-3.4-1-5-1.41-.29-2.28,1.7-3.8,3.34-5.09,1-.7,2.75-1.4,3.69-.18,2.69,3.34,3.86,7.62,6.56,10.9a1.55,1.55,0,0,0,1.46-2.17c-1.23-3.57-3.92-6.85-3.51-10.83"/><path class="cls-1" d="M262.27,124.69c1-.18,2.46-.82,3,.46,1.69,2.7,2.92,5.63,4.68,8.2a7,7,0,0,0,5.5,2.93c6.74-.06,13.29-2.05,20-2.81,3-.53,4.8,3.86,2.52,5.8-4.86,4.1-11.59,5.56-16.11,10.19-1.22,1,.06,2.51.71,3.51,3.34,3.86,7.26,7.2,10.54,11.12,1,1.29,2.4,2.87,1.64,4.57a3.54,3.54,0,0,1-4.74,1.41c-5.27-2.34-10-5.56-15.05-8.32a4.39,4.39,0,0,0-3.4-.52c-1,.52-1.35,1.75-1.87,2.63-5.92-5-12.18-10.25-15.46-17.45,1.64-.7,3.92-1.29,4.33-3.4.64-3.45-1.41-6.55-2.75-9.54-.7-2.11-3.4-1-5-1.41-.29-2.28,1.7-3.8,3.34-5.09,1-.7,2.75-1.4,3.69-.18,2.69,3.34,3.86,7.62,6.56,10.9a1.55,1.55,0,0,0,1.46-2.17C264.55,132,261.86,128.67,262.27,124.69Z"/><path class="cls-1" d="M324.16,133.3a91,91,0,0,1,10.54-6.39,33.44,33.44,0,0,1,2,3.34c-3.28,2.17-7,3.4-10.54,4.92-4,1.64-8,3.4-12.06,4.92,3.22-2.46,6.73-4.51,10.07-6.79"/><path class="cls-1" d="M247.75,148.7a8.42,8.42,0,0,1,6.44-2.29c3.28,7.2,9.54,12.41,15.45,17.45,1.35,1.11,2.64,2.23,4,3.34-.59.76-1.17,1.52-1.76,2.22-.59-.29-1.11-.58-1.64-.87-8.2-5.86-15.34-12.89-22.48-19.85"/><path class="cls-1" d="M209,154a94.79,94.79,0,0,0,38.71-5.27c7.14,7,14.28,14,22.48,19.85,2.46,16,5.39,32,8.37,47.95.77,3.57,1,7.67,3.81,10.42,1.82,1.82,4.57,1.58,6.85,2.41,1.23.7,1.17,2.1.94,3.27-3.4.82-7.55,1.12-10.19-1.58-4.63-4.45-5.09-11.24-6.26-17.21-1.53-8.14-2.41-16.46-4.63-24.48-.59-1.75-.88-3.86-2.46-5.09-1,.58-.7,1.81-.7,2.75,1,12.47.82,25.12,2.93,37.54.7,3,1.11,6.61,3.8,8.54,1.7,1.47,4.33,2.23,4.69,4.75a6.75,6.75,0,0,1-7.62-.65c-2.75-2.46-4.21-6.09-5-9.66-1.41-10.95-2.64-22-4.8-32.79a12.64,12.64,0,0,0-2.82-6.44c-2.63-3-6.61-4.51-10.48-5.21-6-1.06-12.06-2-18.15-1.29a7.54,7.54,0,0,0-5.68,3.57c-2.81,4.45-3.34,9.9-3.57,15.11-.18,8.78-.59,17.56-.76,26.35.11,2.05-.12,4.57,1.75,6A5.88,5.88,0,0,1,222,238.4a8.16,8.16,0,0,1-7.55-4.63c-.59-3.1.11-6.2,0-9.3-.35-10.37-1-20.67-1.53-31-.35-2,2-3.69,1-5.74-.59-1-1.46-2.4-2.81-1.87a4.72,4.72,0,0,0-1.11,2.93c-1,11.53-2,23-3,34.54a31.77,31.77,0,0,0-.35,5.86c.94,2.28,3.57,3.81,3.63,6.5,0,1,.12,2.58-1.11,2.87a8.05,8.05,0,0,1-5.68-4.69,18.91,18.91,0,0,1-1.06-10c.41-3.86.06-7.79.06-11.65-.17-9.37-.7-18.74-.88-28,1.23-2.28,3.34-4,4-6.62a29.61,29.61,0,0,0,.52-12c-.58-3.51-3.1-6.21-4.92-9.08a4.21,4.21,0,0,1-.52-3c2.75-.82,5.5.53,8.31.59"/><path class="cls-1" d="M209,154a94.79,94.79,0,0,0,38.71-5.27c7.14,7,14.28,14,22.48,19.85,2.46,16,5.39,32,8.37,47.95.77,3.57,1,7.67,3.81,10.42,1.82,1.82,4.57,1.58,6.85,2.41,1.23.7,1.17,2.1.94,3.27-3.4.82-7.55,1.12-10.19-1.58-4.63-4.45-5.09-11.24-6.26-17.21-1.53-8.14-2.41-16.46-4.63-24.48-.59-1.75-.88-3.86-2.46-5.09-1,.58-.7,1.81-.7,2.75,1,12.47.82,25.12,2.93,37.54.7,3,1.11,6.61,3.8,8.54,1.7,1.47,4.33,2.23,4.69,4.75a6.75,6.75,0,0,1-7.62-.65c-2.75-2.46-4.21-6.09-5-9.66-1.41-10.95-2.64-22-4.8-32.79a12.64,12.64,0,0,0-2.82-6.44c-2.63-3-6.61-4.51-10.48-5.21-6-1.06-12.06-2-18.15-1.29a7.54,7.54,0,0,0-5.68,3.57c-2.81,4.45-3.34,9.9-3.57,15.11-.18,8.78-.59,17.56-.76,26.35.11,2.05-.12,4.57,1.75,6A5.88,5.88,0,0,1,222,238.4a8.16,8.16,0,0,1-7.55-4.63c-.59-3.1.11-6.2,0-9.3-.35-10.37-1-20.67-1.53-31-.35-2,2-3.69,1-5.74-.59-1-1.46-2.4-2.81-1.87a4.72,4.72,0,0,0-1.11,2.93c-1,11.53-2,23-3,34.54a31.77,31.77,0,0,0-.35,5.86c.94,2.28,3.57,3.81,3.63,6.5,0,1,.12,2.58-1.11,2.87a8.05,8.05,0,0,1-5.68-4.69,18.91,18.91,0,0,1-1.06-10c.41-3.86.06-7.79.06-11.65-.17-9.37-.7-18.74-.88-28,1.23-2.28,3.34-4,4-6.62a29.61,29.61,0,0,0,.52-12c-.58-3.51-3.1-6.21-4.92-9.08a4.21,4.21,0,0,1-.52-3C203.48,152.56,206.23,153.91,209,154Z"/><path class="cls-1" d="M273.63,167.2c1.23,0,2.63-.41,3.69.41a3.72,3.72,0,0,1,1.34,4c-.47.7-1.05,1.41-1.58,2.11-1.34.23-3,.41-4.1-.65-1.11-.82-1.05-2.34-1.11-3.63.59-.7,1.17-1.46,1.76-2.22"/><path class="cls-1" d="M273.63,167.2c1.23,0,2.63-.41,3.69.41a3.72,3.72,0,0,1,1.34,4c-.47.7-1.05,1.41-1.58,2.11-1.34.23-3,.41-4.1-.65-1.11-.82-1.05-2.34-1.11-3.63C272.46,168.72,273,168,273.63,167.2Z"/><path class="cls-1" d="M273.63,170.42c-.18-1.64,1.46-1.93,2.75-2l-.29.47c-.82.58-1.64,1.11-2.46,1.58"/><path class="cls-1" d="M276.09,168.84c1.7.17,1.46,3.16-.18,3.45-1.29.65-2.11-.7-2.81-1.58l.53-.29c.82-.47,1.64-1,2.46-1.58"/><path class="cls-1" d="M276.09,168.84c1.7.17,1.46,3.16-.18,3.45-1.29.65-2.11-.7-2.81-1.58l.53-.29C274.45,170,275.27,169.42,276.09,168.84Z"/><path class="cls-1" d="M277.08,173.7c.53-.7,1.11-1.41,1.58-2.11,2.41,4.45,5,8.9,6.68,13.7,1.46,4,.59,8.2,0,12.24-1,6.79,1.05,13.58,3.63,19.85,3.22,8.08,8.84,15.58,16.75,19.62,3.69,1.87,8.61,2.81,12.24.17.76-.7,2-1.46,1.58-2.69-.88-2.11-3.05-3.22-5-4A26.85,26.85,0,0,0,298.28,229a21.4,21.4,0,0,1,18.33.06c2,.94,3.92,2.87,3.69,5.27-.7,3.75-4,7.09-8,7.15-6.32.35-11.94-3.52-16.22-7.85-4.56-4.57-7.55-10.48-9.77-16.51a40,40,0,0,1-2.82-14.29c.12-4.51,1.88-9,.71-13.47-1.41-5.62-4.86-10.36-7.15-15.63"/><path class="cls-1" d="M256.71,257c4.27-.06,8.49-.17,12.76.06-.06,29.57,0,59.14-.06,88.71-4.21.06-8.43,0-12.7,0"/><path class="cls-1" d="M256.71,257c4.27-.06,8.49-.17,12.76.06-.06,29.57,0,59.14-.06,88.71-4.21.06-8.43,0-12.7,0Z"/><path class="cls-1" d="M24.83,276.93c10-.11,19.9,0,29.86-.06,8.49,0,17.86,1,24.48,6.85,7.84,6.74,8.9,19.27,3.45,27.76-3.81,5.74-10.83,8.37-17.45,8.78,8.32,8.61,17,16.92,25.41,25.47-6.26.12-12.59.18-18.85,0-4.51-4-8.43-8.78-12.53-13.35-5.86-6.67-11.89-13.11-17.57-19.91,6.68-.11,13.47.24,20-1.52,3.28-.94,6.62-2.4,8.9-5.09a10.73,10.73,0,0,0,.94-12.06c-2-3.58-6-5.63-9.84-6.62-4.51-1.29-9.25-.88-13.94-.94-3.28.06-6.56-.12-9.84.12.06,19.79.06,39.64,0,59.43q-6.49.09-13,0"/><path class="cls-1" d="M24.83,276.93c10-.11,19.9,0,29.86-.06,8.49,0,17.86,1,24.48,6.85,7.84,6.74,8.9,19.27,3.45,27.76-3.81,5.74-10.83,8.37-17.45,8.78,8.32,8.61,17,16.92,25.41,25.47-6.26.12-12.59.18-18.85,0-4.51-4-8.43-8.78-12.53-13.35-5.86-6.67-11.89-13.11-17.57-19.91,6.68-.11,13.47.24,20-1.52,3.28-.94,6.62-2.4,8.9-5.09a10.73,10.73,0,0,0,.94-12.06c-2-3.58-6-5.63-9.84-6.62-4.51-1.29-9.25-.88-13.94-.94-3.28.06-6.56-.12-9.84.12.06,19.79.06,39.64,0,59.43q-6.49.09-13,0Z"/><path class="cls-1" d="M192.06,282.2c7.26-4.45,16.28-5.68,24.59-4.16,12,2.29,22.66,11.54,25.94,23.37-4.68.11-9.31.06-13.93.06-2-4-4.69-7.73-8.61-10-5.56-3.16-12.65-3.22-18.56-1s-10.25,7.73-12.06,13.7c-2.87,9-.77,19.85,6.2,26.41,7.44,7.14,20.44,7.2,27.93.06a24.05,24.05,0,0,0,5-7c4.62,0,9.31-.06,13.94,0a34,34,0,0,1-18.1,20.62A36.1,36.1,0,0,1,199,346a32.17,32.17,0,0,1-17.28-13.06,37.11,37.11,0,0,1-4-32.85,33.66,33.66,0,0,1,14.4-17.86"/><path class="cls-1" d="M192.06,282.2c7.26-4.45,16.28-5.68,24.59-4.16,12,2.29,22.66,11.54,25.94,23.37-4.68.11-9.31.06-13.93.06-2-4-4.69-7.73-8.61-10-5.56-3.16-12.65-3.22-18.56-1s-10.25,7.73-12.06,13.7c-2.87,9-.77,19.85,6.2,26.41,7.44,7.14,20.44,7.2,27.93.06a24.05,24.05,0,0,0,5-7c4.62,0,9.31-.06,13.94,0a34,34,0,0,1-18.1,20.62A36.1,36.1,0,0,1,199,346a32.17,32.17,0,0,1-17.28-13.06,37.11,37.11,0,0,1-4-32.85A33.66,33.66,0,0,1,192.06,282.2Z"/><path class="cls-1" d="M415.57,279.68a30.83,30.83,0,0,1,19.61-.52c4.69,1.46,9.25,4.15,12.12,8.25a15.49,15.49,0,0,1,2.81,9.2c-4.68,0-9.36.11-14.05-.06a9.54,9.54,0,0,0-5.85-7.2c-4-1.41-9.14-1.06-12.3,2a6.63,6.63,0,0,0-.06,9.08,15.18,15.18,0,0,0,6.56,3.34c3.81,1.11,7.67,1.87,11.36,3.28,5.21,1.87,10.3,4.74,13.41,9.48,4.1,6.15,3.57,14.76-.59,20.73a23.39,23.39,0,0,1-13.41,8.78,35.38,35.38,0,0,1-24.24-2.45,22.57,22.57,0,0,1-9.84-8.84,20.55,20.55,0,0,1-2.57-10.49c4.62,0,9.25,0,13.82-.05.76,3.27,1.64,6.79,4.33,9a15.76,15.76,0,0,0,16.51,1.53c4.16-2,6.21-7.74,3.57-11.72-2.34-3.22-6.38-4.56-10-5.79-6.73-2.17-14.11-3.63-19.61-8.44-5.27-4.56-6.62-12.76-3.52-19a21.83,21.83,0,0,1,11.95-10.19"/><path class="cls-1" d="M415.57,279.68a30.83,30.83,0,0,1,19.61-.52c4.69,1.46,9.25,4.15,12.12,8.25a15.49,15.49,0,0,1,2.81,9.2c-4.68,0-9.36.11-14.05-.06a9.54,9.54,0,0,0-5.85-7.2c-4-1.41-9.14-1.06-12.3,2a6.63,6.63,0,0,0-.06,9.08,15.18,15.18,0,0,0,6.56,3.34c3.81,1.11,7.67,1.87,11.36,3.28,5.21,1.87,10.3,4.74,13.41,9.48,4.1,6.15,3.57,14.76-.59,20.73a23.39,23.39,0,0,1-13.41,8.78,35.38,35.38,0,0,1-24.24-2.45,22.57,22.57,0,0,1-9.84-8.84,20.55,20.55,0,0,1-2.57-10.49c4.62,0,9.25,0,13.82-.05.76,3.27,1.64,6.79,4.33,9a15.76,15.76,0,0,0,16.51,1.53c4.16-2,6.21-7.74,3.57-11.72-2.34-3.22-6.38-4.56-10-5.79-6.73-2.17-14.11-3.63-19.61-8.44-5.27-4.56-6.62-12.76-3.52-19A21.83,21.83,0,0,1,415.57,279.68Z"/><path class="cls-1" d="M324.1,279.16c4.16,0,8.38,0,12.53,0v31.33c-.05,6.38-.29,13.23,3.05,18.92a13.32,13.32,0,0,0,10.13,6.32c5.44.82,11.53-.35,15.46-4.51s5.09-10,5.21-15.46c-.06-12.18,0-24.36-.06-36.48q6.33-.25,12.65,0c-.06,22.14,0,44.27,0,66.46-3.81.06-7.67.06-11.42,0-.06-2.28,0-4.57-.12-6.85a20.44,20.44,0,0,1-11.47,7.55c-9.84,2.58-21.49.59-28.75-6.91-5.51-5.62-7-13.81-7.27-21.43.06-13-.05-26,.06-39"/><path class="cls-1" d="M324.1,279.16c4.16,0,8.38,0,12.53,0v31.33c-.05,6.38-.29,13.23,3.05,18.92a13.32,13.32,0,0,0,10.13,6.32c5.44.82,11.53-.35,15.46-4.51s5.09-10,5.21-15.46c-.06-12.18,0-24.36-.06-36.48q6.33-.25,12.65,0c-.06,22.14,0,44.27,0,66.46-3.81.06-7.67.06-11.42,0-.06-2.28,0-4.57-.12-6.85a20.44,20.44,0,0,1-11.47,7.55c-9.84,2.58-21.49.59-28.75-6.91-5.51-5.62-7-13.81-7.27-21.43C324.1,305.16,324,292.15,324.1,279.16Z"/><path class="cls-1" d="M101,279.27c4.16-.11,8.37-.06,12.53,0,.12,12.12,0,24.25.06,36.37.17,5.5.82,11.47,4.57,15.81,3.22,3.74,8.54,4.8,13.29,4.51a16,16,0,0,0,11.65-5.57c3.51-4.45,4.33-10.3,4.45-15.81.06-11.77-.06-23.54.06-35.31,4.16-.06,8.37-.06,12.53,0v66.52c-3.87.06-7.73.06-11.6,0,.06-2.28.06-4.51-.05-6.79A20.46,20.46,0,0,1,137,346.5c-9.9,2.57-21.49.58-28.75-7C102.53,333.61,101.12,325,101,317"/><path class="cls-1" d="M101,279.27c4.16-.11,8.37-.06,12.53,0,.12,12.12,0,24.25.06,36.37.17,5.5.82,11.47,4.57,15.81,3.22,3.74,8.54,4.8,13.29,4.51a16,16,0,0,0,11.65-5.57c3.51-4.45,4.33-10.3,4.45-15.81.06-11.77-.06-23.54.06-35.31,4.16-.06,8.37-.06,12.53,0v66.52c-3.87.06-7.73.06-11.6,0,.06-2.28.06-4.51-.05-6.79A20.46,20.46,0,0,1,137,346.5c-9.9,2.57-21.49.58-28.75-7C102.53,333.61,101.12,325,101,317Z"/><path class="cls-1" d="M276.15,311.6c7.49-10.84,15.16-21.55,22.77-32.33,5.16-.06,10.37-.11,15.52,0-7.73,10.6-16,20.85-23.89,31.33,9.13,11.83,18.68,23.31,27.76,35.19q-7.38.09-14.76,0c-1.05.18-1.58-.82-2.17-1.52q-12.56-16.33-25.23-32.67"/><path class="cls-1" d="M276.15,311.6c7.49-10.84,15.16-21.55,22.77-32.33,5.16-.06,10.37-.11,15.52,0-7.73,10.6-16,20.85-23.89,31.33,9.13,11.83,18.68,23.31,27.76,35.19q-7.38.09-14.76,0c-1.05.18-1.58-.82-2.17-1.52Q288.83,327.94,276.15,311.6Z"/><path class="cls-1" d="M456.61,285.71a28.55,28.55,0,0,1,5.39,0c.18.24.53.65.7.88-.87.24-1.81.47-2.69.65.06,2.34,0,4.62,0,6.91H458.6c-.05-2.29-.05-4.57,0-6.91-.93-.18-1.81-.41-2.69-.65.18-.23.53-.64.7-.88"/><path class="cls-1" d="M456.61,285.71a28.55,28.55,0,0,1,5.39,0c.18.24.53.65.7.88-.87.24-1.81.47-2.69.65.06,2.34,0,4.62,0,6.91H458.6c-.05-2.29-.05-4.57,0-6.91-.93-.18-1.81-.41-2.69-.65C456.09,286.36,456.44,286,456.61,285.71Z"/><path class="cls-1" d="M465.81,285c1.29,2.11,2.34,4.34,3.57,6.5,1.35-2.05,2.11-4.45,3.69-6.32.76,3,1.4,6,2.1,9-.4-.05-1.22-.11-1.63-.17-.36-1.58-.71-3.1-1.06-4.68a58.52,58.52,0,0,0-3,5.38,57.76,57.76,0,0,1-3-5.33c-.65,1.53-.88,3.17-1.46,4.69a10.38,10.38,0,0,1-1.35.11c.58-3,1.23-6.14,2.11-9.19"/><path class="cls-1" d="M465.81,285c1.29,2.11,2.34,4.34,3.57,6.5,1.35-2.05,2.11-4.45,3.69-6.32.76,3,1.4,6,2.1,9-.4-.05-1.22-.11-1.63-.17-.36-1.58-.71-3.1-1.06-4.68a58.52,58.52,0,0,0-3,5.38,57.76,57.76,0,0,1-3-5.33c-.65,1.53-.88,3.17-1.46,4.69a10.38,10.38,0,0,1-1.35.11C464.28,291.16,464.93,288.06,465.81,285Z"/><path class="cls-1" d="M290,365.88c2,0,3.93,0,5.86-.06.17,6.26-.06,12.59.11,18.85,3.23-.06,6.39-.06,9.61,0v3.87q-7.82.09-15.63,0c0-7.56-.18-15.11,0-22.66"/><path class="cls-1" d="M290,365.88c2,0,3.93,0,5.86-.06.17,6.26-.06,12.59.11,18.85,3.23-.06,6.39-.06,9.61,0v3.87q-7.82.09-15.63,0C290,381,289.79,373.43,290,365.88Z"/><path class="cls-1" d="M317,365.88c5.62,0,11.3,0,16.92-.06.06,1.4.06,2.81,0,4.22-3.69-.06-7.38-.12-11.07,0v5.15c3.52.06,7,.06,10.6,0a24.66,24.66,0,0,1,0,4.21c-3.57-.06-7.08-.12-10.6,0v5.15q5.53.09,11.07,0c.06,1.35.06,2.7.06,4-5.68.06-11.42.06-17.1,0,0-7.56-.18-15.11.12-22.66"/><path class="cls-1" d="M317,365.88c5.62,0,11.3,0,16.92-.06.06,1.4.06,2.81,0,4.22-3.69-.06-7.38-.12-11.07,0v5.15c3.52.06,7,.06,10.6,0a24.66,24.66,0,0,1,0,4.21c-3.57-.06-7.08-.12-10.6,0v5.15q5.53.09,11.07,0c.06,1.35.06,2.7.06,4-5.68.06-11.42.06-17.1,0C316.9,381,316.72,373.43,317,365.88Z"/><path class="cls-1" d="M348.58,367.81c3.57-3,9-3,13.06-1.17a7.23,7.23,0,0,1,4,5.33c-2-.06-4.22.46-6.09-.24-1.11-2.4-4.69-3.16-6.5-1.11a2,2,0,0,0,1.05,3c3.46,1.4,7.67,1.4,10.48,4.15,2.52,2.35,2.05,6.91-.7,8.9-3.16,2.46-7.55,2.76-11.42,2-3.28-.7-6.73-3-7-6.67,2-.06,4-.06,6-.06,1.17,3.34,5.73,4,8.14,1.64a2.26,2.26,0,0,0-.88-3.57c-3.22-1.64-7.21-1.58-10.13-3.93a5.43,5.43,0,0,1-.06-8.31"/><path class="cls-1" d="M348.58,367.81c3.57-3,9-3,13.06-1.17a7.23,7.23,0,0,1,4,5.33c-2-.06-4.22.46-6.09-.24-1.11-2.4-4.69-3.16-6.5-1.11a2,2,0,0,0,1.05,3c3.46,1.4,7.67,1.4,10.48,4.15,2.52,2.35,2.05,6.91-.7,8.9-3.16,2.46-7.55,2.76-11.42,2-3.28-.7-6.73-3-7-6.67,2-.06,4-.06,6-.06,1.17,3.34,5.73,4,8.14,1.64a2.26,2.26,0,0,0-.88-3.57c-3.22-1.64-7.21-1.58-10.13-3.93A5.43,5.43,0,0,1,348.58,367.81Z"/><path class="cls-1" d="M377.45,371.5c.17-3.05,3.16-5,5.85-5.68,3.81-.88,8.38-.47,11.3,2.4a7.34,7.34,0,0,1,1.76,3.75c-2,.11-4,.06-6,0a4,4,0,0,0-6.15-1.76,1.89,1.89,0,0,0,.41,3.28c2.69,1.29,5.79,1.35,8.43,2.75,2.23,1,4.16,3.16,3.92,5.74.06,3.4-3,5.74-6,6.5-4.16,1.11-9,.76-12.41-1.93-1.47-1.06-2.05-2.81-2.52-4.45a54.5,54.5,0,0,1,6.26-.06c1.06,3.28,5.51,3.86,7.91,1.76a2.29,2.29,0,0,0-.53-3.69c-3.1-1.64-6.91-1.64-9.84-3.58a5.32,5.32,0,0,1-2.45-5"/><path class="cls-1" d="M377.45,371.5c.17-3.05,3.16-5,5.85-5.68,3.81-.88,8.38-.47,11.3,2.4a7.34,7.34,0,0,1,1.76,3.75c-2,.11-4,.06-6,0a4,4,0,0,0-6.15-1.76,1.89,1.89,0,0,0,.41,3.28c2.69,1.29,5.79,1.35,8.43,2.75,2.23,1,4.16,3.16,3.92,5.74.06,3.4-3,5.74-6,6.5-4.16,1.11-9,.76-12.41-1.93-1.47-1.06-2.05-2.81-2.52-4.45a54.5,54.5,0,0,1,6.26-.06c1.06,3.28,5.51,3.86,7.91,1.76a2.29,2.29,0,0,0-.53-3.69c-3.1-1.64-6.91-1.64-9.84-3.58A5.32,5.32,0,0,1,377.45,371.5Z"/><path class="cls-1" d="M155.52,365.93c1.93-.05,3.87-.11,5.8-.05.7.47.7,1.46,1.05,2.16,1.53,4.45,3.11,8.91,4.63,13.35,2-5.09,3.57-10.3,5.39-15.46q2.28-.07,4.56,0c1.64,5.22,3.46,10.37,5.1,15.52,2-5.09,3.69-10.36,5.56-15.57,2,0,4,0,6.09.05-2.87,7.62-6.09,15.05-9.08,22.61-1.63-.12-3.45.47-4.92-.3-1.87-4.74-3.22-9.66-5.09-14.4-1.7,4.92-3.4,9.84-5.15,14.76-1.58,0-3.16,0-4.75-.06-3.1-7.5-6.26-15.05-9.19-22.61"/><path class="cls-1" d="M155.52,365.93c1.93-.05,3.87-.11,5.8-.05.7.47.7,1.46,1.05,2.16,1.53,4.45,3.11,8.91,4.63,13.35,2-5.09,3.57-10.3,5.39-15.46q2.28-.07,4.56,0c1.64,5.22,3.46,10.37,5.1,15.52,2-5.09,3.69-10.36,5.56-15.57,2,0,4,0,6.09.05-2.87,7.62-6.09,15.05-9.08,22.61-1.63-.12-3.45.47-4.92-.3-1.87-4.74-3.22-9.66-5.09-14.4-1.7,4.92-3.4,9.84-5.15,14.76-1.58,0-3.16,0-4.75-.06C161.61,381,158.45,373.49,155.52,365.93Z"/><path class="cls-1" d="M205.29,366a42.65,42.65,0,0,1,6-.06c0,7.5.11,15.05,0,22.61q-3,.09-6,0c0-7.56.06-15.05,0-22.55"/><path class="cls-1" d="M205.29,366a42.65,42.65,0,0,1,6-.06c0,7.5.11,15.05,0,22.61q-3,.09-6,0C205.29,381,205.35,373.49,205.29,366Z"/><path class="cls-1" d="M225.55,365.93c3.93-.05,7.91-.11,11.83,0,3.34.06,6.91,1.35,8.67,4.34,1.46,2.52.41,5.8-1.64,7.61-1.58,1.46-3.81,1.93-5.8,2.46,2.81,2.69,5.62,5.33,8.32,8.14a57.83,57.83,0,0,1-7.09,0c-3-2.52-5.45-5.62-8.25-8.31-.06,2.8-.06,5.62-.06,8.37-2,.06-4,.06-6,0-.06-7.56-.06-15.11,0-22.61"/><path class="cls-1" d="M225.55,365.93c3.93-.05,7.91-.11,11.83,0,3.34.06,6.91,1.35,8.67,4.34,1.46,2.52.41,5.8-1.64,7.61-1.58,1.46-3.81,1.93-5.8,2.46,2.81,2.69,5.62,5.33,8.32,8.14a57.83,57.83,0,0,1-7.09,0c-3-2.52-5.45-5.62-8.25-8.31-.06,2.8-.06,5.62-.06,8.37-2,.06-4,.06-6,0C225.49,381,225.49,373.43,225.55,365.93Z"/><path class="cls-1" d="M258.58,366c5.79-.17,11.59-.17,17.33,0,0,1.29-.06,2.64-.06,4-3.74,0-7.49-.06-11.18,0-.06,1.7-.06,3.4-.06,5.1,3.57.29,7.14-.06,10.72.23,0,1.35-.06,2.64-.06,4-3.52,0-7.09,0-10.6.06-.06,1.7-.06,3.4-.06,5.1,3.75.29,7.55-.06,11.3.23,0,1.23-.06,2.52,0,3.75-5.8.12-11.54.12-17.33.06,0-7.56.06-15.05,0-22.55"/><path class="cls-1" d="M258.58,366c5.79-.17,11.59-.17,17.33,0,0,1.29-.06,2.64-.06,4-3.74,0-7.49-.06-11.18,0-.06,1.7-.06,3.4-.06,5.1,3.57.29,7.14-.06,10.72.23,0,1.35-.06,2.64-.06,4-3.52,0-7.09,0-10.6.06-.06,1.7-.06,3.4-.06,5.1,3.75.29,7.55-.06,11.3.23,0,1.23-.06,2.52,0,3.75-5.8.12-11.54.12-17.33.06C258.58,381,258.64,373.49,258.58,366Z"/><path class="cls-1" d="M231.53,370c2.75,0,6-.71,8.31,1.28,1.46,1.17.94,3.52-.58,4.39-2.29,1.35-5.16.94-7.73,1"/><path class="cls-1" d="M231.53,370c2.75,0,6-.71,8.31,1.28,1.46,1.17.94,3.52-.58,4.39-2.29,1.35-5.16.94-7.73,1Z"/></g></svg>