<svg id="Layer_1" data-name="Layer 1" xmlns="http://www.w3.org/2000/svg" viewBox="0 0 500 500"><defs><style>.cls-1{fill:grey;}</style></defs><path id="path13161" class="cls-1" d="M20.42,274.86H55.56c6.13,0,9.48-.58,11.45-1.86a8,8,0,0,0,3.82-7,8.94,8.94,0,0,0-5-8.23,19,19,0,0,0-8.34-1.38H43.32c-9.27,0-15.28-1.62-19.31-5.08a22.5,22.5,0,0,1-7.28-17C16.73,224.45,22,215.87,30,213c3.48-1.28,7.52-1.62,16.55-1.62H84.83v13.76H50.3a38.55,38.55,0,0,0-10.28.69,7.43,7.43,0,0,0-5.31,8,8,8,0,0,0,4.38,7.52,21.34,21.34,0,0,0,9.72,1.28H61.19c11.34,0,17.45,1.72,22,6.37A25.45,25.45,0,0,1,89,266a22.9,22.9,0,0,1-9.83,19.52c-3.83,2.44-8.69,3.14-20.13,3.14H20.42Z"/><path id="path13163" class="cls-1" d="M133.14,210.9c-10.86,0-20.34,2.66-26.35,7.52-7.65,6-11.68,17.24-11.68,32,0,10.31,2.2,18.75,6.72,25.1,6,8.69,17.69,13.55,32.48,13.55,10.41,0,19.2-2.66,25-7.17,7.65-6.14,11.92-17.24,11.92-30.79v-4.38l-.16-2.1-.32-2.12-.23-2-.32-2-.4-1.92-.45-1.83-.24-.88-.24-.87-.29-.88-.27-.82-.45-.85-.32-.8-.32-.77-.34-.77-.35-.74-.37-.75-.37-.69-.37-.69-.22-.66-.5-.75-.43-.61-.45-.61C157.9,215.18,146.9,210.9,133.14,210.9Zm.16,13c13.79,0,19.9,8.11,19.9,26.14s-6.25,26-19.9,26-20.1-8.23-20.1-26.27V238.05l.13-.53V237l.16-.51V236l.16-.48.16-.48.18-.45.19-.45.18-.43.19-.42.21-.4.19-.4.24-.37.21-.37A23,23,0,0,1,133.3,223.94Z"/><path id="path13167" class="cls-1" d="M180,211.49v77h16.42V261.66h26.37c8.77,0,12.94-1.14,17.43-5a27.43,27.43,0,0,0,1.64-38.06c-5.1-5.66-9.85-7-23.37-7Zm16.42,13.76h22.65a19.67,19.67,0,0,1,6,.69c3.58,1.27,5.68,5,5.68,10.06a12.91,12.91,0,0,1-3.37,9.72h-.16l-.16.16h-.35l-.21.14H196.38V225.25Z"/><polygon id="polygon13171" class="cls-1" points="318.96 288.62 302.54 288.62 302.54 256.83 272.82 256.83 272.82 288.62 256.41 288.62 256.41 211.49 272.82 211.49 272.82 243.07 302.54 243.07 302.54 211.49 318.96 211.49 318.96 288.62"/><path id="path13173" class="cls-1" d="M366.85,210.9c-10.87,0-20.35,2.66-26.38,7.52-7.62,6-11.68,17.24-11.68,32,0,10.31,2.2,18.75,6.72,25.1,6,8.69,17.68,13.55,32.48,13.55,10.41,0,19.2-2.66,25-7.17,7.65-6.14,11.93-17.24,11.93-30.79v-4.38l-.16-2.1-.18-2.07-.3-2-.32-2-.39-1.92-.43-1.83-.26-.88-.24-.87-.27-.88-.29-.82-.29-.85-.32-.8-.32-.77-.35-.77-.34-.74-.37-.75-.38-.69-.39-.69-.4-.66-.4-.64-.43-.61-.45-.61C391.57,215.18,380.6,210.9,366.85,210.9Zm.18,13c13.76,0,19.9,8.11,19.9,26.14s-6.25,26-19.9,26-20.1-8.23-20.1-26.27V237.52l.16-.53.13-.51.13-.5.19-.48.16-.48.16-.45.18-.45.19-.43.18-.42.22-.4.21-.4.21-.37.24-.37C353.54,226.76,359.44,223.94,367,223.94Z"/><path id="path13177" class="cls-1" d="M414.6,274.86h35.14c6.14,0,9.48-.58,11.45-1.86a7.94,7.94,0,0,0,3.82-7,8.91,8.91,0,0,0-5-8.23,18.9,18.9,0,0,0-8.31-1.38H437.47c-9.24,0-15.25-1.62-19.28-5.08a22.42,22.42,0,0,1-7.31-17c0-9.83,5.45-18.41,13.42-21.25,3.48-1.28,7.51-1.62,16.54-1.62H479v13.76H444.46a38.53,38.53,0,0,0-10.28.69,7.43,7.43,0,0,0-5.32,8,8,8,0,0,0,4.57,7.49,21.2,21.2,0,0,0,9.72,1.28h12.38c11.32,0,17.45,1.73,22,6.37a25.39,25.39,0,0,1,5.76,17,22.8,22.8,0,0,1-9.83,19.52c-3.8,2.45-8.66,3.14-20.1,3.14H414.6Z"/></svg>