<svg id="Layer_1" data-name="Layer 1" xmlns="http://www.w3.org/2000/svg" viewBox="0 0 500 500"><defs><style>.cls-1{fill:grey;}</style></defs><g id="f9cc25d7-68c2-491a-abf0-d9a8caaab2ac"><g id="f025a9e7-2a6e-4565-bb93-e37198beb04f"><path class="cls-1" d="M287.45,178.14c0-20.44-.21-38,0-55.47.27-17.82,7.34-26.73,24.49-31.46,8.47-2.32,17.2-2.67,25.91-3.2,3.19-.19,2.25,2,2.25,3.52,0,27.45.95,55-.27,82.37-1,22.16-9.74,41.67-27.72,55.95-7,5.56-15.31,8.49-23.93,10.57-1.86.46-2.16-.16-1.95-1.85C288.72,217.58,286.67,196.33,287.45,178.14Z"/><path class="cls-1" d="M253.69,278.41c-23-.66-44.1-6-61.23-22.13-15.44-14.54-21.69-33-21.8-53.71-.17-27.36,0-54.7-.1-82.06,0-2.83.74-3.67,3.59-3.63,6.84.12,6.84,0,6.84,6.69,0,15.75.12,31.51-.09,47.26,0,3.47,1,4.21,4.24,4.09,6.92-.22,7.08,0,6.89-7,0-3,.81-3.82,3.77-3.73,6.42.2,6.42,0,6.42,6.27v14.37c0,2,.39,2.86,2.67,2.92,8.43.24,8.43.34,8.43-8.19V152c0-2.52.52-3.52,3.3-3.49,6.92,0,6.92,0,6.92,7,0,21.8.24,43.62,0,65.42-.33,23.75,9.71,41.92,28.69,55.63C252.62,276.92,253.48,277.08,253.69,278.41Z"/><path class="cls-1" d="M328.61,243.73c-3.47,5.57-7.16,11-12.95,14.42-.49-1.39.58-2.16,1.26-3a11.64,11.64,0,0,0,4.67-11.84,51,51,0,0,1,0-10.48c.14-1.92-.92-2.25-2.2-2.7,2-2,4-4.05,5.94-6a10.64,10.64,0,0,0,2.44-3l.55-.75c2.31-.76,2.62,1,2.71,2.43.31,5.13.16,10.28.22,15.41C331.25,240.23,329,241.57,328.61,243.73Z"/><path class="cls-1" d="M273.32,276.89a19.37,19.37,0,0,1-6.81.78c.57-9.62.33-19.23.27-28.85a3.06,3.06,0,0,1,.39-1.51,15.45,15.45,0,0,1,6.28,0,4,4,0,0,1,1.6,3.27c.16,8.25.61,16.51-.24,24.75A2.48,2.48,0,0,1,273.32,276.89Z"/><path class="cls-1" d="M287,273.87a24.54,24.54,0,0,1-7.55,1.82c-.13-.36-.27-.86,0-1,3.58-1.83,3.51-5,3.4-8.39-.12-4.28-.15-8.56,0-12.84.11-3-.8-4.86-4-5.21-.6-.3-1.15-.63-1-1.51a16.48,16.48,0,0,1,6-.74,1.78,1.78,0,0,0,1.07.26c5.11-.85,5.95-.21,6,4.89.12,5.41-.1,10.83.09,16.23C291.26,270.71,290.35,273,287,273.87Z"/><path class="cls-1" d="M257.1,274.08a10.14,10.14,0,0,1-4.44-3c2.21-.3,3-1.51,3-3.78a129.08,129.08,0,0,1,.07-14.72c.24-2.67-2.49-4-2.05-6.45a11.69,11.69,0,0,1,6.66,1.35,1.67,1.67,0,0,1,2,.13c1.61,1.51,1.51,3.66,1.51,5.67V269.5C263.87,276.15,263,276.72,257.1,274.08Z"/><path class="cls-1" d="M328.61,243.73c-.12-.2-.41-.5-.36-.59,4.14-6.69.78-14,1.78-21,.18-1.19-.56-1.82-1.72-2l3.94-6a13.58,13.58,0,0,0,2.26-4,5.77,5.77,0,0,1,1.36-2.9c2.24-.78,2.45.93,2.84,2.35.82,3-.21,5.91-.53,8.84a21.48,21.48,0,0,0-.51,4.06A54.78,54.78,0,0,1,328.61,243.73Z"/><path class="cls-1" d="M287,273.87c3-1.35,3.13-3.9,3-6.75-.16-5.5,0-11,0-16.52,0-3-.33-5.48-4.39-3.93a1.52,1.52,0,0,1-1.65-.65l10.57-2.32c2.15.24,2.52,1.87,2.57,3.53.18,6.49.1,13,0,19.46,0,4.28-3.94,4.23-6.37,5.83A6.87,6.87,0,0,1,287,273.87Z"/><path class="cls-1" d="M290.73,272.52c5.39-2,5.67-6.34,5.34-11.22-.3-4.53-.12-9.06,0-13.58a4.54,4.54,0,0,0-1.51-4l6.74-2.32c2.1.12,1.82,1.87,1.87,3,.26,6.67,0,13.35.18,20,.11,3.49-3.41,3.25-5,5A20.22,20.22,0,0,1,290.73,272.52Z"/><path class="cls-1" d="M257.1,274.08c5.6,1.19,5.74,1.18,5.57-5-.19-7.2.83-14.43-.72-21.59a8.29,8.29,0,0,1,5.3,0,8.1,8.1,0,0,1,.75,4.72v20.61a6.79,6.79,0,0,1-1.51,4.84C262.57,278.59,260,275.86,257.1,274.08Z"/><path class="cls-1" d="M298.31,269.52c4.87-2.13,3.73-6.45,3.74-10.33V244.88c0-1.21.39-2.57-.83-3.51a1.78,1.78,0,0,1,1.51-.71,30,30,0,0,0,3.84-1.51,1.48,1.48,0,0,1,.65-.22c1.94,1.33,1.91,3.41,2,5.4.12,4.16-.14,8.32.1,12.46.23,3.89-.45,7.19-4.18,9.19A20.41,20.41,0,0,1,298.31,269.52Z"/><path class="cls-1" d="M278.6,247.49c5.3,0,5.3,0,5.3,5.43,0,4.76-.28,9.52.09,14.24.32,4.06-.39,7.13-4.62,8.53a14.71,14.71,0,0,1-6,1.2l.74-.67c3-1.87,3.57-4.71,3.45-8.05-.2-5.36-.09-10.73,0-16.09C277.46,250.48,277.29,248.79,278.6,247.49Z"/><path class="cls-1" d="M319.37,230.06l3-.89c.57,6.3,0,12.54.5,18.74.33,3.72-2.93,5.83-5.63,7.9-2.46-.64-1.79-2.75-1.86-4.32-.3-5.89.36-11.82-.57-17.7Z"/><path class="cls-1" d="M253.63,246.08c3.52,1.91,3.13,5.2,3,8.44-.11,4.38,0,8.78,0,13.17s0,4.53-4,3.34a9.18,9.18,0,0,1-3.79-3c1.51-2.09,1.41-4.53,1.39-6.83a39.47,39.47,0,0,1,0-6.34c.59-3.76-.89-6.81-2.72-9.83Z"/><path class="cls-1" d="M239.71,258.18a49.66,49.66,0,0,1-9.83-20.34l8,4c5.58,1.64,6.17,5.87,5.61,10.75a20.86,20.86,0,0,1-.39,4.53C242.43,258.9,241.31,259.37,239.71,258.18Z"/><path class="cls-1" d="M278.6,247.49c0,7.64-.24,15.29.11,22.93.15,3.72-1,5.55-4.65,5.8V253.38a19.82,19.82,0,0,0-.79-5.88c1.14-.89,2.62.09,3.76-.69h.79Z"/><path class="cls-1" d="M314.77,233.79c2,.29,1.66,1.85,1.67,3.17v15.35c0,1.19-.41,2.53.74,3.5l-1.51,2.34a16.7,16.7,0,0,1-6.75,5.45c2.86-7,1.68-14.24,1.95-21.41a4.94,4.94,0,0,0-2.05-4.53Z"/><path class="cls-1" d="M247.59,245c3.68,1.4,4.08,4.26,3.84,7.76a119.66,119.66,0,0,0,0,12.42c0,1.86-.52,2.9-2.51,2.81a17.57,17.57,0,0,1-5.42-5.3c1.72-.18,1.6-1.37,1.58-2.65,0-5.21-.18-10.41.28-15.6A2.79,2.79,0,0,1,247.59,245Z"/><path class="cls-1" d="M181,92.35c0,6,0,6-5.31,6-5.86,0-5,.8-5.07-5.73,0-4.8,0-4.43,5.91-4.9C181.11,87.41,181.58,89.49,181,92.35Z"/><path class="cls-1" d="M202.22,148.82c0,4.83,0,4.83-5.44,4.83-4.65,0-4.68,0-4.63-5.65s-.68-4.68,5.64-4.68C203,143.32,202.13,142.66,202.22,148.82Z"/><path class="cls-1" d="M223.46,118.8c-.1,6.79.77,6-5.07,6s-5.17.8-5.15-5.56c0-5.72-.8-4.38,5.83-5C223.81,113.85,223.85,116.25,223.46,118.8Z"/><path class="cls-1" d="M202.2,113.74c0,5.69,0,5.72-5.33,5.68s-4.72.65-4.71-5.62c0-5.4-.74-4.16,5.69-4.72C202.7,108.65,202.5,111.24,202.2,113.74Z"/><path class="cls-1" d="M212.82,104c-.11,5.6.81,4.83-5.47,4.83-5.46,0-4.68.6-4.65-5.68,0-5.46-.94-4.53,6-4.6C212.82,98.52,212.82,98.55,212.82,104Z"/><path class="cls-1" d="M308.8,237.63c2.13-.39,3.35-.12,3.17,2.66A119.75,119.75,0,0,0,312,253c.14,3.9.12,7.67-3,10.57a8.65,8.65,0,0,1-3.76,2.34c3.73-2.52,3-6.39,2.93-10-.21-5.69.82-11.44-.81-17.06Z"/><path class="cls-1" d="M212.8,133.51c.82,3.12-.31,4.74-4.53,4.42-5.45-.41-5.52-.09-5.46-5.36,0-5.56-.8-4.82,5.16-4.8C213.63,127.77,212.68,127,212.8,133.51Z"/><path class="cls-1" d="M245.31,244.44c.32.75,1.43,1,1.21,2.16-1,4.83-.44,9.72-.38,14.58,0,2.87-1.06,2.33-2.69,1.51a16.24,16.24,0,0,1-3.8-4.53c1.39.37,2.58.34,2.59-1.51V245.78a2.15,2.15,0,0,0-1.82-2.08c-1.06-.3-2.22-.56-2.58-1.86Z"/><path class="cls-1" d="M337.67,222.55c-1.18-2.44.27-4.72.45-7.07.23-3,.7-6-2.25-8.18.91-2.45,1.8-4.9,2.71-7.36.39-.56.81-.56,1.28,0C340,207.52,340.19,215.16,337.67,222.55Z"/><path class="cls-1" d="M277.06,246.81c-1.07,1.16-2.49.5-3.76.69h-13C265.84,246,271.42,247.11,277.06,246.81Z"/><path class="cls-1" d="M334.51,210.19a4,4,0,0,1-2.26,4A8.19,8.19,0,0,1,334.51,210.19Z"/><path class="cls-1" d="M327.75,220.91a3,3,0,0,1-2.43,3A6.32,6.32,0,0,1,327.75,220.91Z"/><path class="cls-1" d="M306.63,239.11a4.21,4.21,0,0,1-3.84,1.51A5.47,5.47,0,0,1,306.63,239.11Z"/><path class="cls-1" d="M339.86,199.87h-1.28l.8-2.59C340.3,198.24,339.84,199.1,339.86,199.87Z"/><path class="cls-1" d="M43.75,324.1V302.57c0-2.36.55-3,3-2.48,5.2,1.32,7.12,3.49,7.12,9,0,12.47-.16,24.94,0,37.4,0,9.06,4.31,15.1,12.08,17,11.36,2.84,24-1.28,24.15-17.71.14-12.35,0-24.68,0-37,0-2.93.68-5.51,3.36-7.14,2-1.21,4.34-2.46,6.34-1.51s.72,3.43.72,5.19c-.09,14.62.42,29.22-.53,43.79-.89,14-10.7,23.48-24.74,24a45.06,45.06,0,0,1-11.65-.68c-11.36-2.56-18.31-10.27-19.68-21.95C42.89,341.71,43.77,332.9,43.75,324.1Z"/><path class="cls-1" d="M287.45,325.93V302.49c0-2.49.74-3,3.13-2.37,5.08,1.29,7,3.46,7.05,8.66v36.64c0,9.8,4.2,16.13,12.26,18.12,12.47,3.11,24.16-2.69,24.05-17.8-.07-12.35,0-24.69,0-37,0-2.78.56-5.27,3-6.89,2.05-1.32,4.53-2.64,6.67-1.7,1.76.77.68,3.43.68,5.21.09,12.6,0,25.2,0,37.74a44.66,44.66,0,0,1-1.05,10.12c-2.81,12.23-11.61,19.42-24.16,19.84a44.82,44.82,0,0,1-11.27-.62c-12.27-2.76-19.74-11.29-20.2-23.85-.27-7.55,0-15.1,0-22.65Z"/><path class="cls-1" d="M405,340.66c0-9.57-.09-19.14,0-28.68,0-2.53-.75-3.24-3.2-3.14-5,.16-10.09,0-15.1.09-2.43.07-3.55-.64-3.18-3.16a9.72,9.72,0,0,0,0-2.64c-.37-2.69.8-3.38,3.39-3.35q22.88.17,45.75,0c2.75,0,3.78.6,3.66,3.53-.28,6.49.54,5.51-5.76,5.59-3.91,0-7.82.16-11.71,0-2.69-.16-3.4.8-3.39,3.41.11,18.51,0,37,0,55.53,0,5,0,5-4.89,4.89a14.21,14.21,0,0,0-2.26,0c-3,.52-3.49-1-3.46-3.63C405.1,359.51,405,350.1,405,340.66Z"/><path class="cls-1" d="M195.21,336c0,10.94-.09,21.91,0,32.85,0,3-.77,4.22-4,4.11-6.42-.18-6.42,0-6.42-6.31V309.24c0-5.55,1.94-7.71,7.13-9.06,2.63-.69,3.29,0,3.28,2.6C195.15,313.8,195.21,324.89,195.21,336Z"/><path class="cls-1" d="M456.57,336.12c0,10.83-.09,21.68,0,32.51,0,2.87-.57,4-3.7,3.88-6.34-.21-6.35,0-6.35-6.4V308.25c0-4.67,1.76-6.8,6.25-8.17,2.67-.82,3.85-.45,3.8,2.76C456.48,313.92,456.57,325,456.57,336.12Z"/><path class="cls-1" d="M372.67,336.33c0,10.81-.09,21.64,0,32.46,0,2.71-.54,3.76-3.5,3.7-6.62-.13-6.62,0-6.62-6.49V308.62c0-2.5.35-4.8,2.43-6.43s4.64-2.94,6.93-2c1.7.67.68,3.43.68,5.23C372.71,315.72,372.67,326,372.67,336.33Z"/><path class="cls-1" d="M156.35,334.58c6.31-3.28,9.87-7.91,10.2-14.5.59-11.14-6.94-19.13-18.75-19.62-8.8-.37-17.63-.1-26.45-.26-2.31,0-2.66.95-2.64,2.93v66.43c0,2.06.51,2.89,2.73,2.86,9.57-.14,19.14,0,28.69-.18a19.68,19.68,0,0,0,11.46-4.31C172.62,359.78,170.77,340.06,156.35,334.58Zm-27.59-6.28v-8.93c.51-3-1.7-7.54.89-9.86,2.31-2,6.78-.46,10.28-.57a31.73,31.73,0,0,1,7.15.44c6.16,1.27,8.81,4.26,8.84,10.3,0,6.28-2.34,9.24-8.51,10.44-5.5,1.09-11,.25-16.61.52C129.11,330.73,128.73,329.78,128.76,328.3Zm20.14,34.94c-5.75,1-11.56.25-17.33.45-1.71,0-2.1-.91-2.07-2.4V342c0-1.65.32-2.61,2.25-2.57,5.54.15,11.1,0,16.61.35,6.4.5,10.45,5.25,10.57,11.65A11.21,11.21,0,0,1,148.9,363.24Z"/><path class="cls-1" d="M279.24,365.41a6.26,6.26,0,0,0-5.38-2.22c-3.61.09-7.23,0-11.56,0,11.94-14.46,12.45-29.8,6.25-45.72-4.53-11.74-15-17.91-28.52-17.75a28.68,28.68,0,0,0-27.32,18.51c-3.43,8.42-3.86,17.16-2.85,26,2.2,19.1,15.52,30.75,33.89,28.58,11-1.3,21.87-.85,32.8-1.25,1.51,0,3.61,1.07,4.3-1S280.48,366.92,279.24,365.41ZM258.1,353.65c-3.34,7.65-9.85,10.89-18,10.69-8.58-.21-14.5-4.53-17.59-12.49a36.69,36.69,0,0,1-2.4-13.59c0-7.7.69-13.68,3.54-19.19,3.64-7.05,9.49-10.45,17.46-10.36s13.83,3.39,16.92,10.57a41.75,41.75,0,0,1,.08,34.37Z"/><path class="cls-1" d="M62,412.11H59.26L50.2,398.37v13.74h-3V392.59H50l9.05,13.71V392.59h3Z"/><path class="cls-1" d="M117.27,412.11H104.78V392.59h12.49v2.67h-9.51V401h8.14v2.63h-8.14v5.87h9.51Z"/><path class="cls-1" d="M170.46,395.26h-5.37v16.85h-3V395.26h-5.32v-2.67h13.71Z"/><path class="cls-1" d="M232,392.59l-5.1,19.52h-2.57l-4-13.68-3.94,13.68h-2.6l-5.09-19.52h3.13l3.39,14,3.93-14h2.46l3.93,14,3.41-14Z"/><path class="cls-1" d="M284.55,402.34v3.55a7.89,7.89,0,0,1-.5,2.3,5.57,5.57,0,0,1-1.28,2,7.38,7.38,0,0,1-10.28,0,5.82,5.82,0,0,1-1.32-2,9,9,0,0,1-.49-2.29c0-.83-.09-2-.09-3.55v-2.83a11.18,11.18,0,0,1,.22-1.91,5.81,5.81,0,0,1,.55-1.63,6,6,0,0,1,1.08-1.51,7.43,7.43,0,0,1,10.29,0,5.88,5.88,0,0,1,1.29,2,8.66,8.66,0,0,1,.49,2.3C284.52,399.63,284.55,400.8,284.55,402.34Zm-3,0a25.55,25.55,0,0,0-.21-4.1,3.79,3.79,0,0,0-.94-1.95,3.58,3.58,0,0,0-1.28-.88,4.14,4.14,0,0,0-3.24,0,3.65,3.65,0,0,0-1.3.88,4,4,0,0,0-.92,2,24.4,24.4,0,0,0-.23,4.09v2.48a10.87,10.87,0,0,0,.18,1.61,4,4,0,0,0,.33,1.09,4.37,4.37,0,0,0,.59.88,3.71,3.71,0,0,0,1.31.87,4.33,4.33,0,0,0,1.62.32,3.82,3.82,0,0,0,2.9-1.19,3.35,3.35,0,0,0,.72-1.2,6.52,6.52,0,0,0,.35-1.81,16.77,16.77,0,0,0,.18-3Z"/><path class="cls-1" d="M347.59,412.11h-3.46l-4.1-8.2h-3.69v8.2h-3V392.59h7.55a6.72,6.72,0,0,1,3.17.74,5.17,5.17,0,0,1,2.15,2,6,6,0,0,1,.74,3,5.19,5.19,0,0,1-1.09,3.35,5.26,5.26,0,0,1-2.79,1.83ZM344,398.33a2.89,2.89,0,0,0-.91-2.25,3.49,3.49,0,0,0-2.41-.82h-4.37v6h4.38a3.55,3.55,0,0,0,2.42-.81,2.88,2.88,0,0,0,.89-2.16Z"/><path class="cls-1" d="M405.13,412.11h-3.49l-5.48-9.62-3.29,3.94v5.68h-3V392.59h3v9.81l8-9.81h3.61l-6.33,7.68Z"/><path class="cls-1" d="M455.94,406.54a5.5,5.5,0,0,1-.51,2.39,5,5,0,0,1-1.51,1.82,6.28,6.28,0,0,1-2.24,1.15,10.24,10.24,0,0,1-2.81.38,11.14,11.14,0,0,1-3.88-.61,8.2,8.2,0,0,1-3-2l2-2a5.78,5.78,0,0,0,3.11,1.71,10.89,10.89,0,0,0,1.89.17,5,5,0,0,0,3-.79,2.88,2.88,0,0,0,.44-4.05l-.15-.18a2.38,2.38,0,0,0-.8-.53,7.68,7.68,0,0,0-1.33-.28l-2.3-.33a6.74,6.74,0,0,1-3.71-1.51,4.91,4.91,0,0,1-1.42-3.73,5.52,5.52,0,0,1,.8-3,5.14,5.14,0,0,1,2.25-2,8.11,8.11,0,0,1,3.47-.71,9.57,9.57,0,0,1,3.4.53,8.13,8.13,0,0,1,2.67,1.69l-1.9,1.88a4.93,4.93,0,0,0-1.27-.91,5.7,5.7,0,0,0-1.39-.47,8.36,8.36,0,0,0-1.58-.13,4.09,4.09,0,0,0-1.92.39A2.67,2.67,0,0,0,446,396.5a3,3,0,0,0-.42,1.51,2.3,2.3,0,0,0,.74,1.81,3.4,3.4,0,0,0,.95.56,4.55,4.55,0,0,0,1.24.33l2.22.35a9.21,9.21,0,0,1,2.19.53,4.3,4.3,0,0,1,1.51.9A5,5,0,0,1,455.94,406.54Z"/></g></g></svg>