<svg id="Layer_1" data-name="Layer 1" xmlns="http://www.w3.org/2000/svg" viewBox="0 0 500 500"><defs><style>.cls-1{fill:grey;}</style></defs><path class="cls-1" d="M218.12,279.1,198.4,224.18a8.8,8.8,0,0,1-.63-2.64,4.77,4.77,0,0,1,4.89-4.64c2.52,0,4.15,1.63,4.91,4l16.34,47.33,16.46-47.45c.75-2.25,2.26-3.88,4.76-3.88h.51a5.12,5.12,0,0,1,5,3.88L267,268.24l16.6-47.57c.62-2,2-3.77,4.64-3.77a4.65,4.65,0,0,1,4.78,4.52,9.11,9.11,0,0,1-.63,2.64l-19.85,55c-1,2.88-3,4.39-5.28,4.39h-.37c-2.52,0-4.41-1.51-5.29-4.39l-16.2-46.66L229.05,279.1c-.88,2.88-2.77,4.39-5.27,4.39h-.27c-2.38,0-4.38-1.51-5.39-4.39"/><path class="cls-1" d="M361.88,221.78a4.89,4.89,0,0,1,4.77-4.92,4.84,4.84,0,0,1,4.92,4.92v11.14C376.34,222.1,386.94,217,394,217a4.66,4.66,0,0,1,4.79,4.9,4.8,4.8,0,0,1-4.29,4.91c-12.59,1.51-22.9,10.95-22.9,29.71v22.07a4.85,4.85,0,1,1-9.69,0V221.77Z"/><path class="cls-1" d="M430,284.2c-17.52,0-31.82-13.58-31.82-33.52v-.26c0-18.56,13-33.49,30.59-33.49,18.85,0,29.59,15.56,29.59,32.62a4.46,4.46,0,0,1-4.44,4.5h-46.1c1.34,13.94,11.08,21.79,22.44,21.79a25.93,25.93,0,0,0,18.37-7.48,4.1,4.1,0,0,1,6.91,3,4.09,4.09,0,0,1-1.49,3.1c-6,5.85-13.2,9.73-24,9.73M448.88,247c-1-11.72-7.65-21.93-20.35-21.93-11.1,0-19.49,9.34-20.71,21.93Z"/><path class="cls-1" d="M293.45,264.1v-.26c0-13.67,11.3-21,27.73-21a68.62,68.62,0,0,1,20,2.77v-2.27c0-11.66-7.17-17.69-19.33-17.69-6.53,0-10.33.83-15.1,3A4.94,4.94,0,0,1,305,229a4.3,4.3,0,0,1-4.28-4.14,4,4,0,0,1,2.64-4c6.39-2.78,11.21-3.7,19.48-3.7,9.16,0,16.19,2.38,20.95,7.15,4.4,4.39,6.66,10.66,6.66,19v35.8a4.59,4.59,0,0,1-4.66,4.77,4.43,4.43,0,0,1-4.61-4.52v-6.18c-4.53,5.9-12.07,11.17-23.46,11.17-12.06,0-24.24-6.91-24.24-20.21m47.81-5V252.8A68.28,68.28,0,0,0,322.17,250c-12.15,0-18.94,5.28-18.94,13.43v.25c0,8.15,7.53,12.92,16.32,12.92,11.91,0,21.71-7.28,21.71-17.56"/><path class="cls-1" d="M42.54,221.18a9.14,9.14,0,0,0-12.28-4.59,9,9,0,0,0-4.5,12.29l20.59,44.74c3.24,7,6.66,10.7,13.06,10.7,6.84,0,9.83-4,13.06-10.7,0,0,18-39.1,18.14-39.52a2.59,2.59,0,0,1,2.59-1.67,2.86,2.86,0,0,1,2.84,2.9v38.24c0,5.89,3.27,10.73,9.56,10.73s9.69-4.84,9.69-10.73V242.26c0-6,4.32-9.95,10.21-9.95s9.82,4.06,9.82,9.95v31.31c0,5.89,3.28,10.73,9.56,10.73s9.7-4.84,9.7-10.73V242.26c0-6,4.31-9.95,10.21-9.95s9.82,4.06,9.82,9.95v31.31c0,5.89,3.28,10.73,9.56,10.73s9.69-4.84,9.69-10.73V237.94c0-13.09-10.52-22.26-23.19-22.26a29.74,29.74,0,0,0-20.57,8.76c-4.21-5.46-10-8.74-19.84-8.74-10.37,0-19.44,8.74-19.44,8.74a23.24,23.24,0,0,0-17.33-8.74c-9.18,0-16.48,4-20.93,14.21l-13.15,31Z"/><path class="cls-1" d="M459.12,225.08V225a8,8,0,1,1,16.05,0v0a8,8,0,1,1-16.05.06m14.51-.06v0a6.5,6.5,0,1,0-13,0v0a6.46,6.46,0,0,0,6.5,6.54,6.52,6.52,0,0,0,6.49-6.59"/><path class="cls-1" d="M464.22,221.78a.86.86,0,0,1,.87-.86h2.67a3,3,0,0,1,2.27.79,2.43,2.43,0,0,1,.68,1.78v0a2.37,2.37,0,0,1-1.55,2.36l1.18,1.44a1,1,0,0,1,.28.66.8.8,0,0,1-.81.79,1.07,1.07,0,0,1-.84-.44l-1.67-2.11h-1.36v1.69a.86.86,0,1,1-1.71,0v-6.12Zm3.45,2.91c.83,0,1.29-.43,1.29-1.09v0c0-.72-.49-1.11-1.32-1.11h-1.71v2.23Z"/></svg>