<svg id="Layer_1" data-name="Layer 1" xmlns="http://www.w3.org/2000/svg" viewBox="0 0 500 500"><defs><style>.cls-1{fill:grey;}</style></defs><g id="Layer_2" data-name="Layer 2"><g id="Layer_1-2" data-name="Layer 1-2"><path class="cls-1" d="M57.71,198.44H26.61a6.48,6.48,0,0,0-6.48,6.48,6.15,6.15,0,0,0,.47,2.2l16.8,28.95A9.93,9.93,0,0,0,45,239.71H59.2a6.62,6.62,0,0,1,6.62,6.63A6.51,6.51,0,0,1,65,249.6L57.86,262a9.71,9.71,0,0,0-.62,8.42l16.83,29a6.51,6.51,0,0,0,9.15.7,6.81,6.81,0,0,0,1.41-1.71l15.44-27Z"/><polygon class="cls-1" points="121.18 234.81 100.02 198.36 57.81 198.41 100.12 271.4 121.18 234.81"/><path class="cls-1" d="M131,198.31H100.07l21.13,36.45L136.62,208a6.55,6.55,0,0,0-2.48-8.89A6.32,6.32,0,0,0,131,198.31Z"/><path class="cls-1" d="M215.82,213.58a3.17,3.17,0,0,1-.38,1.38l-30.7,61.86a2.05,2.05,0,0,1-1.86,1.48c-.67,0-1.29-.49-1.85-1.48L150.52,215a3.3,3.3,0,0,1-.37-1.38c0-1.21.79-1.83,2.47-1.83h10a3.31,3.31,0,0,1,3.32,2L183,249l17-35.16a3.34,3.34,0,0,1,3.31-2h10.15C215,211.75,215.82,212.37,215.82,213.58Z"/><path class="cls-1" d="M238,298.07h-9.45c-1.58,0-2.47-.67-2.47-1.95a3.39,3.39,0,0,1,.27-1.29l7.42-17.61-20.21-45.43a4.14,4.14,0,0,1-.27-1.39,1.54,1.54,0,0,1,.62-1.33,2.46,2.46,0,0,1,1.7-.5h10.15a3.07,3.07,0,0,1,3.09,2.08l11.93,30.16,11-30.06a3,3,0,0,1,3.24-2.2h10a2.72,2.72,0,0,1,1.83.54,1.79,1.79,0,0,1,.65,1.46,3,3,0,0,1-.28,1.21L241.18,296A3.13,3.13,0,0,1,238,298.07Z"/><path class="cls-1" d="M309.22,278.33a2.75,2.75,0,0,1-.72-2V274a14.31,14.31,0,0,1-6.19,4.28,23.15,23.15,0,0,1-9.22,1.85,25.75,25.75,0,0,1-13.56-3.43,22.53,22.53,0,0,1-8.84-9.63,30.82,30.82,0,0,1,0-26.84,23.66,23.66,0,0,1,8.81-9.48,25.32,25.32,0,0,1,13.56-3.51,22.68,22.68,0,0,1,9.13,1.73,15.35,15.35,0,0,1,6.31,4.63v-2.48a2.47,2.47,0,0,1,2.21-2.71h8.73a2.48,2.48,0,0,1,2.75,2.16c0,.1,0,.21,0,.31V276.3a2.62,2.62,0,0,1-2.47,2.77h-8.52A2.78,2.78,0,0,1,309.22,278.33Zm-4.09-35.06a14.84,14.84,0,0,0-20.23,0,14.51,14.51,0,0,0-3.79,10.44A14.22,14.22,0,0,0,285,264a13.43,13.43,0,0,0,10.25,4,13.63,13.63,0,0,0,10.19-3.84,16.35,16.35,0,0,0,0-20.93Z"/><path class="cls-1" d="M341.18,229.07a2.77,2.77,0,0,1,.75,2.05v2.3a14.47,14.47,0,0,1,6.18-4.3,23.48,23.48,0,0,1,9.21-1.88,26,26,0,0,1,13.48,3.44,23.27,23.27,0,0,1,8.93,9.57,31.27,31.27,0,0,1,0,26.92,23.12,23.12,0,0,1-8.76,9.5,26.34,26.34,0,0,1-13.65,3.49,22.4,22.4,0,0,1-9.11-1.71,15.6,15.6,0,0,1-6.28-4.6v18.8a2.49,2.49,0,0,1-2.16,2.76l-.32,0H331a2.64,2.64,0,0,1-2.8-2.44V231.12a2.47,2.47,0,0,1,2.16-2.75,1.62,1.62,0,0,1,.31,0h8.49A2.76,2.76,0,0,1,341.18,229.07Zm4,35.06a13.39,13.39,0,0,0,10.12,4,13.59,13.59,0,0,0,10.15-4,14.5,14.5,0,0,0,3.76-10.42,14.28,14.28,0,0,0-3.86-10.22,15,15,0,0,0-20.24-.17,16.27,16.27,0,0,0,0,20.91Z"/><path class="cls-1" d="M429.74,278.33a2.72,2.72,0,0,1-.75-2V274a14.28,14.28,0,0,1-6.18,4.28,23.11,23.11,0,0,1-9.21,1.85,25.72,25.72,0,0,1-13.55-3.43,22.3,22.3,0,0,1-8.89-9.63,30.85,30.85,0,0,1,0-26.82,23.32,23.32,0,0,1,8.81-9.5,25.22,25.22,0,0,1,13.53-3.51,22.65,22.65,0,0,1,9.13,1.73A15.21,15.21,0,0,1,429,233.6v-2.48a2.47,2.47,0,0,1,2.21-2.71H440a2.47,2.47,0,0,1,2.78,2.13,1.64,1.64,0,0,1,0,.22V276.3a2.62,2.62,0,0,1-2.47,2.77h-8.52A2.75,2.75,0,0,1,429.74,278.33Zm-4-35.06a14.85,14.85,0,0,0-20.24,0,14.54,14.54,0,0,0-3.86,10.44A14.16,14.16,0,0,0,405.49,264a15,15,0,0,0,20.24.2,14.3,14.3,0,0,0,3.73-10.46,14.44,14.44,0,0,0-3.81-10.47Z"/><path class="cls-1" d="M479.15,228.15a3,3,0,0,1,.71,2.13v7.84c0,1.66-.91,2.48-2.77,2.77a17.44,17.44,0,0,0-5.89,1.44,15.41,15.41,0,0,0-5.24,3.81,14.82,14.82,0,0,0-3.32,10.56v19.6a2.61,2.61,0,0,1-2.46,2.77h-8.62a2.61,2.61,0,0,1-2.77-2.46h0V231.12a2.46,2.46,0,0,1,2.16-2.75,1.62,1.62,0,0,1,.31,0h8.61a2.47,2.47,0,0,1,2.75,2.16,1.62,1.62,0,0,1,0,.31v4.26a17.81,17.81,0,0,1,6.53-5.34,23.41,23.41,0,0,1,8-2.23A2.65,2.65,0,0,1,479.15,228.15Z"/></g></g></svg>