<svg id="Layer_1" data-name="Layer 1" xmlns="http://www.w3.org/2000/svg" xmlns:xlink="http://www.w3.org/1999/xlink" viewBox="0 0 577.76 1015.41"><defs><style>.cls-1{fill:#ee6196;}.cls-10,.cls-11,.cls-12,.cls-17,.cls-18,.cls-19,.cls-2,.cls-24,.cls-25,.cls-26,.cls-31,.cls-32,.cls-33,.cls-35{fill:none;}.cls-2{stroke:#414042;}.cls-2,.cls-40{stroke-miterlimit:10;stroke-width:2px;}.cls-3{fill:#125aa9;}.cls-4{fill:#fff;}.cls-5{fill:#c9527f;}.cls-6{fill:#5b2f15;}.cls-7{fill:url(#linear-gradient);}.cls-8{fill:url(#linear-gradient-2);}.cls-9{fill:url(#linear-gradient-3);}.cls-10,.cls-11,.cls-12,.cls-17,.cls-18,.cls-19,.cls-24,.cls-25,.cls-26,.cls-31,.cls-32,.cls-33,.cls-40{stroke-linecap:round;}.cls-10,.cls-11,.cls-12,.cls-17,.cls-18,.cls-19,.cls-24,.cls-25,.cls-26,.cls-31,.cls-32,.cls-33{stroke-linejoin:round;stroke-width:7px;}.cls-10{stroke:url(#linear-gradient-4);}.cls-11{stroke:url(#linear-gradient-5);}.cls-12{stroke:url(#linear-gradient-6);}.cls-13{fill:url(#linear-gradient-7);}.cls-14{fill:url(#linear-gradient-8);}.cls-15{fill:url(#linear-gradient-9);}.cls-16{fill:url(#linear-gradient-10);}.cls-17{stroke:url(#linear-gradient-11);}.cls-18{stroke:url(#linear-gradient-12);}.cls-19{stroke:url(#linear-gradient-13);}.cls-20{fill:url(#linear-gradient-14);}.cls-21{fill:url(#linear-gradient-15);}.cls-22{fill:url(#linear-gradient-16);}.cls-23{fill:url(#linear-gradient-17);}.cls-24{stroke:url(#linear-gradient-18);}.cls-25{stroke:url(#linear-gradient-19);}.cls-26{stroke:url(#linear-gradient-20);}.cls-27{fill:url(#linear-gradient-21);}.cls-28{fill:url(#linear-gradient-22);}.cls-29{fill:url(#linear-gradient-23);}.cls-30{fill:url(#linear-gradient-24);}.cls-31{stroke:url(#linear-gradient-25);}.cls-32{stroke:url(#linear-gradient-26);}.cls-33{stroke:url(#linear-gradient-27);}.cls-34{fill:url(#linear-gradient-28);}.cls-36{fill:#ecb67b;}.cls-37{fill:#221f1f;}.cls-38{fill:#f79420;}.cls-39{fill:#3bb44a;}.cls-40{fill:#231f20;stroke:#231f20;}.cls-41{fill:#020708;}.cls-42{fill:#030708;}</style><linearGradient id="linear-gradient" x1="377.42" y1="335.18" x2="389.43" y2="335.18" gradientTransform="translate(577.76 1018) rotate(180)" gradientUnits="userSpaceOnUse"><stop offset="0.06" stop-color="#fff"/><stop offset="1" stop-color="#dfe9ed"/></linearGradient><linearGradient id="linear-gradient-2" x1="394.64" y1="335.18" x2="406.65" y2="335.18" xlink:href="#linear-gradient"/><linearGradient id="linear-gradient-3" x1="411.87" y1="335.18" x2="423.88" y2="335.18" xlink:href="#linear-gradient"/><linearGradient id="linear-gradient-4" x1="532.9" y1="335.18" x2="539.9" y2="335.18" xlink:href="#linear-gradient"/><linearGradient id="linear-gradient-5" x1="512.47" y1="335.18" x2="519.47" y2="335.18" xlink:href="#linear-gradient"/><linearGradient id="linear-gradient-6" x1="492.28" y1="335.18" x2="499.28" y2="335.18" xlink:href="#linear-gradient"/><linearGradient id="linear-gradient-7" x1="428.69" y1="335.47" x2="440.7" y2="335.47" xlink:href="#linear-gradient"/><linearGradient id="linear-gradient-8" x1="377.42" y1="247.64" x2="389.43" y2="247.64" xlink:href="#linear-gradient"/><linearGradient id="linear-gradient-9" x1="394.64" y1="247.64" x2="406.65" y2="247.64" xlink:href="#linear-gradient"/><linearGradient id="linear-gradient-10" x1="411.87" y1="247.64" x2="423.88" y2="247.64" xlink:href="#linear-gradient"/><linearGradient id="linear-gradient-11" x1="532.9" y1="247.64" x2="539.9" y2="247.64" xlink:href="#linear-gradient"/><linearGradient id="linear-gradient-12" x1="512.47" y1="247.64" x2="519.47" y2="247.64" xlink:href="#linear-gradient"/><linearGradient id="linear-gradient-13" x1="492.28" y1="247.64" x2="499.28" y2="247.64" xlink:href="#linear-gradient"/><linearGradient id="linear-gradient-14" x1="428.69" y1="247.92" x2="440.7" y2="247.92" xlink:href="#linear-gradient"/><linearGradient id="linear-gradient-15" x1="377.42" y1="160.23" x2="389.43" y2="160.23" xlink:href="#linear-gradient"/><linearGradient id="linear-gradient-16" x1="394.64" y1="160.23" x2="406.65" y2="160.23" xlink:href="#linear-gradient"/><linearGradient id="linear-gradient-17" x1="411.87" y1="160.23" x2="423.88" y2="160.23" xlink:href="#linear-gradient"/><linearGradient id="linear-gradient-18" x1="532.9" y1="160.23" x2="539.9" y2="160.23" xlink:href="#linear-gradient"/><linearGradient id="linear-gradient-19" x1="512.47" y1="160.23" x2="519.47" y2="160.23" xlink:href="#linear-gradient"/><linearGradient id="linear-gradient-20" x1="492.28" y1="160.23" x2="499.28" y2="160.23" xlink:href="#linear-gradient"/><linearGradient id="linear-gradient-21" x1="428.69" y1="160.52" x2="440.7" y2="160.52" xlink:href="#linear-gradient"/><linearGradient id="linear-gradient-22" x1="377.42" y1="72.83" x2="389.43" y2="72.83" xlink:href="#linear-gradient"/><linearGradient id="linear-gradient-23" x1="394.64" y1="72.83" x2="406.65" y2="72.83" xlink:href="#linear-gradient"/><linearGradient id="linear-gradient-24" x1="411.87" y1="72.83" x2="423.88" y2="72.83" xlink:href="#linear-gradient"/><linearGradient id="linear-gradient-25" x1="532.9" y1="72.83" x2="539.9" y2="72.83" xlink:href="#linear-gradient"/><linearGradient id="linear-gradient-26" x1="512.47" y1="72.83" x2="519.47" y2="72.83" xlink:href="#linear-gradient"/><linearGradient id="linear-gradient-27" x1="492.28" y1="72.83" x2="499.28" y2="72.83" xlink:href="#linear-gradient"/><linearGradient id="linear-gradient-28" x1="428.69" y1="73.11" x2="440.7" y2="73.11" xlink:href="#linear-gradient"/></defs><g id="Layer_2" data-name="Layer 2"><g id="Layer_1-2" data-name="Layer 1-2"><path class="cls-1" d="M443.61,1009.36l19.36-1.63s42.35-41.9,39.06-75l-15.27-9.8L447,960.11c0,3.55-.2,13.43-3.47,16.47-4,3.72-10.58,20.57-10.58,20.57S429.16,1012.49,443.61,1009.36Z"/><path class="cls-1" d="M365.64,993s30.41,44.72,59.62,7.91l-.42-28.38-55.65-1.24Z"/><path class="cls-2" d="M467,904.05l-63.48-38.27V827.11"/><path class="cls-1" d="M158.9,67s104.54-9.35,130,20.17c25.26,29.28,114.45,125,115.85,126.53h0c97.85,35.87,166.6,83.91,166.6,83.91s5.27,3,6.41-15.06c0,0-6.56-141.6-23.85-177.68S381.3.23,381.3.23,245.06-3.94,182.16,22.88C182.16,22.88,159.2,58.07,158.9,67Z"/><path class="cls-3" d="M210.7,104.17a8.93,8.93,0,0,0-.23-.89c0-.09-.19-.17-.3-.2-.74-.2-1.49-.36-2.23-.57a50.07,50.07,0,0,1-16.56-8.09c-1.17-.86-2.28-1.8-3.41-2.7l-.28-.21c-.28.66.35,6.32,1.14,9.55a49,49,0,0,0,3.13,9.11A50.86,50.86,0,0,0,210.7,104.17Z"/><path class="cls-3" d="M240.71,138.5c.39-.06.78-.14,1.17-.18a44.15,44.15,0,0,0,8.88-1.88c1.44-.46,2.84-1,4.26-1.52a.59.59,0,0,0,.44-.53c.27-1.67.48-3.34.6-5,0-.68.08-1.36.11-2v-.32a4.25,4.25,0,0,1-.24-8.08,46.12,46.12,0,0,0-6.47-20.44,4.37,4.37,0,0,1-3.7-.55l-.44.23a47.42,47.42,0,0,1-14.18,5.11,52.21,52.21,0,0,1-6.1.8,47,47,0,0,1-6.17.1.46.46,0,0,0-.5.31,4.08,4.08,0,0,1-2.78,2.17,4,4,0,0,1-3-.46.69.69,0,0,0-.8,0,51,51,0,0,1-13.54,5.2c-1.53.34-3.08.58-4.62.86l-.55.1c.09.18.16.34.24.48a47.21,47.21,0,0,0,6.23,9,48.53,48.53,0,0,0,22.09,14.51,46.37,46.37,0,0,0,9.1,1.93c.41,0,.81.13,1.22.19Z"/><path class="cls-4" d="M230.59,52.21c-.47-.07-.94-.12-1.42-.15-1.58-.06-3.16-.13-4.74-.11A40,40,0,0,0,216,53a53.47,53.47,0,0,0-19.35,8.77,2.25,2.25,0,0,0-.55.56,48.31,48.31,0,0,0-7.6,18l-.13.75.42-.16a68.58,68.58,0,0,1,13-4c1.9-.38,3.81-.65,5.74-.85a53,53,0,0,1,7.24-.22,44.46,44.46,0,0,1,13.88,2.69h.08a.51.51,0,0,0,.69-.13,3.83,3.83,0,0,1,2-1.13,3.64,3.64,0,0,1,1.54-.08h.43c.05-.17.1-.32.15-.47a42,42,0,0,0,1.23-7,48.51,48.51,0,0,0,.14-6.38c-.09-2.28-.34-4.54-.64-6.8a.88.88,0,0,0-.75-.89,4,4,0,0,1-2.75-2.78C230.69,52.62,230.66,52.45,230.59,52.21Z"/><path class="cls-4" d="M236.48,82.34a48.89,48.89,0,0,1,9.92,8.28,4.28,4.28,0,0,1,4.68.84A47.55,47.55,0,0,0,262.76,76.4l-.22-.27a4.19,4.19,0,0,1-.54-5c.19-.34.2-.35,0-.65A49.37,49.37,0,0,0,244.08,56a41.55,41.55,0,0,0-5.49-2.13l-.25-.06a4.38,4.38,0,0,1-1.9,1.64c0,.41.09.83.13,1.25.15,1.38.34,2.76.44,4.14.12,1.56.22,3.13.22,4.7A43,43,0,0,1,235.51,78a.68.68,0,0,0,.14.72,4.06,4.06,0,0,1,.85,3.37C236.5,82.17,236.49,82.23,236.48,82.34Z"/><path class="cls-3" d="M210.76,100.84a4.29,4.29,0,0,1,5.71-2,4.25,4.25,0,0,1,1.19.83A44.77,44.77,0,0,0,230.23,85a4.56,4.56,0,0,1-2.1-4.28l-.43-.18a42.35,42.35,0,0,0-8.51-2.1A46.7,46.7,0,0,0,211,78a52.28,52.28,0,0,0-7.49.8,67.23,67.23,0,0,0-15,4.59.89.89,0,0,0-.68.89c0,1.21-.16,2.41-.26,3.62a.66.66,0,0,0,.25.58,49.26,49.26,0,0,0,22.53,12.2Z"/><path class="cls-3" d="M273.2,101a45.29,45.29,0,0,0-6.44-23.6h-1.69a.35.35,0,0,0-.33.24l-.64,1.22a49.78,49.78,0,0,1-8.94,12c-.85.83-1.75,1.6-2.63,2.38a.56.56,0,0,0-.24.57A4.08,4.08,0,0,1,251.5,97l-.11.19a49.25,49.25,0,0,1,6.85,21.57c2.05.67,3.3,2,3.29,4.21a4.15,4.15,0,0,1-3,4l-.58,6.56a2.6,2.6,0,0,0,1-.59,47.27,47.27,0,0,0,7.15-8.68,44.42,44.42,0,0,0,6.06-14.4c0-.24.09-.49.14-.75a4.3,4.3,0,0,1,.9-8.14Z"/><path class="cls-4" d="M268.68,76.19c.44.81.87,1.59,1.28,2.37a48.52,48.52,0,0,1,4.64,13,38.92,38.92,0,0,1,.78,5.79c.06,1.16.1,2.31.12,3.46a.67.67,0,0,0,.41.69,4.16,4.16,0,0,1,1.8,5.6l0,.07a4.09,4.09,0,0,1-2.71,2.12.48.48,0,0,0-.41.43,46.9,46.9,0,0,1-8.48,18.62l-.12.2c1.63-.79,7-6.22,9.54-9.61a48.87,48.87,0,0,0,8.62-38.72,47.66,47.66,0,0,0-4.52-12.79c-2-3.84-6.21-9.71-7.95-11.06-.06.33-.11.62-.16.92a58.85,58.85,0,0,1-3.13,12.26.5.5,0,0,0,.15.65,4.15,4.15,0,0,1,.39,5.74A2.13,2.13,0,0,0,268.68,76.19Z"/><path class="cls-4" d="M264,69.27l2.1-.3c0-.07.09-.19.13-.31A55.18,55.18,0,0,0,269,58.17c.2-1.18.34-2.37.51-3.55a.67.67,0,0,0-.25-.66,48.47,48.47,0,0,0-21.71-11.52,49.34,49.34,0,0,0-13.7-1.24h-.31l-.1.06,1.59,6.06c.31.08.64.13.95.22a4.2,4.2,0,0,1,3,3.67c0,.37,0,.37.47.51a46.86,46.86,0,0,1,13,6.45A54,54,0,0,1,263.71,68.9Z"/><path class="cls-3" d="M235.35,84.35c-.22.17-.42.33-.62.47a3.54,3.54,0,0,1-1.76.68.75.75,0,0,0-.66.47,40.78,40.78,0,0,1-3.68,5.85,49.24,49.24,0,0,1-9.48,9.54c-.15.12-.4.18-.35.46.8.33,6.36.06,9.1-.3a44.9,44.9,0,0,0,16.32-5.39c-.09-.35-.19-.71-.25-1.07a3.9,3.9,0,0,1,.48-2.61c.18-.33.24-.32-.06-.64a45.88,45.88,0,0,0-8.81-7.34Z"/><path class="cls-4" d="M232.76,47.88A57.48,57.48,0,0,0,231,41.42a48.16,48.16,0,0,0-29.92,14.79c.11-.06.23-.1.33-.16A54.18,54.18,0,0,1,216,50.62a46.79,46.79,0,0,1,5-.77,40.26,40.26,0,0,1,4.91-.23c1.54.05,3.07.18,4.61.27h.3A4.55,4.55,0,0,1,232.76,47.88Z"/><path class="cls-5" d="M0,123.36s30.41,35.47,109.41,64.09c103.08-26.85,210.18-4.91,295.26,26.25h.09c-1.4-1.49-90.59-97.25-115.85-126.53C263.48,57.65,158.91,67,158.91,67S51,81.32,0,123.36Z"/><ellipse class="cls-4" cx="348.42" cy="307.71" rx="3.01" ry="7.27"/><ellipse class="cls-4" cx="215.45" cy="296.28" rx="3.01" ry="7.27"/><path class="cls-6" d="M25.94,216.67s23,36.06,83.77,24.44c0,0,37.45-5.55,57.94-35.44S173,235,146.18,241.11s63.28,33.38,153.72-56.7l-.34-.07-.26-.05-1.22-.23-6.19-1.1c-1.37-.24-2.89-.5-4.57-.77-.83-.14-1.7-.29-2.61-.42l-4.32-.68-8.16-1.19c-41.17-5.73-118.48-12.68-162.82,7.55C109.41,187.45,88.84,228,25.94,216.67Z"/><path class="cls-6" d="M299.9,184.41l-.34-.07Z"/><path class="cls-6" d="M299.3,184.29l-1.22-.23Z"/><g id="Server"><rect id="Server_Part" data-name="Server Part" x="4.51" y="630.52" width="217.78" height="367.9" rx="5.53"/><rect id="Server_Part-2" data-name="Server Part-2" class="cls-1" x="18.18" y="731.16" width="190.43" height="78.12" rx="1.81"/><rect id="Server_Part-3" data-name="Server Part-3" class="cls-1" x="18.18" y="643.75" width="190.43" height="78.12" rx="1.81"/><rect id="Server_Part-4" data-name="Server Part-4" class="cls-1" x="18.18" y="905.97" width="190.43" height="78.12" rx="1.81"/><rect id="Server_Part-5" data-name="Server Part-5" class="cls-1" x="18.18" y="818.56" width="190.43" height="78.12" rx="1.81"/><rect id="Server_Part-6" data-name="Server Part-6" class="cls-7" x="188.33" y="650.79" width="12.01" height="64.06" rx="1.58"/><rect id="Server_Part-7" data-name="Server Part-7" class="cls-8" x="171.11" y="650.79" width="12.01" height="64.06" rx="1.58"/><rect id="Server_Part-8" data-name="Server Part-8" class="cls-9" x="153.88" y="650.79" width="12.01" height="64.06" rx="1.58"/><line id="Server_Part-9" data-name="Server Part-9" class="cls-10" x1="41.36" y1="682.82" x2="41.36" y2="682.82"/><line id="Server_Part-10" data-name="Server Part-10" class="cls-11" x1="61.79" y1="682.82" x2="61.79" y2="682.82"/><line id="Server_Part-11" data-name="Server Part-11" class="cls-12" x1="81.98" y1="682.82" x2="81.98" y2="682.82"/><rect id="Server_Part-12" data-name="Server Part-12" class="cls-13" x="137.06" y="650.5" width="12.01" height="64.06" rx="1.58"/><rect id="Server_Part-13" data-name="Server Part-13" class="cls-14" x="188.33" y="738.33" width="12.01" height="64.06" rx="1.58"/><rect id="Server_Part-14" data-name="Server Part-14" class="cls-15" x="171.11" y="738.33" width="12.01" height="64.06" rx="1.58"/><rect id="Server_Part-15" data-name="Server Part-15" class="cls-16" x="153.88" y="738.33" width="12.01" height="64.06" rx="1.58"/><line id="Server_Part-16" data-name="Server Part-16" class="cls-17" x1="41.36" y1="770.36" x2="41.36" y2="770.36"/><line id="Server_Part-17" data-name="Server Part-17" class="cls-18" x1="61.79" y1="770.36" x2="61.79" y2="770.36"/><line id="Server_Part-18" data-name="Server Part-18" class="cls-19" x1="81.98" y1="770.36" x2="81.98" y2="770.36"/><rect id="Server_Part-19" data-name="Server Part-19" class="cls-20" x="137.06" y="738.05" width="12.01" height="64.06" rx="1.58"/><rect id="Server_Part-20" data-name="Server Part-20" class="cls-21" x="188.33" y="825.74" width="12.01" height="64.06" rx="1.58"/><rect id="Server_Part-21" data-name="Server Part-21" class="cls-22" x="171.11" y="825.74" width="12.01" height="64.06" rx="1.58"/><rect id="Server_Part-22" data-name="Server Part-22" class="cls-23" x="153.88" y="825.74" width="12.01" height="64.06" rx="1.58"/><line id="Server_Part-23" data-name="Server Part-23" class="cls-24" x1="41.36" y1="857.77" x2="41.36" y2="857.77"/><line id="Server_Part-24" data-name="Server Part-24" class="cls-25" x1="61.79" y1="857.77" x2="61.79" y2="857.77"/><line id="Server_Part-25" data-name="Server Part-25" class="cls-26" x1="81.98" y1="857.77" x2="81.98" y2="857.77"/><rect id="Server_Part-26" data-name="Server Part-26" class="cls-27" x="137.06" y="825.45" width="12.01" height="64.06" rx="1.58"/><rect id="Server_Part-27" data-name="Server Part-27" class="cls-28" x="188.33" y="913.14" width="12.01" height="64.06" rx="1.58"/><rect id="Server_Part-28" data-name="Server Part-28" class="cls-29" x="171.11" y="913.14" width="12.01" height="64.06" rx="1.58"/><rect id="Server_Part-29" data-name="Server Part-29" class="cls-30" x="153.88" y="913.14" width="12.01" height="64.06" rx="1.58"/><line id="Server_Part-30" data-name="Server Part-30" class="cls-31" x1="41.36" y1="945.17" x2="41.36" y2="945.17"/><line id="Server_Part-31" data-name="Server Part-31" class="cls-32" x1="61.79" y1="945.17" x2="61.79" y2="945.17"/><line id="Server_Part-32" data-name="Server Part-32" class="cls-33" x1="81.98" y1="945.17" x2="81.98" y2="945.17"/><rect id="Server_Part-33" data-name="Server Part-33" class="cls-34" x="137.06" y="912.86" width="12.01" height="64.06" rx="1.58"/></g><path class="cls-6" d="M291.89,183l6.19,1.1C296.71,183.8,294.62,183.42,291.89,183Z"/><path class="cls-6" d="M485.15,329.84s5.06-25.26,26.24-33.2S523.09,438,523.09,438h0c1.67-1.53,60.94-54.31,48.26-140.39l-.72-.49-.18-.13c-.46-.32-1.09-.74-1.87-1.26-12.36-8.41-62.59-42.1-75.35-43.42h0S472.62,292.28,485.15,329.84Z"/><path class="cls-35" d="M479.46,696.71c-11.85-19.45-22.36-52.09-22.36-52.09l19,16.09Z"/><path class="cls-36" d="M572.15,750.07a9.78,9.78,0,0,0,3.39,2A7.71,7.71,0,0,1,572.15,750.07Z"/><path class="cls-36" d="M184.09,576.2l1.12-5.82c12.06-11.4,93.25-45.16,93.25-45.16C57.54,442.94,109.7,241.11,109.7,241.11s37.45-5.55,57.94-35.44S173,235,146.19,241.11s63.28,33.38,153.72-56.71c75.66,14.28,144.1,43,193.32,67.91h0s-20.58,40-8,77.53c0,0,5.06-25.26,26.24-33.2S523.09,438,523.09,438c-43.4,52.48-100.28,76.75-100.7,78.26-.65,2.5,5.11,8.68,5.11,8.68a72,72,0,0,1,18.48,3c42.93,15.49,87.65,62,87.65,62,6.56,30.41-12.52,85.56-12.52,85.56l6.27,3.88c5.66-9,18.49-7.16,20.57-5.37s1.2,20,1.2,20l.35.25-.36-.25s-1.3,21.2-15.21,31.31h0C513.37,736,496.07,730,496.07,730c4.53,16.21,5.63,33.66,4.56,51-3.75,61-34.14,121.18-35.66,124.14v.11l20.22,14.38.57,2.69,1,.61L447,960.11v-1.28l-13.28-5.36-8.78,17.88v1.14l-55.65-1.24.19-1.08-3-1.95,1.49-41.88c-5.64-2.61-33.93-23.66-35.69-25l-.09-.07h0c-.59-.91-10.17-15.75-21-34S286.42,793,285.67,790v-.12c-11.2-14.31-20.57-68-20.57-68-6.71-10.28-4-96.8-4-96.8l-19,12.74c5.14,36.89-9.15,66.63-19.22,74.22s-35.1,2.69-37.79-2.67,11.3-19.4,11.3-19.4l6.71-36.45s-42.26-9.17-49-10.51-15.86-10.51-15.86-10.51-5.6-6-2-16.55S184.09,576.2,184.09,576.2ZM479.46,696.71l-3.36-36-19-16.09S467.61,677.26,479.46,696.71Z"/><path class="cls-3" d="M377.71,639.76v-.24h-.08l-.58-.16a13.26,13.26,0,0,1-4.26-2.23c-.3-.24-.58-.49-.87-.73l-.07-.06a10,10,0,0,0,.23,2.5,14.51,14.51,0,0,0,.75,2.4A13.3,13.3,0,0,0,377.71,639.76Z"/><path class="cls-3" d="M385.29,648.93h.31a12.14,12.14,0,0,0,2.32-.42c.38-.11.75-.25,1.13-.37a.13.13,0,0,0,.11-.14c.09-.43.15-.86.2-1.3V646a1,1,0,0,1,0-2,12,12,0,0,0-1.54-5.38,1.15,1.15,0,0,1-1-.17l-.12.06a12.59,12.59,0,0,1-3.73,1.23,14.21,14.21,0,0,1-1.6.16,10.82,10.82,0,0,1-1.61,0,.12.12,0,0,0-.13.08,1.07,1.07,0,0,1-.74.55,1,1,0,0,1-.79-.15.2.2,0,0,0-.21,0,13.32,13.32,0,0,1-3.57,1.26c-.4.08-.81.13-1.21.19H373a.19.19,0,0,0,0,.13,12.82,12.82,0,0,0,7.22,6.35,12.12,12.12,0,0,0,2.36.57l.31,0Z"/><path class="cls-3" d="M383.28,626.35l-.37-.05-1.24-.06a10.28,10.28,0,0,0-2.21.21,14,14,0,0,0-5.11,2.14.54.54,0,0,0-.15.15,12.65,12.65,0,0,0-2.11,4.63v.19h.11a17.71,17.71,0,0,1,3.42-.95c.5-.08,1-.14,1.51-.18a14.74,14.74,0,0,1,1.88,0,11.46,11.46,0,0,1,3.6.8h0a.13.13,0,0,0,.18,0,1,1,0,0,1,.53-.28.9.9,0,0,1,.4,0h0v-.12a9.7,9.7,0,0,0,.38-1.84,11.61,11.61,0,0,0,.09-1.67,17.54,17.54,0,0,0-.12-1.77.22.22,0,0,0-.19-.24,1.06,1.06,0,0,1-.7-.75A.59.59,0,0,0,383.28,626.35Z"/><path class="cls-3" d="M384.59,634.25a12.81,12.81,0,0,1,2.53,2.23,1.13,1.13,0,0,1,1.21.26,12.53,12.53,0,0,0,3.17-3.85l-.06-.07a1.08,1.08,0,0,1-.1-1.32v-.17a12.78,12.78,0,0,0-4.56-3.89,10.36,10.36,0,0,0-1.42-.59h-.07a1.11,1.11,0,0,1-.5.41v.33c0,.36.07.72.09,1.08s0,.82,0,1.23a11.51,11.51,0,0,1-.54,3.24.21.21,0,0,0,0,.19,1.07,1.07,0,0,1,.2.88A.1.1,0,0,1,384.59,634.25Z"/><path class="cls-3" d="M377.76,638.89a1.13,1.13,0,0,1,1.5-.5,1.19,1.19,0,0,1,.31.23,11.44,11.44,0,0,0,3.38-3.71,1.18,1.18,0,0,1-.51-1.13h-.12a11.22,11.22,0,0,0-2.2-.61A11.69,11.69,0,0,0,378,633a13.36,13.36,0,0,0-2,.15,18,18,0,0,0-3.94,1.09.26.26,0,0,0-.19.23,3.33,3.33,0,0,1-.09.94.17.17,0,0,0,.06.15,13,13,0,0,0,5.79,3.35Z"/><path class="cls-3" d="M394,639.39a11.72,11.72,0,0,0-1.51-6.21h-.44a.09.09,0,0,0-.09.06l-.18.31a12.53,12.53,0,0,1-2.41,3.06c-.23.21-.47.4-.71.6a.14.14,0,0,0-.06.15,1.07,1.07,0,0,1-.23.83h0a13,13,0,0,1,1.63,5.67,1.1,1.1,0,0,1,0,2.13l-.2,1.7a.72.72,0,0,0,.27-.15,12.29,12.29,0,0,0,1.93-2.21,11.53,11.53,0,0,0,1.68-3.71.27.27,0,0,1,0-.19,1.11,1.11,0,0,1,.28-2.11Z"/><path class="cls-3" d="M393,632.88c.1.22.21.42.31.63a12.15,12.15,0,0,1,1.28,4.94v.9a.17.17,0,0,0,.11.18,1.1,1.1,0,0,1,.35,1.52,1.08,1.08,0,0,1-.66.48c-.06,0-.09,0-.11.11a12.32,12.32,0,0,1-2.34,4.79h0a12.87,12.87,0,0,0,2.56-2.44,12.18,12.18,0,0,0,1.78-3.06,12.79,12.79,0,0,0,.75-7,12.54,12.54,0,0,0-1.09-3.37,12.83,12.83,0,0,0-2-2.94.42.42,0,0,1-.05.24A15.73,15.73,0,0,1,393,631a.14.14,0,0,0,0,.17,1.09,1.09,0,0,1,.06,1.5Z"/><path class="cls-3" d="M391.87,631l.55-.06v-.08a13.4,13.4,0,0,0,.8-2.71c.06-.31.11-.62.16-.93a.15.15,0,0,0-.06-.17,12.56,12.56,0,0,0-5.58-3.16,13,13,0,0,0-3.56-.43h-.11l.37,1.6.25.06a1.11,1.11,0,0,1,.75,1c0,.1,0,.1.11.13a12.6,12.6,0,0,1,3.36,1.78,14.1,14.1,0,0,1,2.85,2.87Z"/><path class="cls-3" d="M384.28,634.77l-.16.12a1,1,0,0,1-.47.16.21.21,0,0,0-.17.12,10.87,10.87,0,0,1-1,1.5,13,13,0,0,1-2.55,2.42.09.09,0,0,0-.09.11,10.52,10.52,0,0,0,2.38,0,11.77,11.77,0,0,0,4.29-1.28l-.06-.29a1.06,1.06,0,0,1,.15-.67c0-.09.06-.09,0-.17a12.21,12.21,0,0,0-2.25-2Z"/><path class="cls-3" d="M383.88,625.24a16.81,16.81,0,0,0-.41-1.7,12.62,12.62,0,0,0-3.63.84,12.46,12.46,0,0,0-4.28,2.8h.09a14.53,14.53,0,0,1,3.84-1.31,11.88,11.88,0,0,1,1.32-.16c.43,0,.85,0,1.28,0l1.2.11h.08A1.2,1.2,0,0,1,383.88,625.24Z"/><path class="cls-3" d="M339,634.93h.07a1,1,0,0,0,.45-.75,1.69,1.69,0,0,0,0-.55,1.46,1.46,0,0,0-.53-.8c-.12-.09-.25-.16-.38-.24h-.05a2.4,2.4,0,0,0,1.27-1.59,2.85,2.85,0,0,0-1.76-3.53,4.3,4.3,0,0,0-2.22-.21,2.5,2.5,0,0,0-.75.27.2.2,0,0,1-.27,0,2.67,2.67,0,0,0-1.6-.71,6.91,6.91,0,0,0-.91,0h-.07l.4,1.67a2.42,2.42,0,0,1,1.07,0l-.06.1a3,3,0,0,0-.61,1.91,2.33,2.33,0,0,0,.92,1.91,3.47,3.47,0,0,0,1.79.59,4.76,4.76,0,0,0,1.41,0h.18v.38a.29.29,0,0,1-.12.3,1.75,1.75,0,0,1-.29.18,3.32,3.32,0,0,1-.88.21c-.73.1-1.46.19-2.18.33a3.28,3.28,0,0,0-1,.38,1.57,1.57,0,0,0-.78,1,1.88,1.88,0,0,0,.46,1.78,3.22,3.22,0,0,0,1.11.79,5.73,5.73,0,0,0,1.51.46,9.86,9.86,0,0,0,1.63.13,5,5,0,0,0,1.87-.32,3.42,3.42,0,0,0,1.08-.62,1.71,1.71,0,0,0,.55-1.26,1.66,1.66,0,0,0-.21-.81,2.13,2.13,0,0,0-1-.9Zm-2.65,2.38a4.86,4.86,0,0,1-.54,0,2,2,0,0,1-.67-.17.75.75,0,0,1-.31-.25.39.39,0,0,1,.07-.56l0,0a.94.94,0,0,1,.22-.12,1.06,1.06,0,0,1,.25-.09l.91-.18c.56-.1,1.13-.17,1.68-.32a.08.08,0,0,1,.11,0,1,1,0,0,1,.26.73.77.77,0,0,1-.33.57,1.81,1.81,0,0,1-.63.33,3.77,3.77,0,0,1-1.06.09Zm.16-6h-.18a.9.9,0,0,1-.83-.79,1.13,1.13,0,0,1,0-.26,1.23,1.23,0,0,1,1-1.31,1.55,1.55,0,0,1,.43,0,.8.8,0,0,1,.73.61,1.56,1.56,0,0,1,0,1,1,1,0,0,1-1.15.71Z"/><path class="cls-3" d="M349.76,627.68h-.14l-2.32-.07a.18.18,0,0,0-.19.12c-.73,1.55-1.47,3.09-2.2,4.64l-.09.16a.47.47,0,0,1-.06-.15l-1.26-4-.24-.79c0-.1,0-.1-.14-.1l-2.22-.06h-.08v.15c.32.91.65,1.82,1,2.73l1.8,5a11,11,0,0,0,.92,2,5.13,5.13,0,0,0,.73,1,2.78,2.78,0,0,0,1.49.81,5,5,0,0,0,1.49.07,4.74,4.74,0,0,0,1.29-.29l.13-.06-.56-1.85H349a3,3,0,0,1-1.1.24A1.26,1.26,0,0,1,347,637a2.32,2.32,0,0,1-.51-.57,5.27,5.27,0,0,1-.55-1.18.22.22,0,0,1,0-.16c.21-.41.42-.82.62-1.23l3.08-6.09Z"/><path class="cls-3" d="M364.41,628.11c-.1,0-2-.08-2.09-.06l-.27.76-.12-.08a4.68,4.68,0,0,0-1.31-.73,4.25,4.25,0,0,0-1.46-.23,2.52,2.52,0,0,0-1.38.42,2.3,2.3,0,0,0-.92,1.34,3.45,3.45,0,0,0-.14.9c-.05,1.69-.1,3.38-.14,5.07v.1c.09,0,2.29.1,2.45.07v-.14c0-1,.05-1.92.08-2.88v-1.57a1.72,1.72,0,0,1,.1-.55.92.92,0,0,1,1-.67,3,3,0,0,1,1.58.55.11.11,0,0,1,.06.12v.12c0,1.64-.09,3.28-.14,4.92,0,.21,0,.19.19.2l2.1.06h.16Z"/><path class="cls-3" d="M327.24,629.79a.87.87,0,0,1,.33-.75,1.52,1.52,0,0,1,.61-.27,2.58,2.58,0,0,1,.68,0,4,4,0,0,1,1.48.38l.26.13.74-1.42-.11-.08a5.36,5.36,0,0,0-1.76-.7,7.63,7.63,0,0,0-1.58-.16,4.72,4.72,0,0,0-1.58.26,2.33,2.33,0,0,0-1.49,1.71,4.79,4.79,0,0,0-.11,1c0,1.2-.07,2.41-.1,3.62a6.25,6.25,0,0,1-.11,1.06v.21h1.95a.17.17,0,0,0,.18-.1c.09-.18.19-.35.3-.54l.11.09a3.25,3.25,0,0,0,1.24.67,3.11,3.11,0,0,0,2-.07,2.3,2.3,0,0,0,1.49-1.83,2.61,2.61,0,0,0,0-1.18,2.22,2.22,0,0,0-1.08-1.37,4.25,4.25,0,0,0-1.25-.45,6.67,6.67,0,0,0-1-.13l-1-.07Zm0,1.6h.07a7.66,7.66,0,0,1,1.17.07,1.4,1.4,0,0,1,.52.18.69.69,0,0,1,.31.4.79.79,0,0,1-.53,1h0a1.88,1.88,0,0,1-.71.05,1.75,1.75,0,0,1-.71-.19.17.17,0,0,1-.11-.18v-1.23Z"/><path class="cls-3" d="M354.5,629.63h1.21c0-.09.08-1.62.06-1.8h-1.22v-1.16a3,3,0,0,0-.3-1.28,2.48,2.48,0,0,0-1.31-1.18,3.85,3.85,0,0,0-1.68-.26,3.68,3.68,0,0,0-1.31.3l-.13,0,.44,1.7.17,0a2.7,2.7,0,0,1,.89-.13l.33.06a.6.6,0,0,1,.42.46.71.71,0,0,1,0,.29v1.08H350v.12c.15.53.29,1.07.44,1.6,0,.11,0,.11.15.11H352l-.16,5.91H352l2.2.06h.11v-.17c0-1.37.07-2.73.11-4.1v-1.48C354.49,629.75,354.49,629.7,354.5,629.63Z"/><path class="cls-3" d="M366.12,635.88l2.44.07v-.16c0-1.64.09-3.28.14-4.92l.06-2.49a.33.33,0,0,0,0-.14c-.1,0-2.33-.1-2.44-.08Z"/><path class="cls-3" d="M322.84,627c-.09,0-2.28-.1-2.43-.08v.15c0,1.26-.07,2.51-.1,3.76s-.07,2.43-.1,3.64a.38.38,0,0,0,0,.15c.11,0,2.33.1,2.44.07Z"/><path class="cls-37" d="M347,643.16l-.06,2.3h.79l.1-3.56h-.76a.16.16,0,0,0-.13.06L345.25,644l-.07.07a3.38,3.38,0,0,1,0-.45v-1.77a3.48,3.48,0,0,0-.79,0l-.1,3.56h.65a.19.19,0,0,0,.17-.08l1.35-1.62.39-.48.08-.09Z"/><path class="cls-37" d="M340.37,645.35a2.3,2.3,0,0,0,.78-.11,1.61,1.61,0,0,0,1.08-1.24,2,2,0,0,0-.06-1.16,1.73,1.73,0,0,0-1.41-1.15,2.12,2.12,0,0,0-1,.06,1.61,1.61,0,0,0-1.14,1.26,2.11,2.11,0,0,0,0,1,1.7,1.7,0,0,0,1.34,1.24A2.73,2.73,0,0,0,340.37,645.35Zm1.07-1.81a.76.76,0,0,1-.05.33,1.12,1.12,0,0,1-.4.66,1,1,0,0,1-1.39-.27.64.64,0,0,1-.08-.14,1.49,1.49,0,0,1,0-1.27.84.84,0,0,1,.57-.5,1,1,0,0,1,1.22.61,1.63,1.63,0,0,1,.13.58Z"/><path class="cls-37" d="M330.6,645.08a2.2,2.2,0,0,0,.72-.1,1.64,1.64,0,0,0,1.14-1.24,2,2,0,0,0-.08-1.22,1.71,1.71,0,0,0-1.39-1.1,2.12,2.12,0,0,0-1,.06,1.6,1.6,0,0,0-1.13,1.26,2.11,2.11,0,0,0,0,1,1.7,1.7,0,0,0,1.36,1.3A2.45,2.45,0,0,0,330.6,645.08Zm0-3a.93.93,0,0,1,.92.64,1.55,1.55,0,0,1,0,1.16,1,1,0,0,1-.34.43,1,1,0,0,1-1.38-.3.83.83,0,0,1-.07-.13,1.46,1.46,0,0,1,0-1.26.91.91,0,0,1,.92-.62Z"/><path class="cls-37" d="M350.16,642c0,.15-.12,3.47-.09,3.56h.79v-1.47h1.62v1.48h.8c0-.08.13-3.41.11-3.57h-.8v1.4l-1.61,0V642Z"/><path class="cls-37" d="M323.39,644.51a3,3,0,0,0,.81.31,2.91,2.91,0,0,0,1.1.07,1.68,1.68,0,0,0,1.46-1.29,1.89,1.89,0,0,0-.06-1.15,1.85,1.85,0,0,0-1.29-1.14,3.13,3.13,0,0,0-1.49,0h-.17v.7h0a2,2,0,0,1,1.24-.1,1.06,1.06,0,0,1,.85,1.06,1.25,1.25,0,0,1-.28.89,1,1,0,0,1-.8.4h-.48c-.11,0-.12,0-.11-.15V643a3.48,3.48,0,0,0-.79,0C323.42,643.07,323.38,644.38,323.39,644.51Z"/><path class="cls-37" d="M360.76,644.36h1.1a3.84,3.84,0,0,1,0,.83h-1.27a2.43,2.43,0,0,0,0,.66l2.09.06c0-.1.13-3.45.1-3.57l-2.11-.06.17.67H362a3.14,3.14,0,0,1,0,.75h-1.19Z"/><path class="cls-37" d="M355.62,643l.12,0a1.63,1.63,0,0,1,1.17-.07,1,1,0,0,1,.73.88,1.27,1.27,0,0,1-.08.72,1.05,1.05,0,0,1-1,.67,1.87,1.87,0,0,1-.8-.21l-.13-.06-.23.55h0a2.22,2.22,0,0,0,1.89.3,1.61,1.61,0,0,0,1.2-1.39,2,2,0,0,0,0-.85,1.77,1.77,0,0,0-1.19-1.23,2.49,2.49,0,0,0-1.48,0c-.26.07-.21.06-.21.27V643Z"/><path class="cls-37" d="M365.76,643.07V646h.82v-.16c0-.85.05-1.71.08-2.57v-.18h1v-.66l-3-.08.15.66Z"/><path class="cls-37" d="M335.56,644.49h-1.21a2.43,2.43,0,0,0,0,.66l2,.06c0-.08.13-3.37.11-3.57h-.79v.15c0,.86,0,1.73-.07,2.59A.49.49,0,0,1,335.56,644.49Z"/><path class="cls-37" d="M321.24,641.18h-.78c0,.08-.12,3.41-.1,3.56h.78C321.16,644.65,321.26,641.33,321.24,641.18Z"/><circle class="cls-38" cx="367.64" cy="625.47" r="1.15"/><circle class="cls-39" cx="321.73" cy="624.19" r="1.15"/><path class="cls-1" d="M368.33,524.52S334.7,623.93,309,530.78l-30.51-5.56S229.6,542,185.21,570.38L242,637.91l19-12.74S249.76,717.32,285.61,790s202.77,35.7,215-8.88c0,0,3.69-26.18-4.56-51s-39-85.41-39-85.41l19,16.09,57.59-70.88s-66.31-67.6-106.13-65C385.84,527.65,368.33,524.52,368.33,524.52Z"/><path class="cls-40" d="M500.63,781.07l-215,8.88s14.13,78.52,46.48,111.35l35.78,25-1.5,41.88,3,2,55.45,1.19,8.8-17.89,13.27,5.36,38.85-36.47-.6-2.69-20.27-14.3S505.85,834,500.63,781.07Z"/><ellipse class="cls-41" cx="344.48" cy="327.94" rx="12.97" ry="31.3"/><ellipse class="cls-42" cx="211.52" cy="316.51" rx="12.97" ry="31.3"/><path class="cls-6" d="M400.18,303.61s-35.77-34-66.18-36.67S400.18,303.61,400.18,303.61Z"/><path class="cls-6" d="M176.9,285.21s25.26-24,46.73-25.89S176.9,285.21,176.9,285.21Z"/><path class="cls-6" d="M328.08,425.84S317,449.09,275.87,439.55Z"/><path class="cls-4" d="M290.11,634.87a2.45,2.45,0,0,0-.08-.29.45.45,0,0,0-.09-.06l-.72-.19a16.24,16.24,0,0,1-5.32-2.59c-.37-.28-.73-.58-1.09-.87l-.09-.07a12.23,12.23,0,0,0,.37,3.07,15.26,15.26,0,0,0,1,2.92A16.22,16.22,0,0,0,290.11,634.87Z"/><path class="cls-4" d="M299.76,645.89l.38-.06a14.6,14.6,0,0,0,2.85-.6c.46-.15.91-.33,1.37-.49a.2.2,0,0,0,.14-.17,14.43,14.43,0,0,0,.19-1.61v-.76a1.36,1.36,0,0,1-.1-2.59,14.85,14.85,0,0,0-2-6.61,1.38,1.38,0,0,1-1.2-.17l-.14.07a14.77,14.77,0,0,1-4.55,1.64,16.81,16.81,0,0,1-3.94.29.14.14,0,0,0-.16.1,1.31,1.31,0,0,1-.89.7,1.3,1.3,0,0,1-1-.15.24.24,0,0,0-.26,0,16.1,16.1,0,0,1-4.34,1.66c-.49.12-1,.19-1.49.28h-.17a1,1,0,0,1,.07.15,15.82,15.82,0,0,0,9.1,7.56,15.33,15.33,0,0,0,2.92.62l.39.06Z"/><path class="cls-4" d="M296.5,618.18h-2a13,13,0,0,0-2.71.33,17.43,17.43,0,0,0-6.22,2.81.61.61,0,0,0-.17.19,15.37,15.37,0,0,0-2.44,5.77.45.45,0,0,1-.05.24l.14,0a22.34,22.34,0,0,1,4.17-1.28c.61-.12,1.23-.21,1.85-.28a16.35,16.35,0,0,1,2.32-.07,13.84,13.84,0,0,1,4.45.86h0a.16.16,0,0,0,.22,0,1.14,1.14,0,0,1,.64-.36,1.35,1.35,0,0,1,.49,0h.14a.18.18,0,0,1,0-.15,13.61,13.61,0,0,0,.4-2.28,16.68,16.68,0,0,0,0-2,19.84,19.84,0,0,0-.2-2.18.28.28,0,0,0-.24-.29,1.26,1.26,0,0,1-.88-.89A.68.68,0,0,0,296.5,618.18Z"/><path class="cls-4" d="M298.39,627.86a15.88,15.88,0,0,1,3.18,2.66,1.38,1.38,0,0,1,1.5.26,15.3,15.3,0,0,0,3.77-4.83l-.07-.09a1.34,1.34,0,0,1-.18-1.62c.07-.11.07-.11,0-.21a16,16,0,0,0-5.75-4.63,14,14,0,0,0-1.77-.68H299a1.42,1.42,0,0,1-.61.53,1.13,1.13,0,0,0,.05.4c0,.44.1.88.14,1.33s.07,1,.07,1.51a13.9,13.9,0,0,1-.56,4,.24.24,0,0,0,.05.23,1.28,1.28,0,0,1,.27,1.08Z"/><path class="cls-4" d="M290.13,633.8a1.38,1.38,0,0,1,1.85-.65,1.34,1.34,0,0,1,.37.25,14.19,14.19,0,0,0,4-4.68,1.46,1.46,0,0,1-.67-1.37l-.14-.06a13.7,13.7,0,0,0-2.74-.67,15.4,15.4,0,0,0-2.63-.13,17.44,17.44,0,0,0-2.4.26,20.74,20.74,0,0,0-4.81,1.47.29.29,0,0,0-.22.28c0,.39-.05.78-.08,1.17a.2.2,0,0,0,.08.19,15.76,15.76,0,0,0,7.23,3.91Z"/><path class="cls-4" d="M310.18,633.86a14.5,14.5,0,0,0-2.08-7.59h-.54c-.06,0-.08,0-.11.08s-.13.26-.2.39a15.85,15.85,0,0,1-2.87,3.84c-.28.27-.56.51-.85.77a.16.16,0,0,0-.07.18,1.33,1.33,0,0,1-.26,1v.06a15.91,15.91,0,0,1,2.2,6.93,1.38,1.38,0,0,1,1,1.66,1.35,1.35,0,0,1-.9,1l-.19,2.11a.84.84,0,0,0,.33-.19,15.33,15.33,0,0,0,2.29-2.79,14.17,14.17,0,0,0,1.95-4.62.42.42,0,0,1,.05-.24,1.37,1.37,0,0,1-.71-1.8,1.39,1.39,0,0,1,1-.8Z"/><path class="cls-4" d="M308.76,625.88l.41.76a15.85,15.85,0,0,1,1.49,4.17,14.73,14.73,0,0,1,.25,1.87v1.11a.26.26,0,0,0,.14.22,1.35,1.35,0,0,1-.31,2.5.15.15,0,0,0-.13.14,15,15,0,0,1-2.72,6v.06a16.58,16.58,0,0,0,3.06-3.09,15.66,15.66,0,0,0,2.77-12.43,15.36,15.36,0,0,0-1.45-4.11,16,16,0,0,0-2.56-3.55v.3a20,20,0,0,1-1,3.94.17.17,0,0,0,.05.2,1.34,1.34,0,0,1,.12,1.85Z"/><path class="cls-4" d="M307.23,623.66l.67-.1v-.1a17.73,17.73,0,0,0,.9-3.36c.06-.38.1-.76.16-1.14a.25.25,0,0,0-.08-.22,15.65,15.65,0,0,0-7-3.69,14.57,14.57,0,0,0-2.08-.35,15,15,0,0,0-2.32-.05h-.13l.51,2,.3.07a1.34,1.34,0,0,1,.95,1.18c0,.12,0,.12.15.16a15.16,15.16,0,0,1,4.19,2.07,17.58,17.58,0,0,1,3.61,3.44A.56.56,0,0,0,307.23,623.66Z"/><path class="cls-4" d="M298,628.5a1,1,0,0,1-.2.15,1.14,1.14,0,0,1-.56.22.23.23,0,0,0-.21.15,12.68,12.68,0,0,1-1.19,1.88,15.31,15.31,0,0,1-3,3.07c-.05,0-.13,0-.11.14a13.6,13.6,0,0,0,2.92-.1,14.32,14.32,0,0,0,5.24-1.72,2.21,2.21,0,0,0-.08-.35,1.3,1.3,0,0,1,.15-.84c.06-.1.08-.1,0-.2a15.16,15.16,0,0,0-2.82-2.36Z"/><path class="cls-4" d="M297.2,616.79c-.16-.7-.34-1.39-.56-2.07a15.38,15.38,0,0,0-9.6,4.75l.1-.05a17.73,17.73,0,0,1,4.68-1.75,15.07,15.07,0,0,1,1.62-.24,11.86,11.86,0,0,1,1.58-.08l1.48.09h.09A1.53,1.53,0,0,1,297.2,616.79Z"/><ellipse class="cls-41" cx="344.48" cy="327.94" rx="12.97" ry="31.3"/></g></g></svg>