<svg xmlns="http://www.w3.org/2000/svg" viewBox="0 0 642.37 978.78"><defs><style>.cls-1{fill:#0061ae;}.cls-2{fill:#ef3e38;}.cls-3,.cls-8{fill:none;}.cls-3{stroke:#414042;}.cls-13,.cls-3{stroke-miterlimit:10;stroke-width:2px;}.cls-4{fill:#125aa9;}.cls-5{fill:#fff;}.cls-6{fill:#c53e38;}.cls-7{fill:#5b2f15;}.cls-9{fill:#ecb67b;}.cls-10{fill:#221f1f;}.cls-11{fill:#f79420;}.cls-12{fill:#3bb44a;}.cls-13{fill:#231f20;stroke:#231f20;stroke-linecap:round;}.cls-14{fill:#020708;}.cls-15{fill:#030708;}</style></defs><g id="Layer_2" data-name="Layer 2"><g id="Layer_1-2" data-name="Layer 1"><path class="cls-1" d="M239.85,890.44a32.08,32.08,0,0,0-3.39.87c-.36.13-.65.71-.77,1.15-.75,2.82-1.38,5.68-2.16,8.49a190.2,190.2,0,0,1-30.79,63c-3.27,4.43-6.83,8.65-10.26,13-.27.34-.52.7-.8,1.07,2.52,1,24-1.35,36.34-4.36a191,191,0,0,0,34.63-11.9A192.74,192.74,0,0,0,239.85,890.44Z"/><path class="cls-1" d="M370.44,776.28c-.24-1.49-.53-3-.7-4.47A170.79,170.79,0,0,0,362.62,738c-1.75-5.46-3.87-10.8-5.8-16.2a2.25,2.25,0,0,0-2-1.66c-6.34-1-12.69-1.85-19.09-2.28-2.59-.17-5.17-.3-7.75-.45-.39,0-.78,0-1.23,0-2.62,7-7.42,11.35-15,11.58S299,725.25,296,718.35c-27.77,2.39-53.81,10-77.76,24.6a16.54,16.54,0,0,1-2,14.13c.31.59.58,1.14.88,1.67a180.92,180.92,0,0,1,19.41,53.92,197.16,197.16,0,0,1,3.07,23.23,178.21,178.21,0,0,1,.35,23.45,1.81,1.81,0,0,0,1.21,1.93,15.56,15.56,0,0,1,8.23,10.57,15.06,15.06,0,0,1-1.73,11.54,2.63,2.63,0,0,0-.07,3.06A194.41,194.41,0,0,1,267.29,938c1.33,5.81,2.22,11.71,3.3,17.57.12.61.23,1.21.39,2.08.68-.33,1.26-.59,1.82-.89A182,182,0,0,0,307.19,933a184.63,184.63,0,0,0,55.18-84,178,178,0,0,0,7.36-34.6c.17-1.56.47-3.1.71-4.64Z"/><path class="cls-1" d="M42.16,814.77c-.21,1.83-.51,3.61-.57,5.4-.2,6-.47,12-.42,18.05a153,153,0,0,0,3.92,32.11c6,26.85,17.51,51.23,33.36,73.62A8.72,8.72,0,0,0,80.61,946,183.28,183.28,0,0,0,149,974.92l2.82.52c-.24-.69-.39-1.16-.58-1.61a261.38,261.38,0,0,1-15.18-49.44c-1.44-7.23-2.5-14.52-3.26-21.85a198.8,198.8,0,0,1-.89-27.49,169.76,169.76,0,0,1,10.21-52.8,2.92,2.92,0,0,1,.14-.31,1.9,1.9,0,0,0-.52-2.64,14.71,14.71,0,0,1-4.28-7.53,13.58,13.58,0,0,1-.3-5.85,14.57,14.57,0,0,0,.13-1.64c-.62-.2-1.19-.4-1.77-.56a159.89,159.89,0,0,0-27-4.79,184.12,184.12,0,0,0-24.29-.5c-8.66.34-17.27,1.29-25.87,2.44-1.94.25-2.79.85-3.38,2.83-1.59,5.32-5.29,8.77-10.58,10.48C43.73,814.38,43.07,814.52,42.16,814.77Z"/><path class="cls-1" d="M156.79,792.38a184.35,184.35,0,0,1,31.51-37.75c-2.55-6.51-1.46-12.44,3.17-17.81-15.95-19-35.29-33.37-57.26-44.57-.36.28-.71.54-1,.83A15.94,15.94,0,0,1,114,695.15c-1.32-.76-1.33-.77-2.49.15-23.46,18.55-42.14,41-54.86,68.14a159.1,159.1,0,0,0-8.07,20.92c-.08.26-.14.53-.24.92a17,17,0,0,1,6.22,7.24l4.76-.51c5.25-.56,10.5-1.27,15.76-1.66,5.95-.44,11.91-.82,17.86-.83a164.28,164.28,0,0,1,47.46,6.55,2.66,2.66,0,0,0,2.73-.55,15.57,15.57,0,0,1,12.83-3.25C156.14,792.31,156.36,792.33,156.79,792.38Z"/><path class="cls-1" d="M227.19,890.18c-10.12-5.16-12.63-17.6-4.68-26.25-15.15-19.79-33.35-36-55.46-47.78-4.68,6-8.24,7.93-16.25,8-.22.53-.48,1.08-.69,1.65a160.34,160.34,0,0,0-8,32.38,178.33,178.33,0,0,0-1.55,31.15,200.45,200.45,0,0,0,3.08,28.5,253.18,253.18,0,0,0,17.44,57c.7,1.61,1.47,2.5,3.37,2.58,4.61.2,9.2.61,13.8,1a2.5,2.5,0,0,0,2.21-.93c22.68-24.67,38.82-52.88,46.42-85.71C227,891.22,227.08,890.73,227.19,890.18Z"/><path class="cls-1" d="M227.92,652.66c-32.47-.38-62.26,8.49-89.91,24.6,0,2.28.09,4.34.07,6.41,0,.71.4,1,.92,1.26,1.54.81,3.09,1.61,4.62,2.45a188.15,188.15,0,0,1,45.55,34c3.14,3.22,6.08,6.64,9.07,10a2.12,2.12,0,0,0,2.16.88,15.68,15.68,0,0,1,12.26,3,7.81,7.81,0,0,0,.7.41c25.18-15.36,52.75-23.4,82.05-26.07,2.55-7.81,7.61-12.56,16-12.49,7.65.05,12.47,4.39,15.18,11.25l24.94,2.21a9.89,9.89,0,0,0-2.24-3.82,181.85,181.85,0,0,0-33-27.21,168.78,168.78,0,0,0-54.77-23c-.93-.21-1.87-.36-2.87-.56-3.86,7.19-9.66,10.93-17.85,9.47C233.86,664.23,229.76,659.63,227.92,652.66Z"/><path class="cls-1" d="M133.39,669.85c3.09-1.67,6-3.3,9-4.86a185.53,185.53,0,0,1,49.4-17.65,151.87,151.87,0,0,1,22.05-3q6.58-.35,13.16-.46a2.56,2.56,0,0,0,2.61-1.55,15.85,15.85,0,0,1,21.57-6.73A15.56,15.56,0,0,1,259.28,646a1.83,1.83,0,0,0,1.63,1.58,178.74,178.74,0,0,1,70.86,32.23c.22.17.46.31.73.49-3-6.23-23.65-26.73-36.56-36.3a184.52,184.52,0,0,0-45.35-24.71,186.8,186.8,0,0,0-50.39-11.18,184.9,184.9,0,0,0-51.54,3.1A181.67,181.67,0,0,0,100,628.36C85.39,636,63.07,652,57.93,658.62c1.23.21,2.36.42,3.49.58a224.73,224.73,0,0,1,46.65,11.93,2,2,0,0,0,2.48-.58,15.8,15.8,0,0,1,21.82-1.46C132.67,669.33,133,669.56,133.39,669.85Z"/><path class="cls-1" d="M107.07,687.62c-.4-2.82-.76-5.31-1.14-8-.27-.11-.72-.33-1.19-.5a213.48,213.48,0,0,0-39.89-10.58c-4.5-.73-9-1.26-13.53-1.93a2.56,2.56,0,0,0-2.5,1A184.61,184.61,0,0,0,5,750.19,178.18,178.18,0,0,0,.92,774.8a175.26,175.26,0,0,0-.64,27.49c0,.39,0,.79.1,1.18,0,.1.1.19.21.39l23.07-6c.27-1.21.47-2.43.83-3.61a16,16,0,0,1,14-11.29c1.42-.11,1.43-.11,2-1.78a178.62,178.62,0,0,1,24.55-49.58,204.56,204.56,0,0,1,40.72-42.79C106.18,688.36,106.7,687.93,107.07,687.62Z"/><path class="cls-1" d="M164.44,796.65c.65.86,1.25,1.6,1.79,2.38a13.63,13.63,0,0,1,2.58,6.7,2.77,2.77,0,0,0,1.8,2.5,161.05,161.05,0,0,1,22.26,14,185.91,185.91,0,0,1,36.29,36.07c.44.57.69,1.5,1.72,1.3,1.28-3,.27-24.17-1.13-34.61-3.67-27.26-13.22-50.1-20.49-62.06-1.35.31-2.7.7-4.07.93a15,15,0,0,1-9.93-1.82c-1.25-.68-1.23-.9-2.45.24A173.69,173.69,0,0,0,164.9,795.8C164.75,796,164.63,796.29,164.44,796.65Z"/><path class="cls-1" d="M25.68,806.46c-8.36,1.81-16.44,3.95-24.57,6.55A183.06,183.06,0,0,0,57.38,926.84c-.2-.42-.39-.85-.61-1.25a205.73,205.73,0,0,1-20.63-55.47,176.92,176.92,0,0,1-3-19.16,149.88,149.88,0,0,1-.86-18.7c.17-5.85.66-11.68,1-17.52,0-.33,0-.66.08-1.15A17.24,17.24,0,0,1,25.68,806.46Z"/><path class="cls-2" d="M513,973l18.7-1.55S572.49,931,569.4,899.13l-14.74-9.44-38.37,35.76c0,3.37-.19,12.91-3.37,15.9-3.85,3.57-10.22,19.86-10.22,19.86S499.14,976,513,973Z"/><path class="cls-2" d="M437.83,957.16s29.31,43.08,57.45,7.61l-.38-27.37-53.69-1.16Z"/><path class="cls-3" d="M535.57,871.37l-61.2-36.91V797.15"/><path class="cls-2" d="M238.6,64.6s100.73-9,125.31,19.47C388.29,112.32,474.27,204.56,475.62,206h0c94.27,34.6,160.58,80.87,160.58,80.87s5.11,2.89,6.17-14.56c0,0-6.36-136.49-22.94-171.28C602.66,66.34,453,.22,453,.22S321.69-3.73,261.06,22.1C261.06,22.1,238.89,56,238.6,64.6Z"/><path class="cls-4" d="M288.53,100.46c-.1-.29-.1-.58-.19-.87,0-.09-.2-.19-.29-.19l-2.12-.58a47.39,47.39,0,0,1-16-7.81c-1.16-.86-2.22-1.73-3.28-2.6l-.29-.19c-.29.67.39,6.07,1.06,9.25a47.49,47.49,0,0,0,3,8.77A50,50,0,0,0,288.53,100.46Z"/><path class="cls-4" d="M317.45,133.52c.38-.09.77-.09,1.15-.19a43.73,43.73,0,0,0,8.58-1.83c1.35-.48,2.7-1,4.15-1.45a.63.63,0,0,0,.38-.48,41.68,41.68,0,0,0,.58-4.82c0-.67.1-1.35.1-1.93v-.29a4.14,4.14,0,0,1-2.8-5.11,4.35,4.35,0,0,1,2.51-2.69,43.4,43.4,0,0,0-6.27-19.67,4.16,4.16,0,0,1-3.56-.48l-.39.19a45.49,45.49,0,0,1-13.69,4.92,52.47,52.47,0,0,1-11.85.87.5.5,0,0,0-.48.29,4.28,4.28,0,0,1-2.7,2.12,3.86,3.86,0,0,1-2.9-.49.59.59,0,0,0-.77,0,48.2,48.2,0,0,1-13,5c-1.44.29-3,.58-4.43.86l-.48.1c.09.19.19.29.19.48a44.74,44.74,0,0,0,6,8.68,46.65,46.65,0,0,0,21.31,14,45.62,45.62,0,0,0,8.77,1.84c.38.09.77.09,1.15.19Z"/><path class="cls-5" d="M307.71,50.34c-.48-.1-.87-.1-1.35-.19-1.54-.1-3.08-.1-4.53-.1a38.57,38.57,0,0,0-8.1,1A51.56,51.56,0,0,0,275,59.5c-.2.19-.39.28-.49.57a47.08,47.08,0,0,0-7.32,17.35l-.1.77.39-.19a62.64,62.64,0,0,1,12.53-3.85,34.54,34.54,0,0,1,5.49-.77,55.48,55.48,0,0,1,6.94-.2,45.89,45.89,0,0,1,13.4,2.61h.1c.19.19.48.09.67-.1a3,3,0,0,1,1.93-1.06,3.7,3.7,0,0,1,1.44-.1h.39c0-.19.1-.29.1-.48a41.79,41.79,0,0,0,1.15-6.75,42.35,42.35,0,0,0,.1-6.17c-.1-2.21-.29-4.33-.58-6.55a.92.92,0,0,0-.77-.87,4,4,0,0,1-2.7-2.7A.79.79,0,0,0,307.71,50.34Z"/><path class="cls-5" d="M313.4,79.35a45.25,45.25,0,0,1,9.54,8,4.16,4.16,0,0,1,4.53.77,46.37,46.37,0,0,0,11.28-14.55l-.19-.29a3.93,3.93,0,0,1-.49-4.82c.2-.29.2-.29,0-.68a47.75,47.75,0,0,0-17.25-14,36.62,36.62,0,0,0-5.3-2l-.19-.09a4.11,4.11,0,0,1-1.84,1.54c0,.39.1.77.1,1.16.1,1.35.29,2.7.39,4,.09,1.54.19,3,.19,4.53a42.61,42.61,0,0,1-1.64,12.05.81.81,0,0,0,.1.67,4,4,0,0,1,.86,3.28A1.86,1.86,0,0,0,313.4,79.35Z"/><path class="cls-4" d="M288.63,97.18a4.2,4.2,0,0,1,5.49-2,7.76,7.76,0,0,1,1.16.77,43.78,43.78,0,0,0,12.14-14.07,4.43,4.43,0,0,1-2-4.15l-.39-.19a40.68,40.68,0,0,0-8.19-2,42.7,42.7,0,0,0-7.9-.39,63.34,63.34,0,0,0-7.23.77,62.42,62.42,0,0,0-14.46,4.44.92.92,0,0,0-.68.86c0,1.16-.19,2.32-.29,3.47a1.3,1.3,0,0,0,.2.58A47.46,47.46,0,0,0,288.14,97Z"/><path class="cls-4" d="M348.77,97.38a43.79,43.79,0,0,0-6.17-22.75H341c-.09,0-.28.09-.28.19L340.1,76a51,51,0,0,1-8.58,11.56c-.87.78-1.74,1.55-2.51,2.32a.43.43,0,0,0-.19.58,4,4,0,0,1-.77,3.08.35.35,0,0,0-.1.19,48.14,48.14,0,0,1,6.65,20.82c1.93.68,3.18,1.93,3.18,4a3.93,3.93,0,0,1-2.89,3.86l-.58,6.36a2,2,0,0,0,1-.58,44.26,44.26,0,0,0,6.84-8.39A43,43,0,0,0,348,106c0-.19.1-.48.1-.77a4,4,0,0,1-2.41-4.53A3.57,3.57,0,0,1,348.77,97.38Z"/><path class="cls-5" d="M344.43,73.47c.39.77.87,1.54,1.26,2.32a45.24,45.24,0,0,1,4.43,12.53,34.2,34.2,0,0,1,.77,5.59c.1,1.15.1,2.21.1,3.37a.64.64,0,0,0,.38.67,4.12,4.12,0,0,1,1.74,5.4v.1a3.74,3.74,0,0,1-2.6,2,.42.42,0,0,0-.39.39,44.09,44.09,0,0,1-8.19,17.93l-.1.19c1.54-.77,6.75-6,9.16-9.25a46.91,46.91,0,0,0,8.29-37.31,45.67,45.67,0,0,0-4.34-12.33c-1.93-3.67-6-9.35-7.71-10.7-.1.29-.1.58-.19.86a56.19,56.19,0,0,1-3,11.86.57.57,0,0,0,.1.67,4,4,0,0,1,.38,5.5A.28.28,0,0,1,344.43,73.47Z"/><path class="cls-5" d="M339.9,66.82l2-.29c0-.09.1-.19.1-.29a51.72,51.72,0,0,0,2.69-10.12c.2-1.15.29-2.31.49-3.37a.92.92,0,0,0-.2-.68A46.91,46.91,0,0,0,324.1,41a43.56,43.56,0,0,0-13.21-1.16h-.29l-.09.1,1.54,5.88c.29.09.58.09,1,.19a3.9,3.9,0,0,1,2.89,3.57c0,.38,0,.38.49.48a45.26,45.26,0,0,1,12.53,6.26,52.51,52.51,0,0,1,10.79,10.32Z"/><path class="cls-4" d="M312.34,81.28c-.2.19-.39.29-.58.48a3.45,3.45,0,0,1-1.74.68.73.73,0,0,0-.67.48,42.36,42.36,0,0,1-3.57,5.59,45.91,45.91,0,0,1-9.15,9.16c-.1.09-.39.19-.39.48.77.29,6.17.09,8.77-.29a43.24,43.24,0,0,0,15.71-5.21,3.65,3.65,0,0,1-.19-1.06,3.79,3.79,0,0,1,.48-2.5c.2-.29.2-.29-.09-.58a42.29,42.29,0,0,0-8.49-7Z"/><path class="cls-5" d="M309.83,46.19c-.48-2.12-1-4.14-1.64-6.26a46.63,46.63,0,0,0-28.82,14.26c.1-.09.2-.09.29-.19a52.75,52.75,0,0,1,14.07-5.2c1.64-.29,3.19-.58,4.82-.77a25.84,25.84,0,0,1,4.73-.2c1.44,0,3,.2,4.43.29H308A3.6,3.6,0,0,1,309.83,46.19Z"/><path class="cls-6" d="M85.44,119s29.3,34.21,105.45,61.78C290.26,154.82,393.5,176,475.52,206h.1c-1.35-1.45-87.33-93.69-111.71-121.94C339.42,55.64,238.6,64.6,238.6,64.6S134.6,78.39,85.44,119Z"/><ellipse class="cls-5" cx="421.26" cy="296.61" rx="2.89" ry="7.04"/><ellipse class="cls-5" cx="293.16" cy="285.62" rx="2.89" ry="7.04"/><path class="cls-7" d="M110.4,208.9s22.17,34.79,80.78,23.52c0,0,36.14-5.4,55.81-34.13s5.2,28.25-20.73,34.13,61,32.19,148.15-54.66l-.29-.09-.29-.1-1.15-.19-6-1.06c-1.35-.19-2.79-.48-4.43-.77-.77-.1-1.64-.29-2.51-.39l-4.14-.67-7.91-1.16c-39.71-5.49-114.22-12.24-156.92,7.33C190.89,180.66,171,219.79,110.4,208.9Z"/><path class="cls-7" d="M374.51,177.76l-.29-.09Z"/><path class="cls-7" d="M373.93,177.67l-1.16-.2Z"/><path class="cls-7" d="M366.8,176.41l6,1.06C371.42,177.19,369.4,176.8,366.8,176.41Z"/><path class="cls-7" d="M553.12,317.91s4.91-24.38,25.25-32S589.65,422.2,589.65,422.2h0c1.63-1.44,58.7-52.33,46.55-135.32l-.67-.49-.2-.09A21.72,21.72,0,0,1,633.5,285c-12-8.09-60.34-40.58-72.67-41.83h0S541,281.77,553.12,317.91Z"/><path class="cls-8" d="M547.62,671.56C536.15,652.76,526,621.34,526,621.34l18.31,15.52Z"/><path class="cls-9" d="M637,723a8.79,8.79,0,0,0,3.28,1.93A8.07,8.07,0,0,1,637,723Z"/><path class="cls-9" d="M262.89,555.41l1.06-5.59c11.66-11,89.83-43.57,89.83-43.57-212.92-79.32-162.6-273.83-162.6-273.83S227.32,227,247,198.29s5.2,28.25-20.73,34.13,61,32.19,148.15-54.66c73,13.79,138.9,41.45,186.32,65.45h0s-19.86,38.56-7.71,74.7c0,0,4.91-24.38,25.25-32S589.45,422.2,589.45,422.2c-41.83,50.61-96.67,74-97.06,75.48-.58,2.41,4.92,8.38,4.92,8.38A69.79,69.79,0,0,1,515.14,509c41.35,14.94,84.43,59.76,84.43,59.76,6.37,29.31-12,82.51-12,82.51L593.6,655c5.49-8.67,17.83-6.94,19.85-5.2s1.16,19.27,1.16,19.27l.29.2-.39-.2s-1.25,20.44-14.65,30.17h0c-19.85,10.32-36.53,4.53-36.53,4.53,4.34,15.62,5.4,32.49,4.44,49.16-3.67,58.8-32.87,116.82-34.41,119.62v.1l19.47,13.88.57,2.6,1,.58-38.08,35.76v-1.26L503.48,919,495,936.24v1.06l-53.59-1.15.19-1.06-2.89-1.93,1.45-40.39c-5.4-2.51-32.68-22.84-34.41-24.1l-.1-.09h0c-.58-.87-9.83-15.23-20.24-32.77s-23.9-71.43-24.58-74.32v-.1C350,747.61,341,695.85,341,695.85c-6.45-9.93-3.85-93.3-3.85-93.3L318.8,614.79c4.91,35.56-8.78,64.19-18.51,71.52s-33.83,2.6-36.44-2.6,10.9-18.7,10.9-18.7l6.45-35.19S240.43,621,234,619.7s-15.32-10.12-15.32-10.12-5.4-5.78-1.93-15.9S262.89,555.41,262.89,555.41ZM547.62,671.56l-3.28-34.7L526,621.34S536.15,652.86,547.62,671.56Z"/><path class="cls-4" d="M449.5,616.72v-.2h-.1l-.58-.19a14.13,14.13,0,0,1-4.14-2.12c-.29-.19-.58-.48-.87-.68l-.1-.09a19.58,19.58,0,0,0,.2,2.41,10.45,10.45,0,0,0,.77,2.31A13.38,13.38,0,0,0,449.5,616.72Z"/><path class="cls-4" d="M456.82,625.49h.29a16.26,16.26,0,0,0,2.22-.39,3.69,3.69,0,0,0,1.06-.38.1.1,0,0,0,.1-.1c.09-.39.09-.87.19-1.25v-.68a1.15,1.15,0,0,1-.77-1,1,1,0,0,1,.77-1,12.4,12.4,0,0,0-1.45-5.2,1.21,1.21,0,0,1-1-.19l-.1.09a11.71,11.71,0,0,1-3.56,1.16c-.49.1-1.06.1-1.55.19h-1.54c-.09,0-.09,0-.09.1-.2.29-.39.48-.68.48a.74.74,0,0,1-.77-.19h-.19a13.51,13.51,0,0,1-3.47,1.25c-.39.1-.77.1-1.16.19H445s0,.1.09.1a12,12,0,0,0,6.94,6.07,10.51,10.51,0,0,0,2.32.58h.29Z"/><path class="cls-4" d="M454.9,603.7h-.39l-1.16-.09a15.32,15.32,0,0,0-2.12.19,14.65,14.65,0,0,0-4.91,2c-.1,0-.1.1-.1.2a13.14,13.14,0,0,0-2,4.43v.19h.09c1.06-.38,2.22-.67,3.28-1,.48-.1,1-.1,1.45-.19h1.83a11.19,11.19,0,0,1,3.47.77h.19A1.9,1.9,0,0,1,455,610h.39v-.1a10.72,10.72,0,0,0,.38-1.73,9,9,0,0,0,.1-1.64c0-.58-.1-1.16-.1-1.74a.2.2,0,0,0-.19-.19,1.1,1.1,0,0,1-.67-.77C454.8,604,454.9,603.8,454.9,603.7Z"/><path class="cls-4" d="M456.15,611.32a12.86,12.86,0,0,1,2.41,2.12.91.91,0,0,1,1.15.29,13.76,13.76,0,0,0,3.09-3.67l-.1-.09a1,1,0,0,1-.09-1.25v-.2a12.9,12.9,0,0,0-4.44-3.76c-.48-.19-.86-.38-1.35-.58h-.09a1,1,0,0,1-.48.39v.29c0,.39.09.67.09,1.06v1.16a10.78,10.78,0,0,1-.48,3.08v.19a2.23,2.23,0,0,1,.29,1Z"/><path class="cls-4" d="M449.59,615.85a1,1,0,0,1,1.45-.48c.1.09.19.09.29.19a11.68,11.68,0,0,0,3.28-3.57,1,1,0,0,1-.49-1.06H454a7.82,7.82,0,0,0-2.12-.58,15.48,15.48,0,0,0-2-.19,6.6,6.6,0,0,0-1.92.19,15.77,15.77,0,0,0-3.76,1.06.22.22,0,0,0-.2.2,2.77,2.77,0,0,1-.09.86c0,.1,0,.1.09.2a11.68,11.68,0,0,0,5.59,3.18Z"/><path class="cls-4" d="M465.21,616.33a10.8,10.8,0,0,0-1.45-6h-.38a.1.1,0,0,0-.1.1l-.19.29a14.15,14.15,0,0,1-2.31,3c-.2.19-.49.38-.68.58a.31.31,0,0,0-.1.19,1,1,0,0,1-.19.77h0a11.92,11.92,0,0,1,1.54,5.49,1,1,0,0,1,.77,1.06.93.93,0,0,1-.77,1l-.19,1.64c.1,0,.19-.1.29-.2a12.54,12.54,0,0,0,1.83-2.12,12.14,12.14,0,0,0,1.64-3.56v-.2a1.09,1.09,0,0,1-.58-1.44,1.16,1.16,0,0,1,.87-.58Z"/><path class="cls-4" d="M464.25,610.06l.28.58a11.45,11.45,0,0,1,1.26,4.73v.86c0,.1,0,.2.09.2a1.07,1.07,0,0,1,.39,1.44,1.68,1.68,0,0,1-.68.48c-.09,0-.09,0-.09.1a12.18,12.18,0,0,1-2.22,4.63h0a14.2,14.2,0,0,0,2.51-2.32,15,15,0,0,0,1.73-3,12.33,12.33,0,0,0,.77-6.75,12.58,12.58,0,0,0-1.06-3.28,9.55,9.55,0,0,0-1.92-2.79c0,.09,0,.19-.1.19a17.77,17.77,0,0,1-.87,3.08v.2a1.15,1.15,0,0,1,.1,1.44Z"/><path class="cls-4" d="M463.18,608.23l.58-.09V608a12.81,12.81,0,0,0,.77-2.6c.1-.29.1-.58.2-.87,0-.1,0-.1-.1-.19a13.11,13.11,0,0,0-5.4-3.09,10.52,10.52,0,0,0-3.47-.38h-.09l.38,1.54c.1,0,.19,0,.19.1a1.17,1.17,0,0,1,.78,1c0,.1,0,.1.09.1a11.77,11.77,0,0,1,3.28,1.73,12.38,12.38,0,0,1,2.7,2.8Z"/><path class="cls-4" d="M455.86,611.9l-.19.09c-.1.1-.29.1-.49.19s-.09.1-.19.1a13.44,13.44,0,0,1-1,1.45,11.6,11.6,0,0,1-2.51,2.31.09.09,0,0,0-.09.1,9.92,9.92,0,0,0,2.31,0,10.34,10.34,0,0,0,4.14-1.26l-.09-.29a1.72,1.72,0,0,1,.09-.67c0-.1.1-.1,0-.19a7.25,7.25,0,0,0-2-1.83Z"/><path class="cls-4" d="M455.47,602.64a9.71,9.71,0,0,0-.38-1.64,13.89,13.89,0,0,0-3.47.78,11.89,11.89,0,0,0-4.15,2.69h.1a12.9,12.9,0,0,1,3.66-1.25c.39-.1.87-.1,1.26-.19h1.25l1.16.09H455Z"/><path class="cls-4" d="M412.2,612h0a.86.86,0,0,0,.48-.77v-.48a2.15,2.15,0,0,0-.48-.77.51.51,0,0,0-.39-.19h-.1a2.56,2.56,0,0,0,1.26-1.55,2.63,2.63,0,0,0-1.74-3.37,4,4,0,0,0-2.12-.19,2.21,2.21,0,0,0-.77.29.19.19,0,0,1-.29,0,2.24,2.24,0,0,0-1.54-.68h-1l.39,1.64a1.91,1.91,0,0,1,1.06,0,.1.1,0,0,1-.1.1,3.17,3.17,0,0,0-.57,1.83,2.27,2.27,0,0,0,.86,1.83,3,3,0,0,0,1.74.58,3.41,3.41,0,0,0,1.35,0h.19v.38a.34.34,0,0,1-.1.29c-.09.1-.19.1-.28.19a2.74,2.74,0,0,1-.87.2l-2.12.29a2.81,2.81,0,0,0-1,.38,1.58,1.58,0,0,0-.77,1,1.73,1.73,0,0,0,.48,1.73,4.3,4.3,0,0,0,1.06.77,8.49,8.49,0,0,0,1.45.48,8,8,0,0,0,1.54.1,6.08,6.08,0,0,0,1.83-.29,2.31,2.31,0,0,0,1.06-.58,1.26,1.26,0,0,0,.49-1.25,1.75,1.75,0,0,0-.2-.77,2.08,2.08,0,0,0-1-.87Zm-2.51,2.32h-.48a1.76,1.76,0,0,1-.68-.2c-.09-.09-.19-.09-.29-.19a.47.47,0,0,1,.1-.58h0c.1,0,.1-.09.19-.09a.35.35,0,0,0,.2-.1l.86-.19c.58-.1,1.06-.2,1.64-.29h.1a1,1,0,0,1,.29.67,1,1,0,0,1-.87.87,4.18,4.18,0,0,1-1.06.1Zm.1-5.79h-.2a.83.83,0,0,1-.77-.77v-.29a1.25,1.25,0,0,1,1-1.25h.38a.73.73,0,0,1,.68.58,1.74,1.74,0,0,1,0,1,.88.88,0,0,1-1.06.77Z"/><path class="cls-4" d="M422.61,605.05h-.1l-2.22-.09c-.09,0-.19,0-.19.09-.68,1.45-1.45,3-2.12,4.44,0,.09-.1.09-.1.19a.29.29,0,0,0-.09-.19l-1.26-3.86-.19-.77c0-.1,0-.1-.1-.1l-2.12-.09H414v.19c.29.87.58,1.73,1,2.6l1.74,4.82a7,7,0,0,0,.86,1.93,3.7,3.7,0,0,0,.68,1,2.58,2.58,0,0,0,1.44.77,7.13,7.13,0,0,0,1.45.1,3,3,0,0,0,1.25-.29l.1-.09-.58-1.74h-.1a1.91,1.91,0,0,1-1.06.19,1.5,1.5,0,0,1-.86-.29,2.49,2.49,0,0,1-.49-.57,6.63,6.63,0,0,1-.48-1.16v-.19l.58-1.16,3.09-5.69Z"/><path class="cls-4" d="M436.68,605.44l-2-.1-.29.77-.09-.09a3.25,3.25,0,0,0-1.25-.68,3.84,3.84,0,0,0-1.45-.19,2.29,2.29,0,0,0-1.35.38,1.94,1.94,0,0,0-.87,1.26,2.83,2.83,0,0,0-.09.86c-.1,1.64-.1,3.28-.1,4.92v.1l2.31.09v-.09c0-1,.1-1.83.1-2.8v-1.54c0-.19,0-.39.1-.48a1,1,0,0,1,1-.68,3,3,0,0,1,1.54.48l.1.1v.1c0,1.54-.1,3.18-.1,4.72,0,.19,0,.19.19.19l2,.1h.19Z"/><path class="cls-4" d="M400.82,607.08a1.1,1.1,0,0,1,.29-.77l.58-.29h.67a4.05,4.05,0,0,1,1.45.38l.29.1.67-1.35-.09-.1a4.52,4.52,0,0,0-1.74-.67,7.18,7.18,0,0,0-1.54-.2,4.42,4.42,0,0,0-1.54.29,2.26,2.26,0,0,0-1.45,1.64,3.55,3.55,0,0,0-.09,1c0,1.15-.1,2.31-.1,3.47a3.85,3.85,0,0,1-.1,1.06v.19H400c.1,0,.2,0,.2-.1s.19-.29.29-.48l.09.1a6.92,6.92,0,0,0,1.16.67,2.71,2.71,0,0,0,1.93-.09,2.2,2.2,0,0,0,1.44-1.74,2.28,2.28,0,0,0,0-1.16,2.14,2.14,0,0,0-1.06-1.35,6.25,6.25,0,0,0-1.15-.48,3.55,3.55,0,0,0-1-.09Zm0,1.54h0a3.87,3.87,0,0,1,1.16.1.73.73,0,0,1,.48.19c.1.09.29.19.29.38a.8.8,0,0,1-.48,1h-.1a.87.87,0,0,1-.67,0,1.71,1.71,0,0,1-.68-.2c-.09,0-.09-.09-.09-.19v-1.15Z"/><path class="cls-4" d="M427.14,606.88h1.15c0-.09.1-1.54.1-1.73h-1.16V604a2.85,2.85,0,0,0-.29-1.25,2.48,2.48,0,0,0-1.25-1.16,4.56,4.56,0,0,0-1.64-.29,2.68,2.68,0,0,0-1.25.29h-.1l.39,1.64h.19a2.59,2.59,0,0,1,.87-.1l.29.1c.19.1.38.19.38.48v1.35h-2v.1c.09.48.29,1.06.38,1.54,0,.1,0,.1.1.1h1.35l-.19,5.68h.09l2.12.1h.1v-.19c0-1.35.1-2.6.1-4V607C427.14,607.08,427.14,607,427.14,606.88Z"/><path class="cls-4" d="M438.32,613l2.31.09v-.19c0-1.54.1-3.18.1-4.72l.09-2.41v-.1l-2.31-.1Z"/><path class="cls-4" d="M396.58,604.38l-2.31-.1v.19c0,1.26-.1,2.41-.1,3.67s-.1,2.31-.1,3.47v.19l2.32.1Z"/><path class="cls-10" d="M419.91,620l-.1,2.22h.77l.1-3.47H420c-.09,0-.09,0-.09.1l-1.64,2-.1.1v-2.12h-.77l-.1,3.47h.58c.1,0,.1,0,.2-.1l1.34-1.54.39-.48.1-.2Z"/><path class="cls-10" d="M413.55,622a2.07,2.07,0,0,0,.77-.1,1.6,1.6,0,0,0,1.06-1.16,1.64,1.64,0,0,0-.1-1.15,1.82,1.82,0,0,0-1.35-1.16,1.6,1.6,0,0,0-1,.1,1.55,1.55,0,0,0-1.06,1.25,1.57,1.57,0,0,0,0,1,1.69,1.69,0,0,0,1.25,1.16C413.26,622,413.35,622,413.55,622Zm1-1.74v.29a1.58,1.58,0,0,1-.39.68,1,1,0,0,1-1.35-.29l-.09-.1a1.38,1.38,0,0,1,0-1.25,1,1,0,0,1,.58-.49,1,1,0,0,1,1.15.58,1.21,1.21,0,0,1,.1.58Z"/><path class="cls-10" d="M404.1,621.82a1.72,1.72,0,0,0,.67-.09,1.45,1.45,0,0,0,1.06-1.16,1.62,1.62,0,0,0-.09-1.16,1.74,1.74,0,0,0-1.35-1.06,1.71,1.71,0,0,0-1,.1,1.58,1.58,0,0,0-1.06,1.25,1.78,1.78,0,0,0,0,1,1.67,1.67,0,0,0,1.35,1.25A.57.57,0,0,1,404.1,621.82Zm0-2.89a.85.85,0,0,1,.87.58,2.53,2.53,0,0,1,0,1.16,1.43,1.43,0,0,1-.29.38.94.94,0,0,1-1.35-.29.09.09,0,0,0-.1-.09,1.46,1.46,0,0,1,0-1.26.74.74,0,0,1,.87-.48Z"/><path class="cls-10" d="M423,618.84c0,.19-.1,3.37-.1,3.47h.78v-1.45h1.44v1.45h.77c0-.1.1-3.28.1-3.47h-.77v1.25h-1.54v-1.25Z"/><path class="cls-10" d="M397.16,621.25c.29.09.48.19.77.28a3.81,3.81,0,0,0,1.06.1,1.78,1.78,0,0,0,1.45-1.25,1.67,1.67,0,0,0-.1-1.16,1.56,1.56,0,0,0-1.25-1.06,3.54,3.54,0,0,0-1.45,0h-.19v.68h0a1.54,1.54,0,0,1,1.15-.1,1,1,0,0,1,.87,1.06,1.51,1.51,0,0,1-.29.87.86.86,0,0,1-.77.38h-.48c-.1,0-.1,0-.1-.19V619.8h-.77A7.08,7.08,0,0,1,397.16,621.25Z"/><path class="cls-10" d="M433.21,621.15h1.06v.77H433v.67l2,.1c0-.1.1-3.37.1-3.47l-2-.1.19.68h1.06v.77h-1.15v.58Z"/><path class="cls-10" d="M428.2,619.8h.09a1.67,1.67,0,0,1,1.16-.1.94.94,0,0,1,.67.87,1.8,1.8,0,0,1-.09.68,1.18,1.18,0,0,1-1,.67,1.94,1.94,0,0,1-.77-.19l-.09-.1-.2.48h0a2,2,0,0,0,1.83.29,1.53,1.53,0,0,0,1.16-1.35,1,1,0,0,0,0-.77,1.75,1.75,0,0,0-1.16-1.16,1.89,1.89,0,0,0-1.44,0c-.29.1-.19.1-.19.29v.39Z"/><path class="cls-10" d="M438,619.9v2.79h.77v-.19a21.92,21.92,0,0,1,.1-2.51v-.19h1v-.68L437,619l.09.67Z"/><path class="cls-10" d="M408.92,621.25h-1.16v.67l1.93.1c0-.1.1-3.28.1-3.47H409v.19a23.4,23.4,0,0,1-.09,2.51Z"/><path class="cls-10" d="M395,618.06h-.77c0,.1-.1,3.28-.1,3.47h.77A21.15,21.15,0,0,0,395,618.06Z"/><circle class="cls-11" cx="439.76" cy="602.93" r="1.16"/><circle class="cls-12" cx="395.52" cy="601.68" r="1.16"/><path class="cls-2" d="M440.44,505.58s-32.39,95.81-57.26,6.07l-29.4-5.4s-47.13,16.2-89.83,43.57l54.75,65.06L337,602.64s-10.79,88.78,23.71,158.85S556.2,795.9,568,752.91c0,0,3.57-25.25-4.44-49.16s-37.59-82.31-37.59-82.31L544.25,637l55.52-68.34S535.86,503.46,497.5,506C457.31,508.66,440.44,505.58,440.44,505.58Z"/><path class="cls-13" d="M568,752.91l-207.24,8.58s13.6,75.66,44.82,107.28l34.51,24.1-1.44,40.38,2.89,1.93L495,936.34l8.49-17.26,12.81,5.21,37.4-35.18-.58-2.6-19.56-13.79C533.55,872.63,573.07,803.9,568,752.91Z"/><ellipse class="cls-14" cx="417.5" cy="316.08" rx="12.53" ry="30.17"/><ellipse class="cls-15" cx="289.3" cy="305.09" rx="12.53" ry="30.17"/><path class="cls-7" d="M471.19,292.66s-34.51-32.77-63.81-35.38S471.19,292.66,471.19,292.66Z"/><path class="cls-7" d="M256,274.92s24.39-23.13,45-25S256,274.92,256,274.92Z"/><path class="cls-7" d="M401.69,410.44s-10.7,22.37-50.32,13.21Z"/><path class="cls-5" d="M365.06,612a.38.38,0,0,0-.09-.29s-.1,0-.1-.09l-.68-.2a14.88,14.88,0,0,1-5.1-2.5c-.39-.29-.68-.58-1.06-.87l-.1-.1a10.9,10.9,0,0,0,.38,3,13.83,13.83,0,0,0,1,2.8A13.85,13.85,0,0,0,365.06,612Z"/><path class="cls-5" d="M374.41,622.59l.39-.09a14.58,14.58,0,0,0,2.79-.58c.48-.19.87-.29,1.35-.48.1,0,.1-.1.1-.19a9.12,9.12,0,0,0,.19-1.55v-.77a1.32,1.32,0,0,1-1-1.25,1.24,1.24,0,0,1,.86-1.25,13.64,13.64,0,0,0-1.92-6.37,1.27,1.27,0,0,1-1.16-.19l-.1.1a14.68,14.68,0,0,1-4.33,1.54,25.16,25.16,0,0,1-3.76.29c-.1,0-.1,0-.2.1a1.24,1.24,0,0,1-.86.67,1.2,1.2,0,0,1-1-.19.18.18,0,0,0-.29,0A17.18,17.18,0,0,1,361.4,614l-1.45.29h-.19a.31.31,0,0,1,.1.19,15.34,15.34,0,0,0,8.77,7.32,13.86,13.86,0,0,0,2.79.58l.39.1Z"/><path class="cls-5" d="M371.23,595.9H369.3a12.17,12.17,0,0,0-2.6.28,17.06,17.06,0,0,0-6,2.7l-.19.2a14.12,14.12,0,0,0-2.31,5.59v.19h.09a18.19,18.19,0,0,1,4.05-1.25c.58-.1,1.16-.2,1.83-.29a16.57,16.57,0,0,1,2.22-.1,11.59,11.59,0,0,1,4.34.87h0c.1.09.19.09.19,0a2.19,2.19,0,0,1,.58-.39h.58v-.19a14.66,14.66,0,0,0,.38-2.22v-1.92a15.32,15.32,0,0,0-.19-2.13c0-.09-.1-.28-.19-.28a1.33,1.33,0,0,1-.87-.87Z"/><path class="cls-5" d="M373.06,605.25a13,13,0,0,1,3.09,2.6,1.31,1.31,0,0,1,1.44.29,14.29,14.29,0,0,0,3.67-4.63l-.1-.1a1.3,1.3,0,0,1-.19-1.54c.09-.09.09-.09,0-.19a14.1,14.1,0,0,0-5.59-4.44,13.81,13.81,0,0,0-1.74-.67h0a1.43,1.43,0,0,1-.58.48v.39c0,.38.1.87.1,1.25s.09,1,.09,1.45a13,13,0,0,1-.57,3.85v.19a.88.88,0,0,1,.38,1.07Z"/><path class="cls-5" d="M365.06,610.93a1.42,1.42,0,0,1,1.83-.67c.1.09.29.19.39.29a12.55,12.55,0,0,0,3.85-4.53,1.46,1.46,0,0,1-.67-1.35l-.1-.1a24.21,24.21,0,0,0-2.6-.67,10.75,10.75,0,0,0-2.51-.1,9.62,9.62,0,0,0-2.31.29,18.77,18.77,0,0,0-4.63,1.44c-.09,0-.19.1-.19.29A5,5,0,0,1,358,607c0,.1,0,.1.09.19a14.91,14.91,0,0,0,6.94,3.76Z"/><path class="cls-5" d="M384.44,611a14,14,0,0,0-2-7.33h-.48c-.1,0-.1,0-.1.1a.66.66,0,0,1-.19.38,14.91,14.91,0,0,1-2.79,3.67c-.29.29-.58.48-.87.77-.1,0-.1.1-.1.19a.92.92,0,0,1-.29,1v.09a14.91,14.91,0,0,1,2.12,6.65,1.36,1.36,0,0,1,1,1.64,1.47,1.47,0,0,1-.87,1l-.19,2c.09,0,.19-.1.29-.19a15.15,15.15,0,0,0,4.14-7.14v-.19a1.3,1.3,0,0,1-.67-1.73c.28-.58.67-.87,1.06-.87Z"/><path class="cls-5" d="M383.09,603.32l.38.77a14.27,14.27,0,0,1,1.45,4,11.3,11.3,0,0,1,.19,1.83V611a.35.35,0,0,0,.1.19,1.34,1.34,0,0,1,.58,1.74,1.59,1.59,0,0,1-.87.67.1.1,0,0,0-.1.1,15.69,15.69,0,0,1-2.6,5.78v.1a14.61,14.61,0,0,0,3-3,15.62,15.62,0,0,0,2.7-12,15.36,15.36,0,0,0-1.45-4,12.35,12.35,0,0,0-2.51-3.37v.29a16.61,16.61,0,0,1-1,3.76v.19a1.24,1.24,0,0,1,.1,1.74Z"/><path class="cls-5" d="M381.54,601.2l.68-.1V601a19.4,19.4,0,0,0,.87-3.27c.09-.39.09-.77.19-1.06,0-.1,0-.2-.1-.2a15.28,15.28,0,0,0-6.74-3.56,7.12,7.12,0,0,0-2-.29,8.25,8.25,0,0,0-2.22,0h-.09l.48,1.93.29.09a1.49,1.49,0,0,1,1,1.16c0,.1,0,.1.1.19a15.85,15.85,0,0,1,4.05,2,16.15,16.15,0,0,1,3.47,3.27C381.45,601.1,381.54,601.1,381.54,601.2Z"/><path class="cls-5" d="M372.68,605.82l-.2.2a1.42,1.42,0,0,1-.57.19.21.21,0,0,0-.2.19,7.31,7.31,0,0,1-1.15,1.83,17.16,17.16,0,0,1-2.9,3,.09.09,0,0,0-.09.1,13.46,13.46,0,0,0,2.79-.1,13.31,13.31,0,0,0,5-1.64c0-.09-.1-.19-.1-.29a1.83,1.83,0,0,1,.1-.77c.09-.09.09-.09,0-.19a15.7,15.7,0,0,0-2.7-2.31Z"/><path class="cls-5" d="M371.91,594.55a17.18,17.18,0,0,0-.58-2,14.79,14.79,0,0,0-9.26,4.63h.1a18.64,18.64,0,0,1,4.53-1.74,9,9,0,0,1,1.54-.19,8,8,0,0,1,1.54-.1l1.45.1h.1A1,1,0,0,1,371.91,594.55Z"/><ellipse class="cls-14" cx="417.5" cy="316.08" rx="12.53" ry="30.17"/></g></g></svg>