<svg xmlns="http://www.w3.org/2000/svg" viewBox="0 0 64 64" id="top-rated"><path d="M49.06,60.57a4,4,0,0,1-2.17-1,3.72,3.72,0,0,0-1.1-.62,3.69,3.69,0,0,0-1.09.62,3.29,3.29,0,0,1-2.66.89,1.94,1.94,0,0,1-.87-.5H13a5,5,0,0,1-5-5V9a5,5,0,0,1,5-5H31.34a5,5,0,0,1,3.54,1.46l9.66,9.66A5,5,0,0,1,46,18.67V29a1,1,0,0,1-2,0V18.67a3,3,0,0,0-.88-2.12L33.46,6.89A3,3,0,0,0,31.34,6H13a3,3,0,0,0-3,3V55a3,3,0,0,0,3,3H40a2.09,2.09,0,0,0-.44-.69,3.72,3.72,0,0,0-1.22,0,3.33,3.33,0,0,1-2.78-.57A3.33,3.33,0,0,1,35,54a3.77,3.77,0,0,0,0-1.22,4.26,4.26,0,0,0-1-.6c-.88-.41-1.87-.87-2.15-1.9a3.31,3.31,0,0,1,.89-2.65,3.51,3.51,0,0,0,.62-1.1,3.51,3.51,0,0,0-.62-1.1,3.3,3.3,0,0,1-.89-2.65c.28-1,1.27-1.49,2.15-1.9a4.26,4.26,0,0,0,1-.6A3.77,3.77,0,0,0,35,39a3.33,3.33,0,0,1,.57-2.78,3.33,3.33,0,0,1,2.78-.57,3.72,3.72,0,0,0,1.22,0,3.72,3.72,0,0,0,.6-1c.41-.88.87-1.88,1.9-2.15a3.3,3.3,0,0,1,2.66.89,3.69,3.69,0,0,0,1.09.62,3.72,3.72,0,0,0,1.1-.62,3.28,3.28,0,0,1,2.66-.89c1,.27,1.49,1.27,1.89,2.15a4,4,0,0,0,.6,1,3.78,3.78,0,0,0,1.23,0,3.33,3.33,0,0,1,2.78.57A3.32,3.32,0,0,1,56.61,39a3.72,3.72,0,0,0,0,1.22,4.08,4.08,0,0,0,1,.6c.87.41,1.87.87,2.14,1.9a3.27,3.27,0,0,1-.89,2.65,3.72,3.72,0,0,0-.62,1.1,3.72,3.72,0,0,0,.62,1.1,3.28,3.28,0,0,1,.89,2.65c-.27,1-1.27,1.49-2.14,1.9a4.08,4.08,0,0,0-1,.6,3.72,3.72,0,0,0,0,1.22,3.32,3.32,0,0,1-.56,2.78,3.33,3.33,0,0,1-2.78.57,3.78,3.78,0,0,0-1.23,0,4,4,0,0,0-.6,1c-.4.88-.87,1.88-1.9,2.15A2,2,0,0,1,49.06,60.57Zm-10-5.3a2.77,2.77,0,0,1,1.45.33A3.84,3.84,0,0,1,42,57.52a3.47,3.47,0,0,0,.63,1.06,5.6,5.6,0,0,0,1-.6,4.13,4.13,0,0,1,2.24-1A4.1,4.1,0,0,1,48,58a3.94,3.94,0,0,0,1,.59,5.24,5.24,0,0,0,.57-1A4,4,0,0,1,51,55.6a4,4,0,0,1,2.4-.27,3.66,3.66,0,0,0,1.21,0,5.44,5.44,0,0,0,0-1.18,4.07,4.07,0,0,1,.27-2.39,4.05,4.05,0,0,1,1.92-1.41,3.92,3.92,0,0,0,1.07-.62,5.8,5.8,0,0,0-.61-1,4.13,4.13,0,0,1-1-2.24,4.13,4.13,0,0,1,1-2.24,3.67,3.67,0,0,0,.59-1,5.24,5.24,0,0,0-1-.57,4.05,4.05,0,0,1-1.92-1.41,4.09,4.09,0,0,1-.27-2.4,3.66,3.66,0,0,0,0-1.21,5.34,5.34,0,0,0-1.17,0A4,4,0,0,1,51,37.4a4,4,0,0,1-1.41-1.92A3.69,3.69,0,0,0,49,34.42a5.6,5.6,0,0,0-1,.6,4.1,4.1,0,0,1-2.24,1,4.13,4.13,0,0,1-2.24-1,3.79,3.79,0,0,0-1-.59,5.24,5.24,0,0,0-.57,1,3.84,3.84,0,0,1-1.41,1.92,4,4,0,0,1-2.39.27,3.72,3.72,0,0,0-1.22,0,5.59,5.59,0,0,0,0,1.18,4.15,4.15,0,0,1-.27,2.39,4,4,0,0,1-1.93,1.41,3.74,3.74,0,0,0-1.06.63,6.84,6.84,0,0,0,.6,1,4.13,4.13,0,0,1,1,2.24,4.13,4.13,0,0,1-1,2.24,4.26,4.26,0,0,0-.59,1,5.89,5.89,0,0,0,1.05.57,4,4,0,0,1,1.93,1.41,4.17,4.17,0,0,1,.27,2.4,3.71,3.71,0,0,0,0,1.21,5.43,5.43,0,0,0,1.18,0C38.45,55.3,38.77,55.27,39.09,55.27Zm6.7-.27a8.5,8.5,0,1,1,8.5-8.5A8.51,8.51,0,0,1,45.79,55Zm0-15a6.5,6.5,0,1,0,6.5,6.5A6.51,6.51,0,0,0,45.79,40Zm2.1,10.85a1.6,1.6,0,0,1-.77-.19L45.88,50l-1.25.65a1.65,1.65,0,0,1-2.39-1.74l.24-1.38-1-1a1.65,1.65,0,0,1,.91-2.81l1.39-.2.62-1.26h0a1.63,1.63,0,0,1,1.48-.92h0a1.62,1.62,0,0,1,1.47.92L48,43.55l1.39.2a1.65,1.65,0,0,1,.92,2.81l-1,1,.24,1.38a1.65,1.65,0,0,1-.66,1.61A1.63,1.63,0,0,1,47.89,50.85Zm-4.51-5.22.63.61a1.63,1.63,0,0,1,.47,1.45l-.15.87.78-.41a1.65,1.65,0,0,1,1.53,0l.78.41-.15-.87a1.63,1.63,0,0,1,.47-1.45l.63-.61-.87-.13a1.68,1.68,0,0,1-1.24-.9l-.38-.79-.39.79a1.66,1.66,0,0,1-1.24.9Zm2.81-2.46ZM29,50H16a1,1,0,0,1,0-2H29a1,1,0,1,1,0,2Zm-3-7H16a1,1,0,0,1,0-2H26a1,1,0,1,1,0,2Zm4-7H16a1,1,0,0,1,0-2H30a1,1,0,1,1,0,2Zm6-7H16a1,1,0,1,1,0-2H36a1,1,0,0,1,0,2Zm-4-7H16a1,1,0,1,1,0-2H32a1,1,0,0,1,0,2Zm8-3H36a5,5,0,0,1-5-5V10a1,1,0,1,1,2,0v4a3,3,0,0,0,3,3h4a1,1,0,0,1,0,2ZM27,15H16a1,1,0,0,1,0-2H27a1,1,0,0,1,0,2Z"></path></svg>